<svg xmlns="http://www.w3.org/2000/svg" data-name="Calque 1" viewBox="0 0 581.08 539.04">
  <path d="M418.76 151.93c4.83-4.53 10.28-8.55 14.37-13.67 17.22-21.54 41.07-33 65.29-44 2.31-1.06 6.23-2.5 7 .47 2.62 9.68 8.74 7.1 15.34 5.86 5.15-1 10.56-.57 15.85-.64 2.79 0 6 1 6.72 3.45 2.95 9.51 12.58 11.33 18.73 17.08 3.63 3.4 3.8 6.35.37 10.07-2.67 2.9-.55 4 2.35 5.34 12.47 5.68 17.88 15.54 15.86 28-.85 5.23-1.64 10.47-2.46 15.71-9.92-1.63-20.8-.22-28.49-9-4.87-1.15 11.29-13-4.36-8.6-6.07 1.71-11.48 5.82-18.26 5-5.85-1.15-10.89-5.79-17.45-4a11.37 11.37 0 01-7.63-2.57 8 8 0 01-.56-5.37c2.61-5.93 8.54-7.16 12.34-9.52-4.21.95-9.73 3.59-15.1-.52a7.67 7.67 0 01-1.55-5.31c5.37-12.29 17.6-13.69 28.14-17.74 4.79-1.21 7.93 3 12 3.68 1.45 1 2.17.65 2-1.09-.89 1.28-2 1.43-3.4.41-3.8-13.38-13.35-12.9-23.87-10-8.32 1.34-17.48.18-23.59 8-11.74 6.51-21.68 15.74-33.5 22.14-5.5-.49-6.86-3.67-5.64-8.5a8.7 8.7 0 01-.37-1.56s-.62 1.56-.7 1.68c-5.9 9.07-12.41 17.27-22.78 21.36-3.88-.3-7.87-.44-6.65-6.16z" fill="#b5a185"/>
  <path d="M265.49 519.57l4.94-11.43c-1.95-2.88-5.66-2.05-8.11-3.86l-11.47-.18c-6.27 2.73-12.4 2.59-18.35-.8a11.1 11.1 0 01-2.4-2.65c0 .14-1.33-.74-1.27-.61a28 28 0 00-1.91 2.32 5.79 5.79 0 01-2.56 1.87l-1.53.46-13.6-1.91c-.51-8 9.25-6.84 10.7-13.09.89-3.83 3.48-7.26-1.35-10.08-2.74-1.94-7.25-.4-8.9-4.5 0-3.05 1.78-4.85 4.4-6a12.84 12.84 0 017.83.21c3.37-2.26 3.64 12.93 8.64 1.5a7.13 7.13 0 015.06.34 14 14 0 014.81 9.2c-.4 4.22-2.1 8.69 2.42 11.92 7.91 9.4 18 1.43 26.75 4.37-8.93-2.91-19.55 4.95-27.31-5.28a4.51 4.51 0 01.61-5.06c4.67-3.67 10.39-3.59 15.83-4.47 11.94-4.92 26.18-4.17 35.85-14.62 13.54-18.62 13.54-18.62-10.41-28.1-5.44-4.66-15-5.9-13.73-16.2 5.31-5 12.49-5.09 18.89-7.23a30.71 30.71 0 0114 .48 17.88 17.88 0 014.64 2.43c1.91 1.51 3.7 3.22 5.71 4.63 1.38.68 2.76 1.39 4.18 2 4.78 1.9 9.28.36 13.78-1.18 11.51-2.15 19.16-10.19 27.19-17.64a13.79 13.79 0 015.22-1.21 14.8 14.8 0 019.43 4.42c.44.75.87 1.52 1.3 2.29-1.53 2-2.62 4.91-4.65 6-14.58 7.49-24.51 19.12-31.48 33.65-.82 1.71-2.36 3.07-3.56 4.6-8.31 1.22-16 3.39-18.86 12.66-1.21 3.47-2.56 6.94 1.74 9.44 3.27 2.29 6.68 4.5 4.59 9.36-7.48 6.13-12.41 15.87-23.66 16.63a6.49 6.49 0 01-2.25-4.94c-.26-3.1 3.55-3.48 3.88-6.12-1.69 1.83-5.11 2-5.49 4.93s2.31 4.22 4 6c-6 10.1-15.94 16.21-24.61 23.58-7.31 2.04-7.35-3.9-8.93-8.13z" fill="#b09b7c"/>
  <path d="M242.2 420.64c-6.84-5.16-13.7-10.29-20.52-15.48-6.37-4.86-12.85-9-21.4-9.17-8.75-.17-16.68-3.91-24.39-7.67-14.83-7.24-29.64-14.53-44.16-22.37-7.52-4.06-14.75-8.85-20.41-15.52-11.1-13.07-21.24-26.8-29.07-42.13-2-3.05-.24-4.87 2.14-6.49 11.2-3.67 12.3 7 17.27 12.16 4 5.55 7.6 11.33 12.55 16.11 8.71 8.6 16.39 18.33 27.34 24.37a24.61 24.61 0 014.39 2.49c3.83 6 5.1-5.77 8.71-1.31 2.88 1.63 4.78 4.2 6.55 6.87 2.17 3 3.88 6.44 8 7.39 1.58.13 3.13.25 4.71.28 6-.32 11.66.88 17.3 2.49a16.31 16.31 0 014.34 2.26c1.8 1.41 3.62 2.81 6 3.14 2.33-.06 4.65-.16 7 0a9.17 9.17 0 014.34 2.06c3.43 3.59 6.33 7.67 10.14 10.92 6.26 7.29 14.93 8.71 23.72 9.8a28 28 0 015.21 1c5.14 2.81 12.43 1.41 15.72 7.89a9.08 9.08 0 00.48 8.38 6.05 6.05 0 01-2.83 4.08c-8.01 3.81-15.33-2.48-23.13-1.55z" fill="#b19c7d"/>
  <path d="M567.11 207.72c.5 13.19-3.22 25.19-11.88 35-6 6.86-13.31 12.63-20.08 18.83-2.66 2.44-6.09 2.38-9.41 2.52-16.32.67-28.07 7.24-32 24.34-.58 2.52-2.35 4.76-3.57 7.13a3.44 3.44 0 01-4.93.13c-3.71-4.84-4.43-10.54-4.72-16.36 1.08-8.53 8.09-11.3 14.77-14.4 2-1.56-2.3-2.18-.87.07.24.37-.32.67-1.48 1.28-2.4 1.26-5 1.51-7.62 2-5.08.86-9.84.21-14.15-2.79a6.45 6.45 0 01-1.94-5.42c5.52-11 16.49-13.35 26.68-17 3.71-.77 7.4-1.69 11.15-2.33a15.89 15.89 0 018.09 1.19c6.79 5.52 12.64 7 15.72-3.65 4.31-4.31 11.8-2.7 15.27-8.32-4.1-9.72-19.89-4.84-21.62-17.36a11.24 11.24 0 01.45-8 6.85 6.85 0 014.4-2.68c6.1 0 11.19 4.14 17.28 4.2a10.28 10.28 0 008.65-3.65c4-2.7 6.72-12.49 13.23-2.65.06 2.81.28 5.54-1.42 7.92z" fill="#b29e80"/>
  <path d="M243 139.58c11.63-1.18 22.16 1.81 32 8 18.34 11.54 38.12 17.58 60.09 16.45 15.17-.77 30 3.85 45.32 3.53 10.92-.23 20.91-1.84 30-8.05 9.74 1.26 3.53 6.22 2.36 10-2.73 2.94-9.07 3.67-9.64 5.16-6.18 16.1-16.5 8.53-26.15 5.42-5.83-3.54-12.33-2.68-18.68-2.76a77.83 77.83 0 01-8.22.18c-6.16-.11-12.33-.7-18.39.56-4.89 5.28-.53 16.55-12.07 17.7-11.19 1.11-18.78-4.26-25.46-12-6.19-7.21-7.83-18.6-19.3-20.92a166.22 166.22 0 01-16.69-8c-4.37-2.87-8.89-5.42-14.07-6.63-2.66-1-5-2.39-6.35-5 .36-3.22 1.36-5.57 5.25-3.64z" fill="#b7a58a"/>
  <path d="M242.2 420.64c2.3-3.74 5.74-5.2 9.75-3.74 4.84 1.77 9.63 3.21 14.83 2.91a4.62 4.62 0 013.86 4.28l16 11.75c1 5-5.87 8.89-1.38 14.53 13.31 16.75 12.8 17.8-8.84 21.42-9.1-3.84-14.89.25-19.12 8-3.68 4.41-9.67 4.25-14.12 7.18l-.47 4.95v-.06a23.58 23.58 0 01-3.77-.18c-7.68-1.57-8-2.79-2.67-9.07.81-.95 1.54-2 2.31-3-2.71-6.31 5.13-7.95 5.62-12.84.56-6.44-5.22-12.36-1.61-19 5.64-6 13.66-9.75 18.24-18.25-6.5-3.25-15.07-1.34-18.63-8.88z" fill="#af9a7b"/>
  <path d="M86.68 303.8c-1.48 1.5-3 3-4.42 4.5-1.87-2.71-4.31-5.19-5.5-8.16-11.1-27.68-24-54.76-28.37-84.71-.38-2.62-1.38-5.26-1.23-7.84C48.19 189.8 49 172 54 154.68c5.74 3.19 5.53 9.29 7.15 14.5a35.89 35.89 0 01.75 5.45c.25 6.32 1.75 12.58 1.31 19-3.85 12.76.25 24.92 2.94 37.17 1.23 3.8.69 8.55 3 11.46 13.42 16.56 19.71 35.36 19.36 56.55a7 7 0 01-1.83 4.99z" fill="#bdad94"/>
  <path d="M474.23 315.39c-8.06 5.67-14.22 13.52-22.76 18.84-5.35 3.33-9.4 9.17-13.17 14.5-6.95 9.82-14.95 18.16-25.42 24.41a73.26 73.26 0 00-27.27 28c-2.5 4.55-5 9.39-10.86 10.74v.12c-5-5.49-1.88-11-.12-16.53 4.2-11.56 10.59-21.61 21.38-28 6.31-3.76 8.81-9.68 10.95-16 13.56-9.7 27.79-18.61 38.73-31.6 6.56-2.79 12-8 19.11-9.46 4.11-.91 9.6-2.8 9.43 4.98z" fill="#b5a286"/>
  <path d="M567.41 200.81c-1.32-1.64-2.92-2.94-4.54-.65-1.89 2.64-3.36 5.58-5 8.39-3.73.43-8.09-1.41-10.76 2.94-6.8-.18-12.56-2.42-16.47-8.32 6-12.78 19.37-11.65 28.72-15.88a114.81 114.81 0 00-22.8 7.88c-7.44 3.51-13.25-.07-16.82-5.93-4.68-7.67 1.42-12.59 7.08-15.74 7.23-4 14.63-9.36 23.88-5.56 3.26 4.4 8.12 4.23 12.6 3.74 7-.78 10.85 3.56 14.93 7.85.13 2.75.27 5.49.41 8.24-2.46 2.11-1.61 5.94-4.15 8l-3.69 4.4a2.27 2.27 0 01-3.39.64z" fill="#c0b099"/>
  <path d="M243 139.58l-4.14 3.5c-9.57 6.17-19.1 12.79-30.45 3.47a39 39 0 01-4.56-10.14c-5.14-13.15-19.51-15.6-28.39-24.38a29.63 29.63 0 01-4.26-3.57c-7-9.66-15.46-18.1-23-27.31-7.64-13.82-22.42-21.36-30.61-34.7-.19-3.37 1.7-5.08 4.73-5.86C135.93 48 146.66 59 155.3 71.23c21.26 30.12 50 50.05 82.83 65a31.8 31.8 0 014.87 3.35z" fill="#c1b29b"/>
  <path d="M474.23 315.39c-2.55-3.38-5.39-2.16-8.7-1.07-6.85 2.25-11 10-19.22 9.25-1.68-3.07-2.32-7.34-.22-9.21 13-11.6 18.77-26.14 19.19-43.21 5.77-5.89 14.22-3.73 20.89-6.92 2.51 0 5.07-.42 7.5 0a2.41 2.41 0 011.48 4.11c-3.63 4.25-10 5.43-12.5 11 5.94 4.54-3.49 12.18 3.32 16.54l4.21-.33c-2.93 8.55-6.65 16.45-15.95 19.84z" fill="#c7b9a5"/>
  <path d="M122.28 40.59L118 44.26c-6.7 6.05-14.19 2.64-20.74.6a81.84 81.84 0 00-41.1-2.36 8 8 0 01-6.6-4.5C49 31.77 53 27.06 55 21.73c.68-1.76 1.49-3.57-1.3-4.45-3.21-.96-5.7 1.64-8.7 1.72a10.31 10.31 0 01-7.3-2.63 4.09 4.09 0 01.59-4.89c2.45-1.71 5.56-1.44 8.14-2.72 2.13-1.6 4.16-3.36 6.4-4.77 10.2-6.42 14.75-5.6 17.34 5.56C73.14 22.21 80 28.68 92.28 31.33c5.75 1.24 11.14 4.29 17.29 4.23 4.9-.05 9.03 1.94 12.71 5.03z" fill="#b6a387"/>
  <path d="M322.53 487.54a14 14 0 00-7.29-7.58c-3.3-3.44-1.13-8.95-4.65-12.31 2-3.27 3.51-6.86 5.93-9.74 7.07-8.4 7.51-8.32 18.54-1.83-.4 1.92-.67 3.88-1.24 5.76-.87 2.92-.35 5.36 2.84 5.92 4.5.78 9.12.87 13.65 1.57a3.73 3.73 0 012.29 2.58 3.9 3.9 0 01-1.26 3.24 36.05 36.05 0 01-6.93 3.71c-7.26 2.98-14.58 5.8-21.88 8.68z" fill="#b7a589"/>
  <path d="M58.36 171.78c-5.58-4.65-2.9-11.4-4.37-17.1.17-2.64.4-5.28.52-7.92.69-15.3-1.27-18.24-15.87-22.13-3.22-.86-6.46-1.1-8.58-4.06-1.59-2.68-.07-4.85 1.12-7.08a20.06 20.06 0 017.56-7 8.52 8.52 0 015.19.65c4.23 3.18 7.48 7.65 12.73 9.35a29.13 29.13 0 007.23.41 15.37 15.37 0 015 .66 6.89 6.89 0 013.42 3.63 12.26 12.26 0 01-.46 5.28C67.06 135 67.39 144 69 153.16a21.36 21.36 0 01.1 5.3 23.08 23.08 0 01-2.78 7.32c-1.93 2.97-4.11 5.6-7.96 6z" fill="#b7a58a"/>
  <path d="M27 103.76c-6.89-3.25-12.43 2-18.65 3-4.75.75-9.27-3.63-8.15-8.35 2.2-9.19 6.7-17.06 14.26-23a10.48 10.48 0 013.56 3c1.68 2.43 3.17 5.07 6.1 6.3.64.33 1.26.71 1.89 1a12.77 12.77 0 013 2.75c1.65 1.88 3.75.59 5.71.7a7.77 7.77 0 016.2 3.84 12.21 12.21 0 01.59 8.23 8.44 8.44 0 01-3.73 4.32c-4.06 2.13-7.61 1.26-10.78-1.79z" fill="#b9a78d"/>
  <path d="M14.82 80.28l-.39-4.86c-2-4.11-4.31-8.1-5.88-12.36C6 56.14 5.16 49.12 9.88 42.58a8.93 8.93 0 016.52 4.54c2.47.19-3 6.15 3.3 4.13 10.07-3.22 7.9 8 12.6 11.34a51.91 51.91 0 015.43 8.75c1.39 6.15 8.76 8.3 9.85 14.67a8.12 8.12 0 01-3.82 4c-5.79-.29-11.82 1.21-17.16-2.3l.14.14c-2.74-4.37-8.39-4.34-11.92-7.57z" fill="#b6a488"/>
  <path d="M198.8 484.38c-11.39 8.26-23.46 10.45-36.45 4-1.59-.79-4-1.67-4.3-2.95-.73-2.81 1.58-4.82 3.72-6.28 5.45-3.72 11.69-5.65 18.06-7 3.15-.68 6.47-.63 9.71-.91a11 11 0 014.72-.8 11 11 0 015.06 5.11 15.86 15.86 0 011.52 4.65 5.58 5.58 0 01-2.04 4.18z" fill="#b8a58a"/>
  <path d="M206.83 464.14c2.49-2.58 1.44-4.89-1-6.36-4.49-2.65-10.29-2.26-14.41-6-1.55-1.42-2.73-2.72-2.18-4.9s2.49-2.81 4.43-3.17a40.41 40.41 0 0117.6.83c5.1 1.29 10.22 2.51 15.32 3.76a2.93 2.93 0 011.27 3.72c-1.67 2.48-4.16 4-6.65 5.41a7.53 7.53 0 00-3.1 2.39c-.21.31.64.75 1.77.79.18.71.34 1.36.51 2.07a8.75 8.75 0 01-1.76 4.08 12.57 12.57 0 01-6.37 3.08c-3.84-.04-6.79-.84-5.43-5.7z" fill="#b3a082"/>
  <path d="M226.71 451.49l-.15-3.23c5.33-1 10.81 3 16.07-.46 2.66 6.75 7.93 12.51 7.68 20.35-2.95 1.44-5.26.12-7.38-1.6-2.65-2-1.33.9-1.8 1.69-1.21 2.84-2.53 5.38-6.27 3.57h-4.19A11.84 11.84 0 01224 470a5.67 5.67 0 01-3.09-2.94 6.42 6.42 0 011-3.87l1.82-.53s-1.2-1.51-1.25-1.55a5.14 5.14 0 01-1.11-4.2c1.27-2.37 3.45-3.75 5.34-5.42z" fill="#bead95"/>
  <path d="M410.64 167.8c.54-2.79 4.34-5.69-.3-8.28a16 16 0 018.42-7.59c1.43 3.12 4.25 3.64 7.22 3.92 3.85-2.82 7.81-3.43 11.94-.6-3.21 18.87-12.58 23.18-27.28 12.55z" fill="#c7b9a5"/>
  <path d="M14.09 47.79l-4.21-5.21c2-9.38 9-14.36 16.51-19 3.65-1.53 5.17.76 6.42 3.57.84 13.33-5.6 20.03-18.72 20.64z" fill="#b4a184"/>
  <path d="M265.49 519.57c4.54.95 5.28 6.11 8.93 8-3.95 3.47-7.83 7-11.87 10.39a3.91 3.91 0 01-5.34 0c-1.7-1.55-1.17-3.53-.34-5.42 2.13-4.84 3.56-10.1 8.62-12.97z" fill="#c0b098"/>
  <path d="M206.83 464.14c1.68 2.92 4.46 3.51 7.5 3.56a2.4 2.4 0 011.33 2.46c-.18 1-.43 1.44-.73 1.44l-4.27 4.22c-2.95 4.19-7 5.4-11.86 4.32l-.34-.71c-2.2-2-1.42-5.39-3.48-7.46l-5.43-.73a28.86 28.86 0 0117.28-7.1z" fill="#bead95"/>
  <path d="M230.62 495.85c4.8 7.5 12.46 8 20.23 8.24-9.24 5.26-18.58 5.27-28 .6l-.11-1.65c2.08-.84 4.32-1.4 5.67-3.45a5.36 5.36 0 012.21-3.74z" fill="#cdc1b0"/>
  <path d="M27 103.76h12.27c3.22-.06 4.75 1 2.71 4.25q-1.66 0-3.33-.15c-2.39 2.17-1.71 5.91-4.12 8.07l-4.43 4.66c-5.7-4.77-3.79-10.92-3.1-16.83z" fill="#c1b19a"/>
  <path d="M198.8 480.14c3.65-2.26 7.36-4.38 11.86-4.32 3.2.1 6.1.82 7.92 3.79a41.39 41.39 0 01-19.78 4.77z" fill="#af9a7b"/>
  <path d="M30.72 28l-4.33-4.33c3.21-4.81 6.73-9.3 11.94-12.13l.6 5.28C42 24.79 39 28.34 30.72 28z" fill="#bfaf97"/>
  <path d="M574.48 195.79c.44-3.16 1.41-6 4.15-8-.04 3.35-.91 6.29-4.15 8zm-7.07 5.02a17.71 17.71 0 013.37-.63c-.19 3-.93 5.77-3.67 7.54z" fill="#edece9"/>
  <path d="M46.48 8.8c-2.12 2.66-5 3-8.14 2.72C40.19 8 43.29 8.27 46.48 8.8z" fill="#bfaf97"/>
  <path d="M262.32 504.28c3.58-.55 6.7-.15 8.11 3.85-3.13-.37-6-1.31-8.11-3.85z" fill="#cdc1b0"/>
  <path d="M410.64 167.8c4.62 2.6 9 4.66 14.4 1.09s11.15-6.62 13.72-13.1c.35-.68.69-1.36 1-2a30.68 30.68 0 015-4.65c2.73-2.79 6.77-3.29 9.77-5.64 7.52-12 20.16-17.27 31.73-23.95 3.56-1.53 5 .63 6.17 3.46a10 10 0 01-2.68 7.63c-4.71 4.93-11.17 8.41-13.13 15.62a6.82 6.82 0 001.24 4.15c3.5.55 5.92-1.57 8.52-3.18a25.44 25.44 0 014.56-2.4 14 14 0 017.67-.45c9.58-.47 18.68-6.53 30.45-2.33-7.87 8.21-19.22 7.63-26.15 14.46-1.17.65-1.59 1.36-1.29 2.13s.64 1.21 1 1.21l8-.58c6.91-2 11.47-.41 6.32 6.94-3.72 5.31-10.93 7-17.2 9.17 9.72-2.12 17.25-9.66 27.25-11.09 10.64-4.05 20.36-10.94 32.33-10.52 3.33 8.51-2.55 11.43-8.63 14.22-8.91 4.23-17.92 8.29-26.69 12.78-3.32 1.7-2.94 5.16.06 7.69 4.81 4.07 9.05 6.61 15.58 1.93 8.48-6.08 20.15-4.62 29-10.55.12-.09 1.09.75 1.34 1.3a2.45 2.45 0 010 1.93c-1 1.6-1.85 3.79-3.34 4.47-4.79 2.17-9.95 3.53-14.77 5.63-7.19 3.13-15.48 4-21.26 10l-3.91.82c-6 7.42-14.4 9.13-23.23 9.77-5 1.21-9 5.12-14.31 5.43-10.24.6-12.48-4.31-9-13.1a18.63 18.63 0 01.92-4.46 36.25 36.25 0 012.6-2.7c-1.21 1.22-2.37 2-3.42 3.13-7.78 5.68-16.48 8.11-25.93 8.2-6.9-2.32-15.88-3-11.91-14.32 3.71-2.91 8-1.39 12-1.51a12.56 12.56 0 006.07-2 20.43 20.43 0 003.86-5.66c1.19-3.14 3.44-5.45 9-11.29-10 9.74-16.07 17.28-26.93 14.87-5.6-1.79-10.48-4.53-13.05-10.18-.19-1.86-.12-3.64 1.89-4.62-2.41-1.59-2.87 1.12-3.9 2-7 6-16.06 7.84-23.85 12.2-10.85 2.92-21.2 11.82-33.11 2.93-3.23-4.23 9.63-9.62-1-13.33.43-3.15 1.47-5.43 5.32-3.85 4 2.16 7.91 4.4 12.72 4 3.91-.33 9.85 1.69 6.79-6.21z" fill="#edece9"/>
  <path d="M470.79 156q-.1-4-.23-8c6.48-7.71 14.9-13.12 22.77-19.19 8.66-6 17.85-10.53 28.69-10.64a8.05 8.05 0 015.44 6.23c-4 2.15-7.69 5.17-11.92 6.24-6.62 1.69-11.63 5.47-16.59 9.67-2.71 2.59-5 5.6-8.31 7.58l.12-.11c-6.36 3.48-11.83 9.12-19.97 8.22z" fill="#e4e0da"/>
  <path d="M527.46 124.43l-4.81-4.63c-3.75-3.4-9.91 1.4-13.13-3.85a3.7 3.7 0 011-4.42c2.9-3.26 6.87-3.45 10.81-3.78 16.43-1.4 16.93-1 17.3 16 1.38.86 1.85 1.73 1.4 2.61s-.91 1.32-1.37 1.32z" fill="#e4e0da"/>
  <path d="M527 164.24c-12.16 9.5-26.42 14.17-41 19.39-1-5.84 2.82-6.58 5.34-7.78 7.18-3.44 14.61-6.38 21.85-9.72 1.63-.75 3.8-2.32 2.46-4.35-.9-1.36-3.29-1.74-5-2.56 4.59-4.31 8.65-3.88 12.4 1.19a32.74 32.74 0 003.95 3.83z" fill="#c5b7a2"/>
  <path d="M454.56 143.45a13.07 13.07 0 01-8 8.35 16.65 16.65 0 00-7.89 4.09l.08-.1-12.77.06c7.19-9 14.89-17.49 24.1-24.52q2.84-2.46 5.15.51A56.42 56.42 0 00452 138c-1 2.52-.14 4.52 2.56 5.45z" fill="#e6e3de"/>
  <path d="M510.53 111.53c.07 1.32.12 2.63.15 4-5.09 6.48-11.49 9.92-19.95 8.49l-4.44-4.46c4.09-7.65 9.78-11.12 18.58-7.67 1.6.58 3.76-.22 5.66-.36z" fill="#e1dcd4"/>
  <path d="M538.67 127.63v-3.93c3.55-1.48 6.9-4.32 11.06-2.07a5.85 5.85 0 012.35 2.85c.58 1.5-.27 2.49-1.72 3-3.91 1.37-7.8.85-11.69.15z" fill="#e7e4df"/>
  <path d="M565 144.5c-1 2.8-3.22 3.62-5.85 3.06-1.94-.42-3.23-1.9-1.87-3.88 1.48-2.15 3.76-3.36 6.36-2.25.8.32.97 2.01 1.36 3.07z" fill="#e3ddd6"/>
  <path d="M475.16 113.11c1.46.69 1.8 1.79.65 2.92a14.77 14.77 0 01-3 1.78c-.24-1.08-1-2.42-.59-3.15s1.92-1.06 2.94-1.55z" fill="#d3c9ba"/>
  <path d="M455.24 131.84l-5.15-.51a19.07 19.07 0 012.4-3.06c1.37-1.19 3.2-3.24 4.81-1.08 1.35 1.81-.2 3.59-2.06 4.65z" fill="#d8d0c4"/>
  <path d="M490.64 147.92c1.21-4.23 4.48-6.22 8.31-7.59-.08 1.34-.19 2.66-.31 4-1.75 3.24-4.64 3.84-8 3.59zm12.01 11.88c-1.25 2.19-2.71 4.17-5.3 1.82-.26-.24 1.21-2.83 2.29-3.93.73-.76 2.17-.85 3.3-1.23-.08 1.11-.18 2.23-.29 3.34z" fill="#c5b7a2"/>
  <path d="M434.44 179.72c4.25 2.39 9.23 3.7 12.19 8.05 2.77 4.8 13.74-2.21 12.36 8.58a11.28 11.28 0 01-11.46-.17c-3.58 1.84-4.71 4.37-.89 6.76 2.59 1.62 6.05 1.81 7.92 4.71 15.42 3.63 30.17 8.54 40.93 21.19-1.26 3.08-4.07 4.71-8 8.15 21.28-10.81 41.16-18.88 63.47-10.21a4.41 4.41 0 01.11 5.34c-1.31 4.57-3.75 7.7-9.07 7.6-3.71-.08-7.43.16-11.15.26-4.5 5.07-10.18 5.29-16.24 4l-7.61.46c-2.61 1.65-6.09 1-8.51 3.15a136.28 136.28 0 00-27.89 12.23c-2.37 2.73-2.53 6.34-3.73 9.53-.1.84-.22 1.69-.33 2.53 0 5.07-3.33 9.65-.23 15.3 5.76 10.52 5.88 12.27-3.08 15.71-10.38 4-11.94 13.36-16.94 20.72-1.55 2-3.26 3.89-4.63 6-6.44 9.87-13.88 18.08-26.89 18.59-1.43 0-2.77 2.37-4.15 3.64-4.44 5.54-8.57 14-14.88 14.41-7.95.5-6.77 6.71-10.18 9.65-2.05 2.31-4.69 4.06-6.7 6.43-.78 1.17-1.63 2.31-2.45 3.46-1.07 1.82-2.1 3.68-3.15 5.54a16.32 16.32 0 01-2.73 3.47 17 17 0 01-6 3.3c-1.5.52-3 1-4.52 1.44-3.91 1.46-7.3 3.83-10.83 6-10 9.51-26.4 5.51-35.56 16.84-3 .57-5.59-.41-8.07-1.91l-15-.57c-6.39-4-15.55 6.14-20.7-4.08q-1.69-1.95-3.42-3.89c-1.5-2.53-3.69-4-6.58-2.95-5 1.78-7.23-1.44-9.55-4.76-2.16-6.18 2.84-7.94 6.45-10.55 4.2-2.43 9-1.81 13.41-2.53 1.94-1.61 1.39 1.86.74-.72-.21-.83-1.64-1.12-2.8-1.27a11.21 11.21 0 01-5.23-4.5c-1.67-3.29-2.7-6.58-.42-10 1.73-4.26 13.1-2.28 7.26-11.35-1.19-1.1-2.27-2.25-3.37-3.38-3.24-3.69-6.79-6.51-12.15-4.53a35.11 35.11 0 01-7.5.71 16 16 0 01-7.34-2.1 9.6 9.6 0 01-3-4 41.94 41.94 0 00-7.37-13.17c-4.28-4.55-6-9.56-2.71-15.43 5.1-6.21 12.19-6.78 19.43-7 4.93 0 9.85.15 14.49 2 3.38 1.6 6.94 4.39 9.41-1.32a15.12 15.12 0 016.38-3.44 58.77 58.77 0 009-2.84c3.57-1.78 6.29-4.71 9.42-7.11a31.18 31.18 0 014.38-2.51c6.55-2.3 11.12-8.32 18.16-9.68 2.29-.28 4.66.1 6.85-.67.93-1 1.94-1.89 2.94-2.81a33.44 33.44 0 015-3.27 21.22 21.22 0 013.44-1.79 11.93 11.93 0 013.39-1.2 2 2 0 001.84-2.12 6.17 6.17 0 01-3.29 1.85 25.6 25.6 0 01-11.26-.65c-5.59-2.05-12.16-2.07-16-7.76a4.25 4.25 0 011.53-4.66c2.62-.56 5.34-.36 8-1a24.43 24.43 0 0112.96-1.42c4.06.83 8.07.86 11.84-1 2.37 1-.94-1 1.66-1.12 1.35-.08.85-.91-1.35-.86a89.42 89.42 0 00-25.36 4c-2.64.74-5.37.63-8.06.92-8.92 4.11-19.21.44-28 5-2.88 1.27-5.93 2.24-8.45 4.26a18.14 18.14 0 01-4 2.23 13.17 13.17 0 01-4.6.22c-2.28-.34-4.56-.75-6.86-1l-7.23-.12a21.2 21.2 0 01-7.48-1.35c-3-1.44-6.34-1.24-9.39-2.37 5.49 1.63 12.09 2.35 9 11-2.91 4-7.5 5.52-11.51 7.92-4.3 2.32-8.77 4.12-13.75 4.3a19 19 0 01-8.42-1.86c-7.28-5.76-13-13.53-21.83-17.38-9.43-13.77-9-14.8 7.72-17.43 2 .21 3.49 1.66 5.43 2-3-2.4-5.16-5.27-5.25-9.3a11.19 11.19 0 012.35-4.95 8.16 8.16 0 015.5-1.09c2.65.28-.73 1.71 1.73.68s-1 2.86.48.63c.16-.24-.09-.88-1-1.24a6.15 6.15 0 00-5.54.16c-1.47 1.86-3.09 3.52-5.53 4a12.64 12.64 0 01-4.4-.58 40.68 40.68 0 01-5.9-2.78 17.49 17.49 0 01-3.38-2.54c-3.25-2.2-1.2 2.67-3.07 2.33a20.77 20.77 0 01-4.1 2.51c-4.93 2.06-9.9 2.93-15 .64a11.26 11.26 0 01-5.6-9 15.69 15.69 0 016.43-11.9c2.16-2.86 10.88-2.84 4.31-9.52-5.54-5.63-10.79-11.69-18.42-14.72-3.21-1.67-6.37-3.39-9.6-5-3.05-1.17-5.85-3.05-11-2.86 3.26 8.84 12.65 11.53 16.52 18.6 3.15 7.86 5.77 15.83 4.68 24.49a11.41 11.41 0 01-2.73 4.61 14.82 14.82 0 01-7.57.87 37.65 37.65 0 00-4.75.17c-4.13 3.73-8.74 7.33-1.47 12.4a9.62 9.62 0 014 2.85c2.55 3.84 3.6 7.91 2 12.41-3.27 4.87-2.06 9.94-.39 16 .94-5.24-.33-10.16 3.06-13.88 2.84-2.8 6.39-3.64 10.23-3.67a18.58 18.58 0 015.34 1.17c6.63 3.43 7.08 9.79 7.61 16.13a23.71 23.71 0 01-.51 5.38c-.55 4.65-3.79 10.31 4.53 11.46 3.41-.15 6.81-.63 10.16.26 4.78 1.47 9.19 7.31 14.64 1.13 16.56-7.6 23.26 6.83 32.94 14.66 2 6.87-.53 12.72-4.1 18.35-2.59 3.58-5.15 7.23-9.28 9.26a12.3 12.3 0 01-4.94-.2q2.22 1.11 4.36 2.4c3 3 5.9 6.12 9.19 8.85a15.51 15.51 0 013.14 4.44 13.73 13.73 0 01-.59 11c-2.53 3.17-5.33 5.63-9.77 3.57l-.6.54-2.77-2.74a41 41 0 01-3-5.05 20.62 20.62 0 01-1.77-3.55 24 24 0 00-3.28-5c-1-1.72-1.86-3.52-2.79-5.27a14.86 14.86 0 01-1.8-3.29s-.33-1.77-.29-1.73.76-1.47.76-1.47a13.3 13.3 0 00-1.3 1 11.21 11.21 0 00.9 3.43c.58 1.17 1.17 2.28 1.83 3.4s1.28 2.45 1.87 3.7a19 19 0 012.53 6.12 10.71 10.71 0 01-.83 4.58c-1.55 2-3.3 3.37-5.92 1.78h.14a197.83 197.83 0 00-16.47-11.34 18 18 0 01-3.67-3.36 7.67 7.67 0 01-.88-4.65 25.25 25.25 0 001.09-6.82c-1.6-5.43-5.71-9.79-6.59-15.52-1.85-3.1 3.77-7.91-1.44-9.49-2.29-.69-2.4 3.89-2.83 6.37-2.23 3.11-5.77 5.34-6.34 9.57-.31.78-.64 1.5-1 2.26-.56.63-1.12 1.22-1.71 1.84a10.12 10.12 0 01-5.14.56c-6.13-1.55-11.11-6.17-17.68-6.31a34.85 34.85 0 01-5.11-.24c-6.16 0-9.63-6.79-16-6.35-7.71-2.89-8.37-11.08-12.51-16.65-5.3-6.1 7.23-13.27-1.18-19.07-1.31.69-2.6 1.26-3.9 1.89a17.61 17.61 0 01-6.54 1 20.49 20.49 0 01-7.32-15.55C79 270.77 77.07 260.91 71 255c-6.82-6.62-9.36-14.08-8.07-23.19a11.65 11.65 0 011.54-3.54 22 22 0 001.73-5.81 24.53 24.53 0 012.3-9 8.78 8.78 0 016.5-3.94 24.72 24.72 0 0114.16 8.24c2.88 3.9 5.18 7.94 2.67 13-5.44 6.2 1.35 9 3.72 12.89 3.93 6.5 9.75 12.32 6.76 21-.86 3-7.12-1-5.34 2.65a27.7 27.7 0 0012.26 12.56c-4.14-4.31-7.87-8.45-7.4-14.62 6.89-7.53-1.26-12.6-3.45-18.43-1.9-5.08-9-7.46-8.1-14.37 5.46-4.45 11.12-8.77 10.59-16.95.21-2.64.67-5.25.92-7.89a23.35 23.35 0 00-3.75-11c1.62 3.76 3.86 7 1.28 10.73-5.09 3.74-10.95 3.19-16.76 3.12-13.41-6.42-8.22-19.5-10.71-29.85a11 11 0 015-7.41c5.38-2.72 11.3-3.4 17.12-4.46 8.3-.6 16.7 1.07 25-1.13A22.11 22.11 0 01130 169c11.38 6.29 31 1.47 31.11 23.39 0 1.87 6 1.73 9.24 2.11a42.52 42.52 0 018 1.29c6.09 1.19 10.28 7 16.9 6.74 3.73-.54 6.6-4.32 10.84-3 3.26 2.32 6.73 4.1 10.88 4.06a38 38 0 017.46.09 49.69 49.69 0 007.81-.22c11.5-2.1 21.81 2.18 32.36 5.67 5 1.65 10.5 7.14 15.48-.24 1.7-2.4 3.68-4.64 4.47-7.55a4.88 4.88 0 00-2.4-4.88c-2.06-.87-4.06-.39-6.09.13a14 14 0 01-7.16.71c-6.32-1.52-12-6.53-19.12-3.48-7.25 1.73-14.8 2.64-20.69 8-7.06.78-14.14 2.37-21-.9-10.36-3.2-14.49-11.24-16.39-21-4.38-3.75-9.75-2.21-14.7-2.79-12.31.51-21.63-6-30.73-13a42.29 42.29 0 01-3.75-4.16c-4.28-6.69-14.12-9.92-12.74-20.2a12 12 0 014.49-3.31 23.18 23.18 0 0113.89 0 21.1 21.1 0 015 2.51c6.75 7.12 16.95 6.85 24.84 11.51 4.47 5.52 11.33 4.62 17.23 6.26 12.9 7.34 26.16-5.18 39.1.61 4.43 2.85 9 5.47 14.42 5.74 9 1.76 16.86 6 24.36 11.17 2.09 1.4 3.74-3.09 2-1.08-.67.76-1.18.49-1.95.19-5.43-2.12-5.73-6.29-4.65-11.1 1.52-2.87 3.53-4.59 7-3 10.71-1.86 14.49 4.6 17.52 13.41 3.6 10.48 11.34 17.13 22.56 19 3.25.53 6.95.34 9.08-2.4 2.61-3.34-.45-5.95-2.28-8.55-.75-1.06-1.8-2.09-2.06-3.28-1.2-5.36 2.77-4.58 5.9-4.74 1.51 1 3.05 1.9 4.63 2.77 14.37 6.25 31.15 6 43.93 16.45h15.36c2.66 0 5.08-.35 6.16-3.22 3-7.83 7.26-.91 10.91-1 8.36-4.95 16.64-10.47 27.22-7.99z" fill="#f2f2f1"/>
  <path d="M275.48 468.48a78.83 78.83 0 009.57-2.42c2.92-1.11 7.29-2 7.16-5.62-.16-4.44-4.7-3.44-7.78-3.82-3.74-.46-7.94 1.2-11.66-3.19a27.7 27.7 0 0113.88-17.59c7.27 4.38 14.59 4.34 22.4 1.11 3.6-1.49 6.37 1.81 5.24 5.56-3.26 10.73-9.4 19.91-15.73 29-5.58 3.84-12.43 3.26-18.6 4.85-5.52 1.41-8.96-1.82-4.48-7.88z" fill="#e1dcd4"/>
  <path d="M275.48 468.48c.13 2.92 1.56 4.53 4.57 4.33 6.17-.4 12.34-.87 18.51-1.31-9.35 5.47-17.47 13.89-30 11.59-1.73-.32-4.12 2.94-6.2 4.54-2.22-3.19-7.08-3.92-7.85-8.46 1-3 1.73-6.19 3.18-9 5.72-11.17 6.74-11.17 17.79-1.69z" fill="#b9a78c"/>
  <path d="M305.61 420.42l8.6-.71c12.19-2.82 25.48-3 34.11-14.3 6.54-.63 6.5-11.21 14.51-9.63l-.23-.11c3.35 4 3.44 7.88-.53 11.56-7.23 11.21-15.39 21.08-30.4 21.08-5.86 2-11.7 2.5-17.49-.27a9.82 9.82 0 01-3.57-.47l-4-3.75c-.4-1.12-.73-2.25-1-3.4z" fill="#e6e3dd"/>
  <path d="M242.72 492c13.5 1.68 27 2.16 42.84-4.17-4.3 8.61-8.08 12.28-14.73 12.25-8.64 0-17.32.29-25.91-.45-5.25-.46-2.89-4.67-2.17-7.69z" fill="#cdc1b0"/>
  <path d="M299 504c-3.21.71-6.41 1.47-9.62 2.13-2 .42-4.4.26-4.88-1.82-.37-1.62.49-3.88 1.49-5.38 2.25-3.35 5.33-6 9.43-6.79a6.75 6.75 0 005.49-4.85c.83-2.26 2.91-2.22 4.3-.44.71.91 1.18 2.79.71 3.69-1.16 2.26-3.17 4.08-4.37 6.34a55.25 55.25 0 00-2.71 7.26z" fill="#c0b098"/>
  <path d="M379.13 396q-2.19 8-4.39 16c-3.11-.58-6.3-1-8.12-4.12-4.74-6.88 1.83-11 4-16.13l-.09.12c1.78-2.06 2.94-4.87 6.18-5.18 4.29 2.18 4.54 5.43 2.42 9.31z" fill="#e7e4df"/>
  <path d="M270.15 412.11c4.16 3.07 7.91 6.7 14.05 4.11 2.39-1 4.91 1.26 6.45 3.63-6.22 3.53-13.07 4.08-20 4.24q-1.93-2.13-3.86-4.28a22.2 22.2 0 00.43-3.72 5.34 5.34 0 012.93-3.98z" fill="#e1dcd4"/>
  <path d="M243.15 463.74l7.16 4.41c.08 4.14-1.37 7.08-5.91 7.64a7.49 7.49 0 00-5.78 3.89c-3.72-1.44-4-4.55-3.76-7.87 3.16-1.84 4.2-4.87 4.57-8.26 1.33-1.64 2.57-1.66 3.72.19z" fill="#d9d1c6"/>
  <path d="M254.47 479.17c4.62 1 7.94 3.13 7.86 8.46l-19.14-.63c2.45-4.51 6.05-7.34 11.28-7.83z" fill="#d6cdc1"/>
  <path d="M310.59 467.65c7.76 2.41 7.76 2.41 4.65 12.31-1.56 1.38-3.17 1.93-4.64 0-3.04-4.11-1.71-8.22-.01-12.31z" fill="#d8d1c4"/>
  <path d="M370.63 391.71q-2 8.07-4 16.13l-4.55-.61q.27-5.79.53-11.56z" fill="#c7b9a5"/>
  <path d="M223.24 468.08c3.09 0 5.81.74 7.43 3.69-.61 1.67-.88 4.53-1.88 4.8-3.89 1.08-4.86-2.44-6.25-5.05-.87-1-1.06-1.8-.56-2.5s.86-.94 1.26-.94z" fill="#af9a7b"/>
  <path d="M223.24 468.08a13.14 13.14 0 00-.7 3.45l-7.61.07a34.3 34.3 0 00-.59-3.9l4.15-4.31c1.54-1.33 2.94-1.14 4.23.37z" fill="#d9d1c5"/>
  <path d="M314.18 428l17.49.26c-5.89 4.19-11.74 4.91-17.49-.26z" fill="#e1dcd4"/>
  <path d="M230.65 499.8c-1.88 3-4.6 3.84-7.93 3.24l4.41-3.41c1.26-1.57 2.43-1.52 3.52.17z" fill="#af9a7b"/>
  <path d="M306.59 423.82l4 3.75a4.37 4.37 0 01-4-3.75z" fill="#e1dcd4"/>
  <path d="M226.9 496c-.53-.28-1.57-.66-1.53-.83.24-1.23.81-.9 1.44.93z" fill="#af9a7b"/>
  <path d="M230.65 499.8c-1.18 0-2.35-.05-3.52-.16a34.76 34.76 0 01-.23-3.67l-.09.1a16.76 16.76 0 013.81-.22z" fill="#f2f2f2"/>
  <path d="M110.78 332.6c1.77-3.2 4-5.42 7.77-2.84s7.06 6.11 12.18 5.93l-.22.23c2.34-2.67 4.91-3.87 8.17-1.42 4 3 8.09 6 12.14 9 1.13 1.55 2.45 1.65 3.93.51l.12-.06 2.14-1.64a5.79 5.79 0 013.76 3.52c.79 4-.7 7.13-3.88 9.55l-2.63.79a43 43 0 00-3.43 3.86c-1.32 1.89-2.58 2.15-4.14.38-1.07-1.06-1.66-4.18-3.74-.86a13.38 13.38 0 01-10.6-4.22q-10.8-11.33-21.57-22.73z" fill="#c3b49f"/>
  <path d="M86.65 299.73c1.75-3.09 4.52-4.18 7.91-4a41.06 41.06 0 01-1.24-5.63c0-.22 2.3-1.24 3.1-.89 4.89 2.09 9.64 4.47 14.82 6.93.64 6.09-7.9 3.4-8.38 8.89-.34 3.74-2.95 7.29-4.55 10.92-3.77-1.64-6-4.16-6-8.61 0-3.53-3.23-3.08-5.55-3.54z" fill="#cabeab"/>
  <path d="M178 360.28c8.81 1.8 13.93 7.49 16.55 15.8-3.69.19-8 3.15-10.91.22-4.34-4.34-8.41-.25-12.5-.87-7.57-9.49-.71-12.43 6.86-15.15z" fill="#dfd9d1"/>
  <path d="M247 404.49c-12.05 1.68-21.93-1.66-28.59-12.42-1.74-3.43.55-4.66 3.12-5.76 4.58-.43 8.83 1 13.11 2.31a59.55 59.55 0 0110.08 4 11 11 0 013.79 4 8.94 8.94 0 01-1.51 7.87z" fill="#f2f2f1"/>
  <path d="M223.05 387.63l-4.64 4.44c-4.81-2.76-7.62-6.73-7.53-12.46l6.79-3.79c2.19-1.4 3.11-3.85 4.76-5.71a11.45 11.45 0 019.91-.91 7.58 7.58 0 013.57 3.65 11.61 11.61 0 01-.86 5.17c-2.78 4.72-6.18 8.68-12 9.61z" fill="#dfd9d1"/>
  <path d="M206.6 367.89c.23 1.23.46 2.46.68 3.69a31.17 31.17 0 003.13 4.5c0 1.36-.08 2.71-.13 4.07l-7.94 3.35c-4.26-3.07-1-8.25-3.35-11.87a30.53 30.53 0 00-.66-3.66c-1-1.56-2.35-2.91-3.34-4.49-.19-1.18-.42-2.35-.7-3.51l-1.29-2.26c.36-.8.73-1.59 1.1-2.39a2.89 2.89 0 014.31.89q2.37 3.71 4.76 7.4a23.87 23.87 0 003.43 4.28z" fill="#c5b7a2"/>
  <path d="M247 404.49l-.45-8.07c5.11-1.86 5-4.82 1.79-8.48l.39-2.54 1.44-2.17c2.67-1.14 5.1-.48 7.43 1a11.46 11.46 0 013.17 4.19 7 7 0 01-2.05 7.15q-4.15 4.32-8.3 8.63c-1.15.09-2.29.2-3.42.29z" fill="#e8e5e0"/>
  <path d="M178 360.28c-4.6 4-8.53 8.32-6.86 15.16l-4.78.09c-2.79-5.8-6.37-11.35-5.51-18.26 2.7-4.37 6.27-2.93 9.84-1.48a24.12 24.12 0 014.11 3.84c1.04.19 2.11.37 3.2.65z" fill="#c2b39c"/>
  <path d="M162.84 355.87c0 6.76 5.5 12.54 3.49 19.66-5.9-1.63-7.56-6.2-8-11.59-1.87-2.61-1.72-5.35-.57-8.16a4 4 0 015.08.09zM199 371.63c3.94 3.16 3.51 7.56 3.35 11.88-1.31.05-2.62.16-3.93.16-6.09 0-6.07-3.26-4-7.59z" fill="#dfd9d1"/>
  <path d="M143 359.58a44.1 44.1 0 011.37-4.54c3.14.63 2 3.37 2.37 5.4a25 25 0 00-3.74-.86z" fill="#e5e2dc"/>
  <path d="M270.15 412.11l-2.94 4c-2.33-1.06-3.59-2.3-.68-4.21a21.94 21.94 0 013.62.21z" fill="#af9a7b"/>
  <path d="M158.69 355.82l-.39 8.12c-2.72-1.87-3.68-4.65-4-7.75l.44-.41c1.32-1.68 2.64-1.58 3.95.04z" fill="#c3b49f"/>
  <path d="M550.58 227.5c-17.78.13-35.3 1.38-51.55 9.81-6.5 3.38-13.47 3-21.86 1 4.82-6.21 11.87-7 16.72-11 10.57-3.92-2.09-14.2 5.2-19 9.43-.07 18.58-1.93 27.63-4.36l.09 7c-.38.7-.75 1.41-1.1 2.12a9.64 9.64 0 01-8 1.81c.26.08-.59-.51-.59-.51s-.51.9-.33 1a30.45 30.45 0 013 .42 26.44 26.44 0 014.11.61 13.76 13.76 0 014.2 2.45c5.5 8.34 18.9-4.2 22.48 8.65z" fill="#c1b29c"/>
  <path d="M514.63 243.94c4.35-5.67 10.48-4.06 16.24-4 1.75 1.81 3.59 3.54 5.24 5.44a3.15 3.15 0 01-.55 5c-9.75 5.89-15.14 4.15-20.93-6.44z" fill="#d4cbbd"/>
  <path d="M550.58 227.5c-2.7-3.28-6.44-3.8-10.29-3.65a30.74 30.74 0 01-18.06-4.6c-1.4-4 1.67-5.22 4.15-6.82 0 0 .42-1.41.42-1.42 5.22 8.79 13.54 9.66 22.57 9 2.57-.19 5.61-.27 6.92 2.65 1.72 3.83-1.13 6.09-3.53 8.36a11.15 11.15 0 01-1.67 1.09z" fill="#d4cabc"/>
  <path d="M486 295.9a16.56 16.56 0 00-1.65 1.06c-1.37 1.14-2.07 3.63-4.41 2.71-.62-.25-1.06-2.29-.78-3.28 1.58-5.59 4.27-10.94 3.52-17 6.5 4.4 3.62 10.71 3.32 16.51z" fill="#e2ddd5"/>
  <path d="M547.1 211.49c-1-2.1-3.08-4.4-.69-6.43 1.09-.92 3.64-.91 5.17-.35 2.26.82 4.21 2.52 6.29 3.84-2.74 4.11-6.87 3.07-10.77 2.94z" fill="#edece9"/>
  <path d="M486.17 264.23c-5.7 4.69-12.76 5.89-19.61 7.61h.08c-2.28-4.39.66-6 3.95-7.38z" fill="#d8d0c3"/>
  <path d="M515.13 256.87c-.21.8-.31 1.73-.49 1.74-1.83.16-3.92.73-5.44.06s-2.63-2.61-3.81-4.08c-.06-.07.79-1.27 1.28-1.32 3.55-.41 6.06 1.58 8.46 3.6z" fill="#c8bba7"/>
  <path d="M470.59 264.48q-2 3.69-3.95 7.38c-6.67-2-7.12-2.65-3.53-6.29 2.2-2.24 5-3.88 7.51-5.79z" fill="#c4b6a1"/>
  <path d="M498.51 247.55a8.21 8.21 0 018.49-3.15c-2.21 2.68-5.13 3.51-8.49 3.15z" fill="#d4cbbd"/>
  <path d="M275.41 159.22q-2.55 2.57-5.08 5.14c-10.25 3.63-20-1.51-30-1.76-6.85-5.63-14-8.41-23-4.44-6.82 3-13.84 1.92-20.43-1.51-2.71-.79-5.57-1-8.23-2a7.73 7.73 0 01-3.46-4.24 7.73 7.73 0 012.07-5.11 22.26 22.26 0 0110.11-5.2c5-1 9.57-.13 13.2 3.79 3.4 4.52 7.65 3.66 11.92 1.72 5.23-2.37 10.34-5 16.31-2.56l7.48 1c4.23 2.25 8.13 5.08 12.47 7.12a37.41 37.41 0 0116.64 8.05z" fill="#e9e7e3"/>
  <path d="M374.69 191.84c-6.62.7-13 .46-19-3.06-3.3-1.92-7.52-4.37-10.83-3.78-8.74 1.54-13-4.14-18-9 7.12-5.28 16.17.85 23.37-3.94l8.6-.08c3.82 5.5 12.07 2.15 15.76 7.9l12.92 5.83c-3.68 3.89-10.51.81-12.82 6.13z" fill="#c2b39d"/>
  <path d="M374.6 179.86c-2.48-.05-5-.11-7.44-.14-5.12-.08-8.21-2.32-8.32-7.76 6.79.49 14.13-2.16 20 3.58zM350.24 172c-2.06 2.75-5 3.68-8.24 3.73l-15.13.21a27.74 27.74 0 01-.74-3.37z" fill="#d7cfc2"/>
  <path d="M258.78 151.25c-6.18 1.18-9.69-2.33-12.47-7.12 5.86-.6 9.69 2.35 12.47 7.12z" fill="#c8bba8"/>
  <path d="M79.07 175.6l-4.35 4c-3.21 10.74 1.83 21.49 0 32.23l-4.31 4.52c-4 2.71-3.76 6.49-2.68 10.49a5.13 5.13 0 01-.4 4.56l-4.38.42c-7.62-17.91-8.19-24-3.66-39.35 1.19-1.92 2.52-3.77 3-6a12.57 12.57 0 00-1.25-6.3 7.5 7.5 0 01.13-4 4.77 4.77 0 012.59-2.75c2.34-1.06.78-3.35 1.46-5 1.28-2.95 3-5.37 6.36-6.19a7.92 7.92 0 014.72 1.53c2.82 3.45 4.96 7.14 2.77 11.84z" fill="#eae8e5"/>
  <path d="M70.74 163.71l-3.81 8.76a2.21 2.21 0 01-.4 3.39l-4.34.22c-1.34 1.34-2.61 1.22-3.83-.16v-4.14l5.1-7.93a41.38 41.38 0 002.69-4.85 8.62 8.62 0 01-.32-2.58c-.32-2.86 1-5.79 3.72-4.26 5 2.84 4 7.35 1.19 11.55z" fill="#eeedeb"/>
  <path d="M58.36 175.92c1.28.07 2.56.12 3.83.16a25.9 25.9 0 01.46 3.72q1.88 1.95 3.81 3.85c.31 5.17-2.16 8-7.23 8.8.85-5.57-4.06-10.84-.87-16.53z" fill="#cec2b1"/>
  <path d="M379.13 396c-.55-3.18-.82-6.52-4.42-8a2.72 2.72 0 01-1.23-2.86c.27-1 .57-1.55.91-1.55l-.09.15c2.84-1.9 2.06-5.78 4.37-8 3.63-2 6.54-4.52 7.36-8.84.49-2.58.26-6.77 1.65-7.41 3.63-1.67 2.8 3.31 4.75 4.66 1.6-4.63 5.9-5.93 9.5-8.39 2.82-1.92 5.32-3.66 8.71-4 1.12 8.16-2.5 14.38-9.23 18-10.97 6-17.18 15.53-22.28 26.24z" fill="#cbbfad"/>
  <path d="M70.47 123.57a17.89 17.89 0 001-3.67c-.38-4.58 2.18-8.18 4-12.07 2.71-5.66 6.2-10.84 9.35-16.14.65-2 1.16-4-.4-5.94-7.37-3.31-17-3.2-19.83-13.14-.72-5.72 4.41-9.14 6.41-15.18-8-2.6-12.48 2.44-17.33 6.16-4.22 3.9-8.32 8.06-14.85 7.17a16.94 16.94 0 01-5.1-2.8c-2.89-16.74 9.29-22.23 21-28.09 4.21-1.67 8.5-3.17 12.62-5 5.11-2.33 9.86-1.67 15 .24A175.42 175.42 0 00118 44.26a169.17 169.17 0 0127.55 25.18c2.62 3 5.07 6.09 5.09 10.36l-2.19 1.8c-8 2.73-13.88-5.08-21.48-4.32a20.31 20.31 0 01-11.48-11c-1.28-3.15-1.93-6.68-5.06-8.49 2.75 9.28 7.94 16.21 17 19.88 6.53 0 10.26 2.6 7.19 9.52-3.43 7.72-8.68 7.75-15.81 3.94-5-2.69.66 2.89-1.6 3.21a15.76 15.76 0 01-3.27 7.24c-2 2.32-5.4 3.88-4.44 7.93a16.7 16.7 0 01.06 7.21 9.46 9.46 0 01-2.69 4 8.61 8.61 0 01-4.64.21c-2.17-.71-4.15-1.88-6.19-2.77a4.19 4.19 0 00-3.32 2.1A54.5 54.5 0 0089.44 132c1 4.1 4.5 4 7.7 4.41a15.08 15.08 0 017.78 2.62 14.07 14.07 0 014.85 13.37c-2 6.77-6.51 10.17-13.53 10.35a46.28 46.28 0 01-14.48-3.93c-9.2-4.12-12-12.49-14.06-21.33a20.09 20.09 0 01-.43-5.84 20.3 20.3 0 013.2-8.08z" fill="#f0f0ef"/>
  <path d="M150.67 79.8c11 6.88 18.41 16.76 24.11 28.15-3.33 4.73-10 1.21-13.9 5.62 9 7.55 10.51-.91 13.59-5.87 12.46 3.33 20.8 13.52 31.85 19.27 3.86 2 .81 5.83.31 8.84-4.28 6.21-18.59-11-17.57 7.57a8.76 8.76 0 01-9.9 6.88c-9.25-4.28-16.87-13-28.63-10.46l.24.16c-9.92-8.42-20.07-16.66-23.74-30-1.45-8.7.3-16.65 10.13-17.83 8.36-1 9.76-7.46 13.52-12.32z" fill="#efeeec"/>
  <path d="M186.82 143.55c-.39-.52-.78-1.05-1.19-1.56-1.88-2.38-6.29-3.19-5.11-7.45s6.15-7 10.74-6.83c6.51.23 10.08 5.73 15.37 8.1 3.21 1.79 4 4.75 4 8.11l-15.91-.22c-2.65-.34-5.33 2.88-7.9-.15z" fill="#c9bda9"/>
  <path d="M30.72 28a14.33 14.33 0 008.21-11.18l7.39-.82c2.59 2.18 5.6 2.53 8.81 2.09a4.11 4.11 0 014 1.75c0 6.83-2.3 12.52-8 16.57C45.59 46.34 37.71 54.39 30.49 63c-1.79.76-3.64 2.25-5.34 2.09-2.17-.19-2.18-2.64-2-4.51a34.27 34.27 0 01.63-3.87c.28-1.52-.34-2.78-1.71-2.56-1 .16-2 1.31-2.81 2.22a26.09 26.09 0 00-2.08 3.26c-4.07-.51-2.15-3.88-2.66-6a30.72 30.72 0 01-.38-5.86c.7-1.13 1.16-2.58 2.15-3.34 10.38-7.94 10.4-7.91 14.43-16.43z" fill="#edebe9"/>
  <path d="M30.49 63c3.95-11.11 9.68-20.85 20.62-26.52l3.6 3.42-14 16c-3 3.41-6.16 6.73-5.79 11.79a2.55 2.55 0 01.82 2.81c-.36.89-.71 1.33-1 1.33-3.44-2.03-4.13-5.31-4.25-8.83z" fill="#c5b7a2"/>
  <path d="M54.88 20c-6.34 4-6.34 4-8.56-3.94 2.83-.61 5.75-4.43 8.44.23 1.4.78 1.88 1.59 1.45 2.43S55.34 20 54.88 20z" fill="#bfaf97"/>
  <path d="M54.88 20c-.06-1.24-.1-2.48-.12-3.71 1.12-.62 2.21-1.28 3.36-1.84 2.28-1.12 5.41-2.82 6.54.36 1.6 4.49-2.37 4.76-5.52 5.09z" fill="#dad3c8"/>
  <path d="M42 108a4.28 4.28 0 00-2.71-4.25q0-1.56-.18-3.12c1-1.87 2.72-3.22 4.6-2.73C50.32 99.58 58 99 59.28 96.35c8.19-.44 19.23-6.12 18.5 10-2.9 5.2-5.61 10.57-11.37 13.35a20.64 20.64 0 00-3.72.92q-2.34 1.4-4.59 2.92C50.44 120.69 43.82 116.8 42 108z" fill="#ebe9e6"/>
  <path d="M71.19 135.57c1 1.56 2.85 3.13 2.82 4.67-.13 7 4.62 11.13 8.52 15.81C81 160.09 78.41 163 74 164l-3.3-.26c-.08-1.86 0-3.74-.27-5.58-.45-3.31-2-4.24-4.63-1.69-5.17-11.9-7.63-23.43 4.63-32.88.08 2.71.17 5.41.25 8.11-.2 1.3-3.95 3.09.51 3.87z" fill="#e1dbd4"/>
  <path d="M66.41 119.66l8.19-11.91a5 5 0 013.22 3.67c-1 3.7-2.72 6.81-6.39 8.48z" fill="#c4b6a0"/>
  <path d="M34.5 115.9c0-3.4.84-6.35 4.12-8.07-.26 3.26-.15 6.71-4.12 8.07zM66.15 159l-2.69 4.82c.9-1.58 1.8-3.18 2.69-4.82z" fill="#e1dbd4"/>
  <path d="M58.1 123.5l4.59-2.92z" fill="#c4b6a0"/>
  <path d="M58.58 99.27c-1.13 1.13-1.32 2.48-.11 3.41 1.47 1.13 4.69 2.09 4.6 2.77-.54 3.94-4 2.75-6.16 2.19a30.91 30.91 0 01-8.72-4.2c-2.85-1.87-5.68-3.21-9.13-2.84-.16-2.84-.33-5.7-.5-8.55 4.44-2.15 9-.49 13.52-.43 3.55 1.38 7.27 2.61 6.5 7.65z" fill="#c1b19a"/>
  <path d="M14.82 80.28c1.27-.33 2.56-.61 3.81-1 3-.94 5.93-4.39 9-2 4.39 3.45-.4 7-.87 10.59-10.37 4.22-10.76 3.94-11.94-7.59z" fill="#e1dbd3"/>
  <path d="M51.63 95.87l-13.07-3.82-7.89.09a2.64 2.64 0 01-4-.48 21.5 21.5 0 01-.12-3.93l20 .27 2.53.88c2.19 1.85 3.46 4.03 2.55 6.99z" fill="#d9d1c6"/>
  <path d="M26.72 91.66c1.32.13 2.64.29 4 .48-1.63 2.01-2.93 1.73-4-.48z" fill="#c1b19a"/>
  <path d="M39.2 68.22c5.8.07 7.4-5.91 11.65-8.08 12.18 1 8 8.23 5.6 14.81a48.31 48.31 0 01-2 7.75c-1.69 3.23-3.07 7-8 5.27h.06a21.72 21.72 0 01.13-3.12c-3.13-5.21-10.71-8.48-7.44-16.63z" fill="#c2b39c"/>
  <path d="M39.2 68.22c1.79 5.87 8.9 9.34 7.5 16.66-10.78-2.54-10.78-2.54-12-13.11.07-1.38.15-2.76.22-4.14z" fill="#ded8cf"/>
  <path d="M177.29 485.53c-.54-.94-1.75-2.19-1.49-2.76a13.31 13.31 0 013.23-4c.21-.19 2.31.89 2.33 1.43.09 2.74-1.44 4.52-4.07 5.33z" fill="#d3cabc"/>
  <path d="M195 472c3.05 1.61 3.54 4.41 3.48 7.47C195 478 194.9 475 195 472z" fill="#dad1c6"/>
  <path d="M226.71 451.49q-2 4.2-4 8.39c-1.39 1.55-2.69 1.56-3.87-.24v.05a2.38 2.38 0 01-1.16-2.52c.26-.92.54-1.38.85-1.38 1.78-3.22 4.86-3.99 8.18-4.3z" fill="#d5ccbe"/>
  <path d="M218.52 455.79c.14 1.3.25 2.6.31 3.9-1.55-.43-2.22-1.35-1.69-2.65.21-.52.86-.84 1.38-1.25zm.32 3.85q1.93.09 3.87.24l.16.16c1.23 1 1.59 1.86 1.09 2.69s-1 1.19-1.41 1.19l.17-.16-4.23-.36c.13-1.26.24-2.51.35-3.76z" fill="#bead95"/>
  <path d="M222.55 463.92a12.42 12.42 0 00.31-3.89 36.55 36.55 0 015.65.2c1.05.19 2 1.18 2.93 1.82a13.09 13.09 0 01-3.25 1.56 44 44 0 01-5.64.31z" fill="#e2ddd5"/>
  <path d="M243.15 463.74c-1.25 0-2.49-.08-3.73-.19.25-1.56.46-4.47.72-4.47 3.19-.08 2.36 2.82 3.01 4.66z" fill="#e5e0da"/>
  <path d="M499.09 208.35c-1 6.7.59 11.82 9.12 12.12-4.16 5.88-8.89 7.18-14.32 6.89-1.57-1.07-3-2.69-4.74-3.12-6.37-1.57-13.45 1.58-18.71-6.63-2.84-4.43-12.22-3.65-15.88-10 9.08-3.44 17.86-7.94 27.89-8.1l.48.57a21.15 21.15 0 01-.18 3.73l-.09-.12c7.41 3.2 7.41 3.21 2.63 8-.88.88-1.83 1.7-2.74 2.54a19.19 19.19 0 003.28 1.41c6.57 1.54 8.49-5.49 13.26-7.29z" fill="#d5ccbe"/>
  <path d="M490.73 124c6.47-3.26 11.35-10.23 19.95-8.49 3.75.39 7.53.62 11.24 1.26 1.57.27 1.75 1.71.73 3.06l-28.12 12c-4.34 2.91-7.43 3.06-7.53-3.41z" fill="#b29e80"/>
  <path d="M458.47 195.29c-2.53-4.73-10-1.78-11.84-7.52 7.43-.9 13.46-4.8 19.44-8.9 5.32-3.65 10.82-7 17-11.06 2 6-2.24 8-4.88 9.52a23.39 23.39 0 00-11.52 14.5c-1.39 1.37-2.77 2.74-4 4.24l-4.08 3.34c-1.44-.87-1.93-1.77-1.5-2.7s.91-1.42 1.38-1.42z" fill="#cbbfad"/>
  <path d="M434.44 179.72l-27.32 7.89c1.52-2 2.66-5.28 4.63-5.92 12.35-4 23.52-10.39 35.48-17.41.26 10.04-9.58 9.91-12.79 15.44z" fill="#cdc2b1"/>
  <path d="M487 128.35c1.72 2.88 4.55 3.33 7.53 3.41-5.64 8.88-14.24 13.4-24 16.27 1.3-10.03 8.52-15.19 16.47-19.68z" fill="#bcac92"/>
  <path d="M470.79 156c6.62-2.84 12.18-8.23 20-8.2-3 6.79-9.38 8.9-15.54 11.13-1.9.68-3.68-.86-4.46-2.93z" fill="#c2b39c"/>
  <path d="M482.45 199.55c3.35-3.79 7.19-7.06 12.59-6.2 4.31.68-3.15 5.27-12.11 6.76z" fill="#d5ccbe"/>
  <path d="M458.4 171.58a11.64 11.64 0 016.77-6.68 2.15 2.15 0 013.11 1.56c.13.46-.38 1.23-.77 1.7-2.24 2.72-5.27 3.75-8.67 3.91z" fill="#cabdaa"/>
  <path d="M458.84 172.07a11.32 11.32 0 01-6.8 6.6 2.17 2.17 0 01-3.11-1.53c-.14-.44.41-1.2.81-1.67 2.25-2.68 5.29-3.68 8.67-3.89z" fill="#cabeab"/>
  <path d="M509.08 187.52c-.95-.42-3.08-1-3.06-1.43.09-2.33 2.23-2.88 4.06-3.58 1.57-.6 3-.12 3.05 1.48.1 2.37-1.7 3.33-4.05 3.53z" fill="#d9d1c5"/>
  <path d="M458.47 195.29c0 1.38.1 2.75.14 4.12-4.19.61-8.46 1.51-11.08-3.23z" fill="#c8bba8"/>
  <path d="M438.68 155.89c1.73-3.11 2.21-8.61 7.89-4.09a8.17 8.17 0 01-7.89 4.09z" fill="#cfc4b4"/>
  <path d="M517.54 194.21c.18-.48.33-1.36.53-1.37a5 5 0 011.68.5c-.17.48-.33 1.37-.52 1.38a5.2 5.2 0 01-1.69-.51z" fill="#d7cec2"/>
  <path d="M503.18 202.9c-.51-.17-1.3-.2-1.47-.54-.55-1.12.12-1.78 1.65-1.56.44.06.79.73 1.17 1.12z" fill="#ccbfad"/>
  <path d="M462.69 196.07l4-4.24z" fill="#c8bba8"/>
  <path d="M170.1 199.51c-5.38.57-10.31-.92-15.13-3.18-6.62-3.1-7.19-4.5-4.29-12.16.92-2.42 2-4.77 2.94-7.21.17-.46-.36-1.17-.56-1.76-14.71 9.44-14.72 9.44-22.89-3.26-3.49-4.46-4.44-9.27-2-14.54A6.79 6.79 0 01133 154a24.35 24.35 0 0113.69 5.64c9.63 7.08 19.65 13.18 32.21 13 .87 4.9-2.79 8.16-4.35 12.18-2.97 4.42-1.91 10.11-4.45 14.69z" fill="#cec2b1"/>
  <path d="M219 292.34l11.6-4.46c3.39-2.95 7.33-1.91 11.17-1.56a7.06 7.06 0 013 7.06c-.13 1-1.07 1.89-1.39 2.84-.47 1.45.34 1.75 1.57.54a17.6 17.6 0 015.95-1.7c5.71-.63 11.52 0 17-2.12 1.62-.65 3.26-1.16 4.93-1.65a15.55 15.55 0 017.94-.71c4 2.21 4.36 5.51 2.78 9.38-2 3.26-4.9 5.56-8 7.69a18.38 18.38 0 01-18.22 2.24c-2.31-.35-5.16.74-6.52-2.33 1.07 3.29 4.06 2 6.28 2.65a3.65 3.65 0 012.43 4.13c-3.07 5.24-8.21 2.86-12.56 3.44-12.31.1-25.21 1.87-32.69-11.59a11.71 11.71 0 01-.95-5.22 41 41 0 015.68-8.63z" fill="#b29e80"/>
  <path d="M214.58 299.84c7.18 12.22 18.22 16.8 31.9 16.19 1.4.58 1.91 1.24 1.54 2s-.79 1.19-1.22 1.19c-6.89.24-13.66.91-19.63 4.85-1.69 2-3.38 2-5 0-9.05-.53-13.27-8.22-19.37-13.11-4.37-3.5-8.34-3.82-11.93 1-6.94 2.19-10.22-2.44-13.44-7.17 4.69-8.76-8.74-7.82-7.83-14.58 1.51-4.41 5.09-5.21 9.11-5.31 6.49 1.35 13.24 1.16 19.6 3.31a9.13 9.13 0 015.41 5.4c-2.52 5.93 1.52 3.6 4.18 3.09a8.29 8.29 0 016.68 3.14z" fill="#c7baa5"/>
  <path d="M222.89 371.7l-5.21 4.12.63-11.67c-1.07-1.67-2.31-1.74-3.72-.42-5.49-1.93-7.78-6.22-8.54-11.62a3.68 3.68 0 01.48-4.37l8.2-7.89c6.05-4.52 12.05-9.31 20.08-4.08 1.58 3.34 4.12 11.25 4 12.35-4.29 2.77-9 1.52-13.25 1.34 4.16 1.29 9.07-.81 13.34 1.75l7.56.76c7.9 13.59-6.16 14.1-11.71 19.67l.07.13c-3.99-2.77-7.95-2.97-11.93-.07z" fill="#cdc2b1"/>
  <path d="M322.52 227.7c.87 3.17 1.78 6.33 2.61 9.51.75 2.91-.18 5.08-3 6.32-8.26 2-17.48-4.62-25.14 2.84a16.69 16.69 0 01-13.66-.52c-2.68-1.47-4.65-3.46-5-6.66 15.33-5.09 15.37-5.08 16.39-20.82.34-5.16-.91-10.68 3.82-14.67 9.32 6.63 14.46 17.54 23.98 24z" fill="#dfd9d1"/>
  <path d="M282.56 207.72c.64 3 3.94 5.76.79 9a8.44 8.44 0 01-9 2.47 66.72 66.72 0 01-9.1-3.75 79.08 79.08 0 00-34.22-8c-2.19-2.34 3-5.54-.9-7.68.24-2.33-3.18-6.63 0-6.58 6.94.11 13.58-4.31 20.56-1.22l2.68.32c9.2 4.28 15.26 14.84 27.22 13.59.69.58 1.33 1.21 1.97 1.85zm39.96 19.98c-12.39-3.62-21.39-10.62-24-24 3.43-7.88 5.6-9.22 10.52-6.08a43 43 0 017.66 6c4.78 4.87 9.41 2.76 14.17.23l-.22-.21 6.4 9.59c-4.34 4.78-9.16 5.07-14.43 2.69l.16-.16c-2.78 3.93-2.05 7.92-.26 11.94zm-123.71 35.64c-2.49.18-5 .45-7.46.54-6.59.22-5.1 2.79-2.1 6.35 1.11 1.32 1.25 3.45 1.84 5.21-5.23 5.3-10.61 2.34-16 .37-8.29-3.56-14.14-11-22.64-14.25-4.33-2.63-5.56-6.49-4.43-11.27 2.39-5.82 6.77-3.31 10.74-2.57 5.83.88 10.78-2.06 16-3.7 6.3 8.61 21.14 6.55 24.05 19.32z" fill="#cec3b2"/>
  <path d="M234.71 371.64a5.07 5.07 0 002.17-6.62c-3-7.9-.26-7.9 5.76-4.54 2.13 1.19 3.43-.71 3.69-2.73a46.37 46.37 0 00.09-5.78l8.07-.22c5.94 1.68 11.08 5 16.32 8.08l-.11-.15c1.24 7.43-1.42 13-7.89 16.86 1.33 2.3 2.65 4.6 4 6.89-1.92 3-3.4 6.78-8.19 4.36l.11.1c-1.53-1.88-2.64-4.05-3.94-5.9.09.14-.47-1.33-.47-1.33a15.32 15.32 0 00-1.4.71 3.22 3.22 0 01-2.09 2.33l-.16.12-1.67 1.65-2.31.07a15.06 15.06 0 01-4.12-1.93c-1.87-1.24-3.65-2.63-5.4-4-.55-.5-1.07-1-1.61-1.54-.38-.64-.74-1.29-1.11-1.95z" fill="#e8e5e0"/>
  <path d="M326.7 275.5l15.62.52c1 .77 1.37 1.58 1.11 2.44s-.54 1.32-.85 1.32c-2.1 2.42-5.87 1.62-7.91 4.13-2.09 2.25-5.93 1.33-7.68 4.22l-.39-.31c-1.82 3.31-5.54 1.87-8.14 3.25-6.69 4-10.74 12.18-19.83 12.28a16 16 0 01-2.89-4.2c-10.41-12.29-3.54-19.1 8.26-22.29 7.14-1.95 15-3.93 22.7-1.36z" fill="#b19d7e"/>
  <path d="M326.7 275.5c-9.88 3-19.81 5.87-29.61 9.14-1.49.5-2.37 2.84-3.53 4.32a49.7 49.7 0 004.8 2.61c2.09.88 6.15-.53 5.48 3.37-.34 1.95-3.38 3.44-5.19 5.14-4.33 2.61-8.8 4.17-13.8 1.85l-2.1-2.05c-.73-2.92-.59-6.27-3.94-7.88-.73.5-1.46 1-2.18 1.5l-2.49-.88a6.58 6.58 0 01-.46-5 17.68 17.68 0 016.08-4.55 36.46 36.46 0 006-4.47c7.12-6.47 14.5-12.33 25.08-10.59 1.94 2.69 4.69 3.71 7.88 3.8a10.06 10.06 0 017.98 3.69z" fill="#dcd6cc"/>
  <path d="M330.84 203.85c.43-2.66 1.36-5.9 4.38-5.38 16.06 2.8 32 6.06 49.12 9.37-11 8.91-24.82 10.28-36.41 4.83-5.9-2.78-10.37-8.28-17.31-9z" fill="#bcac93"/>
  <path d="M170.1 199.51c-7.75-5.76-.92-10.74.85-16 8.17-6.78 18.35-6.33 28-7.78.83 1 2.49 2.12 2.35 3-1.81 10.78-1.86 10.76 3.49 17.81a27.54 27.54 0 011.91 3.46l.1-.09-8.66 7.64c-6.44-2.74-9.64-13.76-19.54-7.65z" fill="#e6e3dd"/>
  <path d="M158.77 247.72c-2.63 4.27-5.5.55-8.27.26-4.33 1.86-6.44-.52-7.92-4.13q-2.19-13.77-4.39-27.54c-1.61-3.49.56-4.76 3.33-5.67 3.31-2.25 6.42 11 9.85.12 14.21 2.89 10.18 12.25 7.5 21.13a13.59 13.59 0 01-.66 3.79q-1.67 2.25-3.29 4.5 1.92 3.82 3.85 7.54z" fill="#b6a387"/>
  <path d="M154.83 259.53c1.82-2.32 4.82-3.4 6.27-1 3.41 5.73 9.52 8.33 13.65 13.1 2.61 5.93 13.49 3.49 12.85 12.72-2.17 3.08-4.7 5.2-8.76 3.48-3.26 0-6.22.69-8.24 3.55-5.37 3.52-8.56-.44-12-3.48-3.82-3.27-.88-8.4-3.32-12.05-.48-3.09-.6-6.22-.79-9.34a18.87 18.87 0 01.09-4.69c.06-.73.15-1.51.25-2.29z" fill="#c3b49e"/>
  <path d="M282.6 287.66l-7.89.51c-4.32-3.05-6.55-6.77-3.82-12.07l-.29-.33c1.8-3.56 10.42-.12 8.11-7.9 9.79-7.91 21-4.48 31.83-3.94 1.42.8 1.94 1.66 1.56 2.6s-.8 1.46-1.24 1.46c-7.65 5.84-18.13 7.46-23.88 16.1a28.53 28.53 0 00-4.38 3.57z" fill="#c1b29c"/>
  <path d="M351.17 408.11c-7 9.79-17.67 12.72-28.47 15.29-3.43.82-6.34-.88-8.49-3.69 2.63-3.65 5.4-7.22 7.85-11 1.67-2.55 3.85-2.64 6.54-2.67 9.79-.13 13.63-1.53 18.06-6a11.42 11.42 0 014.51 8.07z" fill="#c9bca9"/>
  <path d="M318.8 263.91a19 19 0 0115.35-7.74c2.65 0 5.47-.58 7.91.13 5.86 1.72 13-3.77 17.86 3.26-4.22 5.87-10.92 6.85-17.16 8.73a7.3 7.3 0 01-8.22.08l-15.29-1.05c-2.84-.77-3-1.91-.45-3.41z" fill="#b4a083"/>
  <path d="M158.87 231.89c-3-2-3.82-4.63-2.32-8 2.72-6-.59-9.32-5.46-11.87-5.71-2.41-8.86-5.67-3.87-11.64 6.4 3.08 13.7 4.87 16.67 12.65.92 2.43 3.17 3.52 5.92 4.36 8.82 2.71 8.94 4.15 3.37 9.71-4.18 4.23-8.93 5.05-14.31 4.79z" fill="#cabeab"/>
  <path d="M158.57 264c2.63 5 2.43 9.25-3.32 11.93l-5-.34c-3.51-9.09-15.46-7.66-19.71-15.82l.18.22c-6-6.75-4.8-13.47.07-20.18l4.09.19c2 2.42 3.11 6.93 7.83 3.71l-.12.18 7.91 4.11c.48 4.21-.4 8.93 4.33 11.56l.14.17a44.18 44.18 0 003.6 4.27z" fill="#e8e5e0"/>
  <path d="M142.6 211.85l-4.41 4.45c-9.9-5.54-19.87-11-22-23.79 8.24-4 15.92-3.29 22.8 3.21.2 5.6 6.27 9.9 3.61 16.13z" fill="#c4b6a0"/>
  <path d="M186.77 283.27c-3.79-2.37-7.55-4.81-11.4-7.09-2.23-1.33-2.45-2.73-.62-4.51 5.69.18 10.36 4.81 16.34 3.78 6.5-.59 11.5 1.7 14.73 7.55 1.58 2.87 3.31 5.65 5 8.47 1.86 2.5 6.37 3.77 3.85 8.29l-.06.08h-7.81c-1.77-1.19-4.27-1.79-3.84-4.76l-4.11-3.22c-3.57-3.54-11.33-1.14-12.08-8.59z" fill="#baa98e"/>
  <path d="M355.36 228.11a74.38 74.38 0 0131.5-9.28c3.29-.2 7.76-5.27 9.58.45 1.3 4.09-3.92 6.25-7.05 8.24s-7 3.25-10.54 4.82c-8.85 4.06-17.28 6.18-23.49-4.23z" fill="#b39f82"/>
  <path d="M74.67 211.81c-.26-2.59-.74-5.08-3.7-5.95-1.88-.56-4.44-1.31-3.75-3.42 2.47-7.63.91-16.61 7.5-22.86 3.59 6.55 3.73 13.79 4.13 21 .27 4.93 3.61 6.52 7.76 7.26L89 208a13.23 13.23 0 014.48 1.8 7.79 7.79 0 013.52 6.08 8.54 8.54 0 01-1.62 4.43c-3.07 2.07-6.07-.24-9.11-.17z" fill="#cec2b1"/>
  <path d="M74 164c.45-5.2 3-8.1 8.49-7.93 4.23.71 8.94-.25 12.31 3.49 3.11 4.24 3.13 8.57.33 13-4.49 5.57-10.45 3.53-16.1 3.09Q76.55 169.78 74 164z" fill="#bdac94"/>
  <path d="M150.53 139.8c4.86-3.58 8.14-11.27 16.37-5.8 2.71 1.8 5.71 2.59 5.55 7-.14 3.61 3 5.55 6.1 6.92l1.69 1.82-1.35 2.08c-4.65 0-9.43.64-13.92-.22-6.64-1.3-12.88-3.91-14.44-11.8z" fill="#ccc0af"/>
  <path d="M102.56 263.73c1.62 4.52 5.58 7.12 8.56 10.55 3.66 4.22 5.07 9 2.36 14-14-5.07-21.32-15.53-24.4-30 6.09-1 8.44 6 13.71 5.66z" fill="#c8bba8"/>
  <path d="M194.54 152.4c8.91 1.18 17.37 4.84 26.93 1.09 6.28-2.47 12.93.11 17.06 6.43l-1.74 1.61-2.28-.62c-7.49-2.75-13.95 1-20.74 3.1-7.1 2.17-14.24 3.29-19-4.6-2.48-2.27-2.48-4.61-.23-7.01z" fill="#bfaf97"/>
  <path d="M130.82 155.75q-.33 8.1-.65 16.19l-11.75-.23a6.89 6.89 0 01-1.81-4.57c-2.44-9-6.59-17.6-7.9-27a11.32 11.32 0 012.38-7.68 13.63 13.63 0 014.4-3.28A12.53 12.53 0 01126 130a7.43 7.43 0 012.51 4.38c-.36 4-2.63 7.95-.45 12.07 1.46 2.93 2.74 5.93 2.76 9.3z" fill="#ebe9e6"/>
  <path d="M119.1 168.42c-.25 1.09-.48 2.19-.68 3.29-5.63 3.67-11.26 5.85-17.68 1.44-1.36-.94-3.69-.47-5.57-.65l-.33-13c5.71 0 9.58-2.93 12.2-7.78 8.38 2.44 10.59 9.28 12.06 16.7z" fill="#cdc2b1"/>
  <path d="M95.44 216.25l-4.64-4.4a47.13 47.13 0 00-4.13-4l-.06-.05c1.19-3.07 3.39-3.59 6.27-2.55 1.83.67 3.69 1.26 5.54 1.89l2.31.77c2.76 2 3.57 5.36 5.66 7.81a29.3 29.3 0 00-.82 3.78c-1.24 14.43-1.22 14.43-15.11 12.17l.35.26q-2.25-5.91-4.52-11.81c2.83-3.92 6-.8 9.09-.48a2.06 2.06 0 00.06-3.39z" fill="#b9a68c"/>
  <path d="M238.53 159.92c5.12.08 10.25.35 15.37.19 5.94-.2 11.45.89 16.43 4.24.08 5.49 5.57 6.27 9.16 10.55a31.9 31.9 0 01-18.49-1.77c-4.8-1.8-9.63-3.51-14.45-5.26-1.51-3.79-10.89 0-7.84-8.19z" fill="#c0b099"/>
  <path d="M140.11 322.41c-7.5 3.21-13.37.49-18.56-3.88-2.61-2.19-2.87-5.76-2.44-9.19s4.07-5.85 7.16-4.8c8.43 2.88 12.14 9.28 13.84 17.87z" fill="#ccc0af"/>
  <path d="M102.79 263.92C97.14 254.51 91.12 245.3 86 235.6c-1.54-2.95 2.09-3.77 4.79-3.67l-.36-.25c1.62 2 2.85 4.76 5 5.88 6.12 3.28 10 7.53 10.47 14.86.27 4 3.81 6.58 6.75 9.19.44.38-.28 2.22-.7 3.3-.1.26-1.14.31-1.71.22-2.56-.42-5.1-.93-7.66-1.4z" fill="#c7baa6"/>
  <path d="M138.59 275.68c-1.72 8.48 6.18 16 2.77 24.79-6.32 0-10.36-4.55-11.89-8.78-1.85-5.08-3.89-11.19-1.47-16.91 1.1-2.58 4.21-2.66 6.82-2.89l1.85.56 1.37 1.37.55 1.86z" fill="#cec2b1"/>
  <path d="M298.39 243.57c-.56-6.55.61-8.72 4.12-7.11 6.38 2.91 14.26 1.52 19.61 7.07-12.39 10.68-26.12 10-40.4 4.79l1.59-2c4.84-1.93 10.77 2.13 15.08-2.75z" fill="#c3b5a0"/>
  <path d="M155.08 339.69c-4.52-6.77-2.76-8 7.36-8.24 3.69-.34 6 2 8.24 4.35a51.77 51.77 0 0111.95 16c-2.3 2.24-5.41 2-8.2 2.65-8.71 1.59-12-4.8-15.76-10.61a13.38 13.38 0 01-3.59-4.15z" fill="#c2b39c"/>
  <path d="M370.5 367.64c-.54 1.84-.5 4.4-1.73 5.37-5 4-10.34 7.56-15.69 11.07-1.57 1-3.94 1.54-5.05-.56a7.79 7.79 0 01-.84-5.49 15.29 15.29 0 014.16-6.2c4.86-4.27 10-8.18 15.08-12.24 3.21 1.75 1.33 6.07 4.07 8.05z" fill="#d7cfc3"/>
  <path d="M242.1 288.73l-11.46-.85c3-4.63 7.89-4 12.43-4.24 3.28-3.3 1.24-8.22 3.57-11.81l7.86-.06c2.59 2.26 5.2 2.83 7.89.16l4.27 4c-3.37 17.38-5.8 18.65-24.56 12.8z" fill="#eceae7"/>
  <path d="M126.59 135.84c-.17-1.23-.3-2.46-.38-3.69a4.55 4.55 0 01-1.61-3.57c.32-2 1-4 1.46-6 .18-1.37.45-2.72.7-4.08a18.44 18.44 0 011.15-4c.37-.61.76-1.2 1.14-1.79l1.81-1.12c5.49 6.5 10.87 13.08 16.5 19.44a13.91 13.91 0 013.41 9l-15.93-.38s-1.27-1.12-1.3-1.16l-1.43-1.35s-1.78.73-1.86.73a4.72 4.72 0 01-3.66-2.03z" fill="#c1b19a"/>
  <path d="M378.76 240.16c3.9-.65 7.78-1.44 11.7-1.85.91-.1 2.06 1 2.88 1.81a2 2 0 01-.14 1.88c-6.32 7-14.33 11.09-23.5 12.89-.95.19-2.39-1-3.29-1.87-3-2.94-1.05-6 0-9.06 2.95-4.96 8.48-1.67 12.35-3.8z" fill="#c5b7a2"/>
  <path d="M158.58 287.94l12 3.49a38.75 38.75 0 005.17 3c5.24 2 4.93 5.38 2.59 9.39a4.38 4.38 0 01-3.93 4.19l-8.06 3.67c-12.21-2.88-7.6-12.3-7.73-19.88.03-1.31.01-2.58-.04-3.86z" fill="#e2ddd5"/>
  <path d="M198.81 263.34c-3.6-4.44-9.51-3.68-14-6.23-5.38-3.05-10-6.16-10-13.09a23.09 23.09 0 013.81-.25 2.45 2.45 0 013.94.17c2.34 2.23 5.76 1.78 8.36 3.37l.09.05c1.34 3.31 6 1.43 7.35 4.65 1.4 2 2.9 3.84 4.19 5.86 2.72 4.22 2.67 4.25-3.74 5.47z" fill="#b4a184"/>
  <path d="M242.1 288.73c2.54-.28 5.17-1.09 7.62-.74 9.66 1.39 14-4.33 16.94-12.09l4.23.2q1.91 6 3.82 12.07c0 1.29 0 2.57-.15 3.85-6.12 4.35-13.33 3.44-20.19 4.19l-5 1.4a26 26 0 01-5.22-.14l-1.83-1.87z" fill="#cbbfac"/>
  <path d="M130.78 239.77q0 10.09-.07 20.18c-1.94 1.69-3.81 3.48-5.86 5-1.84 1.41-4.36.92-4.8-.94-2.18-9.22 1.08-17.54 5.4-25.45.24-.42 3.48.78 5.33 1.21z" fill="#c5b7a3"/>
  <path d="M130.53 259.73c3.66 2 7.31 1.8 11.39 1 4.36-.88 7.12 2.64 9.52 5.83s.16 6.13-1.2 9l-11.65.13.23.21q-2.08-2.16-4.24-4.23l.24.23c-1.71-3.97-4.43-7.57-4.29-12.17z" fill="#c2b39d"/>
  <path d="M453.69 284.45c-7.85-3.58-11.46-8.59-12.29-15.67-.32-2.79 2.56-6.47 5.56-6.9s5.05 1.38 6.13 3.83c2.5 5.65 1.98 11.54.6 18.74z" fill="#d3cabb"/>
  <path d="M170.68 335.8c-3.47-.07-6.67-.66-8.24-4.35-1.61-2.09-3.39-4.08-4.78-6.31-1-1.58-2.54-4.07-2-5.17 2.19-4.16 4.1.32 6.24.68 1.18.19 2.91.56 3.56 0 4.29-4 7.15-1.15 9.76 1.95 3.61 4.28-1.72 5.18-3 7.66-.86 1.63-1.04 3.67-1.54 5.54z" fill="#d0c5b5"/>
  <path d="M199 175.73c-7.9 7.75-17.79 8.35-28 7.78-1.35-6.55 5.05-7.46 8-10.91 7.1-2.21 13.56.24 20 3.13z" fill="#b19c7e"/>
  <path d="M178.6 199.85a36.5 36.5 0 012.51-5.14c3.39-4.84 5.39-5.23 8.81-1.71 4 4.1 8.64 7.89 8.23 14.5-3.58 2.16-7.07 3.45-10.4-.5-2.54-3-5.22-5.91-9.15-7.15z" fill="#c9bba8"/>
  <path d="M378.76 240.16c-3.23 4.2-7.92 3.63-12.39 3.8l.23.11c-1.3-1.77-4.1-2.18-4.42-4.84-1.91-3-5.65-2.59-8.09-4.3-3.72-2.59-2.22-5.09 1.26-6.82 1.88 3.13 4.93 3.66 8.21 3.74 5.09.13 10.19.32 15.28.49-1.13 2.6-4.43 5.17-.08 7.82z" fill="#dad2c7"/>
  <path d="M320.07 369.25a20.48 20.48 0 01-11.84 13.13c-2.51 1.14-5.23-.4-6.92-2.66-1.44-1.93-.3-3.79 1-5.28 4.74-5.37 10.24-8.17 17.76-5.19z" fill="#d0c6b6"/>
  <path d="M374.63 288c-7 .15-10.84-3.74-13-10-1-2.83-.82-4.89 2.08-6.53 3.11-1.77 5.9-2.88 8.65.49s2.27 7.44 3 11.27a3.39 3.39 0 01-.73 4.77z" fill="#beae96"/>
  <path d="M262.81 376.54c-2.8-2.7-1.7-4.07 1.55-5 1.2-.36 5-1.34 1.55-2.81-7.42-3.19-3.94-3.95.53-5.59 1.62-.59 2.85-2.25 4.25-3.42 2.37.35 5.22-.29 6.14 3 .81 2.86 1.59 5.72 2.35 8.45-4.94 3.83-10.6 4.83-16.37 5.37z" fill="#cdc1b0"/>
  <path d="M158.64 291.77c1.39 3.58 8.44 5.55 6.05 8.87-3.82 5.3-.56 7.65 1.69 11-3.17-.31-6.48-.14-9.46-1-3.2-1-5.78-3.52-4.15-7.23 1.73-3.99 1-9.28 5.87-11.64z" fill="#c8bca8"/>
  <path d="M230.15 199.72l5.52 1.63-4.67 6.06-8.52.31c-2.5-2.31-5-2.47-7.61-.11-4.17-1.06-6.54-4-8.11-7.75l-.1.09c7.86.12 15.64-3.6 23.49-.23z" fill="#dad3c8"/>
  <path d="M246.64 271.83c2.64 7.28 2.64 7.28-3.58 11.81-.79-3.21-1.69-6.21-5.43-7.41-6.14-2-12.74-3.23-17.58-10.84 10.24-.02 17.49 7.88 26.59 6.44z" fill="#d0c6b6"/>
  <path d="M130.82 155.75c-3.51-1.62-6.32-3.93-7.65-7.71 2.91-2.52-.37-11.07 8-8.24 2 8.34 11.45 9.43 15.38 15.87-3.93 3.07-7.91 2.86-11.92.15z" fill="#c4b6a1"/>
  <path d="M400.66 316.54c3.56 1.63 7.84 3.1 11.57 5.46 2.28 1.44 2.51 4.46.65 6.83a3.38 3.38 0 01-5.06.64c-3.46-2.85-6.78-5.88-9.95-9-.46-.46.1-2.11.46-3.11.12-.36 1.07-.42 2.33-.82z" fill="#c5b6a1"/>
  <path d="M142.6 211.85c-2-5.2-8.79-9.32-3.6-16.13l8.22 4.69c-.71 4.55 1.72 8.05 3.87 11.64-.64 1.72-1 4.7-2 4.94-3.78.91-4.59-2.99-6.49-5.14z" fill="#e4e0da"/>
  <path d="M270.7 344.46c-4.49-1.16-9-2.19-13.45-3.55-2.57-.79-5-2.33-3.31-5.58 1.52-2.84 4.49-2.91 7-1.78 3.58 1.63 6.9 3.83 10.33 5.79q2.24 2.84-.57 5.12z" fill="#baa98f"/>
  <path d="M246.8 319.22c-.09-1.06-.19-2.13-.32-3.19 4.3-.34 8.94.42 12-3.73 5.79-3.88 12.12-3.43 18.54-2.33q3.35 2.05 1.21 5.35l-7 1.12c-2.93 1.33-4.39 6.19-8.91 3.7z" fill="#bcab92"/>
  <path d="M270.62 195.82l4.15-4.08c4-2.93 7.79 3.58 11.76.17 4.88 3 4.08 7.64 3.7 12.19-4.39.84-9-.4-13.28 1.16-5.16-1.58-11.86-1.4-11.1-9.72a3.14 3.14 0 014.77.28z" fill="#e2ddd5"/>
  <path d="M198.75 247.94a36.54 36.54 0 01-2.67-5.3 6.21 6.21 0 01.42-3.48 1.84 1.84 0 011.68-.57c6.92 3.66 13.8 7.4 21.14 11.38-7.89 4.74-13.92-2.58-20.77-2.24z" fill="#d1c6b6"/>
  <path d="M278.28 239.19l4.35 4.23c1.3.74 1.82 1.6 1.58 2.58s-.57 1.55-.94 1.55l-1.55.76c-7-1.25-14 0-25 1.85 8.37-7.94 15.62-8.16 21.56-10.97z" fill="#cdc1b0"/>
  <path d="M270.81 359.83h-7.66c-5.46 0-8-3-8.66-8.1 8.43-4.49 8.51-4.49 12.58 1.25a63.36 63.36 0 013.74 6.85z" fill="#d1c6b6"/>
  <path d="M174.43 308l3.94-4.19 12.45 8.19c-.35 3.73-1.53 6.38-6.07 4.75a19.55 19.55 0 01-10.32-8.75z" fill="#d2c7b8"/>
  <path d="M98.42 207.15c-2.14-5.38-4.35-10.73-6.33-16.16-.37-1-.28-2.82.38-3.44 1.92-1.78 3.67-.16 4.45 1.37 3.21 6.32 6.15 12.78 9.18 19.18-2.24 2.06-4.66 1.81-7.15.54z" fill="#cabdab"/>
  <path d="M194.54 152.4c.07 2.33.13 4.67.2 7-3.82.32-7.65.94-11.47.91-5.92 0-6.39-1.16-4.38-8.52l-.2.18c2.52-2.69 5.22-2.43 8-.48z" fill="#b7a489"/>
  <path d="M374.63 288l.72-4.76c3.26 6.18 6.6 12.32 9.67 18.59a3.72 3.72 0 01-.92 3.37c-1.64 1.44-3.45 1-4.82-.78-3.65-4.92-4.9-10.48-4.65-16.42z" fill="#cfc5b4"/>
  <path d="M298.89 339.63a8.08 8.08 0 01-3.9-6.56c-.21-6 2.5-8.92 7.93-9.11 4.26-.16 7.63 2.05 11.25 3.67.48.73 1 1.46 1.45 2.19l-1.22 2.33h-7.43l-1.89.26a4.79 4.79 0 00-2.66 2.66 17.74 17.74 0 01-3.53 4.56z" fill="#e5e1da"/>
  <path d="M234.81 335.77c-7.17-1-13.23 3.51-20.08 4.08q3.71-7.91 7.4-15.81h5c-1.28 6.46 6.13 7.18 7.68 11.73z" fill="#ccc0af"/>
  <path d="M326.51 339.54c-2.13 3.47-4.76 3.87-7.26.65-1.91-2.45-3.25-5.35-4.84-8l.39-.55c3.54-3.12.41-8.3 3.56-11.54 3.4 1.41 4.22 4.27 4.27 7.57 3.65 3.16.24 8.66 3.88 11.87z" fill="#e5e1da"/>
  <path d="M351.17 408.11c-3.25-1.71-4.38-4.61-4.51-8.06a11.19 11.19 0 008.26-4.82c2.62-3.55 5.48-2.74 7.91.55-5.2 2.87-5.83 10.04-11.66 12.33z" fill="#c9bca9"/>
  <path d="M258.6 387.79l8.19-4.35 3.84 4.47s1.51.22 1.52.21a5.12 5.12 0 012.17 2.13l.27 1.51c-4.13 6.14-10.53 2.76-15.88 3.79q-.06-3.88-.11-7.76z" fill="#c7b9a6"/>
  <path d="M428.62 314.55c-.62 0-1.62.14-1.78-.15-.58-1-1.43-2.38-1.15-3.3 1.06-3.5.4-8.14 5.15-9.49a3.43 3.43 0 012.91 1.69c1.19 4.97-.94 9.32-5.13 11.25z" fill="#d1c7b8"/>
  <path d="M306.54 343.73c1.26 6.28.3 8.48-3.34 7.4s-7.73-1.31-9.3-5.75c4-3.15 8.6-1.13 12.9-1.46z" fill="#ccc1af"/>
  <path d="M66.24 228c-3-1.68-3.88-4.47-4-7.71-.19-5.14 1.24-5.85 8.11-3.94l-.18 11.5c-1.25 1.45-2.56 1.57-3.93.15z" fill="#bdac94"/>
  <path d="M218.7 175.85c3.5-8.17 6-8.59 11.72-1.85.73.85 1.35 2.59 1 3.39s-2.25 1.34-3.28 1.12c-3.22-.68-6.34-1.79-9.5-2.73z" fill="#d4cabc"/>
  <path d="M461.85 234.59c-4.66-1.92-5.58-6.23-6.22-10.6-.05-.33 2.06-1.58 2.63-1.3 3.52 1.68 6.26 4.31 7 8.31.17.94-.85 2.19-1.53 3.14-.28.36-1.14.29-1.88.45z" fill="#c8baa7"/>
  <path d="M362.18 239.23c1.47 1.61 2.94 3.23 4.42 4.84-3.19.86-6.44 1.54-9.55 2.61-4.23 1.46-7.76 1.14-10.29-3l-.14.23c4.95-2.34 9.92-4.62 15.56-4.68z" fill="#ccc0ae"/>
  <path d="M446.7 252c-1.81-.59-4-.73-5.35-1.86-4.37-3.59-5.5-8-2.63-9.46 3.38-1.69 6.11.16 8.26 2.88 2.08 2.92 1.9 5.73-.28 8.44z" fill="#c6b8a4"/>
  <path d="M406.52 294.86c3.05 1.91 4.27 4.64 3.23 8.09a4.85 4.85 0 01-2.19 2.91 2.93 2.93 0 01-4.14-2.41 28.5 28.5 0 01.14-7.49c.21-1.72 1.44-2.05 2.96-1.1z" fill="#cec4b3"/>
  <path d="M270.62 195.82l-4 .34c-6.89 4.12-11-1.95-16-4.42l.19.18c.19-3.52 1.12-6.62 5.56-5 5.29 1.88 10.83 3.76 14.25 8.9z" fill="#cfc4b3"/>
  <path d="M363.33 341.76c.12-2.12 1.16-3.87 3.38-4s3.28 1.65 3.57 3.7c.35 2.6.52 5.23-1.82 7.1-.32.26-1.32-.07-1.85-.39a6.67 6.67 0 01-3.28-6.41z" fill="#d9d1c5"/>
  <path d="M351.64 297.28c4.28.59 7.42 5.5 6.43 10.32a1.86 1.86 0 01-2.95 1.43c-3.66-2.1-5.3-5.58-5.79-9.55-.08-.63 1.5-1.48 2.31-2.2z" fill="#d4cabc"/>
  <path d="M298.89 339.63l.27-8a3.16 3.16 0 013.67-.81c1.72 1.2 2.31 3.42 4.09 4.57a14.27 14.27 0 013.08 2.13c3.42 4 3.15 4.48-3.46 6.25l.26.19c-1.67-3.25-4.75-3.86-7.91-4.33z" fill="#cec3b2"/>
  <path d="M434.21 213.44c-.52 1.15-1 3.21-1.54 3.25-3.76.21-5.79-2.31-6.8-5.52-.23-.73.93-2.69 1.65-2.8 3.8-.6 6 1.35 6.69 5.07z" fill="#d4cabc"/>
  <path d="M123.57 224.24c1.16-2.27 2.22-2.5 3.72-1.67 2.75 1.53 6.41 2.39 5.48 6.69-.13.62-2.34 1.4-3.32 1.13a7.67 7.67 0 01-5.88-6.15z" fill="#cec3b2"/>
  <path d="M278.28 315.32c.15-1.14.28-2.27.37-3.42-2.41-2.16-4.11-4.67-4-8.08a8.81 8.81 0 018.1-3.94l-.14-.13a28 28 0 013 3.4c1.47 2.84 1.52 5.87 1.24 9a8.66 8.66 0 01-8.57 3.17z" fill="#d5ccbf"/>
  <path d="M423.31 220.88c1.6.27 3.22 1.68 4.45 3a3.8 3.8 0 01.45 5.16c-.6.73-2.89 1.21-3.2.82a29.91 29.91 0 01-3.93-6.39c-.2-.47 1.44-2.72 2.23-2.59z" fill="#d3c9ba"/>
  <path d="M432.54 195.11c-2.76-.48-4.26-1.52-4-3.71s1.92-2.94 3.86-3c2.74-.12 5.48 2.89 4.09 4.52-1.02 1.2-2.95 1.67-3.95 2.19z" fill="#dbd4c9"/>
  <path d="M441.41 300.87c-2.4-.46-2.83-2.38-2.84-4.26 0-2.44-.64-5.6 3.21-5.72 1 0 2.28 1.25 2.89 2.26 1.6 2.67.73 5.07-1.5 7a5.75 5.75 0 01-1.76.72z" fill="#cfc5b5"/>
  <path d="M77.87 241.11c-.07 2.48-.37 5.1-3.78 4.79a3.23 3.23 0 01-2.76-3.9 6 6 0 012.92-4c2.08-.79 3.15 1.07 3.62 3.11z" fill="#dcd5cb"/>
  <path d="M286.88 312.1c-3.14-1.93-4.22-4.87-4.11-8.39 4.49-2.29 8.88-3.37 12.86 1-1.23 4.45-4.18 6.87-8.75 7.39z" fill="#c3b5a0"/>
  <path d="M294.55 399.7c1.78 3.21 5.25 3.48 8.14 4.84.95.45 1.42 1.91 2.11 2.9-.95.57-2 1.71-2.82 1.61-2.57-.31-5.39-.57-7.55-1.82-4-2.32-2.88-5 .41-7.3z" fill="#cabdaa"/>
  <path d="M238.92 258.19c5.56-2.7 10.88-3.62 17.05-.26-6.41 3.41-11.85 1.84-17.05.26z" fill="#c6b9a4"/>
  <path d="M262.41 320.14l8.91-3.7a7.54 7.54 0 01-.16 1.86c-1.07 3 4.4 7.79-2 9-4.94.93-5.97-3.36-6.75-7.16z" fill="#d4cbbd"/>
  <path d="M239 231c-.6 1.82-1.31 4.18-2.21 6.47-.16.39-1.13.64-1.73.63s-1.53-.55-1.5-.72c.46-3 1-6 1.68-9 .1-.44 1-.69 1.55-1z" fill="#cec2b1"/>
  <path d="M343.64 231.32c-1.26 2.43-3.26 3.72-5.91 3-.68-.19-1.51-2.12-1.26-2.94.84-2.79 3.22-3.47 5.77-2.79.66.14.94 1.77 1.4 2.73z" fill="#d4cbbd"/>
  <path d="M409.1 231.92c-.69.84-1.29 2.29-2.1 2.42a4.29 4.29 0 01-5.3-3.82c-.11-.65 1.25-2.08 2.11-2.24 2.78-.53 4.83.53 5.29 3.64z" fill="#d4cabd"/>
  <path d="M323.82 396.5c-.21.49-.29 1.19-.67 1.43-2.13 1.37-9.24-1.35-9.84-3.77-.08-.35.37-1 .74-1.28 2.43-1.88 9.02.58 9.77 3.62z" fill="#c1b19b"/>
  <path d="M294.84 399.93c-.84-1-1.62-2-2.52-2.93-1.24-1.27-3.16-2.46-1.54-4.4.59-.71 2.38-.75 3.54-.57a8.18 8.18 0 013.52 1.54c1.45 1.08 3.38 2.7 1.88 4.45-1 1.18-3.4 1.16-5.17 1.68z" fill="#c7b9a5"/>
  <path d="M270.63 387.91c2.05-2.92 4.63-4 7.77-1.82 2 1.4 4.33 3.47 2.69 6s-4.31.25-6.5-.28l.13.15a28.89 28.89 0 00-4.23-4.19z" fill="#d0c6b5"/>
  <path d="M422.43 246.75c1.16 1.37 2.85 2.6 3.37 4.21s.41 4.3-.56 5c-1.81 1.39-3.07-.8-3.85-2.27a17.33 17.33 0 01-1.76-5.16c-.06-.35 1.63-1.04 2.8-1.78z" fill="#c9bca9"/>
  <path d="M446.7 252c.09-2.81.19-5.62.28-8.43 3.11.42 6.19.91 7.62 4.31-1.05.82-1.4 1.65-1.07 2.49s.67 1.27 1 1.27c-2.4 4.45-5.03 4.36-7.83.36z" fill="#ded9d0"/>
  <path d="M288.07 363.43c.89-3.11 3.22-3.71 5.89-3 .82.22 2 1.89 1.8 2.54-.84 2.74-2.91 4.23-5.81 3.27-.84-.24-1.26-1.82-1.88-2.81z" fill="#d4cbbd"/>
  <path d="M253.41 222.83c-.76.72-1.65 2.13-2.27 2-2.71-.48-4.37-2.47-5.47-4.89-.24-.54-.37-1.69-.19-1.78 1.07-.49 2.48-1.34 3.34-1a6.9 6.9 0 014.59 5.67z" fill="#d8d0c4"/>
  <path d="M325.66 353.16c.71.77 2.11 1.67 2 2.31-.48 2.71-2.39 4.47-4.9 5.53-.55.23-1.7.35-1.8.14-.52-1.07-1.39-2.5-1-3.36a7.17 7.17 0 015.7-4.62z" fill="#d5ccbe"/>
  <path d="M345.3 352.47c-.61-.11-1.46 0-1.8-.36-1.79-1.92-3.1-4.2-2.37-6.88a3.64 3.64 0 012.58-2.19 3.39 3.39 0 012.51 2.06c.71 2.49.94 5.11-.92 7.37z" fill="#c9bca8"/>
  <path d="M386.79 333.66c.61-1.23 1.19-3.29 1.7-3.27 3 .1 4.41 2.24 4.47 5 0 1-1.06 2.8-1.83 2.91-3.46.49-3.96-2.15-4.34-4.64z" fill="#cfc4b4"/>
  <path d="M131.2 139.8q-4 4.11-8 8.24c-.51-4.53-1-9 3.42-12.2h8.14l-.1-.1a28.82 28.82 0 00.2 3.83l-1.8.26z" fill="#d7cfc2"/>
  <path d="M278.71 267.87c3.53 7.95-.6 8.59-8.11 7.9.4-4.99 2.76-7.98 8.11-7.9z" fill="#d9d1c5"/>
  <path d="M346.09 316.87c.08 1.87-.38 4-2.42 3.76-1.36-.17-3-2-3.62-3.42a2.67 2.67 0 012.47-3.73c2.09-.12 3.24 1.36 3.57 3.39z" fill="#d2c8ba"/>
  <path d="M315 309.48c.61-1.08 1.2-3 1.75-3 2.86.07 4.42 2 4.42 4.74 0 1-1.1 2.7-1.85 2.78-3.19.36-4.12-1.87-4.32-4.52z" fill="#d8d0c4"/>
  <path d="M400.59 277.16c-.08 2.2-1.12 4.18-3.22 4-3.05-.21-3.74-3.11-4.11-5.59A3.25 3.25 0 01395 273c3.12-.48 4.66 1.58 5.59 4.16z" fill="#d3c9bb"/>
  <path d="M318.47 291.05c2.08-2.68 4.95-3.38 8.14-3.25a39.77 39.77 0 012.74 5 5.2 5.2 0 010 3.5c-.57 1.4-1.95 1.47-3.26.49z" fill="#cbbead"/>
  <path d="M238.72 159.68l7.84 8.19c-5.36 0-10.9.32-12.05-7z" fill="#e9e7e3"/>
  <path d="M218.59 175.78c.92 1.64 2 3.23 2.72 4.94s.85 3.78-1.43 4.34c-.83.21-2.37-.92-3-1.84-2.2-3.05-2-5.73 1.85-7.37z" fill="#d4cbbc"/>
  <path d="M241.54 177.51c1.11.49 2.77.73 3.14 1.55s-.75 2.12-1.21 3.21c-1.1-.48-2.78-.71-3.14-1.53s.75-2.13 1.21-3.23z" fill="#ddd7cd"/>
  <path d="M412.59 198.72c2.19-.37 3.64.84 4.53 2.52s.95 4.17-1.34 4.25c-1.4 0-3.12-2-4.2-3.53-.39-.56.64-2.14 1.01-3.24z" fill="#c3b49f"/>
  <path d="M278.48 203.88c4-6.57 7.86-1.19 11.75.22-1.5 3.44-4.58 3.53-7.67 3.62l.22.17c-1.34-1.43-3.7-1.78-4.3-4.01z" fill="#ccc0af"/>
  <path d="M205.53 227.36c-.88.54-2 1.72-2.57 1.49-2.51-1-3.83-2.94-3-5.76.14-.46 1-1.13 1.34-1.05 2.81.6 4.13 2.5 4.23 5.32z" fill="#d9d0c4"/>
  <path d="M265.85 228.77c-.66 2.56-1.86 4.66-4.89 4.32-.42-.05-1.21-2.46-.79-3.13.94-1.53 2.53-2.66 3.86-4z" fill="#cec2b1"/>
  <path d="M142.7 243.67c-.48 2.22 0 5.4-3.25 5.42-1.27 0-3-2.15-3.71-3.69s-.62-3.61-.88-5.44z" fill="#c9bca9"/>
  <path d="M346.76 243.69a56.37 56.37 0 01-6.95 2.85c-.72.2-2.67-1.14-2.62-1.65a4.62 4.62 0 011.79-3.12c3.23-2.14 5.87-1.33 7.64 2.15z" fill="#cfc5b5"/>
  <path d="M400.91 258.14a5.09 5.09 0 014.85 4.94c.07.75-1.25 1.64-1.94 2.46-1.36-1.34-3-2.51-3.95-4.09-.4-.64.65-2.17 1.04-3.31z" fill="#c9bdaa"/>
  <path d="M214.65 299.76l-3.85-8.28 8.24.86c1.68 6.25 1.68 6.25-4.39 7.42z" fill="#c7baa5"/>
  <path d="M295.63 304.69l-12.86-1c-.07-1.32-.13-2.64-.16-4l16 .32v3.26a9.21 9.21 0 01-2.98 1.42z" fill="#b19c7d"/>
  <path d="M370.31 318.43c-.65-.88-1.89-1.82-1.83-2.65.16-2.17 1.86-2.85 3.6-1.78a3.39 3.39 0 011.1 3.06c-.18.69-1.86.94-2.87 1.37z" fill="#d4cabc"/>
  <path d="M238.86 351.21c-3.94-.28-8.4 2.56-11.62-2 3.66-2.21 7.67-.94 11.53-1.12a22.79 22.79 0 00.09 3.12z" fill="#e8e5e0"/>
  <path d="M286.53 191.91c-4 6.33-7.85.92-11.76-.17 4.02-6.46 7.85-.74 11.76.17z" fill="#d1c7b8"/>
  <path d="M418.63 282c-.62 1.05-1.24 2.1-1.87 3.15-.66-1-1.83-2-1.86-3.07s1.09-2.08 1.71-3.12c.67.98 1.39 2.04 2.02 3.04z" fill="#cec3b2"/>
  <path d="M221.7 224.22c-.62 1.52-1.73 1.94-2.87.78a11.35 11.35 0 01-1.55-3.07c1.06-.29 2.44-1.13 3.1-.74s.91 1.97 1.32 3.03z" fill="#d3cabc"/>
  <path d="M99 208.64l7.16-.54c.09 2.55.19 5.09.28 7.63a14.19 14.19 0 01-7.44-7.09z" fill="#b4a183"/>
  <path d="M340.79 374.77c.57 1.09 1.61 2.2 1.56 3.27s-1.2 2-1.86 3.07c-.56-1.09-1.6-2.21-1.55-3.28s1.18-2.04 1.85-3.06z" fill="#ccc0af"/>
  <path d="M318.36 320.06c.13 4.25 1.48 8.89-3.56 11.54l-.63-4c.68-2.89.99-6.02 4.19-7.54z" fill="#c7b9a6"/>
  <path d="M370.5 367.64c-3.37-1.66-3.77-4.83-4.07-8.05 3.37-2.24 4.07.16 4.33 2.68a32.36 32.36 0 01-.26 5.37z" fill="#c3b49e"/>
  <path d="M326.51 339.54c-5.08-2.74-3.41-7.67-3.88-11.91 4.75 2.84 4.21 7.37 3.88 11.91z" fill="#c5b7a2"/>
  <path d="M270.7 344.46c.19-1.7.37-3.41.57-5.12a17.52 17.52 0 013.13 2.27c1.22 1.35 3.16 3.18 1 4.78-1.77 1.35-3.55-.17-4.7-1.93z" fill="#d1c8b9"/>
  <path d="M134.66 155.82l11.92-.14c.06 1.31.1 2.63.12 3.95-4.42.03-9.11.89-12.04-3.81z" fill="#ebe9e6"/>
  <path d="M174.86 352.16l7.77-.39c-1.58 3.38-4.62 4-7.88 4.14l-1.49-1.91z" fill="#dfd9d1"/>
  <path d="M214.91 207.61c2.59-4.05 5.13-3.69 7.61.11z" fill="#c5b7a2"/>
  <path d="M291.62 377.17c0 .47.1 1.19-.15 1.37a2.09 2.09 0 01-1.68.4c-1.84-.79-1.77-1.71.17-2.27.47-.13 1.11.33 1.66.5z" fill="#c9bda9"/>
  <path d="M378.67 375.75c-.18 3.36-1 6.37-4.37 8-.06-3.53.23-6.82 4.37-8z" fill="#c7b9a5"/>
  <path d="M327 288.11c1.6-3.16 4.31-4.3 7.68-4.22-1.74 2.88-4.41 4.11-7.68 4.22zm7.71-4.23a8.31 8.31 0 017.91-4.13c-1.69 3.25-4.53 4.18-7.91 4.13z" fill="#dcd6cc"/>
  <path d="M374.39 383.56c.11 1.47.21 2.94.32 4.41a5.41 5.41 0 01-4.17 3.86c-.24-3.46.46-6.48 3.85-8.27z" fill="#c7b9a5"/>
  <path d="M191 247.31c-3.4.4-6.37-.25-8.36-3.37 3.36-.41 6.36.15 8.36 3.37z" fill="#cec3b2"/>
  <path d="M262.39 271.93c-2.72 4.32-5.34 3.85-7.89-.16z" fill="#cbc0ae"/>
  <path d="M334.54 268.37l8.22-.08c-2.71 3.34-5.45 3.34-8.22.08z" fill="#dcd6cc"/>
  <path d="M198.39 252c-3.24-.3-6.08-1.23-7.35-4.64l7.71.57-.2-.21c-.05 1.44-.11 2.86-.16 4.28z" fill="#cec3b2"/>
  <path d="M318.8 263.91q.19 1.71.45 3.42l-8.4.66c-.1-1.36-.2-2.71-.31-4.06z" fill="#dcd6cc"/>
  <path d="M454.55 251.67c-1.63-.48-2.24-1.44-1.54-2.7.27-.5 1-.72 1.59-1.06a18.9 18.9 0 01-.05 3.76z" fill="#c1b19a"/>
  <path fill="#c1b29b" d="M404.73 241.16l.35 1.07-1.01-.15.66-.92z"/>
  <path d="M182.55 243.94l-2 .11-2-.28c1.45-2.09 2.78-2.12 4 .17z" fill="#cec3b2"/>
  <path d="M154.92 240.18l3.29-4.5z" fill="#cabeab"/>
  <path d="M342.58 279.78a16.31 16.31 0 00-.26-3.76c3.39 1.03 3.49 2.28.26 3.76z" fill="#dcd6cc"/>
  <path d="M66.24 228c1.31-.09 2.63-.14 3.94-.15l-2.9 3.55c-.34-1.15-.69-2.29-1.04-3.4z" fill="#bdad94"/>
  <path d="M306.92 335.35a4.87 4.87 0 01-4.2-3.48q1.51-2.34 3.48-.37l.77.61a12.12 12.12 0 00-.05 3.24z" fill="#e5e1da"/>
  <path d="M155.08 339.69l3.59 4.12a28.36 28.36 0 01-3.8.17z" fill="#d3c9bb"/>
  <path fill="#c3b49e" d="M197.49 341.82l-1.06.37.12-.98.94.61z"/>
  <path d="M154.75 344c-1.61 2.14-2.91 1.88-3.93-.51q1.97.25 3.93.51z" fill="#d3c9bb"/>
  <path d="M190.87 352.06c1.16-2.34 2.35-2.33 3.54 0-1.17 1.38-2.35 1.46-3.54 0zm15.66-4.32l-.48 4.37a17.23 17.23 0 01-.91-3.22c-.03-.33.86-.77 1.39-1.15z" fill="#dfd9d1"/>
  <path d="M190.87 352.06a32.33 32.33 0 013.55 0c1.07.83 1.45 1.68 1.13 2.56s-.65 1.34-1 1.34l.17-.16c-1.36 1.38-2.68 1.35-4-.08a10.61 10.61 0 01.15-3.66z" fill="#c5b7a2"/>
  <path d="M194.57 355.9c0-1.3-.07-2.6-.13-3.9l3.92 4.21c-1.26-.15-2.52-.21-3.79-.31zm-19.8 3.73l-2 .13-2-.07c-1.28-3.64-.1-5 3.68-4l.25.2a27.17 27.17 0 00.07 3.74z" fill="#dfd9d1"/>
  <path d="M190.76 355.66a27.84 27.84 0 004 .08l-.45 4.23c-1.19-1.44-2.37-2.87-3.55-4.31zm23.83 8.07c1.5-2.15 2.75-2.12 3.73.41-1.25-.14-2.49-.3-3.73-.41zm-7.99 4.16l-3.48-4.28zm3.81 8.19l-3.13-4.49q1.58 2.24 3.13 4.49zM195 363.48l3.34 4.49z" fill="#dfd9d1"/>
  <path d="M174.5 355.71l-3.68 4-8-3.82-4.14-.05-2 .06-2-.1 4-12c5.71 2.17 9.14 8.75 16.19 8.35-.15 1.19-.27 2.37-.37 3.56z" fill="#d3c9bb"/>
  <path d="M130.51 335.92l1.53.6-1.31-.83z" fill="#f2f2f1"/>
  <path d="M94.52 295.73c.55.31 1.62.7 1.59.9-.23 1.28-.85.95-1.55-.94z" fill="#e4e0d9"/>
  <path d="M239.21 376.15l3.78 3.69q1.72 2.12 3.6 4.09a8.74 8.74 0 013.81 4.41c2.49 6.37 2.49 6.37-3.83 8.11a6 6 0 00-3.37-1c-2.6-1.76-6-1.24-8.59-3l-11.53-4.75c1.67-6 6.44-8.87 11.44-11.55v-.1a3.62 3.62 0 004.69.1z" fill="#b4a083"/>
  <path d="M234.58 392.38a9.11 9.11 0 018.59 3c-3.4.54-6.37-.16-8.59-3z" fill="#dfd9d1"/>
  <path d="M222.89 371.7c5.75-5 5.8-5 11.89.07z" fill="#e8e5e0"/>
  <path d="M250.81 383.7c-.06-2.62-.11-5.25-.17-7.87 5.4 2.22 7.75 6.47 8 12.08z" fill="#c6b7a2"/>
  <path d="M250.37 388.3l-3.81-4.41 4.09-.07c-.09 1.5-.19 2.99-.28 4.48z" fill="#dfd9d1"/>
  <path d="M526.38 212.43l-4.14 6.82c-1 0-2.09.07-3.13.07-1.81-.74-3-2.28-4.51-3.43-1.38-1.06-1.74-1.93-1.09-2.62a2.42 2.42 0 011.74-.88z" fill="#eeedec"/>
  <path d="M515.21 212.4a34.24 34.24 0 00-.65 3.5 35.1 35.1 0 01-5.64-.34c-1-.22-1.81-1.35-2.7-2.06 1.11-.5 2.2-1.32 3.34-1.41a38.45 38.45 0 015.65.31zm-.61 3.49l4.51 3.43a5.37 5.37 0 01-4.51-3.43z" fill="#d4cabc"/>
  <path d="M186.82 143.55c2.62.06 5.33-4.06 7.87.15-1.72 3.25-4.72 4-8 4.12zm-.11 7.95l-8 .48c0-1.36-.09-2.72-.14-4.08l8.1-.08c-.03 1.23-.01 2.46.04 3.68z" fill="#e3ded7"/>
  <path d="M66.46 183.65l-3.81-3.85a4.63 4.63 0 013.81 3.85zm.07-7.79a11.81 11.81 0 00.4-3.4c1.63.41 2.12 1.3 1.23 2.51-.34.45-1.08.6-1.63.89z" fill="#bdad94"/>
  <path d="M150.68 79.79c.45 4.43.9 8.86 1.35 13.33-2.34 4.37-6.64 2.58-10.13 3-9.87 1.34-9.9 1.23-11.06 11.57a32.82 32.82 0 000 3.84l-.71.81c-11.47 0-13.43-9-16.17-17.22.11-4.83-3-6.73-7-8-.92-.29-2.19-2-2-2.8.59-2.41 2.66-1.76 4.47-1.47 5.32.85 9.54 4 14.07 6.55 3.71 2.11 6-.11 7.5-3.53 2.05-4.56-.92-5.55-4.3-6.33a3.1 3.1 0 01-.88-3.17c.35-1 .69-1.54 1-1.54 8.4-.4 15.83 3.72 23.86 4.96z" fill="#c4b5a0"/>
  <path d="M50.71 72.06c5.24-6.2 5.24-6.2.14-11.92 2.86-4.65 7.73-6.88 12.11-9.5 7-4.15 11.38-2.92 16.53 4.08 2.08 2.82 3.08 6.38-1.11 7.87-5.13 1.81-9.54 4-11.78 9.23a14 14 0 01-4.88 3.3c-4.26 1.11-7.81-.36-11.01-3.06z" fill="#b8a68b"/>
  <path d="M46.51 88c3.63-2 4.22-5.48 4.45-9.14 11.3.62 20.17 10.39 32.15 8.48a13.15 13.15 0 017.17 4.79l-12.46 19.29c-1.08-1.22-2.15-2.45-3.22-3.67 1.05-3.87 2.89-8-4.14-7.74-3.95.13-7.92-.47-11.88-.74-1.62-2.58-4.08-3.43-7-3.4q-2.51-3.95-5.07-7.87z" fill="#b8a78c"/>
  <path d="M130.39 123.47l-3.45 4.39c-4 1.47-9.27-.69-12.31 3.93l.06.12c-2.61 1.36-5 .77-7.36-.74a11.22 11.22 0 01-3-4.3 7.27 7.27 0 012.17-7.18c2.7-2.55 2.41-5.27.47-8.09-2.23-3.25-4.59-6.42-6.6-9.81-.5-.85.17-2.39.31-3.61 1.25.31 2.69.32 3.7 1 2.23 1.49 4.23 3.5 6.74.52 10 .89 10.31 13.76 19.43 15.74-.07 1.59-.15 3.18-.23 4.78-.91.73-1.21 1.46-.89 2.17s.65 1.08.96 1.08zm-3.55-48.6c0 1.57-.09 3.14-.14 4.71-8.36-.82-15-3.31-17.16-13-1.31-6-10.13-5.91-12.09-12.9 5.37-3.58 11.15-1.54 16.69-1.44 2.13 3.62 1 8.45 4.28 11.64z" fill="#c9bca9"/>
  <path d="M119.1 168.42c-6.31-3.89-6.54-12.19-12.06-16.66l-4.57-11.82c-2.82-3.37-3.46-7-1.1-10.86a4.64 4.64 0 015.25-1.09l-.14-.19c4 3 1.61 8.34 4.39 11.78 5.8 6.17 3.52 16.75 12.43 21.6 3.7 2.04 2.87 3.6-4.2 7.24z" fill="#bbab91"/>
  <path d="M102.59 127.76l-.12 12.18L95 140c-2.68-4.66-7.89-5.45-12-7.88q3.73-8.06 7.49-16.11c2.11-1.94 4.11-1.27 6.07.26 1.17 1 2.3 2 3.41 3a13.41 13.41 0 012.57 6.19c-.01.8.02 1.54.05 2.3z" fill="#ddd7cd"/>
  <path d="M83 132.15c2.22-1.12 4.91-1.78 6.59-3.45 4.19-4.17 5-.21 6.57 2.29 2 3.29-1.08 6-1.14 9-2.69 4.1-6 4.34-8.76.54C84.5 138.21 84 135 83 132.15z" fill="#bdac93"/>
  <path d="M61.51 72.58l5.09-.76c5.24 5.5 11.74 8 19.26 8.08 3.28 0 6.56.18 8.42 3.59-4.45 4.13-10 4.26-15.56 4.2-9.17-1.13-18.81-1.69-17.21-15.11z" fill="#bfaf98"/>
  <path d="M130.57 115.45c-5.72.57-9.49-2.69-12.75-6.72-2.35-2.91-4.46-6-6.68-9q1.42-2.26 2.84-4.54c4 1.93 6.69 5.11 9 8.92 1.87 3.08 4.74 5.55 7.16 8.3a29.2 29.2 0 01.43 3.04z" fill="#b29e80"/>
  <path d="M78.31 84.59l16-1.1q-2 4.31-4 8.6l-8.17-.92c-2.64-1.41-4.63-3.17-3.83-6.58z" fill="#d6cdc0"/>
  <path d="M98.66 119.83L90.44 116c-1.78-1.79-3.89-4-1.61-6.24s4.71-.3 6.56 1.46a45 45 0 013.61 4.4c1.09 1 1.41 2 .94 2.9s-.87 1.31-1.28 1.31z" fill="#c9bca9"/>
  <path d="M118.42 63.92c-5.59-2.35-6.91-6.27-4.27-11.64 5.44 2.4 4.28 7.24 4.27 11.64z" fill="#d9d1c6"/>
  <path d="M71.19 135.57c-.81 1.6-1.61 3.21-2.42 4.82-.55-.89-1.49-1.74-1.56-2.67a5.8 5.8 0 013.51-6c.11 1.28.28 2.56.47 3.85z" fill="#c5b6a2"/>
  <path d="M106.62 128l-4-.23.14.18c-1.88-2-2.06-4.4-1.65-6.94l1.92-1.59c1.17.13 2.34.23 3.52.29 0 2.75.04 5.52.07 8.29z" fill="#ddd7cd"/>
  <path d="M107 111.62c3.57 2.92 4 5.64-.46 8.09.14-2.71.3-5.39.46-8.09zm-8.34 8.21c.11-1.4.22-2.8.34-4.21l4 3.79-.64.7q-2.14 2.4-3.79-.37z" fill="#ddd7cd"/>
  <path d="M174.47 107.7c1.16 2.33 3.19 4.62 3.32 7 .44 8.16-5.38 12.34-12.12 8.78-6.18-3.26-13.47-5.42-16.13-13.08 7.9-7.41 16.55-5.16 25.24-2.45z" fill="#c7b9a5"/>
  <path d="M78.31 84.59c1.27 2.2 2.54 4.39 3.8 6.59C68.74 94.63 59 88.86 51 78.84c-.08-2.27-.17-4.52-.25-6.78l10.81.51c2.81 7.84 9.72 10.01 16.75 12.02z" fill="#eae8e5"/>
  <path d="M482.66 203.73a13.27 13.27 0 01-2.31 2.66c-1.32.91-2.4.36-2.61-1.19 0-.24.9-.79 1.45-.91a35 35 0 013.56-.44z" fill="#e8e6e1"/>
  <path d="M274.65 303.82c3.23 1.76 3.83 4.81 4 8.08l-20.12.4a28.92 28.92 0 00-3.57-1.1v-2.65c6.83-.55 13.56-1.39 19.69-4.73z" fill="#e6e2dd"/>
  <path d="M242.65 300.17c-.29 2.68-.82 5.54-3.56 6.49a6.83 6.83 0 01-5.4-.76c-1.75-1.23-1.45-3.64.26-4.95 2.61-2 5.54-3.58 8.33-5.35l.78.55c1.17 1 1.49 2 1 2.81s-.96 1.21-1.41 1.21z" fill="#c8bba7"/>
  <path d="M250.78 295.69c2.72-3.27 6.41-3.89 10.36-3.83 4.47.07 8.95.11 13.42.16l-.11-.15q1.65 1.29 1 2.49c-.4.78-.79 1.17-1.18 1.17-1.15.33-2.3.64-3.45 1-6.74 1.57-13.49 2.77-20.04-.84z" fill="#edebe9"/>
  <path d="M250.78 295.69l20.06.79c-6.29 5.7-13.68 2.63-20.69 2.59-.94-.9-1.17-1.69-.7-2.36s.84-.92 1.24-.92z" fill="#cbbfac"/>
  <path d="M255 308.55a12.37 12.37 0 000 2.65c-2 .29-5.06.52-5-1.41s3-1.61 5-1.24z" fill="#d4cbbd"/>
  <path d="M250.69 295.79c-.14 1.1-.32 2.2-.53 3.29l-7.51 1.09c.13-1.34.27-2.68.41-4z" fill="#e2ddd6"/>
  <path d="M274.29 295.53a15.45 15.45 0 00.17-3.66l4.35.13z" fill="#cbbfac"/>
  <path d="M186.77 283.27c4.3 2.46 9 4.33 12.06 8.57-6.86-.32-14.3 2.24-20-4z" fill="#e4e1da"/>
  <path d="M202.94 295.06l3.84 4.76a15.85 15.85 0 01-3.66 1.38c-8.41 1-12.66-.2-10.94-2.8 2.62-3.96 7.1-2.4 10.76-3.34z" fill="#e3ded7"/>
  <path d="M227.64 357.43c-.17.42-.32 1.2-.49 1.21a4.68 4.68 0 01-1.53-.45c.16-.43.31-1.21.49-1.22a4.78 4.78 0 011.53.46z" fill="#dfd9d1"/>
  <path d="M283.27 247.55c-.21-1.37-.43-2.75-.64-4.13l15.76.15c1.21.43 2.77.54 3.54 1.38.94 1 .24 2.36-1.18 2.4-5.82.15-11.65.15-17.48.2z" fill="#b19c7d"/>
  <path d="M278.48 203.88l4.3 4c-5.83.36-11.78 1.59-17.46.83-6.42-.85-4.26-10.9-11.31-12.4-1.42-.3-2.33-3-3.47-4.58l16 4.42z" fill="#ecebe9"/>
  <path d="M322.75 215.76c-.52-.23-1.48-.49-1.47-.67.1-1.11.64-.83 1.31.83z" fill="#f2f2f1"/>
  <path d="M250.64 375.83a13.91 13.91 0 01-2.73-2.49c-.89-1.4-.27-2.56 1.35-2.78.28 0 .9.92 1 1.49a36.27 36.27 0 01.38 3.76z" fill="#c8baa7"/>
  <path d="M239.21 376.15c-1.68 2.51-3.27 3-4.74-.17zm7.38 7.78l-3.6-4.1z" fill="#dfd9d1"/>
  <path d="M282.6 287.66l4.4-3.56z" fill="#cbbfac"/>
  <path d="M158.57 264l-3.6-4.25z" fill="#cec3b2"/>
  <path d="M95.44 216.25a12.13 12.13 0 01.91 2.38c.05.27-.64.68-1 1a8 8 0 01.09-3.38z" fill="#b4a183"/>
  <path d="M86.67 207.86l4.13 4z" fill="#f2f2f1"/>
  <path d="M114.63 131.79q1.34-2.56 2.65-5.13c1.71-3.31 3.56-5.31 6.62-1.12a13.66 13.66 0 003 2.32c-.23 1.43-.48 2.86-.72 4.29z" fill="#d7cfc2"/>
  <path d="M110.87 139.58c-5.11-2.57-4.4-7.31-4.39-11.78l8.21 4.11c-1.27 2.56-2.55 5.09-3.82 7.67z" fill="#ddd7cd"/>
  <path d="M134.58 271.66l4.24 4.23z" fill="#eae8e4"/>
  <path d="M134.73 135.85c.18-1.32.27-2.66.57-3.95.4-1.75 1.52-2.23 3-1.34a4.14 4.14 0 011.39 1.4c.91 1.49.5 2.71-1.17 3.2a28.42 28.42 0 01-3.93.59z" fill="#dbd4c8"/>
  <path d="M130.39 123.47a20.14 20.14 0 01-1.36-2.39 9.67 9.67 0 011.31-.86c.07 1.09.08 2.17.05 3.25z" fill="#d7cfc2"/>
  <path d="M306.2 331.5a27 27 0 01-3.48.37l-3.57-.27c2.29-4.37 4.65-4.2 7.05-.1z" fill="#c3b49e"/>
  <path d="M270.49 387.72l4.23 4.19z" fill="#f2f2f1"/>
  <path d="M98.57 119.74c1.27.07 2.54.19 3.79.37q.18 3.92.37 7.82c-3.34-1.73-3.95-4.86-4.16-8.19z" fill="#c2b39d"/>
</svg>
