<svg xmlns="http://www.w3.org/2000/svg" data-name="Calque 1" viewBox="0 0 739.78 376.79">
  <path d="M186.84 86.21a454.201 454.201 0 01-17.56-30.73c4.74 10.82 8.78 21.79 15.1 31.9 15.13 24.2 31.73 43.68 29.45 78.61s-30.69 62.27-63.49 62.27-64.66-28.58-66.94-63.52 15.84-53.52 29.79-78.42c18.7-33.38 28.25-69.2 32.09-86.32-1 3.27-12.5 39.78-41.42 86.21-17.68 28.37-39.37 49.79-36.71 90.7s39.89 74.48 78.2 74.48 75.53-33.52 78.19-74.48-19-62.33-36.7-90.7M404 131.75a2.62 2.62 0 01-.21.82l-1.79 2.26-1.92 4.06h-1.58l-.9.27-.13-1.23-.55-1.72.07-1.38-.07-1.3a14 14 0 01-.83-3.37h-.75l-.35-1.5-1.74-4.66-.28-2.4-2.4-6a8.81 8.81 0 01-.41-2.82 2.31 2.31 0 00.07-.48v-.62a4.13 4.13 0 01-1.31-1.72 28.17 28.17 0 01-2.06-6.72l-1.65-1.1c-.27 2-.82 3.09-1.65 3.09h-.2l-4.95-1.31-1.71.14-1.31-.27-6.73 1.3-4-.28-2.13.83-1.72-.83-1.23-.48a5 5 0 01-1.07 1.51 1.63 1.63 0 01-1.06.35h-.28l-4.19-.41-1.58.55-2.06.13c-.68.23-1.44 1.79-2.26 4.67l-.9 2.68-.48.28a56.08 56.08 0 01-3.57 10l-.07 1.45-.75 1.51-2.61 8.44q-.29 1.25-2.13 1.86l.14 1.1a7.63 7.63 0 01-1.58.14 4.27 4.27 0 01-2.89-1.52l1.86-4.67 1.3-2.4 1.1-2.54.62-1.51.68-1.31V124a2.29 2.29 0 001.93-2.54v-1.65l1.51-2.54 2-6.45 1.24-2.41 1.3-4.26 1.58-4.32 1.85-4.53 1.93-2.68a1.09 1.09 0 00.2-.69 2.21 2.21 0 00-.48-1.23 13.07 13.07 0 001.21-1.48 7.52 7.52 0 00.72-1.61l-.55-1.31.55-1.37.75-3.23a8.31 8.31 0 011.18-1.7l-.07-.68 2.13-7.9 1.65-6.46a17.19 17.19 0 012.13-4.4l-.35-1.5.28-1.86a14.69 14.69 0 01.55-2.75 1.92 1.92 0 01.89-1.09 7.08 7.08 0 011.65-.62l.27-1-.48-2.06a5.35 5.35 0 01-.2-1.17 1.52 1.52 0 01.61-1.37l3.16-3.14.69-2.14a3.61 3.61 0 012.68-2l.55 2.82h.55l-.14.76.62 2 1.37 2.56 1.79 4.67 1 3.78 1.17 3.09-1.17.55a2.14 2.14 0 00.41 1.3 3.87 3.87 0 011.72 2.68l-.18 1.26 1.1 1.72 1.3 3.09.62 1.65.14.55-.41 1.3L381 75l.69 1.3L383 78l1.65 4.81.83 2.13v1.64c1.23 1.56 1.85 2.75 1.85 3.58a7.26 7.26 0 01-.21 1l1 1.37 2.13 5.22c.18.41.33.77.44 1.06s.31.78.59 1.45.45 1.13.55 1.4a14.54 14.54 0 01.92 2.34 15.3 15.3 0 01.17 1.92 3.3 3.3 0 011.65 2.68.4.4 0 01-.13.28l-.21 3a5 5 0 01.21 1l1.92 1.44.62 1.24.27 1.3a3.7 3.7 0 001.58 2.07v1.57l1.65 2.41 1.51 3.77.82 1.38a11.54 11.54 0 01.9 2.2 6.73 6.73 0 01.29 1.49zm-19.48-35.31l-.41-.55.21-.48-.21-.68h-1c-.37-.64-.66-2.38-.89-5.22l-.07-1.37-1.79-.69-2.26-6.53h-.69l-2.88-8.24.34-1.58-.27-1.71-2.2-1.65-3.4-9.82a12.58 12.58 0 00-2.19-3.16l-.62.62-.62 2.81-.34.14a23.22 23.22 0 01-.86 3.57 12.66 12.66 0 01-1.2 1.92 6 6 0 00-1.38 3.23l-.14 1.65-2.19 6.8a20.79 20.79 0 01-.59 2.13c-.2.59-.33 1-.37 1.17a5.15 5.15 0 01-.83 1.57l-.41 1.45a6 6 0 01-.58 1.68 1.59 1.59 0 01-1.07.38l-.07 1.57a18.85 18.85 0 01-.82 5.16 8.53 8.53 0 01-2 3l.82 1.92a1.1 1.1 0 00-.82.48 3.91 3.91 0 00-.48 1.38l-.35 1.71.83.14 1.58.69 1.23-.28 1 .55.21-.55.89-.13 6.11.55 3.85-.42 1.58 1a2.62 2.62 0 01.51-.59 3.58 3.58 0 011-.21c.55-.06 1.44-.21 2.68-.44l1.24-.28-.14.69.34.28c.28 0 .62-.37 1-1.1l1.31-.14 3.77-.52a10 10 0 001.58-.27 3.87 3.87 0 00.86-.55 7.51 7.51 0 001.2-1.08zm96.84 32.49a9.57 9.57 0 01-1.58 4.88c-.82 1.32-1.49 2-2 2a2.69 2.69 0 01-.69-.28l-.82.83c-.74.77-1.31 1.16-1.72 1.16l-.75-.13.13-1.72.35-3.91-.07-2.82.82-8.31-.48-3.64-.27-8-.28-2.81.14-6.87-.21-4.53.21-2.68-.76-8.86.62-1.78-.82-.49v-1.69l-.62-4.12.07-3.92-.48-1.65L471 70l-.41.83.2 2-2.47 5.49-.14 1.51-.75 1.1-.48 1.86-.69 1.44-.26 2.46-1.31 4.12-.2 1.51a13.73 13.73 0 00-2.13 3.37l-1.51 5.08-4.26 10.58-3.09 8.17-.76 1.65L450 125a1.84 1.84 0 00-.55 1.16c.05.09.1.19.14.28a16.38 16.38 0 01.28 2.13l-.07.68a2.12 2.12 0 00-1.31.79 6.31 6.31 0 00-.75 1.89 23.92 23.92 0 01-1 3.33 3.64 3.64 0 01-1 1.41 6.25 6.25 0 01-1.93.89 14.12 14.12 0 01-1.4-2.6 12.67 12.67 0 01-.31-2.07l-.41-.55a2.62 2.62 0 00-1.17-2.26l-.41.55-.69-1.79-1.17-4.53-1-1.92-1-4.26-1.25-2.59a8.67 8.67 0 00.62-3.09 2.46 2.46 0 00-.34-1.52l-1.51-1.85-6-17-1.44-4.46h.07l.34-1.86-.82-2.27-.28-2-1 .68-.55-1.44a50.6 50.6 0 01-1.89-5c-.25-.91-.56-2.28-.92-4.12a1.48 1.48 0 01-1.58-1.1l-.69 2.27h-.76l-.2.55a6.62 6.62 0 01.68 2.82l-.34 5.22c0 .82 0 1.47-.07 2a3.28 3.28 0 01-.24 1.1c-.11.25-.35.73-.72 1.41l1.17 3.36-.21 1.72-.07 4.88-.27 3 .27 14.83-.61 2.21a12.29 12.29 0 01.68 4V121a2.13 2.13 0 00-1.61.89 7.64 7.64 0 00-.52 2.75l1.79.9.07 1.5v1.59a4.76 4.76 0 01-.41 2.54l-3.58 3.5-1.78 2.06-.62.2-1-.2-.07-.83-.2-1.23.89-3.23v-6.66l.75-8.24-.06-4.4-.07-1.51.13-2.13-.06-1.71a3.9 3.9 0 00.82-2.27l.55-.42a5.22 5.22 0 00-.34-1.64l-.55-1.72a3.78 3.78 0 000-.55 3.48 3.48 0 00-.1-.41 4.18 4.18 0 01.82-2.27 9.32 9.32 0 01-.82-3.5v-.41l.34-8.45-.34-7.35.14-1.51 1.58.69a3.85 3.85 0 00.41-1.51V75l-2.13-.28-.14-3.36 1.51-.14.21-1.38a2.26 2.26 0 00-1.37-2l-.49-3.77h.49l.13-.89-.75-6.73.07-3.23-.9-2.68a3.19 3.19 0 011.71-2.54l.89.27.62-1.78 1-.62 2.13-2.34a2.06 2.06 0 011.24-.75l1 .34A4.83 4.83 0 00420 45a3.51 3.51 0 001.1 1.2c.09.6.2 1.14.31 1.62a10.77 10.77 0 00.62 1.75c.3.68.72 1.67 1.27 3l-.41 1.51-.48 2.27.2.82 1.44 1 1.17 5.15-1 2.13.55.41.41 1.44c.92.1 1.7.94 2.34 2.54l1.48 4.9 1.81 7.26a4.7 4.7 0 00-1.23 2.55l.48 1.64 1 .14a1.57 1.57 0 011.06.48 5.32 5.32 0 01.52 1.51l-.9 2c.37.65.69 1 1 1h.55l.61 1.24q1.86 5 1.86 6l-.34 2.14-.35 1.57.89.69 1 .28 1.04 2.06 1.86 2.82.48 2.68 1 1.37 1.24 4.53 1.09 1.65 1.52 4.4.82 1 1.17-1.58 3.36-5.56 1.79-4.4L454 108l2.26-5.77 4.4-14.76 1.72-3.85.48-4.32 2.4-7.9.41-2.13.62-.28.55-.68v-.55l.76-.55-.11-1.21-.9-.55c.28-1.92.6-3 1-3.36l.89-.55.89-1a27.49 27.49 0 00-1.44-3.08 5.93 5.93 0 00.75-2.48 3.64 3.64 0 00-.06-.75l.82-1.38 1.51-3.22 2.75-3.37c1.23-1.51 2-2.26 2.2-2.26l1.16.41-.34 4.67.41.55.89-.14c.87 0 1.31.37 1.31 1.1l-.07 2.68-.34 2.26-.62-.27-.21 1.24.69 2.54.22 14.6v.69a3.75 3.75 0 01-.42 1.85l-1.23 2.55a3.58 3.58 0 00-.21 1.64 2.15 2.15 0 00.76 1.07 2.32 2.32 0 001.17.24l.13 2.54-.2 11.33.75 5 .41 8.58.42 5.77a11.73 11.73 0 01-.42 2.82 6.06 6.06 0 01.76 1.85c.09.5.18 1.81.27 3.91l.21 5.36zm77.74 2.82a2.83 2.83 0 01-.2.82l-1.9 2.26-1.92 4.06h-1.58l-.89.27-.14-1.23-.55-1.72.07-1.38-.07-1.3a14 14 0 01-.82-3.37h-.76l-.34-1.5-1.68-4.66-.27-2.4-2.41-6a9.09 9.09 0 01-.41-2.82 1.79 1.79 0 00.07-.48v-.62a4.13 4.13 0 01-1.3-1.78 28.17 28.17 0 01-2.06-6.72l-1.65-1.1c-.27 2-.82 3.09-1.64 3.09h-.21l-4.94-1.31-1.72.14-1.31-.27-6.73 1.3-4-.28-2.13.83-1.72-.83-1.23-.48a4.83 4.83 0 01-1.07 1.51 1.63 1.63 0 01-1.06.35h-.27l-4.19-.41-1.58.55-2.07.13c-.68.23-1.44 1.79-2.26 4.67l-.89 2.68-.48.28a56.9 56.9 0 01-3.58 10l-.06 1.45-.76 1.51-2.61 8.44q-.27 1.25-2.13 1.86l.14 1.1a7.57 7.57 0 01-1.58.14 4.27 4.27 0 01-2.89-1.52l1.86-4.67 1.3-2.4 1.1-2.54.62-1.51.69-1.31V124a2.29 2.29 0 001.92-2.54v-1.65l1.51-2.54 2-6.45 1.24-2.41 1.3-4.26 1.58-4.32 1.86-4.53 1.92-2.68a1.09 1.09 0 00.21-.69 2.21 2.21 0 00-.48-1.23 11.8 11.8 0 001.2-1.48 7.52 7.52 0 00.72-1.61l-.55-1.31.55-1.37.75-3.23a8.77 8.77 0 011.17-1.7l-.07-.68 2.13-7.9 1.65-6.46a17.19 17.19 0 012.13-4.4l-.34-1.5.27-1.86a15.58 15.58 0 01.55-2.75 1.92 1.92 0 01.89-1.09 7.26 7.26 0 011.65-.62l.28-1-.48-2.06a5.55 5.55 0 01-.21-1.17 1.52 1.52 0 01.62-1.37L522 44l.68-2.14a3.61 3.61 0 012.68-2l.55 2.82h.55l-.14.76.62 2 1.4 2.56 1.78 4.67 1 3.78 1.17 3.09-1.17.55a2.14 2.14 0 00.41 1.3 3.83 3.83 0 011.72 2.68l-.14 1.23 1.1 1.72 1.31 3.09.62 1.65.13.55-.41 1.3L536 75l.68 1.3 1.41 1.7 1.65 4.81.82 2.13v1.64c1.24 1.56 1.85 2.75 1.85 3.58a6.43 6.43 0 01-.2 1l1 1.37 2.13 5.22c.18.41.33.77.45 1.06s.3.78.58 1.45.46 1.13.55 1.4a14 14 0 01.93 2.34c.06.37.12 1 .17 1.92a3.29 3.29 0 011.64 2.68.4.4 0 01-.13.28l-.21 3a5 5 0 01.21 1l1.92 1.44.62 1.24.27 1.3a3.75 3.75 0 001.58 2.07v1.57l1.65 2.41 1.51 3.77.83 1.38a12.2 12.2 0 01.89 2.2 6.73 6.73 0 01.3 1.49zm-19.5-35.31l-.41-.55.2-.48-.2-.68h-1q-.54-1-.89-5.22l-.07-1.37-1.78-.69-2.27-6.53h-.69l-2.88-8.24.39-1.58-.27-1.71-2.2-1.65-3.43-9.82a12.73 12.73 0 00-2.2-3.16l-.62.62-.62 2.81-.34.14a22 22 0 01-.86 3.57 12.66 12.66 0 01-1.2 1.92 6.08 6.08 0 00-1.37 3.23l-.14 1.65-2.2 6.8a21 21 0 01-.58 2.13c-.21.59-.34 1-.38 1.17a5.41 5.41 0 01-.82 1.57l-.42 1.45a6 6 0 01-.58 1.68 1.57 1.57 0 01-1.07.38l-.06 1.57a19.17 19.17 0 01-.83 5.16 8.4 8.4 0 01-2 3l.82 1.92a1.12 1.12 0 00-.82.48 4.36 4.36 0 00-.48 1.38l-.33 1.73.82.14 1.58.69 1.24-.28 1 .55.2-.55.9-.13 6.11.55 3.84-.42 1.58 1a2.35 2.35 0 01.52-.59 3.38 3.38 0 011-.21c.55-.06 1.45-.21 2.68-.44l1.24-.28-.14.69.34.28c.28 0 .62-.37 1-1.1l1.31-.14 3.78-.52a10.27 10.27 0 001.58-.27 4.39 4.39 0 00.86-.55 8.59 8.59 0 001.16-1.1zm81.11-35.71l-.71 3.78a7.5 7.5 0 01-1 3.12 5.1 5.1 0 01-2.3 1.34 8.9 8.9 0 00-1.16.62l1 1.24a9.48 9.48 0 01-1.51 3.5 4.17 4.17 0 00-1.76.48 4.85 4.85 0 00-1.2 1.51l.83.55L611 79l-2.47 1.51-1 1.17-2.82 1a14.34 14.34 0 00-2.54 2L600.51 86l-.68-.27-2.13 1.1-4 1.44-2.48 1.24-2.33-.28-1.37 1-1.38-.13-1 .55-1.14-.25a5.74 5.74 0 00-2.81.82l-4 2.41-1 .55-.19 1.23.41 7.9-.41 1.44.68 6.87V113a1.46 1.46 0 00-1.44 1.57v.28l1.17 3.78.34 8.86.21 3.36c0 1.19-.32 2-1 2.27l-1.51.69-1.52 2-1.16.13-2.27 1.72a1.69 1.69 0 01-.41.28c-.73 0-1.1-.62-1.1-1.86a4.21 4.21 0 01.07-1l1-2.54-.34-4 1-11.13-.62-5.08.82-7-.2-2.54.82-4.26v-2.09h-.69l-.1-1.44.2-1.23.62-2-.07-1.09.07-1.72-.69-1.37-.34-7.77.21-1.85.13-3.09.42-2.06-.76-2.54v-.14l.21-4.67-.07-1.1.82-.68-.2-3.85h-1.17a20.67 20.67 0 01-.34-3.23c0-.82.11-2.26.34-4.33l.07-.13a1.38 1.38 0 00-.14-.66.42.42 0 00-.34-.24l-1.45-.68-.75-1-.89-.14.06-2.54.83-.41 3.78-2.13 2.47-1.45 9.48.76 2.06-.55a7 7 0 012.54-.34h1.78l3.09.48 2.13.14.76-.14 1.72-.14.34.14.75 1.24h4.26l2.41 1.37 1.23-.83 3 .83.89 1.3a4 4 0 001.44 1.51l3.57.35 3.23 2.61 1.79 1.44a5.38 5.38 0 00-.28 1 3.07 3.07 0 001 2l.07 1.86zm-7.08 1.38l-.75-2.11-.35-1.65-3.36-4.95a8.83 8.83 0 00-.89-1.61 3.86 3.86 0 00-.83-.65l-.55.68Q600.38 48 596.46 48h-4.6l-3.91-1-2.75 1.37-6.11-.28a3.16 3.16 0 00-2 1.48 5.56 5.56 0 00-.69 2.92l-.14 5.22-.14 1.37-.82.83a5.51 5.51 0 011.1 1.47 3.7 3.7 0 01.34 1.62 3.91 3.91 0 01-.14 1l-.6 3.32.61 2.82v3.5l.49 8.18-.21 1.09h-.48c-.69 0-1 .49-1 1.45 0 .69.16 1.09.48 1.23l1.51-.14h4.26l1.17-.27.75 1.51 1.38-.41 3.43-1.37 6.59-1 3.78-1.65 3.24-1.61a4.75 4.75 0 002.47-1.79l1-2 1.77-1.86.21-1.1 1.24-1.1.48-1 3.29-4.47.62-2.81zM359.92 233.44v.78l-.56.22-1.75.45-1.85.22a10.08 10.08 0 00-.26-1.91 1.36 1.36 0 00-.45-.65 1.84 1.84 0 01-.5.48l-.61.36a4.8 4.8 0 00-.67.42Q350.3 236 342.51 236a4.54 4.54 0 01-2.19-.41 2.24 2.24 0 01-1-1.41 1.09 1.09 0 00-.75.6l-.81-.38a3.76 3.76 0 00-.21-1 1.29 1.29 0 00-.61-.55l-.34.44a3 3 0 01-1.24-.78 20.72 20.72 0 01-1.43-2 2.93 2.93 0 00.11-.89 2.19 2.19 0 00-.52-1.52l-.74-1-.07-.75-.45-2.82v-.63a11.68 11.68 0 01.34-2.71v-.78l.29-.89 1.6-5.42c.25-.8.58-1.19 1-1.19h.08l.81.07.34-3.12 1-1.15 1-1.74.74-.71.45-.59a1.71 1.71 0 01.56-.3 2 2 0 00.55.07 1.4 1.4 0 01.65.17 1.7 1.7 0 01.39.65 2.46 2.46 0 011.3-1.26v-1.15l.74-.45c.69-.3 1.12-.48 1.28-.57a4.81 4.81 0 01.65-.28l.93.07 1.19-.59.55.52a5.41 5.41 0 00.56.37l.07.37c.2.22.33.34.38.34s.34-.36.59-1.08l1.37.44a9.67 9.67 0 011.88.75 2.27 2.27 0 01.72.93l1.53-.08-.19-.74-.3-.63-.15-2.64-.14-.78.18-1.89-.18-5.16v-.56l.86-.45-.37-.74-.12-1-.37-1.67a7.58 7.58 0 01-.18-1.82V185l.26-5.27-.23-2.34.15-1a.81.81 0 00.56-.74l-.33-.49a1.71 1.71 0 01-1-.52v-.93l-.22-2.26-.07-2.53a1.85 1.85 0 00-.56-1.26c.15-.89.42-1.4.82-1.52l1.56-.48 1.07-1 1.15-.37.56-.26a3.73 3.73 0 01.52 1.93v.89l-.26 2v1.08l-.11 3.26V176l-.3 1.6v3.42a5.92 5.92 0 01-.6 1.52l.75 3.12-.15.81v1.79l-.19.74.19 2.52a6.46 6.46 0 01-.19 1.38h-.59a9.6 9.6 0 00-.22 1.67.46.46 0 00.07.3l.89 1.81-.07 2.68.18 3.12-.11 1.26-.07.56.07.74-.37.63.15 3.49v2.49l.19 2.38v1.59l.18 1.82v2.9l.37 2.89v2.34l.34 1.67v2.68a3.7 3.7 0 01.45 1.48 13.6 13.6 0 01.24 2.04zm-4.15-15.3l-.26-2.34a1 1 0 01-.64-.92v-.15l.23-1.6-.15-2.9v-.74l-.26-.85v-.89c0-.35-.1-.52-.3-.52s-.16-.06-.19-.19l-1 .34-.26.07-.37-.07-4.75-1.68-1.75-.07h-.55c-.18 0-.28 0-.3.07l-.89.52h-1.15l-1.53 1.45-1 .23-.75.74-1 1.37a5 5 0 00-.74 1.6l-.07.93-1 1.52-1.07 2.26a7.13 7.13 0 00-.41 2.08 5.27 5.27 0 00.18 1.45l.19.67.56 3 .59 1.53v1.3l.63.37a19.48 19.48 0 001.54 2.47 8.05 8.05 0 001.65 1.72l1.15.75.41.29.74.15h.67l1.45.78H347l2.57-.15a5.69 5.69 0 001.91-.57 12.64 12.64 0 001.8-.95l1.19-1.45.56-1-.26-1 .14-1 .08-1.07-.08-1.53-.11-1.67.08-.22v-1.23l-.18-1.67-.08-.15c-.01-.49.38-.88 1.15-1.08zm33.67 9.06a2.81 2.81 0 01-.11.86l-.52 1.3-1.19 3-1.11.12-.71.81a1.12 1.12 0 01-.78.45l-4.6 1.3-.71.37-1.67-.22-2.34.29-2.67-.22h-.74a6.63 6.63 0 00-.71-.74l-2.48-1.3-.86-1.15-1.67-1.67-1.34-2.56-.48-.64a5 5 0 00.3-1.59.78.78 0 00-.11-.45l-.71-1.6-.15-2.11v-1.71a11.28 11.28 0 01.29-2.26 9.78 9.78 0 01.71-2.68l.93-1.74.48-1.6 1.22-1.67 1.3-2.49 1.15-.93 1.68-1.67 1.11-1.07.37-.38.78-.22 2.34-1.08 1.82-.29 1.08-.67.55-.08c.87 0 1.6.68 2.19 2.05.33-.05.56-.31.71-.78l.7.85.93.74 2.16 3a13.4 13.4 0 01.63 1.28c.15.36.3.74.44 1.13a10.51 10.51 0 01.39 1.3c.12.47.28 1.19.5 2.16l.19.92-.22.15-1-.3-1.12.53-.85-.23-.93.37-1.82-.29-1.71.15-1.78-.45-2.93.07-1.42-.07-3.49.67-1.22-.08-1.75.75-.63.18-.11.89a4.18 4.18 0 01-.17 1.26 2.17 2.17 0 01-.57.78l.07.71a5.77 5.77 0 01.89 1.15l.67 3.79.34.93a1.16 1.16 0 00-.26.67.35.35 0 010 .14l1 .45.26.93a2.71 2.71 0 00.67 1.59l1.37.82.45 1.45a3.07 3.07 0 001.15.41l.37 1 .78.15 2.23 1.15 1.82-.52 4.86-1.15 1.08-.93 1.63-1.44 1.38-2.57q.33-.63.81-.63c.57.01.86.4.86 1.16zm-6-17.49a7.55 7.55 0 00-1-2.48l-1.78-1.86-.56-.89-.85-.08-2-.22-.44.15-1.12.89-1.41.48-1.78 1-.71.37-.81 1.78a5.54 5.54 0 00-.82 1l-.11.44 3.15.34.34-.08.59-.26.56.19 1.52.45h.08l1.7-.45.56-.19.41.86h.59l2.23-.67.93.15a.76.76 0 00.72-.92zm27.35 18.5l-.07 2v1.52a1.3 1.3 0 01-.37.93l.14.89-.55.14-1.71 1.53-.67.15-.78.7h-.18l-.19.05c-.32 0-.48-.14-.48-.44v-.93l-.15-1.67.33-4 .15-5.16a9.74 9.74 0 01.56-3.12l-.3-1.15a6.71 6.71 0 01-.44-1.34 7.17 7.17 0 01.63-2.15 2.9 2.9 0 00.26-1.22c0-.35-.26-.67-.78-1l.11-.63-.22-.15V212l.44-2.6V203l.52-3a2 2 0 00-.63-1.3V197l-.11-6.68a8.48 8.48 0 01.67-2.52l.41-1c-.65-.42-1-.8-1-1.15 0 .1.05-.38.15-1.45l-.52-.67v-1.44l-.11-1.75v-.33l.44-1.9-.44-2.63.11-1.3-.52-4.35v-.59l.18-1.23.19-1.52 2.3-1.82 1-1.15.45-.15.33.82.08 1.6.18 1.07.08.63v.89l-.19 2.75v.22l.07 1.3a2.87 2.87 0 01-.11 1l-.59 1.93-.11.74a1 1 0 01.67.24 2.43 2.43 0 01.14 1.06v.82a1.51 1.51 0 01-.63 1.23v1.96l.44 1.08-.18 7.09v5.09l-.71 2 .41 2.82-.56 1.82a2.52 2.52 0 00.45.85l.44.67.23 12-.67 1a10.34 10.34 0 01.11 1.52 11.39 11.39 0 01-.26 2.46l.26.81h.7v1.37zm28.82 4.08l-.26.71-.41.89-.74.41-1.08.81-1 .45a4.91 4.91 0 01-1.12.55c-.12 0-.24-.09-.35-.27a1.06 1.06 0 01-.17-.5 12.14 12.14 0 01.26-1.68 6.51 6.51 0 00.19-1.3l-.49.49-2.3 1.11a2.49 2.49 0 01-1.41.48h-1l-1.19.82-.81.15-2.42.7-1-.22-.67.37-.52.15-.74-.07-1.71-.52-1.15-.15a3.54 3.54 0 01-2-1.17 6 6 0 01-1.27-2.43l-.7-.37-.15-.93v-.67l-.37-1.75 1-2.74.29-1.23a4.67 4.67 0 011-1.41l2-2.38.85-.44 1.41-.86h.11a.94.94 0 01.15.06 2 2 0 012-1.6l.15-.22h.52a2.25 2.25 0 01.67-.82 4.7 4.7 0 011.26-.48l3.19-.82 1 .15 1.19-.37 2.15-.33a1.49 1.49 0 001.11-1.53.31.31 0 00-.07-.22l-.26-1.67.22-2.41a2 2 0 00-.39-1.14 1.55 1.55 0 00-.91-.46l-.37-.85a6.6 6.6 0 00-.91-1.73 3 3 0 00-1.35-.69l-1.49-.48-1.41-.07-.67.14a1 1 0 01-.35-.37 2 2 0 01-.21-.67l-.7.45-.78 1.08-2.53 1.82a3.58 3.58 0 00-1 1.22l-.37.74c-.17.4-.41.6-.7.6l-.49-.15-.74-.52-.81-.22a2.69 2.69 0 01-.77-.64 1.26 1.26 0 01-.39-.81c0-.15 0-.22.08-.22l.41-.45.81-.93.89-.22 1.38-1 1.71-.82.44-.15 1.12-.85.89.22 3.08-1 1.34.08h1l1.08.52 3 .85.45.37v.52l-.34.3c.1.87.31 1.3.64 1.3h.07a.1.1 0 01.07 0l.71-.45h.11c.17 0 .29.13.34.37l.52 1.38.51.59v.85l-.07 1.9a3 3 0 00.82 2.11l.33 5.5-.7 1.37.78 1.34.07.48-.15 3.49.19 2.68v1.45l-.37.14c.05.62.08 1 .09 1.19a3.17 3.17 0 00.18.76c.12.34.23.73.36 1.17zm-4.09-6.46a3.22 3.22 0 01-.52-.83l.11-1.52-.22-3.41.3-1-.82-.67-.41.15-2.37-.22-1.12.07-.82-.85-.52.44-1.41.08-1 .56-.59-.49-.71.64-3.86 2.67-.82.89-.67 1.45-.92.78a1.19 1.19 0 00-.19.67.37.37 0 010 .14l.22.45-.07.33.59 3.35-.59 2.11.4.74.71-1.18c.25.29.47.54.67.74a2.35 2.35 0 00.74.5 11.38 11.38 0 001.11.43l.53 1 1.78.26.48-.71.52.37.33-.29.3-.23a4.12 4.12 0 00.71.3 3.51 3.51 0 002-1l.21-.17.39-.31c1.53 0 2.55-.46 3-1.38l.52-1 1.26-1.52v-.93a1 1 0 00.49-.45 3.39 3.39 0 00.26-.96zm-24.59 73.72c-1.57-2.53-2.92-4.93-4.08-7.14a57.67 57.67 0 003.51 7.41c3.51 5.62 7.37 10.14 6.84 18.25s-7.12 14.46-14.74 14.46-15-6.64-15.55-14.75 3.68-12.42 6.92-18.21a77 77 0 007.45-20 92.11 92.11 0 01-9.61 20c-4.11 6.59-9.14 11.55-8.52 21.06s9.26 17.29 18.15 17.29 17.54-7.78 18.15-17.29-4.41-14.47-8.52-21.06m-33.52 32.24a8 8 0 01-.44 2.69l-.68-.1-.44.1-.93.73-2.29-.49-2.3 1.17h-3.51l-4.34.78h-.25l-1.46-.19a5.54 5.54 0 01-3.17 1.31l-.64-.09-2.15-.39-4.93-.3-1.27-.44-1.85-.48-.93-.3-.29-1.22a1.08 1.08 0 01-1-.58 2.87 2.87 0 01-.93.49c-.22 0-.63-.26-1.22-.79l-.73-.48a4.42 4.42 0 00-.59-2.2 2.36 2.36 0 01-1 .39.4.4 0 01-.34-.2l-.34-.48-1.52-2.1L337 326l-.83-1.36-.93-2-.54-1.7a8.31 8.31 0 00.59-2.69l-.39-.73-1.17-.29-.59-1.81a3.21 3.21 0 01-.34-1.37 7.39 7.39 0 01.05-.92V313l-.44-3.91a5.47 5.47 0 01-.1-1.27 11.1 11.1 0 01.34-2.63l-.39-1 .39-3.12a25.93 25.93 0 01.27-2.71 7.37 7.37 0 01.61-1.88 2.17 2.17 0 010-.49 6.21 6.21 0 01.44-1.51l.2-1.07 1.31-.83-.09-1.71a1.41 1.41 0 01.14-.78l1.71-3.18.88-2.19.88-1.12.88-1.91 1.66-1.8.53-1.37 3.23-1.91 1.07-1.22 1.22-.29.44-.49.63-.63.64-.49a11.2 11.2 0 012.93-1.17l3-.1 1.47-.93 2.78-.39 1.76-.48 3.22.58h1.07a7 7 0 001 1.42q.48 0 .93-.93h.34l.14-.39.73.19 2 1.23 1.32.09c.55 0 .83.33.83 1a1.56 1.56 0 01-1 1.32c-.68.78-1.19 1.17-1.51 1.17l-.63-.3c-.43 1.27-.88 1.91-1.37 1.91h-.3l-1.31-.68-1.52-.59-1.18-1.1-1.61-.59-1.52-.83-3.9.44-2.29.1a5.06 5.06 0 00-2.93 1l-2.25 2-2.2 1.51-2.78 2.78-1.17.78-.73 2.25c-1.11.29-1.66.85-1.66 1.66a3.25 3.25 0 00.25 1.22l-.64 1.17a3.57 3.57 0 01-1 1.51l.2 1.42-.34 1.17-1.13 5.22-.39 1.51-.29 1.81.1 1.07v1l-.2.88-.24-.2.1.78a2.17 2.17 0 00-.78 1.42 2.94 2.94 0 00.53 1.32l1 .49v1.26a5.18 5.18 0 00.19 1.42 2.35 2.35 0 00-.63 1.42 1 1 0 00.19.58l.88-.49.34 1 .69 3.32.73 1.9-.24 1.81.39 1h.38a1.12 1.12 0 011 .54 7.42 7.42 0 01.75 1.95l.25 1 .34.49-.78.68.44.54 1.27-.44.93.92.63.59.78 1 1.32.68 2.34 2.1 1.18.58-.2 1a5.74 5.74 0 011.56.39l1.07.49 2.83.1.64.63.73-.44 2.54-.29 1.37-.3.68-.09a1.91 1.91 0 011.12.49l.68-.59a3.53 3.53 0 011.52-.68l1.07.09 1.32-.29-.1-.54.64-.39a4.65 4.65 0 001.05-.56 8.87 8.87 0 00.65-.85l.15.34c.78-.39 1.17-.89 1.17-1.51l-.29-1.52.1-3.8-.3-5.47.54-1.71v-.39a2.56 2.56 0 00-.73-1.81l-.15-1-.14-1.81.14-1.07-.68-.1-2.59-.29-1.71-.2-.68.1-1.42.2a2.61 2.61 0 01-.73-.3l.2-1.41a1.88 1.88 0 00.61-.34 7.09 7.09 0 00.51-1.08l.49-.78a3.64 3.64 0 001.85.59h.54l8-.69 1 .1a8.54 8.54 0 01.73 2.88 1.52 1.52 0 01-.68 1.22v.88h.4v2.81a4 4 0 01-.12 1.15 2.87 2.87 0 01-.51.85l.34 2.4a4.91 4.91 0 01.49 2.29 14.35 14.35 0 01-.25 2.68 1.36 1.36 0 00-1 .47 3.32 3.32 0 00-.25 1.63l1.71 2.2-.05 3.12zm79.27.93a2.39 2.39 0 01-1 1.76l-3.9 2.43a3.49 3.49 0 01-1-2.82l.05-2.79-.58-.19-2.25 1.51-3.07 2.2-1.27.88-4 1.12-1.32.58h-.35a1 1 0 01-.48-.09l-1.22-.74-1.51.64-1.37-1.71-2.74.59c-.26-.17-.65-.46-1.17-.88a6.8 6.8 0 01-1.32-1.42 9.41 9.41 0 01-1.51-5 2.48 2.48 0 01.73-1.61l-1.12-.58-.05-1.91-.09-2.63a5.55 5.55 0 01.29-2l.63-1.7-.63-2.74.05-2.88-.05-3.32c0-.19.22-1.31.68-3.36v-.74l-.63.44-.4-.63v-1l.06-5.9a8.62 8.62 0 00-.2-2.1l-.25-.59a.47.47 0 000-.17.35.35 0 00-.07-.12 1.93 1.93 0 01.83-1.51l.39-.3 2.49-1.51a4.51 4.51 0 011.66-.68c.32 0 .63.45.92 1.36l.3 1.13a22.12 22.12 0 00-.64 5.07l.2 2.83-.1 1.18-.54 2.39c0 .88-.06 1.49-.07 1.83s0 .64-.07.9a5.57 5.57 0 00.19 1.46l.59 1.42-.78 3.71.24 1.17-.24 2.1-.3 2.83a1.46 1.46 0 00.1.59l.44 1.22.24 5.17a3.19 3.19 0 00.86 2 11.76 11.76 0 002.71 1.51l2.49 1a9.26 9.26 0 002.29.2 3.53 3.53 0 001.66-.3l2-1.07 2 .78c.36-.16.59-.7.68-1.61l1.13-.88 1.51-3 1.22-1.46a6.52 6.52 0 00.64-2.73l.24-5 .29-1.08-.73-1.12.05-1.8.15-7.72-.2-2.58-.34-3a3 3 0 01.59-1.61l-.15-.88-.54-.1-.14-1.51v-.39l.29-1.51v-1l.54.25 3.75-1.91a.07.07 0 00.08 0 .07.07 0 01.07 0c.23 0 .43.3.61.9a8.45 8.45 0 01.27 2.36l-.29 9.91-.49 7.62-.88-.54a7.65 7.65 0 00-.44 1.91l.24 1a1.54 1.54 0 01.59-.2.68.68 0 01.51.25.88.88 0 01.22.63l-.34 9.18.64 1.71.34 4.73c.13.2.28.45.46.76s.34.76.63 1.41zm29.48-39.59l-.34 1.37-.05 1-2.44 2.58-1.42 1.9-.88.19-1.21-.19a11.9 11.9 0 01-2.3-.57 5.06 5.06 0 01-.93-.36h-.1l-2.24.24-1.32-.34a1.36 1.36 0 00-.8.51 1.43 1.43 0 00-.32.91.65.65 0 00.39.68l-.05 6.3a1.93 1.93 0 00-1.46 1.8l.09 1.12 1.37.39.15 4.69.05 1-.35 1.53a1.18 1.18 0 00-.63-.29c-.59 0-.88.37-.88 1.12a3.8 3.8 0 00.54 1.51c.32-.55.53-.83.63-.83s.33.25.69.73l.09 6.59.1 1 .78 2.29a7.78 7.78 0 01.1 1.71 5.39 5.39 0 001.29.93 3.3 3.3 0 001.25.2 4.78 4.78 0 002.15-.54 4.89 4.89 0 001.71-1.37l3.31-4.39a.59.59 0 01.54-.34 2.3 2.3 0 011.17.63l-.2 1.08c-.45 2.7-.84 4.13-1.16 4.29l-7.91 4.2-1.37 1-1.07-.92-.69-.2-.34 1.32-.63.1a3.77 3.77 0 01-2.35-1.42 5.75 5.75 0 01-1.51-2.49l-.19-1.41-.39-1.66.05-2.74v-3.07l.68-3.22-.2-1.18-.14-1.7v-1.12l.14-4.69-.09-1.32-.15-1.66c0-.13 0-.19.1-.19l.87-1.52a1.46 1.46 0 00.15-.58c0-.75-.39-1.12-1.17-1.12L467 306c.19-2.38.29-4.75.29-7.13a7.72 7.72 0 00-6.59.54 1.08 1.08 0 01-.29-.73c0-.56.09-.91.29-1.08l1.3-1.6.24-1.12a1.44 1.44 0 01.32-.63c.15-.17.27-.25.36-.25l3.91-.19.93-.2-.1-1.12-.19-10.4-.83-2.78-.2-1.51a9.49 9.49 0 012-2.93 5.93 5.93 0 012.56-1.27c.45-1 .84-1.51 1.17-1.51q.93 0 .93 4.44a38.25 38.25 0 01-.83 9.56q-.49 2-.93 2v2.29a1.25 1.25 0 01.66.12 1.86 1.86 0 01.41.61l-.24 1.37.15 1.12.73.1 3.37 1.07a2.55 2.55 0 001.12.2 1.91 1.91 0 001-.2l1.32-.58 2.54-.39 1.95-1h1.71a1.61 1.61 0 00.1.35z" fill="#0069b3"/>
  <path d="M511.1 293.15l-.34 1.37-.05 1-2.44 2.58-1.41 1.9-.88.19-1.22-.19a11.9 11.9 0 01-2.3-.57 4.23 4.23 0 01-.92-.36h-.1l-2.25.24-1.32-.34a1.36 1.36 0 00-.8.51 1.48 1.48 0 00-.32.91.65.65 0 00.39.68l-.05 6.3a1.94 1.94 0 00-1.46 1.8l.1 1.12 1.36.39.15 4.69.05 1-.29 1.53a1.23 1.23 0 00-.64-.29c-.58 0-.88.37-.88 1.12a3.8 3.8 0 00.54 1.51c.33-.55.54-.83.64-.83s.32.25.68.73l.09 6.59.11 1 .77 2.29a7.78 7.78 0 01.1 1.71 5.59 5.59 0 001.3.93 3.21 3.21 0 001.24.2 4.78 4.78 0 002.15-.54 4.89 4.89 0 001.71-1.37l3.32-4.39a.57.57 0 01.53-.34 2.26 2.26 0 011.17.63l-.19 1.08q-.69 4.05-1.17 4.29l-7.91 4.2-1.37 1-1.07-.92-.69-.2-.33 1.32-.64.1a3.73 3.73 0 01-2.34-1.42 5.8 5.8 0 01-1.52-2.49l-.19-1.41-.39-1.66v-5.81l.68-3.22-.2-1.18-.14-1.7v-1.12l.14-4.69-.09-1.32-.15-1.66c0-.13 0-.19.1-.19l.88-1.52a1.61 1.61 0 00.14-.58c0-.75-.39-1.12-1.17-1.12L492 306c.19-2.38.29-4.75.29-7.13a7.72 7.72 0 00-6.59.54 1.08 1.08 0 01-.29-.73c0-.56.09-.91.29-1.08l1.27-1.61.25-1.12a1.34 1.34 0 01.31-.63c.15-.17.27-.25.37-.25l3.91-.19.92-.2-.1-1.12-.19-10.4-.83-2.78-.2-1.51a9.49 9.49 0 012-2.93 5.93 5.93 0 012.56-1.27c.45-1 .84-1.51 1.17-1.51q.93 0 .93 4.44c0 4.49-.27 7.68-.83 9.56q-.48 2-.93 2v2.29a1.23 1.23 0 01.66.12 1.86 1.86 0 01.41.61l-.24 1.37.15 1.12.73.1 3.37 1.07a2.55 2.55 0 001.12.2 1.91 1.91 0 001-.2l1.32-.58 2.54-.39 1.95-1h1.71c.06.28.07.4.07.36zm34.46 32.56a4.18 4.18 0 01-.14 1.12l-.69 1.71-1.56 3.95-1.46.15-.93 1.07a1.53 1.53 0 01-1 .59l-6 1.71-.93.49-2.19-.3-3.08.39-3.58-.29h-1a11.25 11.25 0 00-.93-1l-3.27-1.7-1.12-1.52-2.2-2.19-1.75-3.37-.64-.83a6.72 6.72 0 00.39-2.1.94.94 0 00-.14-.58l-.93-2.1-.2-2.79v-2.24a15.28 15.28 0 01.39-3 13.28 13.28 0 01.92-3.51l1.23-2.3.63-2.1 1.61-2.19 1.71-3.27 1.51-1.22 2.2-2.2 1.46-1.41.49-.49 1-.3 3.07-1.41 2.39-.39 1.42-.88.73-.1c1.14 0 2.1.9 2.88 2.69.42-.07.73-.41.93-1l.93 1.12 1.21 1 2.84 4c.35.65.63 1.21.83 1.69s.39 1 .58 1.49a14.24 14.24 0 01.51 1.7c.15.62.37 1.57.66 2.84l.25 1.21-.3.2-1.31-.39-1.47.68-1.12-.29-1.22.49-2.39-.39-2.25.19-2.34-.58-3.86.09-1.85-.09-4.59.87-1.61-.09-2.29 1-.84.25-.14 1.17a6 6 0 01-.22 1.66 3.13 3.13 0 01-.76 1l.1.93a8 8 0 011.17 1.45l.88 5 .44 1.22a1.58 1.58 0 00-.34.88.49.49 0 01.05.2l1.27.58.33 1.22a3.76 3.76 0 00.88 2.1l1.81 1.08.59 1.9a3.94 3.94 0 001.51.54l.49 1.27 1 .19 2.93 1.51 2.39-.68 6.4-1.51 1.41-1.22 2.15-1.91 1.81-3.37c.29-.55.65-.82 1.07-.82.8.02 1.19.52 1.19 1.53zm-7.91-23a10.09 10.09 0 00-1.26-3.27L534 297l-.73-1.17-1.12-.1-2.59-.29-.58.19-1.47 1.18-1.86.63-2.34 1.27-.92.49-1.08 2.34a7.07 7.07 0 00-1.07 1.27l-.15.58 4.15.44.44-.1.78-.34.73.25 2 .58h.1l2.25-.58.73-.25.54 1.13h.78l2.93-.88 1.22.19a1 1 0 00.91-1.11zm63.16 31.2v1l-.74.29-2.29.58-2.44.3a13.13 13.13 0 00-.34-2.52 1.74 1.74 0 00-.59-.85 2.71 2.71 0 01-.66.63l-.8.47a6.66 6.66 0 00-.88.56q-3.85 2.93-14.11 2.93a5.85 5.85 0 01-2.87-.54 3 3 0 01-1.32-1.85 1.37 1.37 0 00-1 .78l-1.08-.49a5.13 5.13 0 00-.26-1.37 1.79 1.79 0 00-.81-.73l-.44.58a3.94 3.94 0 01-1.63-1 25.16 25.16 0 01-1.88-2.69 4.36 4.36 0 00.14-1.17 2.91 2.91 0 00-.68-2l-1-1.32-.09-1-.59-3.71V320a16 16 0 01.44-3.56v-1l.39-1.17 2.1-7.13q.49-1.56 1.32-1.56h.1l1.07.1.44-4.1 1.32-1.51 1.36-2.3 1-.92.59-.79a2.49 2.49 0 01.73-.39 2.48 2.48 0 00.73.1 1.69 1.69 0 01.85.22 2.32 2.32 0 01.52.86 3.11 3.11 0 011.71-1.67v-1.51l1-.58c.91-.4 1.47-.65 1.69-.76a6.81 6.81 0 01.85-.37l1.22.1 1.56-.78.74.68a5.57 5.57 0 00.73.49l.1.49c.26.29.42.44.48.44s.46-.47.78-1.42l1.81.59a13.54 13.54 0 012.47 1 3.1 3.1 0 011 1.23l2-.1-.25-1-.39-.83-.19-3.46-.2-1 .25-2.49-.25-6.78v-.73l1.12-.59-.48-1-.15-1.32-.49-2.19a9.84 9.84 0 01-.24-2.39v-.59l.34-6.93-.29-3.08.19-1.31a1 1 0 00.73-1l-.44-.63a2.31 2.31 0 01-1.31-.69v-1.22l-.29-3-.11-3.32a2.41 2.41 0 00-.72-1.66c.19-1.17.55-1.84 1.07-2l2.05-.64 1.41-1.27 1.52-.49.73-.34a5 5 0 01.68 2.54l-.05 1.17-.49 2.56.05 1.41-.15 4.3v3.61l-.38 2.1v4.49a8.36 8.36 0 01-.79 2l1 4.1-.19 1.08v2.34l-.25 1 .25 3.32a9.24 9.24 0 01-.25 1.81h-.78a12.53 12.53 0 00-.29 2.2.62.62 0 00.09.39l1.18 2.39-.11 3.51.25 4.1-.14 1.66-.11.74.11 1-.49.83.19 4.59v3.27l.24 3.12v2.1l.25 2.39v3.81l.49 3.81v3.07l.44 2.2v3.51a4.9 4.9 0 01.59 2 17.51 17.51 0 01.31 2.66zm-5.46-20.11l-.34-3.08a1.33 1.33 0 01-.83-1.22v-.19l.29-2.1-.2-3.81v-1l-.34-1.12.05-1.18c0-.45-.13-.68-.39-.68s-.21-.08-.24-.24l-1.37.43-.34.1-.49-.1-6.25-2.19-2.29-.1h-.73c-.23 0-.36 0-.39.1l-1.17.68h-1.52l-2 1.91-1.37.29-1 1-1.37 1.8a6 6 0 00-1 2.1l-.1 1.22-1.32 2-1.42 3a9.93 9.93 0 00-.53 2.73A6.8 6.8 0 00569 316l.25.88.73 4 .78 2v1.71l.83.48a24.81 24.81 0 002 3.25 10.6 10.6 0 002.18 2.27l1.51 1 .53.4 1 .19h.88l1.9 1h2.15l3.37-.2a7.5 7.5 0 002.51-.76A15.29 15.29 0 00592 331l1.56-1.9.73-1.32-.34-1.27.2-1.32.09-1.41-.09-2-.15-2.19.1-.29v-1.61l-.25-2.2-.1-.2c.08-.73.59-1.23 1.6-1.49zM614 273.43l-.1.93v5.27l-.49 2.59-.2 1.71.34.29v2.49l-.19 2.44-.59 3.07v.4l-.09.19-.15-.19-1.53 1.31-.49-.68-.54-4.64v-6.39l-.83-1.81-.63-.09-.05-2.1 1.32-1.17 2.83-3.42a1.2 1.2 0 01.73-.29zm52.56 56.77l-.44 2.1-.73-.1a.65.65 0 00-.58.29l-.64 2.1-.93.93-.24.48-1.22-.2-1.46 1-1.66-.73-.2-.1-3.81.19-1.07-.19-.39-.78a19.26 19.26 0 01-2.29.58l-1.27-.09-.83.19-.29-1H648l-.34.09-1.17.88-6.64.1-1 .68c-.75-.72-1.32-1.07-1.71-1.07l-.34.1-1.71.68-2-.59-6 .3a12.49 12.49 0 01-2.49-1.17l.3-1.13.83-2.78.14-2.64.35-2.39v-3.66l.19-1.41-.1-11.33.1-2.88v-1.07l-.2-1.12 1.37-.1a9 9 0 00-.61-1.66 6.39 6.39 0 00-.95-1.22l-.2-.83.2-3.61-.29-6.2.29-2.39.15-1-.74-.29-.24-1-.15-3.17-.39-1-.1-.48.1-1.22.25-.59 1.85.68-.54-.68a1.54 1.54 0 01-.48-1 6.55 6.55 0 01.09-.83l-.53-.29-.64.29c-.1-1.59-.18-2.65-.24-3.17s-.21-.83-.44-.92l-1.27-.79.29-1a3.22 3.22 0 011.12-.88l.64-.29a5.25 5.25 0 012.54-1.13h.07s.06 0 .12.1l4.93 1.22 2.3.29 1.27.59a4.83 4.83 0 011.71-.68.27.27 0 01.24.09l5.08.79 4.49-.39 1.75.73 1-.34v-.59a12 12 0 003.37-.88 7.12 7.12 0 011.8-.83l.68.2a5.55 5.55 0 01-.44 1.58 3.41 3.41 0 01-1.07 1 3.62 3.62 0 01-.27 1.22 3.66 3.66 0 01-.95 1 5.7 5.7 0 01-2.93 1.17h-.34l-1.8-.2-1.52.3-3.07-.49-.73-.1a2.79 2.79 0 00-1.86-.88 2.75 2.75 0 01-2.59 1.17l-1-.09-.2-.88-.63.29-1 .59-4.63-.59-.74 1.61.25.39v.39l.14 2.59-.24 3.81.1 1.41.1 1.08.68.29 4.59.63c.32 0 .78.33 1.36 1l1.08-.29a3.33 3.33 0 011.36-.49l3.62.29 2.14.1h1.91a3.13 3.13 0 001-.15 2.88 2.88 0 00.93-.53l2.58.68.59-.2 1.47-.48 2.58-.1 2.78-.54a2.38 2.38 0 01.93.73l.73-.63a1.83 1.83 0 011.22-.78l.78.1.74-.1v1.51l-.88.88-2 2.59a1.08 1.08 0 01-.73.44h-.15l-2.25-.44-2.88.15-1.61-.54-5.61.54-1.07-.15c-.23-.65-.51-1-.83-1s-.33 0-.39.1l-1.52.88-4.44-.68-2.15 1.12-1.51-.64-1.27 1.13-3.66-.4-.29.69.15 2.59-.59 2.63.29.78.49.88-.49 2.1a11.16 11.16 0 01.64 2l-.15 1.61.24 4.49v.1a5 5 0 01-.73 2 5.87 5.87 0 01.88 2.63 2 2 0 01-.15.69l-.87 2.78 1 2.49.39 9.32 1 .3 4.59 2.29 1.51-.29a2.85 2.85 0 011.51.78c.46-.59.78-.88 1-.88h.1l3.12.88 1.9-.29 1.61.48 4.05-.39 1.13.3 2 .09.68.35-.19-.74.78-.19 3.12-.1.69-.39 4-1 .76-.27a3.22 3.22 0 01.75-.22 2.55 2.55 0 01.84.33zm35.14 2.2l-.34.92-.53 1.18-1 .53-1.41 1.08-1.27.58a6.42 6.42 0 01-1.47.73c-.16 0-.32-.12-.46-.36a1.32 1.32 0 01-.22-.66 14.71 14.71 0 01.34-2.2 8.72 8.72 0 00.24-1.71l-.63.64-3 1.46a3.19 3.19 0 01-1.85.64h-1.37l-1.56 1.07-1.07.2-3.18.92-1.26-.29-.88.49-.69.19-1-.09-2.25-.69-1.51-.19a4.76 4.76 0 01-2.69-1.54 7.6 7.6 0 01-1.65-3.2l-.94-.49-.19-1.21v-.88l-.48-2.3 1.26-3.61.36-1.61a6.11 6.11 0 011.26-1.86l2.59-3.12 1.12-.58 1.86-1.13h.14a.8.8 0 01.2.07 2.61 2.61 0 012.59-2.1l.24-.28h.69a3 3 0 01.87-1.07 6.53 6.53 0 011.66-.64l4.2-1.07 1.27.19 1.56-.49 2.83-.44a1.94 1.94 0 001.47-2 .42.42 0 00-.1-.29l-.34-2.2.29-3.17a2.69 2.69 0 00-.51-1.49 2.09 2.09 0 00-1.2-.61l-.48-1.12a9.11 9.11 0 00-1.2-2.27 4 4 0 00-1.78-.9l-2-.64-1.85-.09-.88.19a1.35 1.35 0 01-.46-.49 2.41 2.41 0 01-.27-.88l-.93.59-1 1.42-3.32 2.39a4.51 4.51 0 00-1.37 1.61l-.49 1c-.23.52-.54.79-.93.79l-.63-.2-1-.68-1.08-.3a3.31 3.31 0 01-1-.83 1.72 1.72 0 01-.51-1.07c0-.2 0-.29.09-.29l.54-.59 1.08-1.22 1.17-.29 1.8-1.32 2.25-1.07.58-.2 1.47-1.12 1.17.29 4.05-1.27 1.76.1h1.27l1.41.68 4 1.13.59.48v.69l-.44.39c.13 1.14.41 1.71.83 1.71a.35.35 0 01.1-.08h.1l.93-.59h.14c.23 0 .37.17.44.49l.68 1.81.68.78v1.12l-.09 2.49a3.92 3.92 0 001.08 2.78l.43 7.23-.93 1.8 1 1.76.1.63-.2 4.59.24 3.52v1.9l-.48.19c.06.82.1 1.34.12 1.57a4.56 4.56 0 00.24 1c.15.44.3.95.47 1.53zm-5.36-8.5a3.92 3.92 0 01-.64-1.07l.15-2-.29-4.49.44-1.34-1.08-.88-.54.2-3.12-.3-1.46.1-1.13-1.12-.68.58-1.85.1-1.32.73-.78-.63-.93.83-5.11 3.53-1 1.18-.88 1.9-1.22 1a1.58 1.58 0 00-.24.88.48.48 0 010 .2l.3.58-.1.44.78 4.4-.78 2.78.54 1 .92-1.56c.33.39.62.72.88 1a3.37 3.37 0 001 .66c.39.18.88.36 1.46.56l.69 1.37 2.34.34.63-.93.69.49.44-.39.39-.3a6.47 6.47 0 00.92.4 4.65 4.65 0 002.64-1.37 1.33 1.33 0 01.27-.22q.17-.12.51-.42c2 0 3.35-.6 4-1.8l.68-1.27 1.66-2v-1.22a1.3 1.3 0 00.63-.59 4.56 4.56 0 00.19-1.35zm43.44 8.84a2.39 2.39 0 01-1 1.76l-3.9 2.43a3.49 3.49 0 01-1-2.82v-2.79l-.59-.19-2.24 1.51-3.08 2.2-1.27.88-4 1.12-1.32.58H721a1 1 0 01-.5-.09l-1.21-.74-1.52.64-1.36-1.71-2.74.59c-.26-.17-.65-.46-1.17-.88a6.8 6.8 0 01-1.32-1.42 9.32 9.32 0 01-1.51-5 2.48 2.48 0 01.73-1.61l-1.12-.58-.05-1.91-.1-2.63a5.79 5.79 0 01.29-2l.64-1.7-.64-2.74.06-2.88-.06-3.32q0-.28.69-3.36v-.74l-.63.44-.4-.63v-6.9a8.71 8.71 0 00-.19-2.1l-.25-.59a.88.88 0 000-.17.35.35 0 00-.07-.12 1.94 1.94 0 01.82-1.51l.39-.3 2.5-1.51a4.51 4.51 0 011.66-.68c.32 0 .63.45.92 1.36l.29 1.13a22.64 22.64 0 00-.63 5.07l.2 2.83-.1 1.18-.54 2.39c0 .88 0 1.49-.07 1.83s0 .64-.07.9a5.57 5.57 0 00.19 1.46l.59 1.42-.78 3.71.24 1.17-.24 2.1-.3 2.83a1.46 1.46 0 00.1.59l.44 1.22.24 5.17a3.19 3.19 0 00.86 2 11.76 11.76 0 002.71 1.51l2.48 1a9.41 9.41 0 002.3.2 3.53 3.53 0 001.66-.3l2-1.07 2 .78c.36-.16.59-.7.68-1.61l1.13-.88 1.51-3 1.22-1.46a6.38 6.38 0 00.63-2.73l.25-5 .29-1.08-.73-1.12v-1.8l.14-7.72-.19-2.58-.34-3a2.94 2.94 0 01.58-1.61l-.14-.88-.54-.1-.15-1.51v-.39l.3-1.51v-1l.53.25 3.77-1.91a.08.08 0 00.07 0 .07.07 0 01.07 0c.23 0 .43.3.61.9a8.45 8.45 0 01.27 2.36l-.3 9.91-.48 7.62-.88-.54a7.65 7.65 0 00-.44 1.91l.24 1a1.54 1.54 0 01.59-.2.68.68 0 01.51.25.88.88 0 01.22.63l-.34 9.18.63 1.71.35 4.73c.12.2.28.45.46.76s.53.76.83 1.41zM2.61 349.71C2.61 332.53 65 318.6 142 318.6c51.36 0 96.23 6.21 120.4 15.45-23.45-9.82-69.74-16.49-123-16.49C62.39 317.56 0 331.49 0 348.67c0 5.71 6.91 11.06 18.94 15.66C8.53 360 2.61 355 2.61 349.71zm151 14.38a166.1 166.1 0 0017.66-.91 50.51 50.51 0 0012.46-3.6c-7.79 2.49-20.31 4.11-34.43 4.11-4.59 0-9-.17-13.15-.49a165.67 165.67 0 0017.46.89z" fill="#0069b3"/>
  <path d="M148.59 345.81c0 .47-1.35.86-3 .86s-3-.39-3-.86 1.35-.85 3-.85c.82.04 3 .62 3 .85zm71.83 3.41c6.45 2.58 10.12 5.55 10.12 8.72 0 9.91-36 17.95-80.39 17.95-28.52 0-53.57-3.32-67.84-8.32 13.73 5.5 40.05 9.22 70.26 9.22 44.39 0 80.39-8 80.39-18 .04-3.49-4.6-6.79-12.54-9.57z" fill="#0069b3"/>
</svg>
