<svg xmlns="http://www.w3.org/2000/svg" data-name="Calque 1" viewBox="0 0 936.82 120.96">
  <path d="M59.19 28.91c-2.15-3.45-4-6.72-5.57-9.73a77.66 77.66 0 004.79 10.1c4.79 7.67 10 13.84 9.33 24.9S58 73.91 47.63 73.91s-20.49-9-21.21-20.12 5-17 9.44-24.84A105.88 105.88 0 0046 1.6c-.32 1-4 12.6-13.12 27.31-5.6 9-12.47 15.76-11.63 28.73S33.91 81.24 46 81.24s24-10.62 24.81-23.6-6-19.74-11.62-28.73m124.22 63.73a1.77 1.77 0 01-.14.59l-1.34 1.64-1.39 2.92h-1.14l-.64.2-.1-.89-.4-1.24.05-1-.05-.94a10.59 10.59 0 01-.59-2.43h-.55l-.24-1.09-1.24-3.4-.2-1.73-1.73-4.27a6.37 6.37 0 01-.3-2 1.72 1.72 0 00.05-.35v-.45a3 3 0 01-.94-1.23A20.38 20.38 0 01171 72l-1.19-.79c-.2 1.48-.59 2.23-1.19 2.23h-.15l-3.56-.94-1.24.09-.94-.19-4.86.94-2.87-.2-1.54.6-1.23-.6-.9-.35a3.48 3.48 0 01-.76 1.09 1.21 1.21 0 01-.77.25h-.2l-3-.3-1.14.4-1.49.1c-.49.17-1 1.29-1.63 3.37l-.65 1.93-.34.2a41.5 41.5 0 01-2.57 7.17l-.05 1-.54 1.09-1.89 6.09c-.13.6-.64 1-1.53 1.34l.1.79a5.11 5.11 0 01-1.14.11 3.09 3.09 0 01-2.08-1.09L133 93l1-1.74.79-1.83.44-1.09.5-.94V87a1.66 1.66 0 001.39-1.83V84l1.09-1.83 1.43-4.66.89-1.73.95-3.08 1.13-3.12 1.34-3.27 1.39-1.93a.79.79 0 00.15-.49 1.58 1.58 0 00-.35-.89 8.92 8.92 0 00.87-1.07 5.62 5.62 0 00.52-1.16l-.4-.94.4-1 .54-2.33a6.23 6.23 0 01.85-1.23v-.5l1.53-5.7 1.19-4.65a12 12 0 011.54-3.17l-.25-1.09.2-1.34a11.17 11.17 0 01.39-2 1.44 1.44 0 01.65-.79 5 5 0 011.19-.45l.19-.74-.34-1.49a4.11 4.11 0 01-.15-.84 1.1 1.1 0 01.45-1l2.27-2.23.5-1.54a2.59 2.59 0 011.93-1.44l.4 2h.39l-.1.54.45 1.49 1 1.83 1.29 3.37.69 2.72.85 2.23-.85.4a1.51 1.51 0 00.3.94 2.8 2.8 0 011.24 1.93l-.1.9.79 1.23.94 2.23.45 1.19.1.4-.3.94.15 1 .5.94 1 1.19 1.19 3.47.59 1.53V60a5 5 0 011.34 2.58 5.22 5.22 0 01-.15.69l.69 1 1.54 3.77c.13.3.24.55.32.77s.22.56.42 1 .33.81.4 1a10.33 10.33 0 01.67 1.69 11.19 11.19 0 01.12 1.38 2.41 2.41 0 011.19 1.94.26.26 0 01-.1.19l-.15 2.13a4 4 0 01.15.7l1.39 1 .44.89.2.94a2.71 2.71 0 001.14 1.49v1.13l1.19 1.74 1.09 2.72.59 1a8.19 8.19 0 01.65 1.58 5.12 5.12 0 01.1 1.31zm-14.06-25.46l-.3-.4.15-.35-.15-.49h-.7a12.54 12.54 0 01-.64-3.77l-.05-1-1.29-.49-1.63-4.68h-.5l-2.08-6 .25-1.14-.2-1.24-1.58-1.19-2.48-7.09a9.43 9.43 0 00-1.58-2.27l-.45.44-.45 2-.24.1a16.34 16.34 0 01-.62 2.58 9.26 9.26 0 01-.87 1.39A4.33 4.33 0 00153 46l-.1 1.19-1.59 4.9a13.2 13.2 0 01-.42 1.54c-.15.43-.24.71-.27.85a3 3 0 01-.22.54 3.54 3.54 0 01-.37.59l-.3 1a4.52 4.52 0 01-.42 1.22 1.07 1.07 0 01-.77.27l-.05 1.14a14.19 14.19 0 01-.59 3.72 6.06 6.06 0 01-1.44 2.17l.59 1.39a.78.78 0 00-.59.35 3.13 3.13 0 00-.35 1l-.25 1.24.6.1 1.14.49.89-.2.74.4.15-.4.65-.09 4.41.39 2.77-.3 1.14.7a1.67 1.67 0 01.37-.42 2.5 2.5 0 01.72-.15c.39 0 1-.16 1.93-.32l.89-.2-.1.49.25.2c.2 0 .45-.26.74-.79l1-.1 2.72-.37a7.05 7.05 0 001.14-.2 2.82 2.82 0 00.62-.4 5.73 5.73 0 00.72-.76zm69.85 23.43a6.89 6.89 0 01-1.14 3.52c-.6 1-1.08 1.43-1.44 1.43a1.46 1.46 0 01-.49-.2l-.6.6c-.53.56-.94.84-1.24.84l-.54-.1.1-1.24.24-2.82v-2l.59-6-.39-2.64-.2-5.8-.19-2 .1-5-.15-3.27L234 64l-.55-6.39.45-1.29-.6-.35v-1.18l-.44-3v-2.83l-.35-1.18-.84.29-.3.6.15 1.43-1.78 4-.1 1.09-.55.79-.35 1.34-.49 1-.2 1.78-.94 3-.11 1.1a10.09 10.09 0 00-1.54 2.43l-1.09 3.67-3.07 7.63-2.23 5.89-.53 1.18-2 2.73a1.26 1.26 0 00-.4.84c0 .06.07.13.1.2a13 13 0 01.2 1.53l-.05.5a1.55 1.55 0 00-.94.56 4.62 4.62 0 00-.55 1.37 15.94 15.94 0 01-.74 2.4 2.72 2.72 0 01-.74 1 4.66 4.66 0 01-1.39.64 10.5 10.5 0 01-1-1.88 10.66 10.66 0 01-.22-1.49l-.3-.39a1.9 1.9 0 00-.84-1.64l-.3.4-.49-1.29-.88-3.24-.7-1.39-.74-3.07-.8-1.78a6.3 6.3 0 00.44-2.23 1.8 1.8 0 00-.24-1.09l-1.09-1.34L200.56 64l-1-3.22.24-1.34-.59-1.64-.2-1.48-.69.49-.4-1a34.93 34.93 0 01-1.36-3.62c-.18-.65-.41-1.64-.67-3a1.08 1.08 0 01-1.14-.79l-.5 1.64h-.54l-.15.39a4.7 4.7 0 01.5 2l-.25 3.77v1.41a2.53 2.53 0 01-.17.79c-.09.18-.26.52-.52 1l.84 2.43-.15 1.23-.05 3.52-.2 2.13.2 10.7-.45 1.59a8.76 8.76 0 01.5 2.87v1a1.56 1.56 0 00-1.17.65 5.57 5.57 0 00-.37 2l1.29.64v2.23a3.35 3.35 0 01-.3 1.83l-2.57 2.53-1.29 1.49-.45.15-.74-.15-.05-.6-.15-.89.65-2.33v-4.8l.54-6-.05-3.17v-1.09l.1-1.53-.05-1.24a2.8 2.8 0 00.6-1.64l.39-.3a3.71 3.71 0 00-.24-1.18l-.4-1.24a2.1 2.1 0 000-.4 1.63 1.63 0 00-.07-.3A3 3 0 01190 68a6.87 6.87 0 01-.59-2.53v-.3l.25-6.09-.25-5.3.1-1.09 1.14.5a2.72 2.72 0 00.3-1.1v-.34l-1.54-.2-.1-2.43 1.09-.1.15-1a1.62 1.62 0 00-1-1.43l-.35-2.73h.35l.1-.64-.55-4.86v-2.32l-.64-1.94a2.3 2.3 0 011.24-1.83l.64.2.45-1.29.69-.45 1.6-1.73a1.48 1.48 0 01.89-.54l.74.24a3.49 3.49 0 00.2 1.37 2.55 2.55 0 00.79.86c.07.43.14.82.22 1.17a9.45 9.45 0 00.45 1.26c.21.5.52 1.21.92 2.13l-.3 1.09-.35 1.63.15.6 1 .74.84 3.72-.63 1.56.4.3.29 1c.66.07 1.23.68 1.69 1.83l1.09 3.52 1.29 5.2a3.36 3.36 0 00-.9 1.84l.35 1.19.74.1a1.13 1.13 0 01.77.34 3.61 3.61 0 01.37 1.09l-.64 1.44c.26.46.5.69.69.69h.4l.44.89a20.87 20.87 0 011.34 4.36l-.24 1.54-.25 1.14.64.49.69.2.8 1.53 1.33 2 .35 1.93.75 1 .89 3.27.79 1.19 1.09 3.17.59.69.85-1.14 2.42-4 1.29-3.17 1.14-3 1.64-4.16 3.17-10.65 1.23-2.78.35-3.12 1.74-5.7.29-1.53.45-.2.39-.49v-.4l.55-.4-.05-.84-.64-.4a4.91 4.91 0 01.69-2.42l.64-.4.65-.74a18.85 18.85 0 00-1-2.23 4.29 4.29 0 00.54-1.78 2 2 0 00-.05-.55l.6-1 1.09-2.33 2-2.43c.89-1.09 1.42-1.63 1.58-1.63l.85.3-.33 3.42.3.4.64-.1c.63 0 .94.27.94.79l-.05 1.91-.25 1.63-.44-.2-.15.89.49 1.84.15 10.55v.49a2.86 2.86 0 01-.29 1.34l-.89 1.84a2.58 2.58 0 00-.15 1.18 1.48 1.48 0 00.54.77 1.65 1.65 0 00.84.17l.1 1.84-.15 8.17.54 3.59.3 6.19.29 4.16a9 9 0 01-.29 2 4.9 4.9 0 01.54 1.34c.07.36.13 1.31.2 2.82l.15 3.87zm56.08 2.03a1.85 1.85 0 01-.15.59l-1.34 1.64-1.39 2.92h-1.14l-.64.2-.1-.89-.4-1.24.05-1-.05-.94a10.09 10.09 0 01-.59-2.43H289l-.24-1.09-1.26-3.4-.2-1.73-1.73-4.27a6.37 6.37 0 01-.3-2 1.72 1.72 0 00.05-.35v-.45a3 3 0 01-.94-1.23 20.38 20.38 0 01-1.49-4.97l-1.19-.79c-.2 1.48-.59 2.23-1.19 2.23h-.14l-3.57-.94-1.24.09-.94-.19-4.86.94-2.87-.2-1.54.6-1.23-.6-.9-.35a3.48 3.48 0 01-.76 1.09 1.23 1.23 0 01-.77.25h-.2l-3-.3-1.14.4-1.49.1c-.49.17-1 1.29-1.63 3.37l-.65 1.93-.34.2a40.68 40.68 0 01-2.6 7.17v1l-.54 1.09-1.89 6.09c-.13.6-.64 1-1.53 1.34l.1.79a5.11 5.11 0 01-1.14.11 3.09 3.09 0 01-2.08-1.09l1.28-3.33.95-1.74.79-1.83.44-1.09.5-.94V87a1.66 1.66 0 001.39-1.83V84l1.09-1.81 1.43-4.66.9-1.73.94-3.08 1.14-3.12 1.33-3.27 1.39-1.93a.79.79 0 00.15-.49 1.58 1.58 0 00-.35-.89 8.92 8.92 0 00.87-1.02 5.62 5.62 0 00.52-1.16l-.4-.94.4-1 .54-2.33a6.23 6.23 0 01.85-1.23v-.5l1.53-5.7 1.19-4.65a12.29 12.29 0 011.54-3.17l-.25-1.09.2-1.34a11.17 11.17 0 01.39-2 1.44 1.44 0 01.65-.79 5 5 0 011.19-.45l.19-.74-.34-1.52a4.11 4.11 0 01-.15-.84 1.1 1.1 0 01.45-1l2.27-2.23.5-1.54a2.61 2.61 0 011.93-1.43l.4 2h.4l-.1.54.44 1.49 1 1.83 1.29 3.37.69 2.72.85 2.23-.85.4a1.51 1.51 0 00.3.94 2.77 2.77 0 011.24 1.93l-.1.9.79 1.23.95 2.23.44 1.19.1.4-.3.94.15 1 .5.94 1 1.19 1.19 3.47.59 1.53V60a5 5 0 011.34 2.58 5.22 5.22 0 01-.15.69l.69 1 1.54 3.77c.13.3.24.55.32.77s.22.56.42 1 .33.81.4 1a10.33 10.33 0 01.67 1.69 11.19 11.19 0 01.12 1.38 2.41 2.41 0 011.19 1.94.26.26 0 01-.1.19l-.15 2.13a4 4 0 01.15.7l1.39 1 .44.89.2.94a2.71 2.71 0 001.14 1.49v1.13l1.19 1.74 1.09 2.72.59 1a8.19 8.19 0 01.65 1.58 5.31 5.31 0 01.18 1.31zm-14.07-25.46l-.3-.4.15-.35-.15-.49h-.69a12.09 12.09 0 01-.65-3.77l-.05-1-1.28-.49L276.6 56h-.5l-2.1-6 .25-1.14-.2-1.24-1.58-1.19-2.47-7.05a9.28 9.28 0 00-1.59-2.27l-.44.44-.45 2-.24.1a17.64 17.64 0 01-.62 2.58 9.26 9.26 0 01-.87 1.39 4.41 4.41 0 00-1 2.32l-.1 1.19-1.58 4.9a15.32 15.32 0 01-.43 1.54c-.15.43-.24.71-.27.85a3 3 0 01-.22.54 3.54 3.54 0 01-.37.59l-.3 1a4.52 4.52 0 01-.42 1.22 1.07 1.07 0 01-.77.27l-.05 1.14a14.19 14.19 0 01-.59 3.72 6.06 6.06 0 01-1.44 2.17l.59 1.39a.78.78 0 00-.59.35 3.13 3.13 0 00-.35 1l-.24 1.24.59.1 1.14.49.89-.2.74.4.15-.4.65-.09 4.41.39 2.77-.3 1.14.7a1.67 1.67 0 01.37-.42 2.5 2.5 0 01.72-.15c.4 0 1-.16 1.93-.32l.89-.2-.1.49.25.2c.2 0 .45-.26.74-.79l1-.1 2.72-.37a7.05 7.05 0 001.14-.2 2.82 2.82 0 00.62-.4 5.73 5.73 0 00.79-.7zm58.5-25.76l-.54 2.72a5.44 5.44 0 01-.72 2.25 3.85 3.85 0 01-1.66 1 5.33 5.33 0 00-.84.45l.74.89a6.63 6.63 0 01-1.09 2.52 3.15 3.15 0 00-1.26.35 3.49 3.49 0 00-.87 1.09l.6.4-1.34 1.53-1.79 1.09-.74.84-2 .7a9.67 9.67 0 00-1.83 1.44l-1.19 1-.5-.19-1.53.79-2.88 1-1.78.89-1.68-.2-1 .75-1-.1-.69.4-.89-.2a4.13 4.13 0 00-2 .59l-2.88 1.73-.74.4-.1.89.3 5.7-.3 1 .5 5v1a1 1 0 00-1 1.13v.2l.84 2.73.25 6.39.15 2.43c0 .85-.24 1.4-.7 1.63l-1.09.5-1.09 1.43-.84.1-1.63 1.24a1.21 1.21 0 01-.3.2c-.53 0-.79-.45-.79-1.34a2.81 2.81 0 010-.69l.74-1.84-.25-2.92.69-8-.44-3.66.59-5.06-.14-1.88.6-3.07v-1.48h-.5l-.1-1 .15-.9.45-1.43-.1-.85.05-1.24-.5-1-.24-5.6.14-1.34.1-2.23.3-1.49-.54-1.83v-.1l.14-3.37-.05-.8.6-.49-.15-2.78h-.84a14.47 14.47 0 01-.25-2.33c0-.59.08-1.63.25-3.12l.05-.1a.91.91 0 00-.1-.47.3.3 0 00-.25-.17l-1-.5-.54-.69-.65-.1v-1.83l.6-.3 2.72-1.53 1.78-1.05 6.84.55 1.49-.4a5.15 5.15 0 011.83-.24h1.29l2.23.34 1.53.1.55-.1 1.24-.1.24.1.55.9H326l1.74 1 .89-.59 2.13.59.64.95a3.06 3.06 0 001 1.09l2.6.27 2.33 1.89 1.28 1a4.2 4.2 0 00-.2.69 2.24 2.24 0 00.75 1.44l.05 1.33zm-5.1 1l-.54-1.54-.25-1.19-2.43-3.57a6.91 6.91 0 00-.64-1.16 3 3 0 00-.6-.47l-.4.49q-4.69-2.72-7.53-2.72h-3.31l-2.83-.69-2 1-4.41-.2a2.27 2.27 0 00-1.43 1.06 4 4 0 00-.5 2.11l-.1 3.77-.1 1-.59.59a4 4 0 01.79 1.07 2.71 2.71 0 01.26 1.13 3.36 3.36 0 01-.1.74l-.45 2.33.45 2v2.53l.35 5.89-.15.8h-.35c-.5 0-.74.34-.74 1 0 .49.11.79.34.89l1.09-.1h3.07l.85-.2.54 1.09 1-.29 2.48-1 4.76-.74 2.72-1.19 2.33-1.14A3.46 3.46 0 00328 54.5l.7-1.44 1.3-1.34.15-.79.89-.8.35-.74 2.38-3.22.44-2zm60.74 51.01l-.05 1-.75.3-2.32.59-2.48.3a13 13 0 00-.35-2.55 1.8 1.8 0 00-.59-.87 2.68 2.68 0 01-.67.65l-.82.47a6.82 6.82 0 00-.89.57q-3.92 3-14.32 3a6.08 6.08 0 01-2.92-.54 3.11 3.11 0 01-1.34-1.89 1.47 1.47 0 00-1 .79l-1.09-.49a5.67 5.67 0 00-.27-1.39 1.78 1.78 0 00-.82-.74l-.44.59a3.92 3.92 0 01-1.66-1 25.82 25.82 0 01-1.91-2.72 4.15 4.15 0 00.15-1.19 2.93 2.93 0 00-.7-2l-1-1.34-.1-1-.59-3.76v-.85a16 16 0 01.45-3.61l-.05-1 .39-1.19 2.13-7.24c.33-1 .78-1.58 1.34-1.58h.1l1.09.1.44-4.16 1.34-1.54 1.39-2.33 1-.94.6-.79a2.36 2.36 0 01.74-.4 2.55 2.55 0 00.74.1 1.91 1.91 0 01.87.22 2.49 2.49 0 01.52.87 3.2 3.2 0 011.73-1.68l-.05-1.54 1-.59c.93-.4 1.5-.65 1.71-.77a8.1 8.1 0 01.87-.37l1.24.1 1.58-.8.75.7a6.18 6.18 0 00.74.49l.1.5c.26.3.43.45.49.45s.47-.48.8-1.44l1.83.59a13.07 13.07 0 012.5 1 3.24 3.24 0 011 1.24l2-.1-.25-1-.4-.84-.15-3.61-.2-1 .25-2.52-.25-6.89.05-.74 1.14-.6-.5-1-.15-1.34-.49-2.23a9.45 9.45 0 01-.25-2.42v-.6l.35-7-.3-3.12.2-1.34a1 1 0 00.74-1l-.44-.64a2.28 2.28 0 01-1.34-.7v-1.29l-.3-3-.1-3.37a2.46 2.46 0 00-.74-1.68c.19-1.19.56-1.87 1.09-2L389.8 3l1.43-1.29 1.54-.49.74-.35a5 5 0 01.7 2.58v1.19l-.35 2.62.05 1.44-.15 4.36v3.67l-.39 2.12.05 4.56a7.8 7.8 0 01-.8 2l1 4.17-.19 1.08v2.38l-.25 1 .25 3.37a9.59 9.59 0 01-.25 1.84h-.8a13.85 13.85 0 00-.29 2.23.55.55 0 00.1.39l1.19 2.43-.1 3.56.24 4.16-.14 1.69-.1.75.1 1-.5.85L393 61v3.32l.25 3.18v2.1l.24 2.43v3.87l.5 3.86.05 3.12.44 2.23.05 2v1.54a4.87 4.87 0 01.6 2 18.2 18.2 0 01.22 2.78zM389.8 73l-.35-3.12a1.37 1.37 0 01-.84-1.24v-.2l.3-2.13-.2-3.86v-1l-.35-1.14.05-1.19c0-.46-.13-.69-.4-.69s-.21-.08-.24-.25l-1.39.45-.35.09-.49-.09-6.34-2.23-2.33-.1h-.74c-.24 0-.37 0-.4.1l-1.19.69H373l-2 1.93-1.38.3-1 1-1.39 1.83a6.39 6.39 0 00-1 2.13l-.1 1.24-1.34 2-1.44 3a9.8 9.8 0 00-.54 2.77 6.64 6.64 0 00.25 1.93l.25.89.74 4.06.79 2 .05 1.1V84l.84.5a27.41 27.41 0 002.06 3.29 10.62 10.62 0 002.2 2.3l1.54 1 .54.4 1 .2h.93l1.93 1h2.18l3.42-.2a7.8 7.8 0 002.55-.77 16.58 16.58 0 002.4-1.26l1.52-1.88.75-1.34-.34-1.24.2-1.33.1-1.44-.1-2-.15-2.23.1-.3.05-1.63-.25-2.23-.1-.2c0-.84.51-1.35 1.54-1.64zm44.93 12.11a3.94 3.94 0 01-.15 1.14l-.69 1.75-1.59 4-1.48.15-.94 1.08a1.56 1.56 0 01-1 .6l-6.15 1.73-.94.5-2.23-.3-3.12.4-3.57-.3h-1a8.9 8.9 0 00-.94-1l-3.32-1.73-1.14-1.54-2.23-2.23-1.81-3.36-.64-.84a6.9 6.9 0 00.39-2.13 1.08 1.08 0 00-.14-.6l-1-2.13-.2-2.82V75.2a15.62 15.62 0 01.39-3 13.88 13.88 0 01.94-3.57l1.24-2.33.65-2.13 1.63-2.22 1.73-3.32 1.58-1.31 2.23-2.23 1.49-1.44.49-.49 1-.3 3.12-1.44 2.43-.39 1.44-.9.8-.13c1.15 0 2.13.9 2.92 2.72.43-.06.75-.41.94-1l.94 1.14 1.24 1 2.87 4.06a16.72 16.72 0 01.85 1.71c.2.48.4 1 .59 1.51a12.77 12.77 0 01.52 1.74c.15.62.38 1.58.67 2.87l.25 1.24-.3.2-1.33-.4-1.49.7-1.14-.3-1.24.49-2.43-.4-2.28.21-2.37-.6-3.92.1-1.88-.1-4.66.89-1.63-.1-2.33 1-.84.25-.15 1.19a6.15 6.15 0 01-.22 1.68 3.38 3.38 0 01-.77 1l.1 1a8.37 8.37 0 011.19 1.53l.89 5 .45 1.24a1.56 1.56 0 00-.35.89.53.53 0 010 .2l1.28.6.35 1.24a3.65 3.65 0 00.89 2.12l1.84 1.1.59 1.93a4.05 4.05 0 001.54.54l.49 1.29 1 .2 3 1.53 2.42-.69L427 91l1.44-1.24 2.18-1.92 1.83-3.43c.3-.55.66-.83 1.09-.83.79 0 1.19.5 1.19 1.53zm-8-23.33a10.27 10.27 0 00-1.28-3.32L423 56l-.75-1.19-1.13-.1-2.63-.29-.59.19-1.49 1.19-1.88.65-2.38 1.28-.94.5-1.09 2.38a6.84 6.84 0 00-1.09 1.29l-.15.59 4.21.45.45-.1.79-.35.74.25 2 .59h.09l2.28-.59.75-.25.54 1.14h.79l3-.89 1.24.2a1 1 0 00.94-1.16zm36.49 24.67l-.1 2.62.05 2a1.68 1.68 0 01-.5 1.24l.2 1.19-.74.2-2.28 2-.85.3-1 .94a.85.85 0 00-.25 0 1.07 1.07 0 00-.25.07c-.43 0-.64-.2-.64-.59v-1.26l-.2-2.22.45-5.4.19-6.89a13 13 0 01.75-4.16l-.4-1.54a9.45 9.45 0 01-.6-1.78 9.56 9.56 0 01.85-2.87 3.85 3.85 0 00.34-1.64c0-.46-.34-.89-1-1.28l.15-.85-.3-.2v-1.48l.6-3.47v-8.52l.69-4a2.74 2.74 0 00-.84-1.74v-2.29l-.15-8.91a11.53 11.53 0 01.89-3.37l.55-1.29q-1.29-.84-1.29-1.53c0 .13.07-.52.2-1.94l-.69-.89V25l-.15-2.33v-.45l.59-2.52-.59-3.52.15-1.74-.7-5.79v-.82l.25-1.64.25-2 3.07-2.43L461.19.2l.59-.2.45 1.09.09 2.13.25 1.44.1.84v1.19l-.25 3.66v.3l.1 1.73a3.94 3.94 0 01-.15 1.29l-.79 2.58-.15 1a1.16 1.16 0 01.89.32 2.86 2.86 0 01.2 1.41v1.09a2 2 0 01-.84 1.64v1.24l-.05 1v.4l.6 1.43-.23 9.44V42l-1 2.64.54 3.76-.74 2.43a3.34 3.34 0 00.59 1.14l.6.89.29 16-.89 1.39a12.81 12.81 0 01.15 2 14.32 14.32 0 01-.35 3.27l.35 1.09h.94v1.83zm38.44 5.45l-.35.94-.54 1.16-1 .54-1.44 1.09-1.29.6a6.92 6.92 0 01-1.48.74c-.17 0-.33-.13-.47-.37a1.34 1.34 0 01-.23-.67 15.87 15.87 0 01.35-2.23 9.79 9.79 0 00.25-1.73l-.65.64-3.07 1.49a3.27 3.27 0 01-1.88.64h-1.39l-1.58 1.09-1.09.2-3.22.94-1.29-.3-.89.5-.7.19-1-.09-2.27-.7-1.54-.19a4.77 4.77 0 01-2.73-1.57 7.8 7.8 0 01-1.68-3.24l-.94-.5-.2-1.23-.05-.9-.49-2.33 1.3-3.61.4-1.64a6.32 6.32 0 011.29-1.88l2.62-3.17 1.14-.59 1.88-1.14h.15a.7.7 0 01.2.08 2.65 2.65 0 012.63-2.13l.2-.3h.69a3 3 0 01.89-1.09 6.91 6.91 0 011.68-.65l4.26-1.08 1.3.19 1.58-.49 2.87-.45a2 2 0 001.49-2 .45.45 0 00-.1-.3l-.35-2.23.3-3.22a2.68 2.68 0 00-.52-1.51 2.13 2.13 0 00-1.21-.62l-.5-1.13a9.33 9.33 0 00-1.21-2.31 4 4 0 00-1.78-.94l-2-.65-1.89-.1-.89.2a1.6 1.6 0 01-.47-.5 2.61 2.61 0 01-.27-.89l-.94.6-1 1.44-3.37 2.42a4.55 4.55 0 00-1.39 1.64l-.49 1c-.24.53-.55.79-.94.79l-.65-.2-1-.69-1.09-.3a3.38 3.38 0 01-1-.84 1.73 1.73 0 01-.52-1.09q0-.3.09-.3l.55-.59 1.09-1.24 1.19-.3 1.83-1.34 2.28-1.09.6-.2 1.43-1.17 1.19.29 4.11-1.29 1.79.09h1.28l1.44.7L495 52l.6.49v.7l-.45.39q.19 1.74.84 1.74l.1-.08h.1l.94-.6h.15c.23 0 .38.17.45.5l.69 1.83.69.79v1.14l-.1 2.53a4.05 4.05 0 001.09 2.82l.45 7.34-.94 1.83 1 1.78.1.65-.2 4.65.25 3.57V86l-.5.2c.07.83.11 1.36.13 1.59a4.62 4.62 0 00.24 1q.22.68.48 1.56zm-5.45-8.62a3.86 3.86 0 01-.64-1.09l.15-2-.3-4.56.39-1.34-1.09-.89-.54.19-3.18-.32-1.49.1-1.09-1.14-.69.59-1.88.1-1.34.75-.79-.65-1 .84-5.15 3.57-1.09 1.19-.89 1.93-1.24 1a1.72 1.72 0 00-.24.89.51.51 0 010 .2l.3.6-.1.44.8 4.46-.8 2.82.55 1 .94-1.59c.33.4.63.73.89 1a3.38 3.38 0 001 .67 16 16 0 001.49.57L480 94l2.38.34.64-.94.7.5.44-.4.4-.3a5.14 5.14 0 00.94.4 4.64 4.64 0 002.67-1.39 2.76 2.76 0 01.28-.22c.11-.08.29-.22.52-.42 2.05 0 3.4-.61 4.06-1.84l.69-1.28 1.69-2 .05-.6-.05-.64a1.33 1.33 0 00.64-.59 4.46 4.46 0 00.16-1.34zM569 91.3a8 8 0 01-.44 2.73l-.7-.1-.44.1-.94.74-2.33-.5-2.33 1.19h-3.57l-4.4.8h-.25l-1.49-.2a5.57 5.57 0 01-3.22 1.33l-.64-.09-2.18-.4-5-.3-1.29-.44-1.89-.5-.94-.3-.29-1.23a1.1 1.1 0 01-1-.6 2.78 2.78 0 01-.94.5c-.23 0-.64-.27-1.24-.8l-.74-.49a4.43 4.43 0 00-.6-2.23 2.56 2.56 0 01-1 .4.43.43 0 01-.35-.2l-.35-.5-1.44-2.13-1-2.67-.82-1.41-.95-2-.54-1.74a8.22 8.22 0 00.59-2.72l-.4-.74-1.19-.3-.59-1.83a3.35 3.35 0 01-.35-1.39v-1.04l-.44-4a5.73 5.73 0 01-.1-1.29 11.55 11.55 0 01.35-2.68l-.4-1 .4-3.17a22.18 22.18 0 01.27-2.75 7.35 7.35 0 01.62-1.91 2.17 2.17 0 010-.49 6.14 6.14 0 01.45-1.54l.19-1.09 1.34-.84-.1-1.73a1.47 1.47 0 01.15-.8l1.73-3.22.89-2.22.9-1.14.89-1.93 1.68-1.84.55-1.38 3.27-1.94 1.09-1.24 1.24-.29.44-.5.65-.64.64-.5a11.84 11.84 0 013-1.19l3-.1 1.49-.94 2.82-.39 1.79-.5 3.27.6h1.09a7 7 0 001 1.43c.33 0 .64-.31.94-.94h.35l.14-.39.75.19 2 1.24 1.34.1q.84 0 .84 1a1.58 1.58 0 01-1 1.34c-.69.79-1.21 1.19-1.54 1.19l-.64-.3c-.43 1.29-.89 1.93-1.39 1.93h-.3l-1.4-.66-1.54-.6-1.05-1.12-1.63-.59-1.54-.84-4 .44-2.33.1a5.12 5.12 0 00-3 1l-2.28 2-2.23 1.54-2.83 2.83-1.19.79-.74 2.28c-1.12.29-1.68.86-1.68 1.68a3.34 3.34 0 00.25 1.24l-.65 1.19a3.56 3.56 0 01-1 1.53l.2 1.44-.35 1.19-1.14 5.3-.27 1.54-.3 1.83.1 1.09v1l-.2.89-.25-.2.1.79a2.19 2.19 0 00-.79 1.44 3 3 0 00.54 1.34l1 .5v1.28a5.27 5.27 0 00.2 1.44 2.38 2.38 0 00-.64 1.44 1.1 1.1 0 00.2.59l.89-.49.34 1 .7 3.37.74 1.94-.25 1.83.4 1h.39a1.12 1.12 0 011 .55 7 7 0 01.77 2l.25 1 .35.49-.8.7.45.54 1.29-.45.94.94.64.6.79 1 1.34.69 2.35 2.2 1.19.6-.2 1a5.47 5.47 0 011.59.4l1.09.49 2.87.1.64.64.75-.44 2.57-.3 1.39-.3.69-.09a2 2 0 011.14.49L556 93a3.54 3.54 0 011.53-.7l1.09.1 1.34-.29-.1-.55.64-.4a4.67 4.67 0 001.07-.56 10.18 10.18 0 00.67-.88l.15.35a1.75 1.75 0 001.19-1.53l-.3-1.54.1-3.86-.3-5.55.54-1.73v-.4a2.56 2.56 0 00-.74-1.83l-.15-1-.14-1.83.14-1.09-.69-.1-2.62-.29-1.74-.2-.69.1-1.44.2a2.51 2.51 0 01-.74-.3l.2-1.44a1.68 1.68 0 00.61-.35 5.42 5.42 0 00.52-1.09l.5-.79a3.66 3.66 0 001.88.6h.55l8.07-.7 1 .1a8.65 8.65 0 01.75 2.93 1.55 1.55 0 01-.69 1.23v.89h.44v2.84a4.08 4.08 0 01-.12 1.16 3.24 3.24 0 01-.52.87l.34 2.43a5 5 0 01.5 2.33 14.78 14.78 0 01-.25 2.72 1.39 1.39 0 00-1 .47 3.44 3.44 0 00-.29 1.68l1.7 2.24v3.17zm80.49.94a2.4 2.4 0 01-1 1.79l-4 2.47a3.59 3.59 0 01-1-2.87v-2.82l-.59-.2-2.28 1.54-3.12 2.22-1.29.89-4.11 1.15-1.34.59h-.35a1 1 0 01-.49-.1l-1.24-.74-1.53.64-1.39-1.73-2.78.59a11.92 11.92 0 01-1.18-.89 6.49 6.49 0 01-1.34-1.44 9.42 9.42 0 01-1.54-5 2.57 2.57 0 01.74-1.64l-1.13-.59-.06-1.93-.09-2.68a5.43 5.43 0 01.3-2l.63-1.73-.58-2.76v-6.29c0-.2.22-1.34.69-3.42v-.79l-.65.45-.4-.65v-1l.06-6a8.78 8.78 0 00-.2-2.13l-.25-.6a.47.47 0 000-.17.33.33 0 00-.07-.13 2 2 0 01.85-1.53l.39-.3 2.52-1.53a4.51 4.51 0 011.69-.7c.33 0 .64.47.94 1.39l.3 1.14a22.89 22.89 0 00-.65 5.15l.2 2.88L624 62l-.54 2.43c0 .89-.06 1.51-.07 1.86s0 .65-.08.92a5.79 5.79 0 00.2 1.48l.59 1.44-.79 3.76.25 1.19-.25 2.13-.3 2.88a1.29 1.29 0 00.11.59l.44 1.24.25 5.25a3.23 3.23 0 00.86 2 12.23 12.23 0 002.75 1.54l2.53 1a9.59 9.59 0 002.33.2 3.6 3.6 0 001.68-.3l2-1.09 2.08.79c.37-.16.6-.71.69-1.63l1.15-.89 1.53-3.08 1.24-1.48a6.72 6.72 0 00.65-2.78l.24-5 .3-1.09-.74-1.14v-1.83l.16-7.83-.2-2.62-.35-3a3 3 0 01.6-1.63l-.16-.89-.54-.1-.15-1.54v-.4l.3-1.53v-1l.55.25 3.85-2.1h.07a.07.07 0 01.08-.05c.23 0 .44.3.62.91a8.77 8.77 0 01.27 2.4l-.3 10.06-.49 7.68-.89-.55a7.59 7.59 0 00-.45 1.94l.25 1a1.54 1.54 0 01.59-.2.67.67 0 01.52.25.91.91 0 01.23.64l-.35 9.31.64 1.74.35 4.8c.13.2.28.46.47.77s.42.88.72 1.54zm29.92-40.18l-.35 1.39v1l-2.48 2.62-1.43 1.93-.9.2-1.23-.2a12.42 12.42 0 01-2.33-.57 4.84 4.84 0 01-.94-.37h-.1l-2.28.25L666 58a1.35 1.35 0 00-.81.52 1.46 1.46 0 00-.33.92.66.66 0 00.4.69v6.39a2 2 0 00-1.48 1.84l.1 1.13 1.38.4.15 4.76v1l-.41 1.53a1.23 1.23 0 00-.64-.29c-.59 0-.89.38-.89 1.13a3.69 3.69 0 00.54 1.54c.33-.56.55-.84.64-.84s.33.25.7.74l.1 6.69.1 1 .79 2.33a8.64 8.64 0 01.1 1.73 5.84 5.84 0 001.31 1 3.4 3.4 0 001.27.19 5.23 5.23 0 003.98-1.99l3.34-4.41a.6.6 0 01.54-.35 2.34 2.34 0 011.19.65l-.2 1.09c-.46 2.74-.86 4.19-1.18 4.36l-8 4.26-1.39 1-1.09-.94-.69-.2-.35 1.34-.64.1a3.78 3.78 0 01-2.38-1.44 5.92 5.92 0 01-1.54-2.53l-.19-1.43-.4-1.69v-5.9l.69-3.27-.2-1.19-.14-1.74V77l.14-4.76-.09-1.34-.16-1.68c0-.13 0-.2.11-.2l.88-1.53a1.49 1.49 0 00.16-.6c0-.76-.4-1.14-1.19-1.14l-.25-.6c.2-2.41.29-4.82.29-7.23a9.21 9.21 0 00-2.42-.49 9.55 9.55 0 00-4.26 1 1.12 1.12 0 01-.3-.75 1.43 1.43 0 01.3-1.09l1.31-1.59.25-1.14a1.48 1.48 0 01.31-.64c.15-.17.28-.25.38-.25l4-.2.94-.2-.1-1.14-.19-10.55-.85-2.82-.19-1.54a9.63 9.63 0 012.05-3 6.12 6.12 0 012.6-1.29c.46-1 .86-1.54 1.19-1.54.63 0 .94 1.51.94 4.51a38.83 38.83 0 01-.84 9.71c-.33 1.36-.65 2-.94 2v2.33a1.18 1.18 0 01.67.13 1.84 1.84 0 01.42.62l-.25 1.38.15 1.14.74.1 3.42 1.09a2.65 2.65 0 001.14.2 2 2 0 001-.2l1.34-.59 2.57-.4 2-1h1.73a1.38 1.38 0 00.04.35z" fill="#006ab3"/>
  <path d="M704.72 52.06l-.34 1.39v1l-2.48 2.62-1.44 1.93-.89.2-1.24-.2a12.31 12.31 0 01-2.32-.57 4.43 4.43 0 01-.94-.37h-.1l-2.28.25-1.39-.31a1.37 1.37 0 00-.82.52 1.51 1.51 0 00-.32.92.65.65 0 00.4.69v6.39a2 2 0 00-1.56 1.85l.1 1.13 1.39.4.15 4.76v1l-.34 1.48a1.26 1.26 0 00-.65-.29c-.59 0-.89.38-.89 1.13a3.74 3.74 0 00.55 1.54c.33-.56.54-.84.64-.84s.33.25.69.74l.1 6.69.11 1 .79 2.33a8.64 8.64 0 01.1 1.73 5.62 5.62 0 001.31 1 3.34 3.34 0 001.26.19 5.18 5.18 0 003.91-1.93l3.43-4.43a.62.62 0 01.55-.35 2.28 2.28 0 011.18.65l-.19 1.09c-.47 2.74-.86 4.19-1.19 4.36L694 96l-1.38 1-1.09-.94-.7-.2-.34 1.34-.65.1a3.78 3.78 0 01-2.38-1.44 6 6 0 01-1.53-2.53l-.2-1.43-.4-1.69.05-2.77v-3.12l.7-3.27-.2-1.19-.15-1.74V77l.15-4.76-.1-1.34-.15-1.68c0-.13 0-.2.1-.2l.89-1.53a1.63 1.63 0 00.15-.6c0-.76-.4-1.14-1.19-1.14l-.25-.6c.21-2.41.3-4.82.3-7.23a9.34 9.34 0 00-2.43-.49 9.58 9.58 0 00-4.26 1 1.12 1.12 0 01-.3-.75 1.43 1.43 0 01.3-1.09L680.2 55l.25-1.14a1.49 1.49 0 01.32-.64c.15-.17.28-.25.37-.25l4-.2.94-.2-.1-1.14-.2-10.55-.84-2.82-.2-1.54a9.63 9.63 0 012.06-3 6.06 6.06 0 012.6-1.29c.46-1 .85-1.54 1.19-1.54.63 0 .94 1.51.94 4.51a38.83 38.83 0 01-.84 9.71c-.34 1.36-.65 2-.95 2v2.33a1.16 1.16 0 01.67.13 1.71 1.71 0 01.42.62l-.24 1.38.14 1.14.75.1 3.41 1.09a2.68 2.68 0 001.11.3 2 2 0 001-.2l1.33-.59 2.58-.4 2-1h1.74a3.25 3.25 0 00.07.25zm34.98 33.05a3.94 3.94 0 01-.15 1.14l-.7 1.73-1.57 4-1.49.15-.94 1.08a1.56 1.56 0 01-1.05.6l-6.14 1.73-.94.5-2.23-.3-3.12.4-3.56-.3h-1a10 10 0 00-.94-1l-3.32-1.73-1.14-1.54-2.23-2.23L707.4 86l-.64-.84a6.9 6.9 0 00.39-2.13 1.08 1.08 0 00-.14-.6l-1-2.13-.2-2.82-.05-2.28a15.77 15.77 0 01.4-3 13.88 13.88 0 01.94-3.57l1.24-2.33.66-2.2 1.63-2.22 1.74-3.32 1.53-1.24 2.23-2.23 1.48-1.44.5-.49 1-.3 3.12-1.44 2.43-.39 1.43-.9.75-.09c1.16 0 2.13.9 2.92 2.72.43-.06.74-.41.94-1l1 1.14 1.23 1 2.88 4.06a18.69 18.69 0 01.84 1.71c.2.48.4 1 .6 1.51a16.47 16.47 0 01.51 1.74c.15.62.37 1.58.67 2.87l.25 1.24-.3.2-1.33-.4-1.49.7-1.14-.3-1.24.49-2.43-.4-2.28.21-2.38-.6-3.91.1-1.88-.1-4.66.89-1.63-.1-2.33 1-.84.25-.15 1.19a6.15 6.15 0 01-.22 1.68 3.23 3.23 0 01-.77 1l.1 1a8.37 8.37 0 011.2 1.46l.89 5 .44 1.24a1.61 1.61 0 00-.34.89.53.53 0 010 .2l1.29.6.34 1.24a3.72 3.72 0 00.89 2.12l1.84 1.1.59 1.93a4.12 4.12 0 001.54.54l.52 1.34 1 .2 3 1.53 2.43-.69L732 91l1.44-1.24 2.18-1.92 1.83-3.43c.3-.55.66-.83 1.09-.83.76 0 1.16.5 1.16 1.53zm-8-23.33a10 10 0 00-1.28-3.32L728 56l-.74-1.19-1.15-.1-2.62-.29-.6.19-1.48 1.19-1.88.65-2.38 1.28-.94.5-1.09 2.38a7.3 7.3 0 00-1.12 1.27l-.15.59 4.21.45.45-.1.79-.35.74.25 2 .59h.1l2.28-.59.74-.25.55 1.14h.79l3-.89 1.23.2a1 1 0 00.94-1.14zm64.08 31.65v1l-.74.3-2.33.59-2.48.3a12.26 12.26 0 00-.35-2.55 1.8 1.8 0 00-.59-.87 2.52 2.52 0 01-.67.65l-.81.47a6.34 6.34 0 00-.9.57q-3.92 3-14.32 3a6.08 6.08 0 01-2.92-.54 3.1 3.1 0 01-1.33-1.89 1.43 1.43 0 00-1 .79l-1.1-.49a4.85 4.85 0 00-.27-1.39 1.78 1.78 0 00-.82-.74l-.44.59a3.92 3.92 0 01-1.66-1 25.82 25.82 0 01-1.91-2.72 4.15 4.15 0 00.15-1.19 3 3 0 00-.69-2l-1-1.34-.09-1-.6-3.76v-.85a16 16 0 01.45-3.61l-.05-1 .4-1.19 2.12-7.24c.34-1 .78-1.58 1.34-1.58h.1l1.09.1.45-4.16 1.34-1.54 1.38-2.33 1-.94.6-.79a2.36 2.36 0 01.74-.4 2.55 2.55 0 00.74.1 1.91 1.91 0 01.87.22 2.49 2.49 0 01.52.87 3.18 3.18 0 011.74-1.68l-.06-1.54 1-.59c.92-.4 1.49-.65 1.7-.77a8.1 8.1 0 01.87-.37l1.24.1 1.59-.8.74.7a6.18 6.18 0 00.74.49l.1.5c.26.3.43.45.5.45s.46-.48.79-1.44l1.83.59a13.27 13.27 0 012.51 1 3.33 3.33 0 011 1.24l2-.1-.25-1-.4-.84-.19-3.52-.2-1 .25-2.52-.25-6.89v-.74l1.14-.6-.5-1-.14-1.34-.5-2.23a9.93 9.93 0 01-.25-2.42v-.6l.35-7-.3-3.12.2-1.34a1 1 0 00.74-1l-.44-.64a2.31 2.31 0 01-1.34-.7v-1.38l-.3-3-.1-3.37a2.41 2.41 0 00-.74-1.68c.2-1.19.56-1.87 1.09-2l2.07-.72 1.44-1.29 1.53-.49.8-.33a5 5 0 01.69 2.58v1.19l-.35 2.62v1.44l-.15 4.36v3.67l-.39 2.12v4.56a8.09 8.09 0 01-.79 2l1 4.17-.19 1.08v2.38l-.25 1 .25 3.37a8.85 8.85 0 01-.25 1.84h-.79a13 13 0 00-.3 2.23.55.55 0 00.1.39l1.19 2.43-.1 3.56.25 4.16-.15 1.69-.1.75.1 1-.5.85.2 4.65-.05 3.32.25 3.18v2.12l.23 2.4v3.9l.49 3.86.05 3.12.45 2.23.05 2v1.54a4.91 4.91 0 01.59 2 18.2 18.2 0 01.25 2.78zM790.23 73l-.35-3.12a1.37 1.37 0 01-.84-1.24v-.2l.3-2.13-.2-3.86v-1l-.34-1.14.05-1.19c0-.46-.14-.69-.4-.69s-.22-.08-.25-.25l-1.39.45-.34.09-.5-.09-6.34-2.23-2.33-.1h-.74c-.23 0-.37 0-.4.1l-1.19.69h-1.53l-2 1.93-1.39.3-1 1-1.39 1.83a6.39 6.39 0 00-1 2.13l-.1 1.24-1.34 2-1.43 3a9.53 9.53 0 00-.55 2.77 6.64 6.64 0 00.25 1.93l.25.89.74 4.06.79 2V84l.84.5a27.41 27.41 0 002.06 3.29 10.62 10.62 0 002.2 2.3l1.54 1 .54.4 1 .2h.89l1.93 1h2.18l3.42-.2a7.8 7.8 0 002.55-.77 16.58 16.58 0 002.4-1.26l1.59-1.93.74-1.34-.3-1.19.19-1.33.1-1.44-.1-2-.15-2.23.1-.3.01-1.7-.24-2.23c0-.07-.07-.14-.11-.2.04-.77.56-1.28 1.58-1.57zm18.93-40.95l-.1.94v5.35l-.5 2.63-.2 1.73.35.3v2.53l-.2 2.47-.6 3.12v.4l-.09.2-.15-.2-1.54 1.34-.49-.7-.55-4.7v-6.49l-.84-1.83-.64-.1v-2.13l1.33-1.19 2.88-3.47a1.24 1.24 0 01.74-.3zm53.35 57.62l-.44 2.13-.75-.1a.65.65 0 00-.59.3l-.65 2.13-.94.94-.3.49-1.23-.2-1.49 1-1.68-.75-.2-.1-3.87.2-1.09-.2-.39-.79a21.23 21.23 0 01-2.33.59l-1.29-.1-.84.2-.3-1h-.39l-.35.1-1.19.89-6.74.1-1 .7c-.76-.73-1.34-1.1-1.73-1.1l-.35.1-1.73.7-2-.6-6 .3a13.2 13.2 0 01-2.53-1.19l.3-1.14.84-2.82.15-2.67.35-2.43v-3.66l.2-1.44-.1-11.49.1-2.92v-1.09l-.2-1.14 1.39-.1a10 10 0 00-.62-1.68 6.66 6.66 0 00-1-1.24l-.2-.84.2-3.67-.3-6.29.3-2.43.15-1-.74-.3-.25-1-.15-3.22-.4-1-.1-.49.1-1.24.25-.6 1.89.7-.55-.7a1.56 1.56 0 01-.5-1 7.29 7.29 0 01.1-.84l-.54-.3-.65.3c-.1-1.62-.18-2.69-.24-3.22s-.22-.84-.45-.94l-1.29-.79.3-1a3 3 0 011.14-.89l.64-.3a5.37 5.37 0 012.58-1.14h.07s.06 0 .13.1l5 1.24 2.33.29 1.29.6a4.86 4.86 0 011.73-.7.28.28 0 01.25.1l5.15.79 4.56-.39 1.78.74 1-.35v-.59a12.07 12.07 0 003.42-.89 7.05 7.05 0 011.84-.84l.69.19a6 6 0 01-.45 1.61 3.54 3.54 0 01-1.09 1.07 4.13 4.13 0 01-.27 1.24 4 4 0 01-1 1 5.81 5.81 0 01-3 1.19h-.34l-1.84-.2-1.54.3-3.12-.5-.74-.1a2.8 2.8 0 00-1.88-.89 2.8 2.8 0 01-2.63 1.19l-1-.1-.19-.89-.65.3-1 .59-4.7-.59-.75 1.63.25.4v.39l.15 2.63-.27 3.75.1 1.44.1 1.09.69.3 4.66.64c.33 0 .79.33 1.39 1l1.08-.29a3.58 3.58 0 011.39-.5h.05l3.67.29 2.17.11h1.94a3.26 3.26 0 001-.15 3 3 0 00.94-.55l2.63.7.59-.2 1.49-.5 2.62-.1 2.83-.54a2.42 2.42 0 01.94.74l.74-.64a1.85 1.85 0 011.24-.79l.79.09.75-.09v1.53l-.9.89-2.08 2.63a1 1 0 01-.74.44H856l-2.28-.44-2.92.15-1.64-.55-5.69.55-1.09-.15q-.36-1-.84-1c-.21 0-.34 0-.4.1l-1.53.89-4.51-.7-2.18 1.14-1.54-.64-1.29 1.14-3.71-.4-.3.7.15 2.62-.6 2.68.3.79.49.89-.49 2.13a11.78 11.78 0 01.65 2l-.16 1.64.25 4.56v.09a5.13 5.13 0 01-.74 2 6.11 6.11 0 01.89 2.68 2 2 0 01-.15.69l-.89 2.83 1 2.52.4 9.47 1 .29 4.66 2.33 1.53-.3a2.92 2.92 0 011.53.8c.47-.6.8-.89 1-.89h.1l3.17.89 1.93-.3 1.63.5 4.12-.4 1.14.3 2 .1.69.34-.2-.74.8-.2 3.17-.1.69-.39 4-1 .77-.28a3.27 3.27 0 01.77-.22 2.79 2.79 0 01.83.32zm35.67 2.23l-.35.94-.54 1.16-1 .54-1.44 1.09-1.29.6a6.63 6.63 0 01-1.49.74c-.16 0-.32-.13-.46-.37a1.25 1.25 0 01-.23-.67 15.87 15.87 0 01.35-2.23A9.79 9.79 0 00892 92l-.65.64-3.07 1.49a3.3 3.3 0 01-1.88.64H885l-1.58 1.09-1.09.2-3.23.94-1.28-.3-.89.5-.7.19-1-.09-2.23-.7-1.53-.19a4.77 4.77 0 01-2.73-1.57A7.8 7.8 0 01867 91.6l-.95-.5-.19-1.23v-.9l-.49-2.33 1.25-3.64.4-1.64a6.44 6.44 0 011.28-1.88l2.63-3.17 1.14-.59 1.93-1.16h.15a.84.84 0 01.2.08 2.65 2.65 0 012.63-2.13l.19-.3h.7a3 3 0 01.89-1.09 6.91 6.91 0 011.68-.65l4.27-1.08 1.28.19 1.59-.49 2.87-.45a2 2 0 001.49-2 .45.45 0 00-.1-.3l-.35-2.23.3-3.22a2.68 2.68 0 00-.52-1.51 2.13 2.13 0 00-1.21-.62l-.5-1.13a9.7 9.7 0 00-1.21-2.31 4 4 0 00-1.81-.91l-2-.65-1.88-.1-.89.2a1.4 1.4 0 01-.47-.5 2.41 2.41 0 01-.27-.89l-.94.6-1 1.44-3.37 2.42a4.55 4.55 0 00-1.39 1.64l-.49 1c-.24.53-.55.79-1 .79l-.64-.2-1-.69-1.09-.3a3.38 3.38 0 01-1-.84 1.75 1.75 0 01-.53-1.09c0-.2 0-.3.1-.3l.55-.59 1.09-1.24 1.19-.3 1.83-1.34 2.28-1.09.59-.2 1.46-1.18 1.19.29L883 50l1.78.09H886l1.44.7 4.1 1.21.59.49v.7l-.44.39q.19 1.74.84 1.74l.1-.08h.1l.94-.6h.15c.23 0 .38.17.44.5l.7 1.83.69.79v1.14l-.1 2.53a4 4 0 001.1 2.82l.44 7.34-1 1.83 1.05 1.78.1.65-.2 4.65.24 3.57V86l-.49.2c.06.83.11 1.36.13 1.59a4.62 4.62 0 00.24 1c.15.45.31 1 .47 1.56zm-5.45-8.62a4.51 4.51 0 01-.65-1.09l.16-2-.3-4.56.39-1.34-1.09-.89-.54.19-3.17-.29-1.49.1-1.04-1.17-.69.59-1.88.1-1.34.75-.8-.65-.93.84-5.16 3.57-1.09 1.19-.89 1.93-1.24 1a1.64 1.64 0 00-.25.89.53.53 0 01.05.2l.3.6-.1.44.79 4.46-.84 2.86.55 1 .94-1.59c.33.4.63.73.89 1a3.26 3.26 0 001 .67c.4.18.89.37 1.48.57l.7 1.39 2.38.34.64-.94.69.5.45-.4.4-.3a5.14 5.14 0 00.94.4 4.72 4.72 0 002.68-1.39 1.78 1.78 0 01.27-.22l.52-.42c2 0 3.4-.61 4.06-1.84l.69-1.28 1.69-2 .05-.6-.05-.64a1.33 1.33 0 00.64-.59 4.46 4.46 0 00.19-1.38zm44.09 8.96a2.39 2.39 0 01-1 1.79l-4 2.47a3.59 3.59 0 01-1-2.87v-2.82l-.6-.2-2.22 1.54-3.12 2.22-1.29.89-4.11 1.15-1.34.59h-.34a1 1 0 01-.5-.1l-1.24-.74-1.53.64-1.39-1.73-2.77.59a11.6 11.6 0 01-1.2-.89 6.94 6.94 0 01-1.33-1.44 9.42 9.42 0 01-1.54-5 2.53 2.53 0 01.75-1.64l-1.14-.59v-1.93l-.1-2.68a5.91 5.91 0 01.29-2l.65-1.73-.7-2.76.06-2.92-.06-3.37c0-.2.23-1.34.7-3.42v-.79l-.64.45-.4-.65v-7a8.78 8.78 0 00-.2-2.13l-.25-.6a.88.88 0 000-.17.35.35 0 00-.08-.13 2 2 0 01.84-1.53l.4-.3 2.58-1.51a4.48 4.48 0 011.68-.7c.33 0 .65.47.94 1.39l.3 1.14a22.84 22.84 0 00-.64 5.15l.2 2.88-.1 1.18-.55 2.43c0 .89-.06 1.51-.07 1.86s0 .65-.08.92a5.79 5.79 0 00.2 1.48l.6 1.44-.8 3.76.25 1.19-.25 2.13-.29 2.88a1.49 1.49 0 00.09.59l.45 1.24.25 5.25a3.23 3.23 0 00.86 2 12.37 12.37 0 002.76 1.54l2.52 1a9.59 9.59 0 002.33.2 3.6 3.6 0 001.68-.3l2-1.09 2.08.79c.36-.16.59-.71.69-1.63l1.14-.89 1.53-3.08 1.23-1.46a6.57 6.57 0 00.65-2.78l.25-5 .29-1.09-.74-1.14.05-1.83.15-7.83-.2-2.62-.35-3a3 3 0 01.59-1.63l-.14-.89-.55-.1-.15-1.54v-.4l.3-1.53v-1l.54.25 3.8-2.09a.1.1 0 00.08 0 .06.06 0 01.07-.05c.23 0 .44.3.62.91a8.77 8.77 0 01.27 2.4l-.3 10.06-.49 7.68-.89-.55a7.59 7.59 0 00-.45 1.94l.25 1a1.54 1.54 0 01.59-.2.64.64 0 01.52.25.91.91 0 01.23.64l-.35 9.31.64 1.74.35 4.8c.13.2.29.46.47.77s.42.88.72 1.54zM603.06 58.56c-1.6-2.57-3-5-4.14-7.24a57.23 57.23 0 003.56 7.51c3.56 5.7 7.47 10.3 6.94 18.53S602.19 92 594.46 92s-15.24-6.73-15.78-15 3.73-12.61 7-18.48a78.29 78.29 0 007.56-20.34 93 93 0 01-9.76 20.32c-4.16 6.68-9.27 11.72-8.65 21.37s9.4 17.55 18.43 17.55 17.8-7.9 18.43-17.55-4.49-14.69-8.65-21.37M.83 112.38c0-5.44 19.76-9.85 44.14-9.85 16.27 0 30.48 2 38.14 4.89-7.43-3.11-22.09-5.22-39-5.22-24.35 0-44.11 4.41-44.11 9.85 0 1.81 2.19 3.51 6 5-3.3-1.42-5.17-2.99-5.17-4.67zm47.83 4.56a53.78 53.78 0 005.6-.29 15.86 15.86 0 003.94-1.14 38.85 38.85 0 01-10.91 1.3c-1.45 0-2.85 0-4.16-.15a52.66 52.66 0 005.53.28z" fill="#006ab3"/>
  <path d="M47.07 111.15c0 .15-.43.27-1 .27s-1-.12-1-.27.43-.27 1-.27a2.16 2.16 0 011 .27zm22.75 1.08C71.87 113 73 114 73 115c0 3.14-11.4 5.68-25.46 5.68-9 0-17-1-21.5-2.63 4.35 1.74 12.69 2.92 22.26 2.92 14.06 0 25.47-2.54 25.47-5.68.03-1.14-1.43-2.18-3.95-3.06z" fill="#006ab3"/>
</svg>
