<svg xmlns="http://www.w3.org/2000/svg" data-name="Calque 1" viewBox="0 0 973.24 415.32">
  <path d="M646.81 262.47a10.36 10.36 0 00-2-4.88c-1.41-.73-1.81-2.14-2.34-3.46-3-7.52-6.08-15-9.06-22.56-.58-1.45-1.31-2.92-.93-4.59a39.9 39.9 0 00-4-9.71c-3.42-3.38-4-8.12-5.83-12.27-1.56-3.62-2.59-7.47-3.87-11.21-1.62-4.64-2.71-9.44-4-14.18a22 22 0 00-3.88-8.06c-.9-1.41-1.76-2.85-2.74-4.22a9 9 0 01-.6-1c-.2-.31-.38-.64-.58-1l-.31-.45c-.23-.28-.43-.58-.63-.88a10.45 10.45 0 01-.53-.92l-.59-.88c-.12-.13-.22-.27-.34-.41s-.48-.53-.71-.81c-.47-.57-.88-1.19-1.29-1.8-.25-.3-.48-.61-.72-.91l-.41-.43c-.3-.29-.59-.59-.88-.89-2.84-3.39-5.78-6.69-8.48-10.19a174.89 174.89 0 01-15.28-19.27c-1.05-1.48-2.58-2.88-2.16-5a6.07 6.07 0 00-1.81-3.12c-3.68-3.2-5-7.6-5.87-12.12-.38-1.9-.18-4.17 2.1-4.75 7.84-2 15.17-5.67 23.2-7a7.15 7.15 0 011.89.16 1.64 1.64 0 001.51-.23 7.87 7.87 0 013.33-1.91c8.66-2 17.34-3.89 26.12-5.27a3.71 3.71 0 012.75.4 73.1 73.1 0 0012.93-3.42c7.12-3.51 14.52-6 22.56-6.21a4 4 0 002.45-.84 7.59 7.59 0 001.11-.85 5.83 5.83 0 011.91-1c8.32-2.31 16.52-5 24.87-7.23 1.65-.44 3.31-1.36 5.1-.47a2.75 2.75 0 002.56-.72 4.72 4.72 0 013.15-2c8.42-2.37 16.81-4.86 25.24-7.18 1.22-.33 2.47-.75 3.66.12a3.54 3.54 0 002.42-.8c5.7-3.47 12-4.7 18.58-4.92a39.15 39.15 0 008.47-2.47c1.26-1.82 3.37-1.66 5.16-2.27.9-.18 1.8-.4 2.69-.67q8.79-2.13 17.55-4.38c2.53-.65 4.95-.86 6.13-4.23 1.1-3.15 3.95-1.32 6.09-.46-1.06-1.32-3.37-2.38-1.54-4.58 1.43-1.72 3-1.57 4.26.35a4.43 4.43 0 002.62 1.58c4.94 1.82 9.66.42 14.53-.62 5.84-1.25 11.38-4.28 17.64-3.27a3 3 0 002.41-.81 10.12 10.12 0 014.22-2.1c8.18-2 16.42-3.77 24.58-5.89a5.37 5.37 0 014.18.11 1.53 1.53 0 001.73-.63c4.72-2.79 10.11-3.48 15.3-4.82a12.84 12.84 0 002.76-.32 1.56 1.56 0 011.3.13 38.43 38.43 0 008.42-2.41c1.56-2.08 3.61-2.36 5.94-1.61a1.33 1.33 0 001.59-.63c8.87-4.36 18.51-6.34 27.93-9 1.67-.47 3.39-1 5.09 0a1.54 1.54 0 001.74-.54 23.42 23.42 0 0117.39-.7c4 1.41 4.18 3.55 1.35 8.8a27.36 27.36 0 00-3.12 5.31 12.9 12.9 0 01-.6 1.17c-1.18 2.05-2.6 4-3.62 6.1-3 4.53-5.83 9.21-9.21 13.5a16.92 16.92 0 00-1.11 1.42c-.19.33-.41.66-.63 1a8 8 0 01-.73.9l-.39.44c-.24.31-.5.6-.75.91-.11.16-.23.32-.34.49-.2.37-.42.71-.64 1.07-2 3.38-4.47 6.47-6.65 9.75-6.92 9.17-12.54 19.18-18.53 28.95a8 8 0 01-1.26 1.41c-.31.26-.64.51-1 .75a2.61 2.61 0 00-1.27 2c-.3 2.41-1.16 4.49-3.42 5.72a14.2 14.2 0 00-2.93 4.93c-3.08 7.62-6.86 14.82-12.46 21a7.93 7.93 0 00-2.27 3.86c-1.69 7-6.58 12.27-9.72 18.49-1.87 3.69-4 7.24-6.15 10.8a7.09 7.09 0 01-1.57 2.08l-.57.26a8.7 8.7 0 00-2.5 4.05c0 2.15-1 3.9-2 5.71-4.69 8.22-9.22 16.52-13.67 24.86-.77 1.39-1.46 2.83-2.13 4.27-4.84 8.33-9.13 16.95-13.23 25.66-1.18 3-2.63 5.89-3.89 8.86-3.89 9.26-6.95 18.84-10.78 28.12a11 11 0 00-1.62 2.67l-.4 1.17a13.63 13.63 0 00-.38 3.18c-1.79 8.49-5.24 16.34-9.24 24-1.85 3.53-2.93 3.49-8.14.1-1.49-1.09-3-2.13-4.59-3.11-7.18-4.57-15-7.85-22.8-11.14a31.05 31.05 0 01-5.58-2.74c-.65-.44-1.27-.94-1.93-1.36-.32-.18-.62-.38-.93-.57a14.7 14.7 0 00-1.43-.72l-1-.38c-.76-.21-1.54-.28-2.32-.42-5.45-1.54-10.35-4.39-15.57-6.46-4.66-3-10.37-4.06-14.52-8a2 2 0 00-2.09-.86h-.65a6.9 6.9 0 01-2.51-.72c-8.18-3.62-16.35-7.27-24.44-11.08-1.42-.67-3.11-1-3.78-2.68-.5-.91-1.51-1-2.33-1.37-1.6-.71-1.62-.65-3.16 1.45a2.87 2.87 0 01-.88 2.14 147.07 147.07 0 01-22.72 20.08 10.49 10.49 0 00-3.26 3.71c-.53 2.48-2.21 3.91-4.44 4.84a8.82 8.82 0 00-3.13 2.91 8.93 8.93 0 01-9.25 5.13c-4-.42-5.89-3.79-6.48-7.73-.33-1.68-.95-3.35-.42-5.1z"/>
  <path d="M853.18 230c-.67 4.94-2.5 9.54-4.26 14.14-1.53 4-3.43 7.89-5.11 11.84-.49 1.16-1.37 2.18-1.38 3.53a5.57 5.57 0 00-1.63 3.06.52.52 0 00-.24.67c-.88 2.1-1 4.46-2.22 6.45a107.43 107.43 0 00-9.4 22.57 17.7 17.7 0 01-2.83 5.68c-1.16 2.21-2.24 4.47-3.51 6.62-1.67 2.83-3.19 3.27-6.26 2-.87-.36-1.65-.91-2.48-1.34l-6.69-3.39a7.9 7.9 0 00-4.06-2.14 16.19 16.19 0 00-5.31-2.71c-2.13-.77-4.45-1-6.45-2.13-6.59-3.62-13.61-6.42-20-10.44a16.18 16.18 0 01-3.65-3 84.77 84.77 0 00-17.52-8.4c-1.19-.43-2.42-.75-3.61-1.21a1.38 1.38 0 01-.94-1.48c.13-1 1-1.26 1.75-1.1a39.94 39.94 0 015.06 1.3 100.36 100.36 0 0111.85 4.93c1.13.54 2.15 1.39 3.49 1.43a13 13 0 014.09 1.08c10 5.74 20.82 9.68 30.9 15.17 1.67 1 3.46 1.8 5.1 2.86.36.22.72.46 1.07.69l1.14.64c.57.26 1.13.55 1.69.83 8 4 8 4 10.62-4.6a96.47 96.47 0 0112.43-30 26.42 26.42 0 002.16-4.24c1.06-2.78 2.34-5.47 3.64-8.14 3.11-6.08 5.65-12.4 8.24-18.71.77-1.86 1.19-4 3.51-4.77 1.36.37 1.3 1.31.81 2.31z" fill="#020202"/>
  <path d="M963.38 14.1l6.79-11.55c.94-.27 1.36 0 1.14 1a27.62 27.62 0 01-4 8.58 1.68 1.68 0 00-.56 1.36 7.25 7.25 0 01-.29 1 7.05 7.05 0 01-.34 1c-.13.36-.27.7-.41 1-.19.56-.38 1.11-.58 1.66-1.78 3.36-3.53 6.73-5.58 9.93a13.25 13.25 0 01-1.72 2.35c-.38.36-.77.71-1.12 1.11-.19.27-.4.53-.59.8s-.59.78-.87 1.18-.5.82-.72 1.24-.29.57-.45.85-.29.58-.44.87a7 7 0 01-.48.84c-.18.27-.38.52-.58.77s-.2.25-.29.38-.33.54-.5.82a5.17 5.17 0 01-.48.82 5.32 5.32 0 01-.59.74s-.31.36-.3.36a8.58 8.58 0 00-.72 1.21c-.13.29-.29.57-.45.85s-.31.59-.47.88a8.08 8.08 0 01-.52.9c-.28.45-.59.89-.91 1.32a7.61 7.61 0 01-1.19 1.15c-.56 1.22-1.15 2.44-1.67 3.68-.45 1.05-1.31 1.12-2.25 1.09-2.69-1.7-1.08-3.51-.15-5.31.42-.6.88-1.19 1.26-1.82.17-.31.36-.61.54-.9.26-.46.49-.94.71-1.42a10.26 10.26 0 01.49-1 10.59 10.59 0 01.86-1.54c3.42-5.27 7-10.44 10.25-15.78a47.09 47.09 0 013.77-6c1.11-1.44 1.34-3.62 3.41-4.42z" fill="#090808"/>
  <path d="M971.06 17.89q-8.8 13.4-17.6 26.81c-1 1.46-1.73 3-2.58 4.55-.25.17-.48.36-.73.51-1.95 1.16-2.52.92-2.94-1.28a4.51 4.51 0 010-.9c0-.19 0-.38.08-.57.36-.9 1-1.64 1.41-2.52.4-.7.84-1.36 1.21-2.07 1.13-1.48 2-3.12 3.15-4.59.57-1.09 1.37-2 1.88-3.15a8.73 8.73 0 011.4-2 29.53 29.53 0 003-4c3.22-4.64 6.2-9.46 10.08-13.62 1-.73 1.13-2 1.79-2.92 1.86-.12 1.38 1 1 2-.38 1.26-.77 2.51-1.15 3.75z" fill="#171818"/>
  <path d="M613.35 186.61c-1.22-3.07-2.6-6.1-3.63-9.24a25.29 25.29 0 00-3.42-6.71 84.73 84.73 0 00-9.61-11.66l-1.93-2.82c-.36-.78.08-1.19.71-1.52 1.81-.27 2.58 1.08 3.47 2.23.24.29.47.6.69.9l.35.43c.24.26.47.53.7.8l.35.39c.24.23.46.49.69.74s.23.24.35.36.47.47.69.7l.35.35c.24.23.47.46.7.7l.35.34c.25.22.48.46.71.69l.35.36a5.39 5.39 0 01.64.79c.18.28.34.58.5.88s.38.58.59.86l.35.41c.26.27.5.55.76.83l.39.44c.82 1.44 1.92 2.69 2.77 4.11a33.25 33.25 0 013.86 12.7c-.24.92-.36 1.98-1.73 1.94z" fill="#161314"/>
  <path d="M595.87 155l-1.11 1.15-2.67-2.38-3-4.45.07-.38a1.82 1.82 0 01.53-.54l.37-.12 2.25 1.91c1.69 1.21 3.9 2.08 3.56 4.81z" fill="#2b2727"/>
  <path d="M613.35 186.61c.67-.52.67-1.34.88-2.05 1.08 0 1.45.79 1.83 1.58a10.49 10.49 0 01.66 1.88 3.09 3.09 0 01-.5 2.6.92.92 0 01-1.21-.1l-1-1a1 1 0 00-.19-.9 6.24 6.24 0 00-.57-1.16 2.07 2.07 0 01.1-.85z" fill="#343333"/>
  <path d="M853.05 224.1c1.51-.89 1.51-.89 1.79.88a3.92 3.92 0 00-.67 3l-1 2.06c-.35-.68-.17-1.61-1-2-1.28-1.73-.12-2.82.88-3.94z" fill="#393537"/>
  <path d="M972.22 14.16c-.21-.74 0-1.7-1-2a6.46 6.46 0 01.49-1.67c.18-.29.73-.41 1.14-.48.11 0 .44.45.43.69-.06 1.05-.19 2.1-.3 3.15a3.26 3.26 0 00-.76.31z" fill="#5f5252"/>
  <path d="M615 190.52h1c1.89.67 1.5 2.18 1.32 3.61a.77.77 0 01-1.17.15c-.25-.66-.3-1.43-1-1.84-.03-.64-.08-1.28-.15-1.92z"/>
  <path d="M859.85 189.69l1-1.06c.93-.1 1.5.12 1.06 1.22l-.39 2.54a2.94 2.94 0 01-.66.19 2.82 2.82 0 01-1.4-1.86 1 1 0 01.39-1.03z" fill="#242324"/>
  <path d="M742.9 262.37l-1 .07a8.84 8.84 0 00-1.42-.82 2.77 2.77 0 01-1.73-1.12 2 2 0 011.27-.42c1.1.09 2.38-.37 3.09 1a1.79 1.79 0 01-.21 1.29z" fill="#4f595f"/>
  <path d="M861.9 189.85l-1.06-1.22.87-2c.91-.17 1.44 0 1.08 1.11 0 .55-.11 1.11-.16 1.66a4.39 4.39 0 00-.73.45z" fill="#403c3c"/>
  <path d="M946.19 47.61a2.46 2.46 0 01.8-2.09l.51.39a1.65 1.65 0 01-.41 1.76l.12-.09z" fill="#171818"/>
  <path d="M688.92 222.3l-1-.38c-.31-.2-.63-.39-.94-.57l-.87-.34c-.16-1.12.65-1.3 1.45-1.49a4.44 4.44 0 011.15.1 8.21 8.21 0 011.55.66c.32.16.63.34.94.53s.93.49 1.41.7l1 .37a13.2 13.2 0 002.26.3 53.18 53.18 0 0110.13 3.94c.21.08.41.31.62.34s.25-.12-.15-.23a428.13 428.13 0 01-39.56-19.51c-5.22-2.88-5.46-4-.45-6.79 13-7.32 24-17.53 36.27-25.72-.06 0 .13-.14.13-.14l-.36.15c-2.61 1.41-4.65 4-8.06 3.42-.65-.37-1.14-.8-.77-1.64 1.25-1 2.47-2 3.77-2.88a675.78 675.78 0 0167.07-40.88 1411.94 1411.94 0 00132.4-80c10.44-7.1 21.06-13.93 31.6-20.87.66-.43 1.39-.75 2.09-1.13.87-.39 1.27.12 1.56.82.1 1.51-1 2.27-2 3-10.92 8.4-21.35 17.46-33.3 24.44-.39.38-1 .51-1.36 1.06.64-.42 1.19-.79 1.74-1.17 15.3-9.07 29.07-20.33 43.64-30.43.91-.63 1.89-1.26 1.86-2.58-.21-1-1.66-1.32-1.29-2.57L955.7 13a.78.78 0 01.26 1.21c-2.14 3.17-4.23 6.39-6.44 9.51-7 9.92-14.1 19.76-21.08 29.7-9.37 13.34-17.48 27.49-26 41.38q-29.79 48.61-56.87 98.79a373.73 373.73 0 00-28.22 66.95 101.34 101.34 0 01-7.42 18.66c-.94 1.75-1.32 1.87-2.89.78-7.77-5.39-16.27-9.46-24.8-13.46l-85.81-40.32c-1.58-.75-3.12-1.6-4.68-2.4a7.34 7.34 0 01-.89-.55l-1-.38zM617 165.5a1.39 1.39 0 01-1.65-.6c-6.55-9.91-14.78-18.43-22.57-27.32A134.8 134.8 0 01579 119.73c-1.33-2.17-2.56-4.42-3.72-6.69s-1.07-2.55 1.24-3.52a147.85 147.85 0 0119.07-6.31c9.26-2.44 18.68-4.19 28-6.18 14.53-3.08 28.76-7.29 43-11.46 32.31-9.44 64.53-19.18 97.07-27.84 12.34-3.28 24.71-6.4 37-9.71a8.51 8.51 0 016.82.87c3.06 1.7 6.34 3 9.55 4.42a7.33 7.33 0 002.3.43c.21 0 .55-.32.65-.58s.08-.72-.08-.84a18.23 18.23 0 00-2.38-1.54 47.77 47.77 0 01-7.25-4.59 3.83 3.83 0 015-.51c1.92 1.14 3.94 2.11 5.9 3.18a1.17 1.17 0 001.63-.43.9.9 0 00-.27-1.26c-1.22-1-2.49-2-3.71-2.89.37-1.31 1.44-1.22 2.31-1.45 20.96-5.43 41.87-10.75 62.64-16.31 16-4.29 31.83-9.37 47.51-14.82a70.44 70.44 0 0111.92-3.47c1-.49 2-.79 2.07.93-17.26 6.72-33.64 15.3-50 24-22.18 11.84-44.61 23.28-67.12 34.56-1.28.64-2.53 1.36-3.79 2-2 1.07-4.31-.45-6.2 1-.07 0 0 .3 0 .43s.2.23.3.34c-.13 1.63-1.47 1.83-2.61 2a25.48 25.48 0 01-3.8-.11c-.81.13-2.41-1.53-2.2 1l.45.14c1.63.49 1.63.49.59 2a25.13 25.13 0 01-6.62.82 9.66 9.66 0 00-3.9-.88 4.32 4.32 0 10-.44 0h.11c2.09.26 4.43 0 5 2.87a9.63 9.63 0 01-6.7 1 17 17 0 00-2.78-.22c-1.79-1.08-3.68.52-5.49-.2a8.88 8.88 0 00-3.94-.72 2.56 2.56 0 01-1.42-.56c0 .38.15.52.56.43a16.51 16.51 0 003 .3c1.42.66 3.08.7 4.34 1.74l1.89.24c.84.65 2 0 2.85.78-2.37 2.45-3.66 2.94-6.22 2.52-1.67-.28-3.35-.46-5-.69-2.94-1.06-6.15.73-9-.83a6.35 6.35 0 01-1.84-.21 1.36 1.36 0 00-.87-.11c.24.24.59.06.86.22a13.18 13.18 0 016.83 1.86l6.8 1.46c-.64 1.76-2.42 1.71-3.69 2.37-1.83-.93-3.65.35-5.48 0-1.08-.33-2.08-1-3.28-.81H775a5.71 5.71 0 01-2.63-.55c-2.14-.57-4.37-.66-6.5-1.28a10.55 10.55 0 01-2.73-.41.63.63 0 00-.43 0c.25.17.57.07.84.22 2.36.09 4.59.9 6.92 1.1a5.44 5.44 0 011.94.53 8.91 8.91 0 003.44.43 10.88 10.88 0 016.05 2 6.63 6.63 0 01-6.81 2.06 32.25 32.25 0 00-5.22-.42c-1.8-.95-3.61.25-5.42 0-.86-.17-1.57-.82-2.5-.8-.64 0-1.28 0-1.91-.1s-1.21-.35-1.82-.48a11 11 0 00-3-.52 6 6 0 01-1.1-.39 4.52 4.52 0 00-1.12-.39c-.43-.06-.54 0-.29.06 1.33.28 2.51 1 3.9.9a26.55 26.55 0 005.86 1.08 8.36 8.36 0 003.16.93 3.56 3.56 0 011.14.68l6.75 1.45c-2.74 3.07-6.07 3-9.53 2.41a79.24 79.24 0 01-15.27-2.79 18.55 18.55 0 01-2.77-.53c-1.45-.59-3.07-.29-4.52-.88-.43-.14-.94-.13-1.22-.54 0 .36.2.51.56.46a12.06 12.06 0 003.39.58c.89.19 1.76.46 2.65.65 4.39 1.31 9.26 1 13.16 4l4.29 1.34c-1 1.1-2.11 1.38-3.06 2a5 5 0 01-4.54.4 11.17 11.17 0 00-4.16-.78c-2.82-.8-5.88 0-8.64-1.28-2.77-.77-5.6-1.29-8.38-2a10.29 10.29 0 00-3.4-.48c-1.23-.1-2.42-.62-3.64-.46a1.89 1.89 0 01-.52 0h.35a10.53 10.53 0 012 .13c1.19.48 2.46.27 3.67.44a15.45 15.45 0 001.87.46 15.83 15.83 0 002.54.58 12.62 12.62 0 003.88.86c2 1 4.6.72 6.29 2.58 1.54.41 3.06.84 4.6 1.24.59.15 1.4.11 1.55.8.25 1.13-.93 1-1.51 1.43a5.43 5.43 0 01-4.11.75c-1.09-.18-2.22-.17-3.32-.25-1.48-1-3.39.25-4.85-.91h-.08c-1.42-1.1-3.32.23-4.71-1H736c-1.45-1.1-3.36.22-4.79-.94l-.28-.22-.34.11c-1.3-.72-2.89.08-4.17-.78l-.3-.2h-.35a7.22 7.22 0 00-3.26-.37 6.85 6.85 0 01-2.55.21 6.37 6.37 0 00-2.44-.7c-.63 0-1.06-.07-.43 0 .05 0 .09.05.18.08a4.83 4.83 0 011.33.26 10.15 10.15 0 002.09.84 3.38 3.38 0 01.93.71l.92.19c.84.69 2 0 2.88.76l1 .18c.82.72 2 .09 2.84.73l1.82.28c.91.58 2.08.06 3 .69l1.88.25c.88.62 2 .12 2.9.63l2.86.33c1.19.76 2.67 0 3.87.69v.3c.21.16.28.33.22.5s-.13.25-.2.25c-.45.6-1.36.35-1.8 1-2.48 2.09-5.38 2.22-8.39 1.79-1.31-.7-2.89.09-4.17-.77l-.42-.19-.45.08c-1.51-1-3.38.15-4.89-.83l-1.58-.21c-1.6-.82-3.51.24-5.07-.83-1.24-.82-2.62-.28-3.93-.42a9.17 9.17 0 01-2 .15c-2.35-.75-4.84-.94-7.2-1.65a3.41 3.41 0 01-1.41-.53c0 .37.17.49.58.38A38.93 38.93 0 01709 107a11.23 11.23 0 011.81.31c.74.25 1.44.6 2.19.87a3.84 3.84 0 01.94.67l1.75.3c.64.3 1.38.28 2 .58l2.69.4c1 .49 2.14 0 3.08.67l1.89.24c1.19.77 2.67-.06 3.87.7l2.78.26c.7.94 2.94-.7 2.8 1.66a1.35 1.35 0 00-.46.07 14.58 14.58 0 01-11.56 1.88c-1.32-.74-2.75-.38-4.14-.37-2.16.39-4.12-.89-6.25-.71a6 6 0 00-2.66-.79 15 15 0 01-3.44-.6 21.41 21.41 0 00-5.44-.89 11.34 11.34 0 00-4.43-.92c-.28.06-.78-.13-.81-.08-.29.39-.22.35.24.11s-.2.13.46 0a7.86 7.86 0 013.56.65c1.45.52 3 .16 4.47.74.87 0 1.65.45 2.51.55a7.46 7.46 0 002.48.46 5.29 5.29 0 011.88.37 5.76 5.76 0 003.14.61 10.53 10.53 0 014.34 1.7l2 .29c.81.7 1.94.1 2.77.68.46.21.84.76.49 1a9.51 9.51 0 01-8.36 1.84 48.88 48.88 0 00-10.12-1.92c-2.89-.41-5.89.39-8.72-.77a12.92 12.92 0 01-3.55-.52 31.31 31.31 0 00-4.7-.95 24.32 24.32 0 00-3.47-.93 16.86 16.86 0 013.13.94 29.75 29.75 0 014 .71c.65.27 1.37.3 2 .53 2.87.29 5.76.5 8.32 2l1.79.21c.88.67 2.06.1 3 .7 2.44.94 5.27.69 7.77 2.43-3.73 1.93-7 4.16-11.27 3.39-1.89-.72-3.9.18-5.79-.47a21.77 21.77 0 00-5.65-1c-1.57-.46-3.24-.38-4.79-.88a9.44 9.44 0 00-3.33-.48 9.51 9.51 0 01-2.59-.5c-1.37-.49-2.81-.62-4.19-1 .48.23 1 .13 1.53.39 2.85 1 5.86 1.05 8.77 1.66 1.33.55 2.8.32 4.15.75.92.27 1.89.11 2.82.29 2.2.85 4.76.52 6.77 2 .3.1.6.19.9.31a2.14 2.14 0 01.82.43c.08.1-.11.6-.3.71a24.35 24.35 0 01-2.5 1.38c-22 10.15-44.14 20-66.6 29.14a7.3 7.3 0 01-3.17 1c-1.36.56-2-.63-2.87-1.2-4.63-5.32-8.34-11.38-13.16-16.55-2.5-3.38-5.07-6.71-8-9 2.35 2.69 6.17 4.93 7.1 9.4a1.76 1.76 0 01-1.32 1.38c-2.56-.1-3.85-2-5.17-3.75a59.06 59.06 0 00-6.63-7.4 10.83 10.83 0 01-.88-.91c-.15-.15-.29-.31-.44-.47-.74-.72-1.45-1.47-2.24-2.12-.26-.18-.54-.38-.81-.55a1 1 0 01-.55-.6 2.22 2.22 0 01-.37 0l.32.23a6.79 6.79 0 001.2.84 28.62 28.62 0 012.74 2.65c2.09 2.44 5.43 4 5.49 7.89a1.75 1.75 0 01-1.41 1.3c-4.43-1.39-6.4-5.52-9.45-8.45-1.27-1.23-2.19-2.75-3.45-4a12.17 12.17 0 01-1.78-2.12 8.66 8.66 0 001.74 2.18 160.79 160.79 0 0013.53 14.34c5 6.55 10.42 12.79 14.11 20.25.16 1.32-.52 1.86-1.32 2.36z" fill="#ceb4fd"/>
  <path d="M923.24 27.47c-2.08 1.46-4.14 3-6.25 4.39q-40.83 27.74-82.86 53.59c-20.85 12.76-42.26 24.51-63.86 35.91a849.87 849.87 0 00-96.15 59.32c-4.42 3.14-9 6.14-13.52 9.07a100.2 100.2 0 01-18.69 9.65 15.43 15.43 0 00-3.75 2.07c-1.9 1.4-2.33 3.23-.8 4.95a8.9 8.9 0 011.87 4.77c1.06 5.8 2.33 11.57 2.87 17.47 0 1.1 1.26 2.62-1 3a455 455 0 01-22.88-56.8c-.14-.46-.21-.93-.32-1.4a1 1 0 01.57-1.17 11.09 11.09 0 011.78-.73c23.81-8 46.71-18.14 69.32-29 62.43-29.83 124.49-60.19 185.3-93.1q22.35-12.09 45.36-22.77a4 4 0 01.92-.23c1.16-.61 2-.59 2.09 1.01z" fill="#ceb4fd"/>
  <path d="M694.81 232.64a5.09 5.09 0 01-.66 1.12c-3.16 2.92-3.18 2.94-6.79.79-6.05-3.6-12.43-6.52-18.78-9.53-8.07-3.84-16.05-7.86-24.1-11.74a4.28 4.28 0 01-2.4-3.32.83.83 0 011.14-1c1.21.41 2.4.88 3.6 1.32 7.51 2.72 14.78 6 22 9.45 8.2 3.94 16.36 8 24.53 12 .39.21.77.49 1.46.91z" fill="#cab2fa"/>
  <path d="M672.56 235.69c-8.18-4.23-16.34-8.51-24.55-12.68a5.15 5.15 0 01-3.2-5.11c1.06-.66 1.68.07 2.3.38 10.32 5.32 20.95 9.94 31.68 14.34 2.93 1.21 5.77 2.65 8.65 4a2.12 2.12 0 011.31 1.29c-1.57 2.34-3.6 3.4-6.41 2.24a15.14 15.14 0 01-9.78-4.46z" fill="#c9b1f8"/>
  <path d="M674.7 243.3c-5.24-2.26-10.5-4.47-15.72-6.78a47.73 47.73 0 00-8.4-3.34 2.83 2.83 0 01-2.44-2.51c-.2-1.06-.44-2.12-.62-2.95.3-.39.37-.56.5-.62a1 1 0 01.47 0 1.92 1.92 0 01.46.11l21.4 9.32a1.78 1.78 0 00.47.07 29.67 29.67 0 0111.41 4.55c.47.32 1.33.61.86 1.3a6.43 6.43 0 01-3.89 2.84c-.24.06-.56-.17-.84-.26a2.19 2.19 0 00-1.3-.67h-.36l-.24-.27c-.46-.38-1.27-.31-1.76-.79z" fill="#c9b1f9"/>
  <path d="M677.27 246.67c-.52 1.67-1.66 2.07-2.43 2.84a2.93 2.93 0 01-3.45.62c-6.58-2.39-12.93-5.3-19.29-8.2-2-.91-1.68-2.83-2.18-4.45 1.33-1 2.5-.06 3.55.32 5.38 1.93 10.7 4 16 6 2.53.98 5.09 1.88 7.8 2.87z" fill="#c5aef4"/>
  <path d="M693.68 176l1.3 1.3c0 1.48-1 2.28-2.05 3-8.65 6.14-16.82 13-26.13 18.16-2 1.13-4 2.64-6.61 2.27-.7-.29-1.27-.67-1-1.58 11.2-7 21.89-14.83 32.77-22.34a12 12 0 011.72-.81z" fill="#beabf0"/>
  <path d="M651.91 247.19c0-1 .71-1.2 1.29-1 2.27.73 4.51 1.57 6.76 2.39 3.14 1.14 6.27 2.31 9.41 3.47 1.23.45 1.35 1 .39 2.09-.64.71-1.3 1.41-2 2.06a1.56 1.56 0 01-1.76.36c-4.1-1.78-8.17-3.6-12.27-5.36-1.94-.84-1.22-2.76-1.82-4.01z" fill="#c5aef5"/>
  <path d="M688.26 220.07c-.76.21-1.61.23-2.15.94-2.42-1.13-4.86-2.25-7.28-3.41-7.85-3.77-15.66-7.62-23.75-10.87a12.86 12.86 0 01-1.65-.93c-.53-.54-1.38-.33-1.94-.81l-.92-.28-.27-.37.24-.4a5.63 5.63 0 01.89-.65l.95-.37c.32-.21.64-.41 1-.59l.09-.46a3.09 3.09 0 011.31-.25 3.35 3.35 0 011.6 1.18c9 4.69 18.28 8.86 27.27 13.59 1.74.89 4.04 1.24 4.61 3.68z" fill="#b9aaee"/>
  <path d="M603.66 140.64l1-1.29c3.54.85 5.24 3.91 7.36 6.35 4 4.54 7.42 9.47 11 14.3a1.44 1.44 0 00.85.25c-.14-.27-.48-.39-.51-.73a2.4 2.4 0 01.31-1.11 1.78 1.78 0 011.5-.8c1.06.16 2 1.39 3.19.36l2.17 2a39.15 39.15 0 01-9.47 3.9c-1.89.49-2.08-1.35-3-2.18a190.82 190.82 0 00-13.9-18.62c-.59-.74-1.16-1.45-.5-2.43z" fill="#bfaaee"/>
  <path d="M944.23 42.82h-.7q-.46-.2-.39-.51c.05-.23.12-.35.21-.35l.08-.12a8.14 8.14 0 01.8-1 2.09 2.09 0 00.86-1.27.45.45 0 01.3-.56 4.69 4.69 0 01.75-1.07l9.66-14.32c.9-.1 1.51.06 1 1.17-1 2.68-2.77 4.93-4.3 7.3-2.12 3.31-4.36 6.55-6.55 9.82a6.86 6.86 0 00-.72 1c-.31.36-.67.36-1-.09z" fill="#fff"/>
  <path d="M664.59 258.72a3.59 3.59 0 01-1.51 2.54 1.71 1.71 0 01-2.14.4c-2.35-1.28-4.68-2.59-7-4-.32-.19-.42-.8-.55-1.23s.44-1.36.94-1.2c3.46 1.18 6.89 2.35 10.26 3.49z" fill="#bcabef"/>
  <path d="M748.43 92.89A88.33 88.33 0 01764 96.44c-1.3.48-2.92-.45-4 .91a73.57 73.57 0 01-13.63-3.52c.36-.97 1.44-.45 2.06-.94z" fill="#2a151e"/>
  <path d="M941.48 22.82c.6 1.07 2.33.31 2.74 1.68-4.13 2.25-7.36 6.13-12.37 6.75l-1.24-1a61.3 61.3 0 0110.87-7.43z" fill="#a399d8"/>
  <path d="M682.23 241.18a41.58 41.58 0 01-11.41-4.55c.62-.24 1.39-.19 1.74-.94a43.38 43.38 0 019.78 4.45c-.03.35-.07.69-.11 1.04z" fill="#2f1f2b"/>
  <path d="M923.24 27.47c-.46-.83-1.31-.85-2.09-1a46.49 46.49 0 018.52-4.9c1.09-.4 1.29.15 1.14 1.07a35.8 35.8 0 01-7.57 4.83z" fill="#a9a1e2"/>
  <path d="M805.1 79.28c-.07-1-.89-1.2-1.63-1.35-2-.4-4-.74-6-1.11 1.9-1.87 4.1-.64 6.18-.61l7.27.21c-.22.21-.41.56-.65.59a6.65 6.65 0 00-4.3 2.13c-.15.17-.57.1-.87.14z" fill="#3a1f2b"/>
  <path d="M696.61 116.91c3 .34 6 .26 8.83 1.48-.94.5-2.3-.14-3 1.06a23.07 23.07 0 01-8.91-1.73c.84-1.02 2.14-.24 3.08-.81z" fill="#2e2a3a"/>
  <path d="M782.05 84.86a22.34 22.34 0 01-7.81-1.7c.48-.78 1.43-.38 2-.82 3.28.47 6.68.29 9.83 1.59-1.24.59-2.89-.39-4.02.93z" fill="#38222f"/>
  <path d="M743.8 98.35a28.59 28.59 0 018.7 1.93c-1.3.43-2.86-.37-4 .82a28.82 28.82 0 01-6.7-1.78c-.07-1.82.99-1.32 2-.97z" fill="#271118"/>
  <path d="M710.92 114.85l-1.77-.25a.73.73 0 01-.24-.7q.11-.36.21-.36a3.17 3.17 0 011.22-.21 4.06 4.06 0 011.82.3 19.94 19.94 0 016.49 1.16c.37.18.5.37.39.58s-.21.33-.33.33a3.49 3.49 0 010 .79c-1.69.24-3.18-.62-4.78-.89-.93-.72-2.12-.1-3.01-.75z" fill="#22121a"/>
  <path d="M758.57 89.72l1.31.16a3.81 3.81 0 002.39.42 5.51 5.51 0 011.84.31c1.94.17 4-.08 5.76 1-1.07.24-2.31-.1-3.13 1h-1.1c-.83-.6-1.92 0-2.76-.63a23.71 23.71 0 01-6.67-1.26.71.71 0 01.23-1.18 5 5 0 012.13.18z" fill="#070406"/>
  <path d="M781.94 90l-6.59-1.23a1.15 1.15 0 01-.54-.81 1.2 1.2 0 01.48-.85h1.09c1 .58 2.13.16 3.11.65 1.93.09 3.91-.13 5.67 1-1.05.41-2.51-.16-3.22 1.24z" fill="#2f2330"/>
  <path d="M655.67 262.37a13.61 13.61 0 011.57.65c.76.4 2.18.23 2 1.54-.1.63-.94 1.21-1.55 1.68a1.28 1.28 0 01-2.22-.62c-.28-.74-.49-1.51-.71-2.27s.24-.79.91-.98z" fill="#a190ca"/>
  <path d="M956.87 24.8l-1-1.17a20.06 20.06 0 013.69-5.91 1.59 1.59 0 01.93.54l.18.52a26.09 26.09 0 01-3.8 6.02z" fill="#fff"/>
  <path d="M933.69 19.06a32.31 32.31 0 016.73-3.79c.33.17.47.38.42.62s-.14.4-.23.4a17.53 17.53 0 01-5.58 3.6c-.95.54-1.22-.02-1.34-.83z" fill="#969ede"/>
  <path d="M818.49 71.5a4.17 4.17 0 01-2.78-.4 1.24 1.24 0 01-.42-.76.46.46 0 01.5-.64h8.57c-.72 1.1-1.82 1-2.91.91s-2.18-.12-2.96.89z" fill="#3f2331"/>
  <path d="M963.38 14.1a15.55 15.55 0 01-2.75 4.68l-.38-.22c-.14-.49-.1-1-.48-1.46a13 13 0 012.74-5c.22.69-.03 1.59.87 2z" fill="#fff"/>
  <path d="M792.63 81.08c-1.68.39-3.13-.51-4.68-.85A.75.75 0 01788 79a3.9 3.9 0 012.29.25c1.85 0 3.71-.18 5.36.89-.96.47-2.3-.22-3.02.94z" fill="#403144"/>
  <path d="M698 125.2c2 0 3.92-.12 5.69 1l-2.3.79c-2.31-.41-4.69-.44-6.85-1.51 1.09-1.02 2.27-.67 3.46-.28z" fill="#280709"/>
  <path d="M655.55 203.18l-1.32-1.24a.48.48 0 01.25-.79c.45-.68 1.37-.46 1.89-1l2.86-1 1.12 1.26c-.85 2.24-2.62 2.86-4.8 2.77z" fill="#a1a2e2"/>
  <path d="M933.69 19.06l1.34.83a10.86 10.86 0 01-4.22 2.74l-1.14-1.07a10.86 10.86 0 014.02-2.5z" fill="#a093ce"/>
  <path d="M945.27 9.16c-.47-.8-1.37-.63-2.07-.93 1-1 2.31-1 3.6-1 .92-.2 2-.91 2.24.82-1.27.31-2.34 1.29-3.77 1.11z" fill="#918ec7"/>
  <path d="M618.85 160.8a3 3 0 011.2 1.73 5.71 5.71 0 001 1.32 6.4 6.4 0 01-4.05 1.65l1-1.73c0-1.07-.12-2.18.85-2.97z" fill="#a48cc5"/>
  <path d="M719.85 100.2l2.59.3q.55.19.42.48c-.1.2-.21.3-.32.3l-1 .93-1.14-.1c-.49-.37-1.13-.32-1.66-.58l-2-.34c.48-2.19 1.94-1.1 3.11-.99z" fill="#160d12"/>
  <path d="M951.9 6.15c1.16-1.16 2.52-.83 4.42-.44A12 12 0 01952 7.2q-.89-.42-.1-1.05z" fill="#435e82"/>
  <path d="M809.88 74.31a2.37 2.37 0 01-2.2-.61 1 1 0 01-.32-.79.88.88 0 01.64-.51c1.42 0 2.88-.05 4.08.95-.72.34-1.65.21-2.2.96z" fill="#392331"/>
  <path d="M641.13 231.67c1-.77.51-2 1-3 1 1.16.7 2.64 1 4 .25.92.73 2-1 1.82-.36-.96-.68-1.89-1-2.82z" fill="#a58ac2"/>
  <path d="M713.92 108.86l-1.12-.13c-.55-.26-1.2-.22-1.72-.56l-1.93-.36c.94-2.17 2.56-1 4-.82l1.67.18c.33.14.45.3.37.48s-.19.29-.29.29z" fill="#1a1117"/>
  <path d="M951.9 6.15l.12 1L949 8a3.28 3.28 0 00-2.24-.82c1.61-.96 3.39-.95 5.14-1.03z" fill="#7e89bf"/>
  <path d="M736.05 103.2a7 7 0 014.71 1c-1.64-.05-3.4.59-4.71-1zm4.79.96a7.52 7.52 0 014.85.91c-1.69.05-3.47.65-4.85-.91z" fill="#160d12"/>
  <path d="M734.79 113.7c-.39-1.47-2.1-.72-2.8-1.66a4 4 0 013.1.1c.97.6.56 1.18-.3 1.56z" fill="#1a1117"/>
  <path d="M642.08 234.46c.8-.35.71-1.19 1-1.82a10.24 10.24 0 01.72 1.68c.15.59.2 1.54-.35 1.65-.92.18-1.25-.69-1.37-1.51z" fill="#50405a"/>
  <path d="M718.77 108a8 8 0 015.07.83c-1.75.09-3.6.79-5.07-.83z" fill="#1a1117"/>
  <path d="M731.17 102.25a7.06 7.06 0 014.79.94c-1.67.02-3.44.6-4.79-.94z" fill="#160d12"/>
  <path d="M725.42 109.05a7.36 7.36 0 014.89.83c-1.69.12-3.46.59-4.89-.83zm5.76.95c1.46-.13 2.91-.21 4.17.77-1.47.23-2.98.56-4.17-.77z" fill="#1a1117"/>
  <path d="M726.38 101.36c1.46-.14 2.92-.21 4.17.78-1.47.15-2.99.58-4.17-.78z" fill="#160d12"/>
  <path d="M729.22 111.75a5.16 5.16 0 01-3.87-.7c1.37-.22 2.76-.55 3.87.7z" fill="#1a1117"/>
  <path d="M745.53 106.94a5.32 5.32 0 01-3.87-.69c1.34-.18 2.77-.57 3.87.69z" fill="#160d12"/>
  <path d="M718.71 115.7a6.84 6.84 0 00-.06-.91 5.91 5.91 0 014.12.86z" fill="#38131a"/>
  <path d="M714.9 107.94c0-.26 0-.51-.08-.77a5.22 5.22 0 013.9.8 10.22 10.22 0 01-3.82-.03z" fill="#351e29"/>
  <path d="M797.37 82.1a3.3 3.3 0 01-2.85-.78c1.12-.32 2.17-.44 2.85.78z" fill="#403144"/>
  <path d="M824.41 258.68c0 1.15 0 2.29-1 3.12-.04-1.16-.35-2.4 1-3.12z" fill="#030303"/>
  <path d="M825.15 258.43a7.19 7.19 0 01-.76.32c-.07-1.12-.34-2.3 1-2.94z" fill="#030303"/>
  <path d="M943.23 14.87c-.61.35-1.06 1-1.88 1-.26-.2-.34-.4-.24-.59s.18-.28.27-.28c.37-.84 1.13-1 1.91-1.1.28.24.36.46.25.68s-.21.29-.31.29z" fill="#9aa5e7"/>
  <path d="M707.19 120.36a3.17 3.17 0 01-3-.7 2.41 2.41 0 013 .7z" fill="#2e2a3a"/>
  <path d="M722.54 101.28c0-.26-.06-.52-.1-.78a3.89 3.89 0 013.29.7z" fill="#45212e"/>
  <path d="M943.23 14.87l.06-1c.29-.94 1.19-.9 1.89-1.17a.77.77 0 01.26.8q-.13.39-.27.39z" fill="#7b77a7"/>
  <path d="M723.43 117.46a3 3 0 01-2.77-.68c1.05-.26 2.05-.36 2.77.68z" fill="#22121a"/>
  <path d="M725.38 103.16a3.13 3.13 0 01-2.88-.76c1.09-.22 2.14-.3 2.88.76zm3.84.91a3.1 3.1 0 01-2.84-.73c1.06-.21 2.09-.34 2.84.73z" fill="#160d12"/>
  <path d="M948 11.08a5.94 5.94 0 011.12-.78c.4-.16 1.05-.15 1.06.35s-.63.52-1.09.5a.64.64 0 01-1.09-.07z" fill="#1d2b3c"/>
  <path d="M734 105a3.34 3.34 0 01-3-.69c1.14-.21 2.21-.31 3 .69zm4.8.92a3.23 3.23 0 01-2.9-.63c1.1-.24 2.1-.37 2.9.63z" fill="#160d12"/>
  <path d="M723.46 110.81a3.43 3.43 0 01-3.08-.67c1.14-.28 2.24-.41 3.08.67z" fill="#1a1117"/>
  <path d="M945.17 13.9v-1.19c.4-.74 1.13-.73 1.82-.8l.39.35c-.38.97-1.33 1.28-2.21 1.64z" fill="#6a6085"/>
  <path d="M656.36 200.16a2.07 2.07 0 01-1.89 1 1.7 1.7 0 011.89-1z" fill="#050304"/>
  <path d="M743.74 109a1.56 1.56 0 011.8-1 1.66 1.66 0 01-1.8 1z" fill="#9e94cf"/>
  <path d="M717.69 109.74a1.89 1.89 0 01-2-.58 1.63 1.63 0 012 .58z" fill="#1a1117"/>
  <path d="M956 14.17c-.09-.4-.18-.81-.26-1.21.07-.61.48-.85 1-.93a.85.85 0 01.34.75q-.06.42-.18.42c-.16.48-.38.89-.9.97z" fill="#8f8dc5"/>
  <path d="M956.89 13.2c0-.39-.11-.78-.16-1.17l.62-.48c.11.23.37.52.3.66a5.55 5.55 0 01-.76.99z" fill="#5d5c81"/>
  <path d="M948 11.08l1.09.07a1.76 1.76 0 01-1.74 1.11.74.74 0 01-.39-.35 1.19 1.19 0 011.04-.83z" fill="#4c5a7d"/>
  <path d="M674.7 243.3a1.73 1.73 0 011.76.86 1.76 1.76 0 01-1.76-.86z" fill="#c5aef4"/>
  <path d="M651.49 205a1.82 1.82 0 011.94.81 2.06 2.06 0 01-1.94-.81z" fill="#b7a6e9"/>
  <path d="M734.13 250.87a1.57 1.57 0 01-2-1.07c.87.07 1.7.07 2 1.07z" fill="#bce4fa"/>
  <path d="M769.49 266.39a2.11 2.11 0 01-2.07-.91c.88-.12 1.66-.04 2.07.91zm1.93.85c-.78.06-1.5 0-1.88-.83a1.61 1.61 0 011.88.83zm.33.76a2.14 2.14 0 00-.15-.7 1.71 1.71 0 011.79.83z" fill="#030303"/>
  <path d="M959.77 17.1c.68.32.66.86.48 1.46l-.73-.84a.62.62 0 01.25-.62z" fill="#fbf7f7"/>
  <path d="M891.86 18.58c.18-.72.6-.82 1.19-.47-.2.65-.66.64-1.19.47zM876 151.9a1.7 1.7 0 01-1 2.11 2.05 2.05 0 011-2.11z" fill="#bce4fa"/>
  <path d="M602.41 157.87l-.7-.79a.68.68 0 01.7.79zm2.94 3.84l-.77-1a.9.9 0 01.77 1zm.7.9a1 1 0 01-.58-.71.62.62 0 01.58.71zm1.33 1.95a1.3 1.3 0 01-.83-1.14 1.15 1.15 0 01.83 1.14z" fill="#e5eaea"/>
  <path d="M941.38 15v.87a.8.8 0 01-.74.44c-.06-.34-.12-.68-.19-1z" fill="#93acf2"/>
  <path fill="#bce4fa" d="M667.26 77.92l.13-.33.31.13-.11.32-.33-.12z"/>
  <path d="M677.06 244.39a1.42 1.42 0 011.3.67 1.17 1.17 0 01-1.3-.67z" fill="#c5aef4"/>
  <path d="M946.17 38a1 1 0 01-.75 1.07 1.07 1.07 0 01.75-1.07zm-1.05 1.58a1.21 1.21 0 01-.86 1.27 1.3 1.3 0 01.86-1.27zm-.89 1.32a.85.85 0 01-.8 1 .85.85 0 01.8-1z" fill="#afc9d4"/>
  <path d="M745.56 108a2.1 2.1 0 010-.75c.28.05.77.07.79.18.11.57-.35.57-.79.57z" fill="#9e94cf"/>
  <path d="M943.35 42a6.58 6.58 0 01.18.86l-.45.11h-.47a.92.92 0 01.74-.97z" fill="#afc9d4"/>
  <path d="M654.48 201.15a3.63 3.63 0 01-.25.79 2.86 2.86 0 01-.77-.1z" fill="#050304"/>
  <path d="M653.37 202.3l-1 .6a.83.83 0 011-.6zm-1.92.96l-.89.65a.68.68 0 01.89-.65zm-.91.68v.77l-.75-.33z" fill="#b7a6e9"/>
  <path d="M690.86 223.25a.77.77 0 01.89.55.67.67 0 01-.89-.55zm-1.94-.95a.79.79 0 01.92.57.7.7 0 01-.92-.57z" fill="#b9aaee"/>
  <path d="M916.41 83a.86.86 0 01-.7 1.06c-.12-.56.18-.87.7-1.06z" fill="#bce4fa"/>
  <path d="M687 221.35a.81.81 0 01.94.57.7.7 0 01-.94-.57z" fill="#b9aaee"/>
  <path d="M617 194.35a1.09 1.09 0 01.88.1c.26 1.27.53 2.55.79 3.82-.25.37-.21 1-.84 1a10.21 10.21 0 01-1.67-5 .84.84 0 01.84.08z" fill="#5c5d5d"/>
  <path d="M620.1 203.61c1 1.35.95 2.85.65 4.73-1.61-.88-1.31-2.35-1.67-3.49.28-.47.34-1.11 1.02-1.24z" fill="#646969"/>
  <path d="M620.1 203.61l-1 1.24-.93-3.85c.25-.38.22-1 .84-1.05.99 1.05.99 2.35 1.09 3.66z" fill="#565555"/>
  <path d="M619 200l-.84 1.05c-.1-.57-.21-1.13-.32-1.69l.84-1c.1.47.21 1.03.32 1.64z" fill="#3c3939"/>
  <path d="M803.14 286.79c.35.72 1 .78 1.7.81l.08.08a1.2 1.2 0 01.9.59c9.87 5.64 8 6.34 12.07-3.68 3.37-8.34 6.68-16.71 10.14-25a181 181 0 0010.89-22.74 14.32 14.32 0 002.43-5 3 3 0 011.27-3.06c1.07-1 1.15-2.39 1.56-3.66l6-13.46c2.57-5.79 4.92-11.69 7.94-17.28a3.22 3.22 0 01.65-1 1.16 1.16 0 01.31-.88c.21-.38.42-.77.61-1.17a.65.65 0 01.28-.69c.71.48.64 1.31.88 2a.79.79 0 01-.22.82c-.45.57-.31 1.38-.78 1.95-.71.58-.57 1.47-.83 2.21-1 4.31-3 8.27-4.6 12.37-1.69 4.4-3.47 8.76-5.21 13.14-.21 5-3.38 9-5 13.53-.8 2.21-2 4.28-2.78 6.5-2.44 5-4.95 10-7.41 14.95a17.92 17.92 0 00-1.23 2.89 10.81 10.81 0 01-.48 1.18c-.26.6-.53 1.19-.79 1.79-4.89 9.47-7.56 19.86-12.28 29.39a10.69 10.69 0 01-2.84 3.29c-5.22 2-8.92-1.88-13.22-3.45-10.68-5.26-20.69-11.79-31.49-16.84a8.08 8.08 0 01-2.94-2.37c-2.57-2.11-5.82-2.89-8.69-4.4-1.93-1-4-1.83-5.94-2.74.83-1.47 1.94-1.11 3.09-.47 4.46 1 8.6 2.93 12.9 4.38.44.15.9.21 1.36.32 2.3 1.07 4.64 2.08 6.91 3.23 6.84 3.46 13.65 7 20.47 10.46 1.41.66 2.86 1.32 4.29 2.01z" fill="#030303"/>
  <path d="M757.2 266.33c-1 .18-2.13-.13-3.09.47a9.2 9.2 0 01-3.59-1.47c-.45-.93-.11-1.24.84-1.07a15.84 15.84 0 015.84 2.07z" fill="#3d0b0b"/>
  <path d="M744.56 261.68c1.38.46 2.91.55 4.09 1.56-.07.67-.68.78-1.11 1.08-1.39-.48-2.92-.64-4-1.8a1.86 1.86 0 011.02-.84z" fill="#615657"/>
  <path d="M747.54 264.32l1.11-1.08a3.68 3.68 0 012.71 1l-.85 1.07c-1.17.21-1.98-.65-2.97-.99z" fill="#504242"/>
  <path d="M744.56 261.68l-1 .84h-.34l-.3-.16c0-.35-.09-.7-.14-1.05z" fill="#441c1d"/>
  <path d="M969.39 15.08A14.46 14.46 0 01966.7 20c-2.33 3.16-4.74 6.26-7.11 9.38-.92.15-1.45-.06-1-1.13q3-5.57 6-11.15a3.3 3.3 0 01.71-1.1.38.38 0 00.25-.56 2.09 2.09 0 01.73-1.35l.05-.1a.51.51 0 01.75-.24 2.65 2.65 0 002.31 1.33z" fill="#fff"/>
  <path d="M971.31 3.58l-1.14-1A3.1 3.1 0 01971 .42a1.05 1.05 0 01.74-.42.85.85 0 01.52.61 3.1 3.1 0 01-.95 2.97z" fill="#614f4f"/>
  <path d="M967.08 13.71a2.53 2.53 0 00-.75.24 1.63 1.63 0 011-1.79c-.07.52-.16 1.04-.25 1.55z" fill="#171818"/>
  <path d="M586.71 144.43a6.12 6.12 0 012.51 2.86 1.13 1.13 0 01-1 1 7.71 7.71 0 01-2.73-3.86 1.44 1.44 0 011.22 0z" fill="#434040"/>
  <path d="M588.19 148.26l1-1 .83 1a.42.42 0 00-.45.22l-.28.28a.53.53 0 00-.24.54z" fill="#080606"/>
  <path d="M586.71 144.43h-1.25c0-.24-.05-.62.07-.69.79-.5.82.38 1.18.69z" fill="#452222"/>
  <path fill="#a6d0de" d="M808.2 297.04l.37-.01.08.32-.35.03-.1-.34z"/>
  <path d="M859 197.57a1.75 1.75 0 01.83-2.21 2.12 2.12 0 01-.83 2.21zm.85-2.22a1.58 1.58 0 01.78-1.95 1.87 1.87 0 01-.78 1.95z" fill="#242324"/>
  <path d="M613.23 187.46a1 1 0 01.57 1.16.95.95 0 01-.57-1.16z" fill="#bce4fa"/>
  <path d="M862.79 187.78c-.24-.49-.46-1-1.08-1.11a13 13 0 01.86-1.61.83.83 0 01.78-.21.88.88 0 01.32.79c-.23.73-.58 1.43-.88 2.14z" fill="#6b6868"/>
  <path d="M958.55 28.26c.35.38.69.76 1 1.13a9.4 9.4 0 01-2.79 3.93 1.87 1.87 0 01-1-.5l-.24-.51a.77.77 0 00.37-.7 2.3 2.3 0 01.78-1.24z" fill="#c9caca"/>
  <path d="M953.64 38a14.16 14.16 0 01-3.45 5l-.54-.34a1.63 1.63 0 01.45-1.66 8.75 8.75 0 00.71-1 .53.53 0 00.33-.64 2.1 2.1 0 01.81-1.26 1.89 1.89 0 01.89-.45.75.75 0 01.8.35z" fill="#dee"/>
  <path d="M953.64 38a5.72 5.72 0 00-.92-.08.7.7 0 01-.07-.88.64.64 0 00.37-.73 3 3 0 01.79-1.18l.05-.08a1.37 1.37 0 01.88-.47 1 1 0 01.81.54 6.67 6.67 0 01-1.91 2.88z" fill="#e7f3f3"/>
  <path d="M950.19 43c-.06.77-.23 1.47-1.11 1.71a.72.72 0 01-.83.41c-.13-.11-.26-.22-.4-.32a.82.82 0 00.36-.81 6.36 6.36 0 01.77-1.21v-.08l.34-.3.42.19a.76.76 0 01.45.41z" fill="#cae5e5"/>
  <path d="M949.79 42.6h-.39l-.37.13A1.64 1.64 0 01950.1 41c-.1.5-.21 1.05-.31 1.6zm4.76-7.6h-.35l-.34.07a2.3 2.3 0 01.82-2l.5.41c.15.65.19 1.27-.63 1.52z" fill="#171818"/>
  <path d="M944.23 42.82l1.08.06a2.08 2.08 0 01-1.06 1.82c-.01-.63-.02-1.26-.02-1.88zm-.87 3.7a1.52 1.52 0 01.88-1.79 1.87 1.87 0 01-.88 1.79z" fill="#afc9d4"/>
  <path d="M965.3 16a1 1 0 01-.76 1.15 1.21 1.21 0 01.76-1.15zm-8.59 14.37a1.31 1.31 0 01-.78 1.24 1.32 1.32 0 01.78-1.24zm9.57-16.32a1.28 1.28 0 01-.73 1.35 1.35 1.35 0 01.73-1.35zm-11.6 19.01l.88-.75a.32.32 0 00.49 0c.05.76-.28 1.15-1.08 1.05zm-.87 2.09a1.09 1.09 0 01-.79 1.18 1.26 1.26 0 01.79-1.18zm-1.16 1.91c0 .3.05.59.07.88h-.38L952 38a.92.92 0 01.65-.94zm-.71.94a1.22 1.22 0 01-.81 1.26 1.32 1.32 0 01.81-1.26zm-1.14 1.94a.86.86 0 01-.71 1 1 1 0 01.71-1zm-1.8 2.85a1.14 1.14 0 01-.77 1.21 1.35 1.35 0 01.77-1.21zm-2 2.73l.86-.71a.33.33 0 01.52-.14c.09.86-.26 1.25-1.14 1.09z" fill="#171818"/>
  <path d="M955 33.35l1.08-1.05.75 1a3.23 3.23 0 01-1.25 1.82l-1-.12z" fill="#eef6f6"/>
  <path d="M947.23 45.76l1.14-1.09a5.52 5.52 0 00.71 0 3.69 3.69 0 01-2 3c.06-.67.1-1.27.15-1.91z" fill="#d8dcdc"/>
  <path d="M599.83 158.91l.78.83a.83.83 0 01-.78-.83zm.9.96l.83.9a.91.91 0 01-.83-.9zm1.79 1.93a1.3 1.3 0 01.92 1 1.07 1.07 0 01-.92-1zm.9 1a1.14 1.14 0 01.9 1 1.08 1.08 0 01-.9-1zm2.26 2.8l.7.84a.81.81 0 01-.7-.84z" fill="#e5eaea"/>
  <path fill="#0b0000" d="M589.32 148.78l.29-.28.02.33-.31-.05z"/>
  <path d="M615.34 186.88a.73.73 0 01.36 1 .77.77 0 01-.36-1z" fill="#bce4fa"/>
  <path d="M655.55 203.18l4.79-2.76a26.89 26.89 0 007.18-3.61q6.39-4.11 12.58-8.53c5-3.58 9.92-7.31 14.88-11l8.09-4.25c1-.38 1.33.15 1.32 1.06q-10.49 8-21 15.93a129.75 129.75 0 01-18.87 12.22 8.64 8.64 0 00-1.2.91c.25 1.13 1.34 1.16 2 1.55 13.94 7.77 28.41 14.49 42.76 21.44-.06 1.67-1 1.32-2 .87l-11.1-4c-.73-.3-1.61-.22-2.2-.89-.56-.47-1.39-.31-1.91-.86h-.11c-.49-.59-1.34-.37-1.88-.84a.55.55 0 00-.68-.27c-9.5-4.74-18.74-10-28.54-14.16a9.71 9.71 0 00-2.73-.57c-1.03-.23-1.38-1.2-1.38-2.24z" fill="#050304"/>
  <path d="M931.85 31.25c2.83-1.89 5.67-3.76 8.49-5.67 1.18-.81 2.36-1.53 3.88-1.08.5 1.09.71 2.13-.4 3-.38.29-.76.58-1.16.84-8.65 5.67-16.85 12-25.23 18-5.43 3.93-10.89 7.76-16.63 11.19-1.08.64-2.24 1.17-3.36 1.75-1.1.34-1.36-.2-1.23-1.16 11.57-7.8 22.44-16.53 33.47-25 .75-.62 1.44-1.26 2.17-1.87z" fill="#070406"/>
  <path d="M896.21 58.12l1.23 1.16a8.92 8.92 0 01-4.3 2.44c-.18.06-.57-.19-.69-.4a1 1 0 01-.07-.84 7.46 7.46 0 013.83-2.36z" fill="#221d28"/>
  <path d="M706.15 227c.69-.24 1.53-.11 2-.87a2.23 2.23 0 011.9 1 .9.9 0 010 .8c-.11.21-.47.49-.65.45-1.16-.22-2.4-.3-3.25-1.38z" fill="#313449"/>
  <path d="M704.39 174.11l-1.32-1.06a6 6 0 011.07-.83 1 1 0 011.29.27 1 1 0 01-.22 1.25 2.8 2.8 0 01-.82.37z" fill="#503347"/>
  <path d="M688.94 220.34a1.82 1.82 0 011.88.84 1.7 1.7 0 01-1.88-.84zm3.91 1.76a2.19 2.19 0 012.2.89 1.8 1.8 0 01-2.2-.89zm-1.92-.87a1.73 1.73 0 011.91.86 1.61 1.61 0 01-1.91-.86z" fill="#b9aaee"/>
  <path d="M623.67 160.67a.72.72 0 01-1.16.3 19.56 19.56 0 01-2.06-2.56 170.93 170.93 0 00-14-17.48c-.53-.58-1.17-1.05-1.75-1.58l-6.1-7.19c-.27-1 .2-1.2 1-1.08l.07.07a4.13 4.13 0 01.89.88l11.58 11.54c2.23.62 3.26 2.53 4.5 4.2a41.21 41.21 0 013.14 3.85c.78 1.2 1.57 2.38 2.34 3.58a19.27 19.27 0 011.22 2 4 4 0 01.38 1.06l.12.56a8.33 8.33 0 01-.08.86.67.67 0 01-.09.99z" fill="#140e13"/>
  <path d="M633.28 154.07c0 .32.08.63.14 1 .14.65.17 1.4-.42 1.73-.84.45-1.42-.13-1.92-.83-5-7.06-11-13.23-17.11-19.35l-2.38-2.36a1.06 1.06 0 01-.25-1.28c.35-.68.9-.25 1.18 0 1.71 1.43 3.37 2.93 5 4.41 1.31 1.15 2.61 2.32 3.92 3.48 2.35.27 3.33 2.13 4.48 3.8.37.47.75.94 1.16 1.37l1.3 1.28c1 1 2.1 2 3 3.14a6.8 6.8 0 01.67 1 8.34 8.34 0 011.23 2.61z" fill="#1c131a"/>
  <path d="M618.85 160.8c.19 1.15.87 2.44-.92 3a17.05 17.05 0 01-1.48-1.82 148.12 148.12 0 00-11.16-15.45c-.69-.85-1.28-1.79-1.92-2.69-.27-1.12.17-1.56 1.29-1.34 4.67 4.55 8.33 9.91 12.05 15.21z" fill="#140f15"/>
  <path d="M628.37 158c0 .75.32 1.63-.74 2a1.65 1.65 0 01-1.72-.51c-.46-.41-.87-.9-1.31-1.35-1.2-.54-1.77-1.66-2.49-2.65-.76-1.44-2-2.57-2.7-4a38.29 38.29 0 00-3.07-3.89c-.84-1.74-2.75-2.93-2.67-5.14.24-.71.6-1.2 1.45-.82 3.57 3.34 6.25 7.41 9.23 11.24 1.35 1.64 2.65 3.37 4.02 5.12z" fill="#211924"/>
  <path d="M604.66 142.47l-1.29 1.34c-4.53-4.81-9.37-9.34-13.37-14.57-.25-1 .17-1.28 1.09-1.09l12.58 12.49.99 1.83z" fill="#1d151d"/>
  <path d="M626.62 141.56c2.42 2.72 4.92 5.36 7.22 8.18a30.11 30.11 0 012.94 4.85c.15.27-.12.93-.4 1.23a.9.9 0 01-1.27-.07 12 12 0 01-1.11-1.51c-.4-.93-1.52-1.19-2-2.08-.12-.39-.25-.78-.38-1.16-1-1.09-2.08-2.08-3.11-3.12-.42-.46-.83-.91-1.25-1.35a14.48 14.48 0 00-1.42-2 3.15 3.15 0 01-.71-2.32c.35-.56.72-1.04 1.49-.65z" fill="#1c141b"/>
  <path d="M615.12 141.56l-1.08 1c-.38.37-.65.32-.79-.21-2.88-4.47-6.9-7.89-10.64-11.56.68-1.17 1.36-.46 1.95-.15a15.1 15.1 0 014.44 3.58c2.09 2.42 4.09 4.9 6.12 7.34z" fill="#2e212e"/>
  <path d="M634.34 143.45a12.83 12.83 0 012.84 3.89 10.52 10.52 0 01.72.93l1.26 1.77a1.92 1.92 0 00.86 1.1v.05a5.46 5.46 0 01.68.92 4 4 0 01.2.65c0 .11-.07.23-.12.34a1.08 1.08 0 01-1.69 0l-.09-.1a2.16 2.16 0 01-.68-.82.61.61 0 01-.38-.66 1.82 1.82 0 00-.85-1.25 3.49 3.49 0 01-.65-.92l-3.25-4.68c-.26-1.05.16-1.41 1.15-1.22z" fill="#281f2c"/>
  <path d="M687.28 123.25c1.58.1 3.23-.12 4.64.89l-.55.58a8.25 8.25 0 01-3.91-.33 22.05 22.05 0 01-9.38-1.78c1.14-1 2.37-.69 3.62-.28l2.49.24c.94.62 2.13.13 3.09.68z" fill="#2c161e"/>
  <path d="M591.08 128.15c-.37.36-.73.73-1.09 1.09a13.31 13.31 0 01-3.54-4.8.88.88 0 01.13-.81.78.78 0 011.2.07c1.13 1.45 2.22 2.96 3.3 4.45z" fill="#3d2f41"/>
  <path d="M613.25 142.38a2.72 2.72 0 01.79.21l3 4.61c.37 1-.14 1.19-1 1.12a20.9 20.9 0 01-3.94-4.75c.42-.4.78-.8 1.15-1.19z" fill="#af9ddd"/>
  <path d="M743.8 98.35c-.75.17-1.57.18-2 1-1.39.18-2.54-.6-3.8-.93a9.07 9.07 0 00-2.53-.84 1.2 1.2 0 01-1.29-.07c-.35-1 0-1.34 1-1.11a27.28 27.28 0 018.62 1.95z" fill="#331e2a"/>
  <path d="M765.66 85.38c2.34.48 4.82.22 7 1.37-.4 1-1.49.44-2.1 1-2.69-.35-5.42-.49-8-1.62.9-1.07 2.12-.38 3.1-.75z" fill="#23161f"/>
  <path d="M713.15 107c-1.31.38-2.85-.37-4 .82-1.7-.47-3.57-.39-5-1.61.17-.58.71-.62 1.16-.81 2.59.54 5.34.43 7.84 1.6z" fill="#351e29"/>
  <path d="M626.62 141.56l-1.12 1.17c-2.16.15-2.12-1.75-2.79-3a6.85 6.85 0 00-.1-.91c-.22-1.05.24-1.38 1.23-1.15a11.39 11.39 0 012.78 3.89z" fill="#2d2230"/>
  <path d="M622.71 139.74l2.79 3 1 1.94c.13.54-.08.79-.64.72a19.44 19.44 0 01-4.38-4.58z" fill="#c2aff6"/>
  <path d="M803.65 76.21c-2 .45-4.19-.32-6.17.61a.94.94 0 01-1.15-.59c-.19-.58.25-.87.74-.85 2.22.09 4.48-.18 6.58.83z" fill="#762c3c"/>
  <path d="M634.34 143.45l-1.15 1.19a14 14 0 01-3-4l.13-.42a1.58 1.58 0 01.65-.58l.44-.06a12.08 12.08 0 012.93 3.87z" fill="#332c3d"/>
  <path d="M719.85 100.2c-1 .46-2.3-.15-3.06 1a5.75 5.75 0 01-1.39-.17 13.75 13.75 0 01-1.72-.9c2.69-.96 2.69-.96 6.17.07z" fill="#684965"/>
  <path d="M740.91 91.58c1.67.2 3.42 0 4.92 1-.47.85-1.43.42-2.08.8l-3.67-.71a.66.66 0 01-.47-1 1.13 1.13 0 011.3-.09z" fill="#330405"/>
  <path d="M700.56 111.79c2 0 4.05-.09 5.91.93-.45.83-1.4.41-2 .79l-4.92-1c-.02-.75.18-1.2 1.01-.72z" fill="#3c080b"/>
  <path d="M599.61 131.08l-1 1.08a6.76 6.76 0 01-2.81-3l.18-.43a2.68 2.68 0 00.83-.41 6.66 6.66 0 012.8 2.76z" fill="#402e41"/>
  <path d="M756.22 89.87v.74c-2.22-.35-4.5-.45-6.44-1.8a6.61 6.61 0 014.91 0h.34c.41.35.97.45 1.19 1.06z" fill="#141d28"/>
  <path d="M688 116.58c-1.65.23-2.76-1-4.23-1.37a3.42 3.42 0 014.22.38c.32.22.42.44.32.66s-.18.33-.31.33z" fill="#593a51"/>
  <path d="M688 116.58v-1c1.7 0 3.42 0 4.93 1-.11.58-.68.63-1.06.9-1.4.25-2.53-.71-3.87-.9z" fill="#401a23"/>
  <path d="M735.12 96.37l-1 1.11a6.59 6.59 0 01-4.2-.87c.56-.81 1.57-.4 2.26-.84a3.93 3.93 0 012.94.6z" fill="#272938"/>
  <path d="M698 125.2l-3.46.26-2.46-.23c-.38-.08-.54-.23-.5-.44s.13-.38.23-.38l.11-.27c2.08.11 4.18-.02 6.08 1.06z" fill="#300405"/>
  <path d="M704.44 113.51c.52-.67 1.3-.66 2-.79l3.69.42.25.4-.39.26h-.84c-.76.7-1.57.44-2.39.12z" fill="#310607"/>
  <path d="M681.7 122.33l-3.63.28a12.29 12.29 0 01-1.36-.15 1 1 0 01-.66-.46c-.27-.72.41-.73.76-.7 1.67.12 3.39.09 4.89 1.03z" fill="#38141b"/>
  <path d="M700.56 111.79l-1 .7-3.67-.68c-.37-.11-.53-.27-.46-.49s.15-.36.25-.36c1.66-.06 3.38-.25 4.88.83z" fill="#5d171f"/>
  <path d="M754.67 88.82h-4.91c-.42-.37-.42-1 0-1a7.69 7.69 0 014.91 1z" fill="#3e0b0f"/>
  <path d="M765.66 85.38c-.89.76-2 .42-3 .7-.31 0-.62 0-.93-.11-.15 0-.41-.14-.41-.19 0-.27.07-.74.2-.77a7.72 7.72 0 014.14.37z" fill="#2e0608"/>
  <path d="M623.84 137.68l-1.23 1.15a3.35 3.35 0 01-1.26-2 .87.87 0 01.1-.77 1 1 0 01.85-.15 3.12 3.12 0 011.54 1.77z" fill="#4b364b"/>
  <path d="M743.75 93.37a3.2 3.2 0 012.08-.8l2.6.32-2.1.94z" fill="#220102"/>
  <path d="M727.55 96.43c-.62 0-1.24.1-1.86.1s-.94-.24-.94-.76.58-.71 1-.68a6.09 6.09 0 011.31.37.81.81 0 01.49.97z" fill="#1f3043"/>
  <path d="M770.58 87.7l2.1-1 2.61.31v.83a2.58 2.58 0 01-2.88.09z" fill="#090709"/>
  <path d="M691.89 117.46l1.06-.9 3.66.35c-.86.9-2.07.45-3.07.81z" fill="#280405"/>
  <path d="M727.55 96.43l-.45-1a14.9 14.9 0 015.11.31l-2.26.84z" fill="#2f0405"/>
  <path d="M695.64 111a1.81 1.81 0 00.21.85 16.43 16.43 0 01-1.86-.09c-.25 0-.64-.35-.65-.54 0-.65.5-.6.93-.53s.92.16 1.37.31z" fill="#454a67"/>
  <path d="M740.91 91.58l-.93.28a2.57 2.57 0 01-2.86-.16.76.76 0 01.78-.86 4.14 4.14 0 013.01.74z" fill="#87374d"/>
  <path d="M784.51 79.34a11.83 11.83 0 01-1.78-.2c-.17 0-.27-.43-.37-.68a.54.54 0 01.32-.21c1 0 2.09.11 3.13.16a.71.71 0 01.26.74c-.08.25-.16.37-.25.37a2.94 2.94 0 01-1.31-.18z" fill="#2e0a0d"/>
  <path d="M785.72 79.12a1.55 1.55 0 00.09-.71 7.31 7.31 0 014.45.79l-2.49.13a1.43 1.43 0 01-2.05-.21z" fill="#73222e"/>
  <path d="M776.29 82.34l-2 .82a3.54 3.54 0 01-.87-.06 1.18 1.18 0 01-.56-.5c-.17-.3 0-.56.42-.53.97.06 1.99.18 3.01.27z" fill="#370709"/>
  <path d="M632.58 152.12a2.44 2.44 0 011.42 2.12l-.4.06-.32-.23c-1.19-.14-1.38-1.14-1.74-2a.62.62 0 011.04.05z" fill="#7b6f9b"/>
  <path d="M691.81 124.41a1.8 1.8 0 00.26.82 6.62 6.62 0 01-4.6-.84z" fill="#112d3d"/>
  <path d="M705.28 105.39l-1.16.81a8 8 0 01-1.39-.19c-.23-.07-.38-.41-.56-.64.26-.11.53-.35.77-.33.78.07 1.56.23 2.34.35z" fill="#3f1116"/>
  <path d="M785.72 79.12l2 .21a6.83 6.83 0 00.18.9 4.51 4.51 0 01-3.43-.89z" fill="#173c54"/>
  <path d="M630.24 140.67c-.59-.48-1.21-1.11-.45-1.75s1.31 0 1.67.69a1.55 1.55 0 01-.29.43.53.53 0 00-.49.41 1.08 1.08 0 01-.44.22z" fill="#563950"/>
  <path d="M779.49 87.74c-1.11.12-2.24.39-3.11-.65a4.7 4.7 0 013.11.65zm-7.04.26l2.88-.09v.83a3.6 3.6 0 01-2.88-.74z" fill="#372c3d"/>
  <path d="M756.22 89.87l-1.21-1c1.27 0 2.53-.08 3.56.86z" fill="#4f0a0e"/>
  <path d="M594.72 128c-.66-.24-1-.95-.61-1.32.7-.73 1.25-.12 1.62.57a1.08 1.08 0 01-1.01.75z" fill="#6d2534"/>
  <path d="M687.28 123.25c-1.12.17-2.24.38-3.09-.68a4.27 4.27 0 013.09.68z" fill="#3f2737"/>
  <path d="M737.12 91.7l2.86.16a.72.72 0 00.1.8c-1.08.04-2.34.48-2.96-.96z" fill="#23445f"/>
  <path d="M762.88 91.87c1-.32 2-.39 2.76.63a2.87 2.87 0 01-2.76-.63z" fill="#35222f"/>
  <path d="M710.92 114.85c1.11-.21 2.18-.28 3 .75a3.76 3.76 0 01-3-.75z" fill="#33293a"/>
  <path d="M711.08 108.17a1.39 1.39 0 011.72.56 1.68 1.68 0 01-1.72-.56z" fill="#351e29"/>
  <path d="M710 113.8a1.35 1.35 0 01.14-.66 2.15 2.15 0 012 .49zm-3.21.08l2.39-.12a5.9 5.9 0 000 .84 2.47 2.47 0 01-2.39-.72z" fill="#33293a"/>
  <path d="M718.78 101.53a1.21 1.21 0 011.67.58 1.4 1.4 0 01-1.67-.58z" fill="#45212e"/>
  <path d="M735.45 97.55a2.67 2.67 0 012.53.84 2.73 2.73 0 01-2.53-.84z" fill="#272938"/>
  <path d="M764.11 90.61l-2.2.2q-.49-.3-.3-.54a.46.46 0 01.36-.22 2.15 2.15 0 012.14.56z" fill="#35222f"/>
  <path d="M762 90.05a3.21 3.21 0 00-.06.76 2.34 2.34 0 01-2-.93z" fill="#3a0304"/>
  <path d="M594.72 128l1-.75a.34.34 0 01.27.49.52.52 0 01-.09.81.53.53 0 00-.14.56z" fill="#200608"/>
  <path d="M639.13 153.12h1.69c-.55 1.32-1.12.88-1.69 0zm-.79-.93c.23.27.46.54.68.82zm2.4-.08c-.22-.31-.45-.61-.68-.92a.89.89 0 01.68.92zm-.74-.97a1.33 1.33 0 01-.86-1.1c.31.36.59.73.86 1.1zm-2.89-.86a1.42 1.42 0 01.85 1.25 1.54 1.54 0 01-.85-1.25zm-.67-.96c.22.3.43.61.65.92zm1.46-1.05l-.72-.93z" fill="#292331"/>
  <path d="M600.57 132a.9.9 0 01-.89-.88.94.94 0 01.89.88z" fill="#402e41"/>
  <path d="M595.91 128.59q0-.41.09-.81l.77.53c-.22.31-.42.69-.86.28z" fill="#1a0304"/>
  <path d="M858.77 193.33a.83.83 0 01-.65 1 1.68 1.68 0 010-.89 3.32 3.32 0 00.65-.11z" fill="#242324"/>
  <path d="M622.64 155.06a8.6 8.6 0 012 3l-.75.71-.38.07a3.47 3.47 0 00-.7-1l-.94-2c-.4-.84-.01-1 .77-.78z" fill="#bfadf3"/>
  <path d="M623.67 160.67c0-.34.07-.67.1-1 .48.38.68.74-.1 1z" fill="#211924"/>
  <path d="M859.69 191.28a1 1 0 01-.61 1.17 1 1 0 01.61-1.17z" fill="#242324"/>
  <path d="M831.8 261.37a1 1 0 01-.71 1.15c-.09-.52.06-1.02.71-1.15z" fill="#bed7e5"/>
  <path d="M616.09 148.32l1-1.12a12.37 12.37 0 012.87 3.9c.41 1-.08 1.18-.94 1z" fill="#a495d1"/>
  <path d="M619 152.11l.94-1a10.37 10.37 0 012.7 4l-.81.83a11.19 11.19 0 01-2.83-3.83z" fill="#9683b8"/>
  <path d="M622.77 157.88a1 1 0 01.7 1z" fill="#211924"/>
  <path d="M628.87 147.31a9.93 9.93 0 013.19 3.93.55.55 0 01-.91 0 11.25 11.25 0 01-3.59-3.92 1 1 0 011.31-.01z" fill="#8b7fb2"/>
  <path d="M625.86 145.39l.64-.72a2.25 2.25 0 011.3 1.63c-.3.42-.63.47-1 .09s-.63-.66-.94-1z" fill="#b9aff5"/>
  <path d="M626.81 146.39l1-.09 1.07 1h-1.31z" fill="#a9aaef"/>
  <path d="M631.15 151.25a3.09 3.09 0 00.91 0c.17.3.35.59.52.88h-1a1.64 1.64 0 01-.43-.88z" fill="#a19ad7"/>
  <path d="M630.68 140.45l.1-.41h.39a.48.48 0 01-.49.41z" fill="#0d0304"/>
  <path d="M643.34 295.56a95.12 95.12 0 01-5.87 19 107.17 107.17 0 01-9.38 17.51A99 99 0 01600 360.18a101.5 101.5 0 01-17.81 9.14l-4.7 1.76-4.78 1.48c-1.59.53-3.22.88-4.84 1.28l-2.43.59c-.81.2-1.62.39-2.44.52-3.28.59-6.55 1.25-9.86 1.57-1.66.17-3.3.44-5 .55l-5 .32a155.64 155.64 0 01-19.91-.14 123.69 123.69 0 01-38.94-8.94 96.75 96.75 0 01-17.72-9.74 82.22 82.22 0 01-15.07-13.69 66.78 66.78 0 01-10.74-17.52 54.17 54.17 0 01-3-9.94 49.91 49.91 0 01-1.05-10.42 44.83 44.83 0 014.67-20.51 37.39 37.39 0 0114.85-15.24 55.25 55.25 0 0119.77-6.47c1.71-.21 3.42-.41 5.13-.5.86-.07 1.71-.08 2.57-.12h2.64a25.32 25.32 0 0110.9 2.94 37.21 37.21 0 018.71 6.35 52.86 52.86 0 016.75 8 69.55 69.55 0 018.88 18.55 74.67 74.67 0 011.36 40.43 68 68 0 01-7.94 18.81 71.63 71.63 0 01-13 15.64 85.12 85.12 0 01-16.47 11.68 82.23 82.23 0 01-18.67 7.56A87.17 87.17 0 01447 397a107.82 107.82 0 01-19.93-1.42c-13.12-2.17-25.73-6.31-37.88-11.3s-23.9-10.84-35.48-16.91L319.18 349A365.93 365.93 0 00284 332.33a152.28 152.28 0 00-18.35-6c-3.12-.74-6.25-1.43-9.41-1.86-1.57-.27-3.16-.38-4.74-.56s-3.17-.24-4.75-.22a57.14 57.14 0 00-9.44.57l-2.34.37-2.37.48c-1.59.31-3.18.63-4.75 1a155 155 0 00-18.57 5.27c-3 1.05-6 2.31-8.89 3.62a78.63 78.63 0 00-8.38 4.54 57.28 57.28 0 00-7.56 5.63 42.08 42.08 0 00-6.21 6.94 36.63 36.63 0 00-6.49 17.18A53.55 53.55 0 00173 388a31.09 31.09 0 009.43 15.44 32.36 32.36 0 0016.57 7.33 39.09 39.09 0 0018.29-1.85 35.39 35.39 0 0015.15-10.14 29.81 29.81 0 004.89-7.65 37.12 37.12 0 002.5-8.84c.27-1.52.36-3.08.49-4.63s.09-3.12 0-4.68a56.63 56.63 0 00-1.15-9.34 80 80 0 00-16.24-33.95 78 78 0 00-29.77-22.91l-9-3.69c-1.5-.6-3-1.26-4.49-1.82l-4.57-1.62c-3.05-1.07-6.08-2.21-9.15-3.22l-9.28-2.82c-3.08-1-6.23-1.74-9.36-2.53l-4.7-1.19c-1.57-.39-3.13-.81-4.72-1.1l-9.5-2c-.79-.16-1.58-.34-2.37-.47l-2.4-.39-4.78-.76-4.79-.76c-1.59-.27-3.2-.39-4.8-.6-3.21-.36-6.42-.76-9.63-1.08L90 282.1l-2.41-.17-2.42-.07-4.84-.13a239.36 239.36 0 00-38.52 2.06c-12.68 1.86-25.24 4.82-36.83 9.77h-.06a3.5 3.5 0 11-2.74-6.44c12.5-5.13 25.59-8 38.72-9.75a245.81 245.81 0 0139.56-1.72l4.94.18 2.47.09 2.46.2 9.85.79c3.27.37 6.54.81 9.81 1.21 1.63.22 3.27.36 4.89.65l4.87.83 4.86.83 2.44.41c.81.15 1.61.34 2.41.51l9.65 2.08c1.61.31 3.2.75 4.79 1.17l4.77 1.25c3.18.84 6.38 1.63 9.5 2.67l9.42 2.93c3.12 1 6.19 2.22 9.29 3.32l4.64 1.68c1.54.58 3 1.26 4.56 1.88l9.1 3.81a82.94 82.94 0 0131.5 24.53 84.82 84.82 0 0117 36.08 61.52 61.52 0 011.17 10.06c.09 1.69 0 3.39 0 5.09s-.27 3.41-.57 5.1a41.32 41.32 0 01-2.88 9.91 33.94 33.94 0 01-5.65 8.74 39.57 39.57 0 01-17 11.28 43.67 43.67 0 01-20.29 2 36.43 36.43 0 01-18.66-8.4 32.19 32.19 0 01-6.65-8 39.22 39.22 0 01-4-9.5 54.58 54.58 0 01-1.66-10.03 57.24 57.24 0 01.24-10.13 40.74 40.74 0 017.23-19 47 47 0 016.83-7.59 60.67 60.67 0 018.11-6 82.48 82.48 0 018.82-4.76c3-1.37 6.1-2.66 9.23-3.74a159.78 159.78 0 0119.05-5.46c1.6-.38 3.21-.7 4.83-1l2.42-.48 2.49-.39a59.54 59.54 0 0110.06-.6c1.68 0 3.35.15 5 .24s3.33.32 5 .6c3.31.45 6.55 1.18 9.78 1.95a154.9 154.9 0 0118.81 6.17 369.92 369.92 0 0135.52 16.85c11.56 6.1 23 12.42 34.53 18.41s23.2 11.77 35.23 16.55 24.38 8.74 37.07 10.57a103.31 103.31 0 0019.07 1 81.89 81.89 0 0018.69-3.05 76.24 76.24 0 0017.37-7.39 79.28 79.28 0 0015.2-11.15 63.3 63.3 0 0018.6-31.76 69.42 69.42 0 00-1.7-36.8 63.5 63.5 0 00-8.1-16.58c-3.48-5-7.81-9.45-12.88-12.05a18.24 18.24 0 00-7.83-2.13h-2.25c-.77 0-1.54.06-2.31.12-1.55.08-3.08.27-4.61.46a48.29 48.29 0 00-17.22 5.53 30.25 30.25 0 00-12.14 12.32A37.78 37.78 0 00443.7 307a42 42 0 00.89 9 47.31 47.31 0 002.65 8.74 60.07 60.07 0 009.51 15.78 76 76 0 0013.71 12.66 90.59 90.59 0 0016.44 9.2 119.47 119.47 0 0036.88 9 149.8 149.8 0 0019.19.41l4.79-.24c1.6-.07 3.18-.31 4.77-.46 3.19-.26 6.32-.84 9.47-1.36.79-.11 1.57-.28 2.34-.46l2.33-.53c1.56-.36 3.12-.67 4.64-1.16l4.58-1.34 4.49-1.61a102.7 102.7 0 0017.1-8.4 94.8 94.8 0 0027.45-26.28 105.3 105.3 0 009.46-16.71 91.9 91.9 0 006.23-18.13v-.08a1.38 1.38 0 012.7.55z"/>
</svg>
