<svg id="Calque_1" data-name="Calque 1" xmlns="http://www.w3.org/2000/svg" viewBox="0 0 89.08 218.09"><path d="M42.78,3.85c-1,16.44-1.77,32.88-1.91,49.35-.19,8.23-.08,16.46-.07,24.69,0,4.11.15,8.23.22,12.34l.12,6.17.21,6.17q.76,24.68,2.72,49.28c.63,8.19,1.38,16.38,2.2,24.55s1.78,16.37,2.9,24.34v.09a6.63,6.63,0,1,1-13.13,1.84,1.23,1.23,0,0,1,0-.2c-.92-8.43-1.58-16.66-2.21-25s-1.07-16.6-1.46-24.9q-1.17-24.92-1.21-49.83l0-6.23.07-6.23c.06-4.15.07-8.3.16-12.45.25-8.3.4-16.6.84-24.9.65-16.59,2-33.15,3.46-49.68a3.58,3.58,0,0,1,7.14.52Z"/><path d="M11.61,167.39c2.69,4.1,5.57,8.19,8.43,12.22s5.87,8,8.89,11.88,6.18,7.66,9.42,11.15a47.55,47.55,0,0,0,4.83,4.62c.38.29.74.54,1,.7l.16.1.09,0h-.08l-.14,0h-.07L44,208a1.61,1.61,0,0,0-.31,0s0,0,0,0a0,0,0,0,0,0,0,.26.26,0,0,0,.12,0,2.45,2.45,0,0,0,.45-.21,8,8,0,0,0,1.7-1.54,27.65,27.65,0,0,0,2-2.52c1.31-1.87,2.6-4,3.91-6.07,2.61-4.25,5.33-8.63,8.25-12.89a131,131,0,0,1,20.53-23.51v0a5,5,0,1,1,6.73,7.5l-.12.11a103.53,103.53,0,0,0-10.28,10,117.41,117.41,0,0,0-8.87,11.4c-2.78,4-5.29,8.16-7.86,12.48-1.3,2.16-2.61,4.36-4.14,6.62a39.07,39.07,0,0,1-2.61,3.44,17.77,17.77,0,0,1-3.87,3.45,11.46,11.46,0,0,1-2.95,1.36A9.74,9.74,0,0,1,45,218a8.91,8.91,0,0,1-.89.08h-.45c-.26,0-.52,0-.78-.05l-.38,0-.3-.06-.59-.14c-.36-.1-.64-.21-1-.33l-.78-.34-.66-.34a19.72,19.72,0,0,1-2.13-1.38,57.49,57.49,0,0,1-6.22-5.54c-3.7-3.74-7-7.61-10.36-11.48S14,190.6,10.81,186.65s-6.3-7.89-9.46-11.93a6.31,6.31,0,1,1,9.94-7.79c.1.14.21.28.3.42Z"/></svg>