<svg id="Calque_1" data-name="Calque 1" xmlns="http://www.w3.org/2000/svg" viewBox="0 0 400 400"><path d="M184.66,381.76c-4.13-4.5-8.81-4.38-13.74-2-10.68,5.18-21.34,10.39-32.5,15.82a9.27,9.27,0,0,1-1.81-.72c-4.28-2.53-4.69-2.52-8.53.38-2.48,1.88-4.27,5-7.86,4.73-4.06-9-5.6-18.67-11.51-26.87-4.55,1-7.95,3.45-11,6.45-3.25,3.15-3.57,3.14-6.58-.07-3.51-3.73-7.3-7.25-7.76-12.84-.1-1.18-1.45-2.5-2.55-3.33-5.78-4.39-11.7-8.61-17.51-13-1.16-.87-2.6-2-2.93-3.2-1.8-6.85-6.07-12-10.92-17-2-2-2.77-5.16-4.21-7.72-3.81-6.75-3.82-12.89,1.62-19.14,2-2.35,3.45-4.95,6.18-7C56.13,294,57.9,290,60.57,287c5.14-5.75,10.36-11.43,17.72-14.72a15.08,15.08,0,0,0,4.35-3.73c5.72-6.14,11.37-12.35,17.67-19.21-2,0-3.22-.25-4.27,0-9,2.53-17.94,5-26.82,7.79C62,259.42,55,262.35,47.73,264.53c-3.6,1.08-7.54,1.11-11.81,1.68-.53-7-4.16-10.85-9.82-13.1a13.89,13.89,0,0,1,.16-2.69c2.26-8.38-.76-15.4-8.69-19.54-4.9-2.56-7.7-6.47-7.52-11.79A10.85,10.85,0,0,0,6.24,210C1.42,205.79.77,200,0,194.33a7.27,7.27,0,0,1,1.72-5.12c2.11-2.36,3.5-4.42.08-7.37,2.31-1.2,3.93-2.17,5.66-2.9s3.42-.84,4.94-1.63c8-4.13,8.09-4.27,5.86-11.62-2.39-7.89-3.9-16-7.91-23.51-3.11-5.85-4.82-12.77-1.31-19.6,1.06-2.06,1.41-4.46,2.25-7.26,1.87-.4,3.93-.85,6-1.28,9.77-2,19.81-3.21,29.25-6.21A246.72,246.72,0,0,0,89,90.23c10.47-5.64,21.2-10.84,31.9-16,5.41-2.62,10.45-5.78,16.59-7.25,4.56-1.08,8.43-4.88,12.63-7.43,3.5-2.12,6.86-4.57,10.59-6.18,3.43-1.47,6.81-2.67,8.83-6,.21-.35.51-.86.85-.92,7.41-1.44,11.68-8,18.63-10.66,6.72-2.56,12.43-7.72,18.46-11.9,4.95-3.44,9.66-7.2,14.57-10.67,6.3-4.46,12.71-8.77,19.1-13.17,3.77,7.63,9.89,9.74,18.27,6,3.45-1.54,5.73-1.53,7.33,2.41-2.25,2.69-4.67,5.4-6.87,8.27-2.73,3.54-2.4,4.92,1.53,6.9s8.07,3.88,13,6.26c-2.64,3.45-4.75,6.3-7,9.06-1.08,1.34-2.48,2.42-3.54,3.76-2.94,3.72-2.31,6,2,7.85,1.18.5,2.29,1.16,3.5,1.56,4.45,1.45,8.24,3,7.8,9-.19,2.52,3,4,5.87,4.07,11.05.08,22.2,1,32.79-3.4a7.45,7.45,0,0,1,4.34-.12,65.14,65.14,0,0,1,6.8,2.43c3.15,6.5,3.64,6.67,10,3.44,1-.49,1.93-1,2.92-1.44,3.62-1.63,5.56-1,7.27,2.58.74,1.54,1.18,3.2,1.83,4.79,2.23,5.48,2.24,5.48,8.1,4.83.85-.1,1.7-.12,2.56-.17.95,2.31,1.81,4.46,2.71,6.59,1.6,3.83,3.36,7.11,8.46,7.7,2.57.3,4.9,2.53,7.34,3.89.64,4.62.32,9.67,2.22,13.74,1.76,3.79,5.88,6.54,9.17,10-2.2,3.92-2.16,7.71.51,11.42,1.66,2.32,0,4-1.69,5.45-4.55,3.93-9.12,7.83-13.66,11.76a8.91,8.91,0,0,0-2.24,2.31c-4.3,8.36-12.32,13-19.27,18.74a52.53,52.53,0,0,0-8.44,9.53c-.74,1-.44,3.39.31,4.56.54.84,2.81,1.23,4,.89,4.12-1.13,8.48-1.65,11.79-5a13.37,13.37,0,0,1,6.29-3.06c4-1,8.15-1.38,12.24-2,.21,0,.52-.18.63-.09,4.22,3.63,11.55,2,15.09,9.14a11.15,11.15,0,0,0-3.08,1.76c-5.5,6-7.71,13.71-11.49,20.6-.42.78.12,2.05.26,3.61l8.35,1.77c-1.06,4.57-2.59,8.66-6,11.91a45,45,0,0,0-3.56,3.75c-3.64,4.37-2.28,9.28,3.27,10.93,4.52,1.33,9.09,3.23,14,1.38.68-.26,1.64.17,2.92.35-.35,1.23-.35,2.38-.93,3-2.79,3.21-5.95,6.13-8.54,9.47a11.27,11.27,0,0,0-2.54,6.26c0,4.38-2.73,6.6-5.94,8.48-10.05,5.87-20.37,11.34-30.29,17.44-14.92,9.17-29.64,18.67-44.36,28.16-15.25,9.83-30.21,20.11-45.66,29.64-14.54,9-29.48,17.31-44.39,25.69-6.59,3.7-13.44,7-20.35,10.11C193.3,379.56,189.21,380.37,184.66,381.76Z"/></svg>