<svg id="Calque_1" data-name="Calque 1" xmlns="http://www.w3.org/2000/svg" viewBox="0 0 581.08 539.04"><defs><style>.cls-1{fill:#b5a185;}.cls-2{fill:#b09b7c;}.cls-3{fill:#b19c7d;}.cls-4{fill:#b29e80;}.cls-5{fill:#b7a58a;}.cls-6{fill:#af9a7b;}.cls-7{fill:#bdad94;}.cls-8{fill:#b5a286;}.cls-9{fill:#c0b099;}.cls-10{fill:#c1b29b;}.cls-11{fill:#c7b9a5;}.cls-12{fill:#b6a387;}.cls-13{fill:#b7a589;}.cls-14{fill:#b9a78d;}.cls-15{fill:#b6a488;}.cls-16{fill:#b8a58a;}.cls-17{fill:#b3a082;}.cls-18{fill:#bead95;}.cls-19{fill:#b4a184;}.cls-20{fill:#c0b098;}.cls-21{fill:#cdc1b0;}.cls-22{fill:#c1b19a;}.cls-23{fill:#bfaf97;}.cls-24{fill:#edece9;}.cls-25{fill:#e4e0da;}.cls-26{fill:#c5b7a2;}.cls-27{fill:#e6e3de;}.cls-28{fill:#e1dcd4;}.cls-29{fill:#e7e4df;}.cls-30{fill:#e3ddd6;}.cls-31{fill:#d3c9ba;}.cls-32{fill:#d8d0c4;}.cls-33{fill:#f2f2f1;}.cls-34{fill:#b9a78c;}.cls-35{fill:#e6e3dd;}.cls-36{fill:#d9d1c6;}.cls-37{fill:#d6cdc1;}.cls-38{fill:#d8d1c4;}.cls-39{fill:#d9d1c5;}.cls-40{fill:#f2f2f2;}.cls-41{fill:#c3b49f;}.cls-42{fill:#cabeab;}.cls-43{fill:#dfd9d1;}.cls-44{fill:#e8e5e0;}.cls-45{fill:#c2b39c;}.cls-46{fill:#e5e2dc;}.cls-47{fill:#c1b29c;}.cls-48{fill:#d4cbbd;}.cls-49{fill:#d4cabc;}.cls-50{fill:#e2ddd5;}.cls-51{fill:#d8d0c3;}.cls-52{fill:#c8bba7;}.cls-53{fill:#c4b6a1;}.cls-54{fill:#e9e7e3;}.cls-55{fill:#c2b39d;}.cls-56{fill:#d7cfc2;}.cls-57{fill:#c8bba8;}.cls-58{fill:#eae8e5;}.cls-59{fill:#eeedeb;}.cls-60{fill:#cec2b1;}.cls-61{fill:#cbbfad;}.cls-62{fill:#f0f0ef;}.cls-63{fill:#efeeec;}.cls-64{fill:#c9bda9;}.cls-65{fill:#edebe9;}.cls-66{fill:#dad3c8;}.cls-67{fill:#ebe9e6;}.cls-68{fill:#e1dbd4;}.cls-69{fill:#c4b6a0;}.cls-70{fill:#e1dbd3;}.cls-71{fill:#ded8cf;}.cls-72{fill:#d3cabc;}.cls-73{fill:#dad1c6;}.cls-74{fill:#d5ccbe;}.cls-75{fill:#e5e0da;}.cls-76{fill:#cdc2b1;}.cls-77{fill:#bcac92;}.cls-78{fill:#cabdaa;}.cls-79{fill:#cfc4b4;}.cls-80{fill:#d7cec2;}.cls-81{fill:#ccbfad;}.cls-82{fill:#c7baa5;}.cls-83{fill:#cec3b2;}.cls-84{fill:#b19d7e;}.cls-85{fill:#dcd6cc;}.cls-86{fill:#bcac93;}.cls-87{fill:#c3b49e;}.cls-88{fill:#c9bca9;}.cls-89{fill:#b4a083;}.cls-90{fill:#baa98e;}.cls-91{fill:#b39f82;}.cls-92{fill:#bdac94;}.cls-93{fill:#ccc0af;}.cls-94{fill:#b9a68c;}.cls-95{fill:#c7baa6;}.cls-96{fill:#c3b5a0;}.cls-97{fill:#d7cfc3;}.cls-98{fill:#eceae7;}.cls-99{fill:#cbbfac;}.cls-100{fill:#c5b7a3;}.cls-101{fill:#d3cabb;}.cls-102{fill:#d0c5b5;}.cls-103{fill:#b19c7e;}.cls-104{fill:#c9bba8;}.cls-105{fill:#dad2c7;}.cls-106{fill:#d0c6b6;}.cls-107{fill:#beae96;}.cls-108{fill:#c8bca8;}.cls-109{fill:#c5b6a1;}.cls-110{fill:#baa98f;}.cls-111{fill:#bcab92;}.cls-112{fill:#d1c6b6;}.cls-113{fill:#d2c7b8;}.cls-114{fill:#cabdab;}.cls-115{fill:#b7a489;}.cls-116{fill:#cfc5b4;}.cls-117{fill:#e5e1da;}.cls-118{fill:#c7b9a6;}.cls-119{fill:#d1c7b8;}.cls-120{fill:#ccc1af;}.cls-121{fill:#c8baa7;}.cls-122{fill:#ccc0ae;}.cls-123{fill:#c6b8a4;}.cls-124{fill:#cec4b3;}.cls-125{fill:#cfc4b3;}.cls-126{fill:#d5ccbf;}.cls-127{fill:#dbd4c9;}.cls-128{fill:#cfc5b5;}.cls-129{fill:#dcd5cb;}.cls-130{fill:#c6b9a4;}.cls-131{fill:#d4cabd;}.cls-132{fill:#c1b19b;}.cls-133{fill:#d0c6b5;}.cls-134{fill:#ded9d0;}.cls-135{fill:#c9bca8;}.cls-136{fill:#d2c8ba;}.cls-137{fill:#d3c9bb;}.cls-138{fill:#cbbead;}.cls-139{fill:#d4cbbc;}.cls-140{fill:#ddd7cd;}.cls-141{fill:#d9d0c4;}.cls-142{fill:#c9bdaa;}.cls-143{fill:#b4a183;}.cls-144{fill:#d1c8b9;}.cls-145{fill:#cbc0ae;}.cls-146{fill:#e4e0d9;}.cls-147{fill:#c6b7a2;}.cls-148{fill:#eeedec;}.cls-149{fill:#e3ded7;}.cls-150{fill:#c4b5a0;}.cls-151{fill:#b8a68b;}.cls-152{fill:#b8a78c;}.cls-153{fill:#bbab91;}.cls-154{fill:#bdac93;}.cls-155{fill:#bfaf98;}.cls-156{fill:#d6cdc0;}.cls-157{fill:#c5b6a2;}.cls-158{fill:#e8e6e1;}.cls-159{fill:#e6e2dd;}.cls-160{fill:#e2ddd6;}.cls-161{fill:#e4e1da;}.cls-162{fill:#ecebe9;}.cls-163{fill:#eae8e4;}.cls-164{fill:#dbd4c8;}</style></defs><path class="cls-1" d="M418.76,151.93c4.83-4.53,10.28-8.55,14.37-13.67,17.22-21.54,41.07-33,65.29-44,2.31-1.06,6.23-2.5,7,.47,2.62,9.68,8.74,7.1,15.34,5.86,5.15-1,10.56-.57,15.85-.64,2.79,0,6,1,6.72,3.45,2.95,9.51,12.58,11.33,18.73,17.08,3.63,3.4,3.8,6.35.37,10.07-2.67,2.9-.55,4,2.35,5.34,12.47,5.68,17.88,15.54,15.86,28-.85,5.23-1.64,10.47-2.46,15.71-9.92-1.63-20.8-.22-28.49-9-4.87-1.15,11.29-13-4.36-8.6-6.07,1.71-11.48,5.82-18.26,5-5.85-1.15-10.89-5.79-17.45-4a11.37,11.37,0,0,1-7.63-2.57,8,8,0,0,1-.56-5.37c2.61-5.93,8.54-7.16,12.34-9.52-4.21.95-9.73,3.59-15.1-.52a7.67,7.67,0,0,1-1.55-5.31c5.37-12.29,17.6-13.69,28.14-17.74,4.79-1.21,7.93,3,12,3.68,1.45,1,2.17.65,2-1.09-.89,1.28-2,1.43-3.4.41-3.8-13.38-13.35-12.9-23.87-10-8.32,1.34-17.48.18-23.59,8-11.74,6.51-21.68,15.74-33.5,22.14-5.5-.49-6.86-3.67-5.64-8.5a8.7,8.7,0,0,1-.37-1.56s-.62,1.56-.7,1.68c-5.9,9.07-12.41,17.27-22.78,21.36C421.53,157.79,417.54,157.65,418.76,151.93Z"/><path class="cls-2" d="M265.49,519.57l4.94-11.43c-1.95-2.88-5.66-2.05-8.11-3.86l-11.47-.18c-6.27,2.73-12.4,2.59-18.35-.8a11.1,11.1,0,0,1-2.4-2.65c0,.14-1.33-.74-1.27-.61a28,28,0,0,0-1.91,2.32,5.79,5.79,0,0,1-2.56,1.87l-1.53.46-13.6-1.91c-.51-8,9.25-6.84,10.7-13.09.89-3.83,3.48-7.26-1.35-10.08-2.74-1.94-7.25-.4-8.9-4.5,0-3.05,1.78-4.85,4.4-6a12.84,12.84,0,0,1,7.83.21c3.37-2.26,3.64,12.93,8.64,1.5a7.13,7.13,0,0,1,5.06.34,14,14,0,0,1,4.81,9.2c-.4,4.22-2.1,8.69,2.42,11.92,7.91,9.4,18,1.43,26.75,4.37-8.93-2.91-19.55,4.95-27.31-5.28a4.51,4.51,0,0,1,.61-5.06c4.67-3.67,10.39-3.59,15.83-4.47,11.94-4.92,26.18-4.17,35.85-14.62,13.54-18.62,13.54-18.62-10.41-28.1-5.44-4.66-15-5.9-13.73-16.2,5.31-5,12.49-5.09,18.89-7.23a30.71,30.71,0,0,1,14,.48,17.88,17.88,0,0,1,4.64,2.43c1.91,1.51,3.7,3.22,5.71,4.63,1.38.68,2.76,1.39,4.18,2,4.78,1.9,9.28.36,13.78-1.18,11.51-2.15,19.16-10.19,27.19-17.64a13.79,13.79,0,0,1,5.22-1.21,14.8,14.8,0,0,1,9.43,4.42c.44.75.87,1.52,1.3,2.29-1.53,2-2.62,4.91-4.65,6-14.58,7.49-24.51,19.12-31.48,33.65-.82,1.71-2.36,3.07-3.56,4.6-8.31,1.22-16,3.39-18.86,12.66-1.21,3.47-2.56,6.94,1.74,9.44,3.27,2.29,6.68,4.5,4.59,9.36-7.48,6.13-12.41,15.87-23.66,16.63a6.49,6.49,0,0,1-2.25-4.94c-.26-3.1,3.55-3.48,3.88-6.12-1.69,1.83-5.11,2-5.49,4.93s2.31,4.22,4,6c-6,10.1-15.94,16.21-24.61,23.58C267.11,529.74,267.07,523.8,265.49,519.57Z"/><path class="cls-3" d="M242.2,420.64c-6.84-5.16-13.7-10.29-20.52-15.48-6.37-4.86-12.85-9-21.4-9.17-8.75-.17-16.68-3.91-24.39-7.67-14.83-7.24-29.64-14.53-44.16-22.37-7.52-4.06-14.75-8.85-20.41-15.52-11.1-13.07-21.24-26.8-29.07-42.13-2-3.05-.24-4.87,2.14-6.49,11.2-3.67,12.3,7,17.27,12.16,4,5.55,7.6,11.33,12.55,16.11,8.71,8.6,16.39,18.33,27.34,24.37a24.61,24.61,0,0,1,4.39,2.49c3.83,6,5.1-5.77,8.71-1.31,2.88,1.63,4.78,4.2,6.55,6.87,2.17,3,3.88,6.44,8,7.39,1.58.13,3.13.25,4.71.28,6-.32,11.66.88,17.3,2.49a16.31,16.31,0,0,1,4.34,2.26c1.8,1.41,3.62,2.81,6,3.14,2.33-.06,4.65-.16,7,0a9.17,9.17,0,0,1,4.34,2.06c3.43,3.59,6.33,7.67,10.14,10.92,6.26,7.29,14.93,8.71,23.72,9.8a28,28,0,0,1,5.21,1c5.14,2.81,12.43,1.41,15.72,7.89a9.08,9.08,0,0,0,.48,8.38,6.05,6.05,0,0,1-2.83,4.08C257.32,426,250,419.71,242.2,420.64Z"/><path class="cls-4" d="M567.11,207.72c.5,13.19-3.22,25.19-11.88,35-6,6.86-13.31,12.63-20.08,18.83-2.66,2.44-6.09,2.38-9.41,2.52-16.32.67-28.07,7.24-32,24.34-.58,2.52-2.35,4.76-3.57,7.13a3.44,3.44,0,0,1-4.93.13c-3.71-4.84-4.43-10.54-4.72-16.36,1.08-8.53,8.09-11.3,14.77-14.4,2-1.56-2.3-2.18-.87.07.24.37-.32.67-1.48,1.28-2.4,1.26-5,1.51-7.62,2-5.08.86-9.84.21-14.15-2.79a6.45,6.45,0,0,1-1.94-5.42c5.52-11,16.49-13.35,26.68-17,3.71-.77,7.4-1.69,11.15-2.33a15.89,15.89,0,0,1,8.09,1.19c6.79,5.52,12.64,7,15.72-3.65,4.31-4.31,11.8-2.7,15.27-8.32-4.1-9.72-19.89-4.84-21.62-17.36a11.24,11.24,0,0,1,.45-8,6.85,6.85,0,0,1,4.4-2.68c6.1,0,11.19,4.14,17.28,4.2a10.28,10.28,0,0,0,8.65-3.65c4-2.7,6.72-12.49,13.23-2.65C568.59,202.61,568.81,205.34,567.11,207.72Z"/><path class="cls-5" d="M243,139.58c11.63-1.18,22.16,1.81,32,8,18.34,11.54,38.12,17.58,60.09,16.45,15.17-.77,30,3.85,45.32,3.53,10.92-.23,20.91-1.84,30-8.05,9.74,1.26,3.53,6.22,2.36,10-2.73,2.94-9.07,3.67-9.64,5.16-6.18,16.1-16.5,8.53-26.15,5.42-5.83-3.54-12.33-2.68-18.68-2.76a77.83,77.83,0,0,1-8.22.18c-6.16-.11-12.33-.7-18.39.56-4.89,5.28-.53,16.55-12.07,17.7-11.19,1.11-18.78-4.26-25.46-12-6.19-7.21-7.83-18.6-19.3-20.92a166.22,166.22,0,0,1-16.69-8c-4.37-2.87-8.89-5.42-14.07-6.63-2.66-1-5-2.39-6.35-5C238.11,140,239.11,137.65,243,139.58Z"/><path class="cls-6" d="M242.2,420.64c2.3-3.74,5.74-5.2,9.75-3.74,4.84,1.77,9.63,3.21,14.83,2.91a4.62,4.62,0,0,1,3.86,4.28l16,11.75c1,5-5.87,8.89-1.38,14.53,13.31,16.75,12.8,17.8-8.84,21.42-9.1-3.84-14.89.25-19.12,8-3.68,4.41-9.67,4.25-14.12,7.18l-.47,4.95,0-.06a23.58,23.58,0,0,1-3.77-.18c-7.68-1.57-8-2.79-2.67-9.07.81-.95,1.54-2,2.31-3-2.71-6.31,5.13-7.95,5.62-12.84.56-6.44-5.22-12.36-1.61-19,5.64-6,13.66-9.75,18.24-18.25C254.33,426.27,245.76,428.18,242.2,420.64Z"/><path class="cls-7" d="M86.68,303.8c-1.48,1.5-3,3-4.42,4.5-1.87-2.71-4.31-5.19-5.5-8.16-11.1-27.68-24-54.76-28.37-84.71-.38-2.62-1.38-5.26-1.23-7.84C48.19,189.8,49,172,54,154.68c5.74,3.19,5.53,9.29,7.15,14.5a35.89,35.89,0,0,1,.75,5.45c.25,6.32,1.75,12.58,1.31,19-3.85,12.76.25,24.92,2.94,37.17,1.23,3.8.69,8.55,3,11.46,13.42,16.56,19.71,35.36,19.36,56.55A7,7,0,0,1,86.68,303.8Z"/><path class="cls-8" d="M474.23,315.39c-8.06,5.67-14.22,13.52-22.76,18.84-5.35,3.33-9.4,9.17-13.17,14.5-6.95,9.82-14.95,18.16-25.42,24.41a73.26,73.26,0,0,0-27.27,28c-2.5,4.55-5,9.39-10.86,10.74V412c-5-5.49-1.88-11-.12-16.53,4.2-11.56,10.59-21.61,21.38-28,6.31-3.76,8.81-9.68,10.95-16,13.56-9.7,27.79-18.61,38.73-31.6,6.56-2.79,12-8,19.11-9.46C468.91,309.5,474.4,307.61,474.23,315.39Z"/><path class="cls-9" d="M567.41,200.81c-1.32-1.64-2.92-2.94-4.54-.65-1.89,2.64-3.36,5.58-5,8.39-3.73.43-8.09-1.41-10.76,2.94-6.8-.18-12.56-2.42-16.47-8.32,6-12.78,19.37-11.65,28.72-15.88a114.81,114.81,0,0,0-22.8,7.88c-7.44,3.51-13.25-.07-16.82-5.93-4.68-7.67,1.42-12.59,7.08-15.74,7.23-4,14.63-9.36,23.88-5.56,3.26,4.4,8.12,4.23,12.6,3.74,7-.78,10.85,3.56,14.93,7.85.13,2.75.27,5.49.41,8.24-2.46,2.11-1.61,5.94-4.15,8l-3.69,4.4A2.27,2.27,0,0,1,567.41,200.81Z"/><path class="cls-10" d="M243,139.58l-4.14,3.5c-9.57,6.17-19.1,12.79-30.45,3.47a39,39,0,0,1-4.56-10.14c-5.14-13.15-19.51-15.6-28.39-24.38a29.63,29.63,0,0,1-4.26-3.57c-7-9.66-15.46-18.1-23-27.31-7.64-13.82-22.42-21.36-30.61-34.7-.19-3.37,1.7-5.08,4.73-5.86C135.93,48,146.66,59,155.3,71.23c21.26,30.12,50,50.05,82.83,65A31.8,31.8,0,0,1,243,139.58Z"/><path class="cls-11" d="M474.23,315.39c-2.55-3.38-5.39-2.16-8.7-1.07-6.85,2.25-11,10-19.22,9.25-1.68-3.07-2.32-7.34-.22-9.21,13-11.6,18.77-26.14,19.19-43.21,5.77-5.89,14.22-3.73,20.89-6.92,2.51,0,5.07-.42,7.5,0a2.41,2.41,0,0,1,1.48,4.11c-3.63,4.25-10,5.43-12.5,11,5.94,4.54-3.49,12.18,3.32,16.54l4.21-.33C487.25,304.1,483.53,312,474.23,315.39Z"/><path class="cls-12" d="M122.28,40.59,118,44.26c-6.7,6.05-14.19,2.64-20.74.6A81.84,81.84,0,0,0,56.16,42.5,8,8,0,0,1,49.56,38C49,31.77,53,27.06,55,21.73c.68-1.76,1.49-3.57-1.3-4.45C50.49,16.32,48,18.92,45,19a10.31,10.31,0,0,1-7.3-2.63,4.09,4.09,0,0,1,.59-4.89l0,0c2.45-1.71,5.56-1.44,8.14-2.72,2.13-1.6,4.16-3.36,6.4-4.77,10.2-6.42,14.75-5.6,17.34,5.56C73.14,22.21,80,28.68,92.28,31.33c5.75,1.24,11.14,4.29,17.29,4.23C114.47,35.51,118.6,37.5,122.28,40.59Z"/><path class="cls-13" d="M322.53,487.54a14,14,0,0,0-7.29-7.58c-3.3-3.44-1.13-8.95-4.65-12.31,2-3.27,3.51-6.86,5.93-9.74,7.07-8.4,7.51-8.32,18.54-1.83-.4,1.92-.67,3.88-1.24,5.76-.87,2.92-.35,5.36,2.84,5.92,4.5.78,9.12.87,13.65,1.57a3.73,3.73,0,0,1,2.29,2.58,3.9,3.9,0,0,1-1.26,3.24,36.05,36.05,0,0,1-6.93,3.71C337.15,481.84,329.83,484.66,322.53,487.54Z"/><path class="cls-5" d="M58.36,171.78c-5.58-4.65-2.9-11.4-4.37-17.1.17-2.64.4-5.28.52-7.92.69-15.3-1.27-18.24-15.87-22.13-3.22-.86-6.46-1.1-8.58-4.06-1.59-2.68-.07-4.85,1.12-7.08a20.06,20.06,0,0,1,7.56-7,8.52,8.52,0,0,1,5.19.65c4.23,3.18,7.48,7.65,12.73,9.35a29.13,29.13,0,0,0,7.23.41,15.37,15.37,0,0,1,5,.66,6.89,6.89,0,0,1,3.42,3.63,12.26,12.26,0,0,1-.46,5.28C67.06,135,67.39,144,69,153.16a21.36,21.36,0,0,1,.1,5.3,23.08,23.08,0,0,1-2.78,7.32C64.39,168.75,62.21,171.38,58.36,171.78Z"/><path class="cls-14" d="M27,103.76c-6.89-3.25-12.43,2-18.65,3-4.75.75-9.27-3.63-8.15-8.35,2.2-9.19,6.7-17.06,14.26-23a10.48,10.48,0,0,1,3.56,3c1.68,2.43,3.17,5.07,6.1,6.3.64.33,1.26.71,1.89,1a12.77,12.77,0,0,1,3,2.75c1.65,1.88,3.75.59,5.71.7A7.77,7.77,0,0,1,40.92,93a12.21,12.21,0,0,1,.59,8.23,8.44,8.44,0,0,1-3.73,4.32C33.72,107.68,30.17,106.81,27,103.76Z"/><path class="cls-15" d="M14.82,80.28l-.39-4.86c-2-4.11-4.31-8.1-5.88-12.36C6,56.14,5.16,49.12,9.88,42.58a8.93,8.93,0,0,1,6.52,4.54c2.47.19-3,6.15,3.3,4.13,10.07-3.22,7.9,8,12.6,11.34a51.91,51.91,0,0,1,5.43,8.75c1.39,6.15,8.76,8.3,9.85,14.67a8.12,8.12,0,0,1-3.82,4c-5.79-.29-11.82,1.21-17.16-2.3l.14.14C24,83.48,18.35,83.51,14.82,80.28Z"/><path class="cls-16" d="M198.8,484.38c-11.39,8.26-23.46,10.45-36.45,4-1.59-.79-4-1.67-4.3-2.95-.73-2.81,1.58-4.82,3.72-6.28,5.45-3.72,11.69-5.65,18.06-7,3.15-.68,6.47-.63,9.71-.91a11,11,0,0,1,4.72-.8,11,11,0,0,1,5.06,5.11,15.86,15.86,0,0,1,1.52,4.65A5.58,5.58,0,0,1,198.8,484.38Z"/><path class="cls-17" d="M206.83,464.14c2.49-2.58,1.44-4.89-1-6.36-4.49-2.65-10.29-2.26-14.41-6-1.55-1.42-2.73-2.72-2.18-4.9s2.49-2.81,4.43-3.17a40.41,40.41,0,0,1,17.6.83c5.1,1.29,10.22,2.51,15.32,3.76a2.93,2.93,0,0,1,1.27,3.72c-1.67,2.48-4.16,4-6.65,5.41a7.53,7.53,0,0,0-3.1,2.39c-.21.31.64.75,1.77.79.18.71.34,1.36.51,2.07a8.75,8.75,0,0,1-1.76,4.08,12.57,12.57,0,0,1-6.37,3.08C208.42,469.8,205.47,469,206.83,464.14Z"/><path class="cls-18" d="M226.71,451.49l-.15-3.23c5.33-1,10.81,3,16.07-.46,2.66,6.75,7.93,12.51,7.68,20.35-2.95,1.44-5.26.12-7.38-1.6-2.65-2-1.33.9-1.8,1.69-1.21,2.84-2.53,5.38-6.27,3.57l-4.19,0A11.84,11.84,0,0,1,224,470a5.67,5.67,0,0,1-3.09-2.94,6.42,6.42,0,0,1,1-3.87s1.82-.53,1.82-.53-1.2-1.51-1.25-1.55a5.14,5.14,0,0,1-1.11-4.2C222.64,454.54,224.82,453.16,226.71,451.49Z"/><path class="cls-11" d="M410.64,167.8c.54-2.79,4.34-5.69-.3-8.28a16,16,0,0,1,8.42-7.59c1.43,3.12,4.25,3.64,7.22,3.92,3.85-2.82,7.81-3.43,11.94-.6C434.71,174.12,425.34,178.43,410.64,167.8Z"/><path class="cls-19" d="M14.09,47.79,9.88,42.58c2-9.38,9-14.36,16.51-19,3.65-1.53,5.17.76,6.42,3.57C33.65,40.48,27.21,47.18,14.09,47.79Z"/><path class="cls-20" d="M265.49,519.57c4.54.95,5.28,6.11,8.93,8-3.95,3.47-7.83,7-11.87,10.39a3.91,3.91,0,0,1-5.34,0c-1.7-1.55-1.17-3.53-.34-5.42C259,527.7,260.43,522.44,265.49,519.57Z"/><path class="cls-18" d="M206.83,464.14c1.68,2.92,4.46,3.51,7.5,3.56a2.4,2.4,0,0,1,1.33,2.46c-.18,1-.43,1.44-.73,1.44l-4.27,4.22c-2.95,4.19-7,5.4-11.86,4.32l-.34-.71c-2.2-2-1.42-5.39-3.48-7.46l-5.43-.73A28.86,28.86,0,0,1,206.83,464.14Z"/><path class="cls-21" d="M230.62,495.85c4.8,7.5,12.46,8,20.23,8.24-9.24,5.26-18.58,5.27-28,.6l-.11-1.65c2.08-.84,4.32-1.4,5.67-3.45A5.36,5.36,0,0,1,230.62,495.85Z"/><path class="cls-22" d="M27,103.76l12.27,0c3.22-.06,4.75,1,2.71,4.25q-1.66,0-3.33-.15c-2.39,2.17-1.71,5.91-4.12,8.07l-4.43,4.66C24.4,115.82,26.31,109.67,27,103.76Z"/><path class="cls-6" d="M198.8,480.14c3.65-2.26,7.36-4.38,11.86-4.32,3.2.1,6.1.82,7.92,3.79a41.39,41.39,0,0,1-19.78,4.77Z"/><path class="cls-23" d="M30.72,28l-4.33-4.33c3.21-4.81,6.73-9.3,11.94-12.13l.6,5.28C42,24.79,39,28.34,30.72,28Z"/><path class="cls-24" d="M574.48,195.79c.44-3.16,1.41-6,4.15-8C578.59,191.14,577.72,194.08,574.48,195.79Z"/><path class="cls-24" d="M567.41,200.81a17.71,17.71,0,0,1,3.37-.63c-.19,3-.93,5.77-3.67,7.54Z"/><path class="cls-23" d="M46.48,8.8c-2.12,2.66-5,3-8.14,2.72C40.19,8,43.29,8.27,46.48,8.8Z"/><path class="cls-21" d="M262.32,504.28c3.58-.55,6.7-.15,8.11,3.85C267.3,507.76,264.43,506.82,262.32,504.28Z"/><path class="cls-24" d="M410.64,167.8c4.62,2.6,9,4.66,14.4,1.09s11.15-6.62,13.72-13.1c.35-.68.69-1.36,1-2a30.68,30.68,0,0,1,5-4.65c2.73-2.79,6.77-3.29,9.77-5.64,7.52-12,20.16-17.27,31.73-23.95,3.56-1.53,5,.63,6.17,3.46a10,10,0,0,1-2.68,7.63c-4.71,4.93-11.17,8.41-13.13,15.62a6.82,6.82,0,0,0,1.24,4.15c3.5.55,5.92-1.57,8.52-3.18a25.44,25.44,0,0,1,4.56-2.4,14,14,0,0,1,7.67-.45c9.58-.47,18.68-6.53,30.45-2.33-7.87,8.21-19.22,7.63-26.15,14.46-1.17.65-1.59,1.36-1.29,2.13s.64,1.21,1,1.21l8-.58c6.91-2,11.47-.41,6.32,6.94-3.72,5.31-10.93,7-17.2,9.17,9.72-2.12,17.25-9.66,27.25-11.09,10.64-4.05,20.36-10.94,32.33-10.52,3.33,8.51-2.55,11.43-8.63,14.22-8.91,4.23-17.92,8.29-26.69,12.78-3.32,1.7-2.94,5.16.06,7.69,4.81,4.07,9.05,6.61,15.58,1.93,8.48-6.08,20.15-4.62,29-10.55.12-.09,1.09.75,1.34,1.3a2.45,2.45,0,0,1,0,1.93c-1,1.6-1.85,3.79-3.34,4.47-4.79,2.17-9.95,3.53-14.77,5.63-7.19,3.13-15.48,4-21.26,10l-3.91.82c-6,7.42-14.4,9.13-23.23,9.77-5,1.21-9,5.12-14.31,5.43-10.24.6-12.48-4.31-9-13.1a18.63,18.63,0,0,1,.92-4.46,36.25,36.25,0,0,1,2.6-2.7c-1.21,1.22-2.37,2-3.42,3.13-7.78,5.68-16.48,8.11-25.93,8.2-6.9-2.32-15.88-3-11.91-14.32,3.71-2.91,8-1.39,12-1.51a12.56,12.56,0,0,0,6.07-2,20.43,20.43,0,0,0,3.86-5.66c1.19-3.14,3.44-5.45,9-11.29-10,9.74-16.07,17.28-26.93,14.87-5.6-1.79-10.48-4.53-13.05-10.18-.19-1.86-.12-3.64,1.89-4.62-2.41-1.59-2.87,1.12-3.9,2-7,6-16.06,7.84-23.85,12.2-10.85,2.92-21.2,11.82-33.11,2.93-3.23-4.23,9.63-9.62-1-13.33.43-3.15,1.47-5.43,5.32-3.85,4,2.16,7.91,4.4,12.72,4,3.91-.33,9.85,1.69,6.79-6.21Z"/><path class="cls-25" d="M470.79,156q-.1-4-.23-8c6.48-7.71,14.9-13.12,22.77-19.19,8.66-6,17.85-10.53,28.69-10.64a8.05,8.05,0,0,1,5.44,6.23c-4,2.15-7.69,5.17-11.92,6.24-6.62,1.69-11.63,5.47-16.59,9.67-2.71,2.59-5,5.6-8.31,7.58l.12-.11C484.4,151.26,478.93,156.9,470.79,156Z"/><path class="cls-25" d="M527.46,124.43l-4.81-4.63c-3.75-3.4-9.91,1.4-13.13-3.85a3.7,3.7,0,0,1,1-4.42c2.9-3.26,6.87-3.45,10.81-3.78,16.43-1.4,16.93-1,17.3,16,1.38.86,1.85,1.73,1.4,2.61s-.91,1.32-1.37,1.32Z"/><path class="cls-26" d="M527,164.24c-12.16,9.5-26.42,14.17-41,19.39-1-5.84,2.82-6.58,5.34-7.78,7.18-3.44,14.61-6.38,21.85-9.72,1.63-.75,3.8-2.32,2.46-4.35-.9-1.36-3.29-1.74-5-2.56,4.59-4.31,8.65-3.88,12.4,1.19A32.74,32.74,0,0,0,527,164.24Z"/><path class="cls-27" d="M454.56,143.45a13.07,13.07,0,0,1-8,8.35,16.65,16.65,0,0,0-7.89,4.09l.08-.1-12.77.06c7.19-9,14.89-17.49,24.1-24.52q2.84-2.46,5.15.51A56.42,56.42,0,0,0,452,138C451,140.52,451.86,142.52,454.56,143.45Z"/><path class="cls-28" d="M510.53,111.53c.07,1.32.12,2.63.15,4-5.09,6.48-11.49,9.92-19.95,8.49l-4.44-4.46c4.09-7.65,9.78-11.12,18.58-7.67C506.47,112.47,508.63,111.67,510.53,111.53Z"/><path class="cls-29" d="M538.67,127.63l0-3.93c3.55-1.48,6.9-4.32,11.06-2.07a5.85,5.85,0,0,1,2.35,2.85c.58,1.5-.27,2.49-1.72,3C546.45,128.85,542.56,128.33,538.67,127.63Z"/><path class="cls-30" d="M565,144.5c-1,2.8-3.22,3.62-5.85,3.06-1.94-.42-3.23-1.9-1.87-3.88,1.48-2.15,3.76-3.36,6.36-2.25C564.44,141.75,564.61,143.44,565,144.5Z"/><path class="cls-31" d="M475.16,113.11c1.46.69,1.8,1.79.65,2.92a14.77,14.77,0,0,1-3,1.78c-.24-1.08-1-2.42-.59-3.15S474.14,113.6,475.16,113.11Z"/><path class="cls-32" d="M455.24,131.84l-5.15-.51a19.07,19.07,0,0,1,2.4-3.06c1.37-1.19,3.2-3.24,4.81-1.08C458.65,129,457.1,130.78,455.24,131.84Z"/><path class="cls-26" d="M490.64,147.92c1.21-4.23,4.48-6.22,8.31-7.59-.08,1.34-.19,2.66-.31,4C496.89,147.57,494,148.17,490.64,147.92Z"/><path class="cls-26" d="M502.65,159.8c-1.25,2.19-2.71,4.17-5.3,1.82-.26-.24,1.21-2.83,2.29-3.93.73-.76,2.17-.85,3.3-1.23C502.86,157.57,502.76,158.69,502.65,159.8Z"/><path class="cls-33" d="M434.44,179.72c4.25,2.39,9.23,3.7,12.19,8.05,2.77,4.8,13.74-2.21,12.36,8.58a11.28,11.28,0,0,1-11.46-.17c-3.58,1.84-4.71,4.37-.89,6.76,2.59,1.62,6.05,1.81,7.92,4.71,15.42,3.63,30.17,8.54,40.93,21.19-1.26,3.08-4.07,4.71-8,8.15,21.28-10.81,41.16-18.88,63.47-10.21a4.41,4.41,0,0,1,.11,5.34c-1.31,4.57-3.75,7.7-9.07,7.6-3.71-.08-7.43.16-11.15.26-4.5,5.07-10.18,5.29-16.24,4l-7.61.46c-2.61,1.65-6.09,1-8.51,3.15a136.28,136.28,0,0,0-27.89,12.23c-2.37,2.73-2.53,6.34-3.73,9.53-.1.84-.22,1.69-.33,2.53,0,5.07-3.33,9.65-.23,15.3,5.76,10.52,5.88,12.27-3.08,15.71-10.38,4-11.94,13.36-16.94,20.72-1.55,2-3.26,3.89-4.63,6-6.44,9.87-13.88,18.08-26.89,18.59-1.43,0-2.77,2.37-4.15,3.64-4.44,5.54-8.57,14-14.88,14.41-7.95.5-6.77,6.71-10.18,9.65-2.05,2.31-4.69,4.06-6.7,6.43-.78,1.17-1.63,2.31-2.45,3.46-1.07,1.82-2.1,3.68-3.15,5.54a16.32,16.32,0,0,1-2.73,3.47,17,17,0,0,1-6,3.3c-1.5.52-3,1-4.52,1.44-3.91,1.46-7.3,3.83-10.83,6-10,9.51-26.4,5.51-35.56,16.84-3,.57-5.59-.41-8.07-1.91l-15-.57c-6.39-4-15.55,6.14-20.7-4.08q-1.69-1.95-3.42-3.89c-1.5-2.53-3.69-4-6.58-2.95-5,1.78-7.23-1.44-9.55-4.76-2.16-6.18,2.84-7.94,6.45-10.55,4.2-2.43,9-1.81,13.41-2.53,1.94-1.61,1.39,1.86.74-.72-.21-.83-1.64-1.12-2.8-1.27a11.21,11.21,0,0,1-5.23-4.5c-1.67-3.29-2.7-6.58-.42-10,1.73-4.26,13.1-2.28,7.26-11.35-1.19-1.1-2.27-2.25-3.37-3.38-3.24-3.69-6.79-6.51-12.15-4.53a35.11,35.11,0,0,1-7.5.71,16,16,0,0,1-7.34-2.1,9.6,9.6,0,0,1-3-4,41.94,41.94,0,0,0-7.37-13.17c-4.28-4.55-6-9.56-2.71-15.43,5.1-6.21,12.19-6.78,19.43-7,4.93,0,9.85.15,14.49,2,3.38,1.6,6.94,4.39,9.41-1.32a15.12,15.12,0,0,1,6.38-3.44,58.77,58.77,0,0,0,9-2.84c3.57-1.78,6.29-4.71,9.42-7.11a31.18,31.18,0,0,1,4.38-2.51c6.55-2.3,11.12-8.32,18.16-9.68,2.29-.28,4.66.1,6.85-.67.93-1,1.94-1.89,2.94-2.81a33.44,33.44,0,0,1,5-3.27,21.22,21.22,0,0,1,3.44-1.79,11.93,11.93,0,0,1,3.39-1.2,2,2,0,0,0,1.84-2.12,6.17,6.17,0,0,1-3.29,1.85,25.6,25.6,0,0,1-11.26-.65c-5.59-2.05-12.16-2.07-16-7.76a4.25,4.25,0,0,1,1.53-4.66c2.62-.56,5.34-.36,8-1A24.43,24.43,0,0,1,332.34,264c4.06.83,8.07.86,11.84-1,2.37,1-.94-1,1.66-1.12,1.35-.08.85-.91-1.35-.86a89.42,89.42,0,0,0-25.36,4c-2.64.74-5.37.63-8.06.92-8.92,4.11-19.21.44-28,5-2.88,1.27-5.93,2.24-8.45,4.26a18.14,18.14,0,0,1-4,2.23,13.17,13.17,0,0,1-4.6.22c-2.28-.34-4.56-.75-6.86-1l-7.23-.12a21.2,21.2,0,0,1-7.48-1.35c-3-1.44-6.34-1.24-9.39-2.37,5.49,1.63,12.09,2.35,9,11-2.91,4-7.5,5.52-11.51,7.92-4.3,2.32-8.77,4.12-13.75,4.3a19,19,0,0,1-8.42-1.86c-7.28-5.76-13-13.53-21.83-17.38-9.43-13.77-9-14.8,7.72-17.43,2,.21,3.49,1.66,5.43,2-3-2.4-5.16-5.27-5.25-9.3a11.19,11.19,0,0,1,2.35-4.95,8.16,8.16,0,0,1,5.5-1.09c2.65.28-.73,1.71,1.73.68s-1,2.86.48.63c.16-.24-.09-.88-1-1.24a6.15,6.15,0,0,0-5.54.16c-1.47,1.86-3.09,3.52-5.53,4a12.64,12.64,0,0,1-4.4-.58,40.68,40.68,0,0,1-5.9-2.78,17.49,17.49,0,0,1-3.38-2.54c-3.25-2.2-1.2,2.67-3.07,2.33a20.77,20.77,0,0,1-4.1,2.51c-4.93,2.06-9.9,2.93-15,.64a11.26,11.26,0,0,1-5.6-9,15.69,15.69,0,0,1,6.43-11.9c2.16-2.86,10.88-2.84,4.31-9.52-5.54-5.63-10.79-11.69-18.42-14.72-3.21-1.67-6.37-3.39-9.6-5-3.05-1.17-5.85-3.05-11-2.86,3.26,8.84,12.65,11.53,16.52,18.6,3.15,7.86,5.77,15.83,4.68,24.49a11.41,11.41,0,0,1-2.73,4.61,14.82,14.82,0,0,1-7.57.87,37.65,37.65,0,0,0-4.75.17c-4.13,3.73-8.74,7.33-1.47,12.4a9.62,9.62,0,0,1,4,2.85c2.55,3.84,3.6,7.91,2,12.41-3.27,4.87-2.06,9.94-.39,16,.94-5.24-.33-10.16,3.06-13.88,2.84-2.8,6.39-3.64,10.23-3.67a18.58,18.58,0,0,1,5.34,1.17c6.63,3.43,7.08,9.79,7.61,16.13a23.71,23.71,0,0,1-.51,5.38c-.55,4.65-3.79,10.31,4.53,11.46,3.41-.15,6.81-.63,10.16.26,4.78,1.47,9.19,7.31,14.64,1.13,16.56-7.6,23.26,6.83,32.94,14.66,2,6.87-.53,12.72-4.1,18.35-2.59,3.58-5.15,7.23-9.28,9.26a12.3,12.3,0,0,1-4.94-.2q2.22,1.11,4.36,2.4c3,3,5.9,6.12,9.19,8.85a15.51,15.51,0,0,1,3.14,4.44,13.73,13.73,0,0,1-.59,11c-2.53,3.17-5.33,5.63-9.77,3.57l-.6.54-2.77-2.74a41,41,0,0,1-3-5.05,20.62,20.62,0,0,1-1.77-3.55,24,24,0,0,0-3.28-5c-1-1.72-1.86-3.52-2.79-5.27a14.86,14.86,0,0,1-1.8-3.29s-.33-1.77-.29-1.73.76-1.47.76-1.47a13.3,13.3,0,0,0-1.3,1,11.21,11.21,0,0,0,.9,3.43c.58,1.17,1.17,2.28,1.83,3.4s1.28,2.45,1.87,3.7a19,19,0,0,1,2.53,6.12,10.71,10.71,0,0,1-.83,4.58c-1.55,2-3.3,3.37-5.92,1.78h.14a197.83,197.83,0,0,0-16.47-11.34,18,18,0,0,1-3.67-3.36,7.67,7.67,0,0,1-.88-4.65,25.25,25.25,0,0,0,1.09-6.82c-1.6-5.43-5.71-9.79-6.59-15.52-1.85-3.1,3.77-7.91-1.44-9.49-2.29-.69-2.4,3.89-2.83,6.37-2.23,3.11-5.77,5.34-6.34,9.57-.31.78-.64,1.5-1,2.26-.56.63-1.12,1.22-1.71,1.84a10.12,10.12,0,0,1-5.14.56c-6.13-1.55-11.11-6.17-17.68-6.31a34.85,34.85,0,0,1-5.11-.24c-6.16,0-9.63-6.79-16-6.35-7.71-2.89-8.37-11.08-12.51-16.65-5.3-6.1,7.23-13.27-1.18-19.07-1.31.69-2.6,1.26-3.9,1.89a17.61,17.61,0,0,1-6.54,1,20.49,20.49,0,0,1-7.32-15.55C79,270.77,77.07,260.91,71,255c-6.82-6.62-9.36-14.08-8.07-23.19a11.65,11.65,0,0,1,1.54-3.54,22,22,0,0,0,1.73-5.81,24.53,24.53,0,0,1,2.3-9A8.78,8.78,0,0,1,75,209.52a24.72,24.72,0,0,1,14.16,8.24c2.88,3.9,5.18,7.94,2.67,13-5.44,6.2,1.35,9,3.72,12.89,3.93,6.5,9.75,12.32,6.76,21-.86,3-7.12-1-5.34,2.65a27.7,27.7,0,0,0,12.26,12.56c-4.14-4.31-7.87-8.45-7.4-14.62,6.89-7.53-1.26-12.6-3.45-18.43-1.9-5.08-9-7.46-8.1-14.37,5.46-4.45,11.12-8.77,10.59-16.95.21-2.64.67-5.25.92-7.89a23.35,23.35,0,0,0-3.75-11c1.62,3.76,3.86,7,1.28,10.73-5.09,3.74-10.95,3.19-16.76,3.12-13.41-6.42-8.22-19.5-10.71-29.85a11,11,0,0,1,5-7.41c5.38-2.72,11.3-3.4,17.12-4.46,8.3-.6,16.7,1.07,25-1.13A22.11,22.11,0,0,1,130,169c11.38,6.29,31,1.47,31.11,23.39,0,1.87,6,1.73,9.24,2.11a42.52,42.52,0,0,1,8,1.29c6.09,1.19,10.28,7,16.9,6.74,3.73-.54,6.6-4.32,10.84-3,3.26,2.32,6.73,4.1,10.88,4.06a38,38,0,0,1,7.46.09,49.69,49.69,0,0,0,7.81-.22c11.5-2.1,21.81,2.18,32.36,5.67,5,1.65,10.5,7.14,15.48-.24,1.7-2.4,3.68-4.64,4.47-7.55a4.88,4.88,0,0,0-2.4-4.88c-2.06-.87-4.06-.39-6.09.13a14,14,0,0,1-7.16.71c-6.32-1.52-12-6.53-19.12-3.48-7.25,1.73-14.8,2.64-20.69,8-7.06.78-14.14,2.37-21-.9-10.36-3.2-14.49-11.24-16.39-21-4.38-3.75-9.75-2.21-14.7-2.79-12.31.51-21.63-6-30.73-13a42.29,42.29,0,0,1-3.75-4.16c-4.28-6.69-14.12-9.92-12.74-20.2a12,12,0,0,1,4.49-3.31,23.18,23.18,0,0,1,13.89,0,21.1,21.1,0,0,1,5,2.51c6.75,7.12,16.95,6.85,24.84,11.51,4.47,5.52,11.33,4.62,17.23,6.26,12.9,7.34,26.16-5.18,39.1.61,4.43,2.85,9,5.47,14.42,5.74,9,1.76,16.86,6,24.36,11.17,2.09,1.4,3.74-3.09,2-1.08-.67.76-1.18.49-1.95.19-5.43-2.12-5.73-6.29-4.65-11.1,1.52-2.87,3.53-4.59,7-3,10.71-1.86,14.49,4.6,17.52,13.41,3.6,10.48,11.34,17.13,22.56,19,3.25.53,6.95.34,9.08-2.4,2.61-3.34-.45-5.95-2.28-8.55-.75-1.06-1.8-2.09-2.06-3.28-1.2-5.36,2.77-4.58,5.9-4.74,1.51,1,3.05,1.9,4.63,2.77,14.37,6.25,31.15,6,43.93,16.45,5.12,0,10.24,0,15.36,0,2.66,0,5.08-.35,6.16-3.22,3-7.83,7.26-.91,10.91-1C415.58,182.76,423.86,177.24,434.44,179.72Z"/><path class="cls-28" d="M275.48,468.48a78.83,78.83,0,0,0,9.57-2.42c2.92-1.11,7.29-2,7.16-5.62-.16-4.44-4.7-3.44-7.78-3.82-3.74-.46-7.94,1.2-11.66-3.19a27.7,27.7,0,0,1,13.88-17.59c7.27,4.38,14.59,4.34,22.4,1.11,3.6-1.49,6.37,1.81,5.24,5.56-3.26,10.73-9.4,19.91-15.73,29-5.58,3.84-12.43,3.26-18.6,4.85C274.44,477.77,271,474.54,275.48,468.48Z"/><path class="cls-34" d="M275.48,468.48c.13,2.92,1.56,4.53,4.57,4.33,6.17-.4,12.34-.87,18.51-1.31-9.35,5.47-17.47,13.89-30,11.59-1.73-.32-4.12,2.94-6.2,4.54-2.22-3.19-7.08-3.92-7.85-8.46,1-3,1.73-6.19,3.18-9C263.41,459,264.43,459,275.48,468.48Z"/><path class="cls-35" d="M305.61,420.42l8.6-.71c12.19-2.82,25.48-3,34.11-14.3,6.54-.63,6.5-11.21,14.51-9.63l-.23-.11c3.35,4,3.44,7.88-.53,11.56-7.23,11.21-15.39,21.08-30.4,21.08-5.86,2-11.7,2.5-17.49-.27a9.82,9.82,0,0,1-3.57-.47l-4-3.75C306.21,422.7,305.88,421.57,305.61,420.42Z"/><path class="cls-21" d="M242.72,492c13.5,1.68,27,2.16,42.84-4.17-4.3,8.61-8.08,12.28-14.73,12.25-8.64,0-17.32.29-25.91-.45-5.25-.46-2.89-4.67-2.17-7.69Z"/><path class="cls-20" d="M299,504c-3.21.71-6.41,1.47-9.62,2.13-2,.42-4.4.26-4.88-1.82-.37-1.62.49-3.88,1.49-5.38,2.25-3.35,5.33-6,9.43-6.79a6.75,6.75,0,0,0,5.49-4.85c.83-2.26,2.91-2.22,4.3-.44.71.91,1.18,2.79.71,3.69-1.16,2.26-3.17,4.08-4.37,6.34a55.25,55.25,0,0,0-2.71,7.26Z"/><path class="cls-29" d="M379.13,396q-2.19,8-4.39,16c-3.11-.58-6.3-1-8.12-4.12-4.74-6.88,1.83-11,4-16.13l-.09.12c1.78-2.06,2.94-4.87,6.18-5.18C381,388.87,381.25,392.12,379.13,396Z"/><path class="cls-28" d="M270.15,412.11c4.16,3.07,7.91,6.7,14.05,4.11,2.39-1,4.91,1.26,6.45,3.63-6.22,3.53-13.07,4.08-20,4.24q-1.93-2.13-3.86-4.28a22.2,22.2,0,0,0,.43-3.72A5.34,5.34,0,0,1,270.15,412.11Z"/><path class="cls-36" d="M243.15,463.74l7.16,4.41c.08,4.14-1.37,7.08-5.91,7.64a7.49,7.49,0,0,0-5.78,3.89c-3.72-1.44-4-4.55-3.76-7.87,3.16-1.84,4.2-4.87,4.57-8.26C240.76,461.91,242,461.89,243.15,463.74Z"/><path class="cls-37" d="M254.47,479.17c4.62,1,7.94,3.13,7.86,8.46L243.19,487C245.64,482.49,249.24,479.66,254.47,479.17Z"/><path class="cls-38" d="M310.59,467.65c7.76,2.41,7.76,2.41,4.65,12.31-1.56,1.38-3.17,1.93-4.64,0C307.56,475.85,308.89,471.74,310.59,467.65Z"/><path class="cls-11" d="M370.63,391.71q-2,8.07-4,16.13l-4.55-.61q.27-5.79.53-11.56Z"/><path class="cls-6" d="M223.24,468.08c3.09,0,5.81.74,7.43,3.69-.61,1.67-.88,4.53-1.88,4.8-3.89,1.08-4.86-2.44-6.25-5.05-.87-1-1.06-1.8-.56-2.5S222.84,468.08,223.24,468.08Z"/><path class="cls-39" d="M223.24,468.08a13.14,13.14,0,0,0-.7,3.45l-7.61.07a34.3,34.3,0,0,0-.59-3.9l4.15-4.31c1.54-1.33,2.94-1.14,4.23.37Z"/><path class="cls-28" d="M314.18,428l17.49.26C325.78,432.45,319.93,433.17,314.18,428Z"/><path class="cls-6" d="M230.65,499.8c-1.88,3-4.6,3.84-7.93,3.24l4.41-3.41C228.39,498.06,229.56,498.11,230.65,499.8Z"/><path class="cls-28" d="M306.59,423.82l4,3.75A4.37,4.37,0,0,1,306.59,423.82Z"/><path class="cls-6" d="M226.9,496c-.53-.28-1.57-.66-1.53-.83.24-1.23.81-.9,1.44.93Z"/><path class="cls-40" d="M230.65,499.8c-1.18,0-2.35-.05-3.52-.16a34.76,34.76,0,0,1-.23-3.67l-.09.1a16.76,16.76,0,0,1,3.81-.22Z"/><path class="cls-41" d="M110.78,332.6c1.77-3.2,4-5.42,7.77-2.84s7.06,6.11,12.18,5.93l-.22.23c2.34-2.67,4.91-3.87,8.17-1.42,4,3,8.09,6,12.14,9,1.13,1.55,2.45,1.65,3.93.51l.12-.06,2.14-1.64a5.79,5.79,0,0,1,3.76,3.52c.79,4-.7,7.13-3.88,9.55l-2.63.79a43,43,0,0,0-3.43,3.86c-1.32,1.89-2.58,2.15-4.14.38-1.07-1.06-1.66-4.18-3.74-.86a13.38,13.38,0,0,1-10.6-4.22Q121.55,344,110.78,332.6Z"/><path class="cls-42" d="M86.65,299.73c1.75-3.09,4.52-4.18,7.91-4l0,0a41.06,41.06,0,0,1-1.24-5.63c0-.22,2.3-1.24,3.1-.89,4.89,2.09,9.64,4.47,14.82,6.93.64,6.09-7.9,3.4-8.38,8.89-.34,3.74-2.95,7.29-4.55,10.92-3.77-1.64-6-4.16-6-8.61,0-3.53-3.23-3.08-5.55-3.54Z"/><path class="cls-43" d="M178,360.28c8.81,1.8,13.93,7.49,16.55,15.8-3.69.19-8,3.15-10.91.22-4.34-4.34-8.41-.25-12.5-.87C163.57,365.94,170.43,363,178,360.28Z"/><path class="cls-33" d="M247,404.49c-12.05,1.68-21.93-1.66-28.59-12.42-1.74-3.43.55-4.66,3.12-5.76,4.58-.43,8.83,1,13.11,2.31a59.55,59.55,0,0,1,10.08,4,11,11,0,0,1,3.79,4A8.94,8.94,0,0,1,247,404.49Z"/><path class="cls-43" d="M223.05,387.63l-4.64,4.44c-4.81-2.76-7.62-6.73-7.53-12.46l6.79-3.79c2.19-1.4,3.11-3.85,4.76-5.71a11.45,11.45,0,0,1,9.91-.91,7.58,7.58,0,0,1,3.57,3.65,11.61,11.61,0,0,1-.86,5.17C232.27,382.74,228.87,386.7,223.05,387.63Z"/><path class="cls-26" d="M206.6,367.89c.23,1.23.46,2.46.68,3.69a31.17,31.17,0,0,0,3.13,4.5c0,1.36-.08,2.71-.13,4.07l-7.94,3.35c-4.26-3.07-1-8.25-3.35-11.87a30.53,30.53,0,0,0-.66-3.66c-1-1.56-2.35-2.91-3.34-4.49-.19-1.18-.42-2.35-.7-3.51L193,357.71c.36-.8.73-1.59,1.1-2.39a2.89,2.89,0,0,1,4.31.89q2.37,3.71,4.76,7.4A23.87,23.87,0,0,0,206.6,367.89Z"/><path class="cls-44" d="M247,404.49l-.45-8.07c5.11-1.86,5-4.82,1.79-8.48l.39-2.54,1.44-2.17c2.67-1.14,5.1-.48,7.43,1a11.46,11.46,0,0,1,3.17,4.19,7,7,0,0,1-2.05,7.15q-4.15,4.32-8.3,8.63C249.27,404.29,248.13,404.4,247,404.49Z"/><path class="cls-45" d="M178,360.28c-4.6,4-8.53,8.32-6.86,15.16l-4.78.09c-2.79-5.8-6.37-11.35-5.51-18.26,2.7-4.37,6.27-2.93,9.84-1.48a24.12,24.12,0,0,1,4.11,3.84C175.84,359.82,176.91,360,178,360.28Z"/><path class="cls-43" d="M162.84,355.87c0,6.76,5.5,12.54,3.49,19.66-5.9-1.63-7.56-6.2-8-11.59-1.87-2.61-1.72-5.35-.57-8.16A4,4,0,0,1,162.84,355.87Z"/><path class="cls-43" d="M199,371.63c3.94,3.16,3.51,7.56,3.35,11.88-1.31.05-2.62.16-3.93.16-6.09,0-6.07-3.26-4-7.59Z"/><path class="cls-46" d="M143,359.58a44.1,44.1,0,0,1,1.37-4.54c3.14.63,2,3.37,2.37,5.4A25,25,0,0,0,143,359.58Z"/><path class="cls-6" d="M270.15,412.11l-2.94,4c-2.33-1.06-3.59-2.3-.68-4.21A21.94,21.94,0,0,1,270.15,412.11Z"/><path class="cls-41" d="M158.69,355.82l-.39,8.12c-2.72-1.87-3.68-4.65-4-7.75l.44-.41C156.06,354.1,157.38,354.2,158.69,355.82Z"/><path class="cls-47" d="M550.58,227.5c-17.78.13-35.3,1.38-51.55,9.81-6.5,3.38-13.47,3-21.86,1,4.82-6.21,11.87-7,16.72-11,10.57-3.92-2.09-14.2,5.2-19,9.43-.07,18.58-1.93,27.63-4.36l.09,7c-.38.7-.75,1.41-1.1,2.12a9.64,9.64,0,0,1-8,1.81c.26.08-.59-.51-.59-.51s-.51.9-.33,1a30.45,30.45,0,0,1,3,.42,26.44,26.44,0,0,1,4.11.61,13.76,13.76,0,0,1,4.2,2.45C533.6,227.19,547,214.65,550.58,227.5Z"/><path class="cls-48" d="M514.63,243.94c4.35-5.67,10.48-4.06,16.24-4,1.75,1.81,3.59,3.54,5.24,5.44a3.15,3.15,0,0,1-.55,5C525.81,256.27,520.42,254.53,514.63,243.94Z"/><path class="cls-49" d="M550.58,227.5c-2.7-3.28-6.44-3.8-10.29-3.65a30.74,30.74,0,0,1-18.06-4.6c-1.4-4,1.67-5.22,4.15-6.82,0,0,.42-1.41.42-1.42,5.22,8.79,13.54,9.66,22.57,9,2.57-.19,5.61-.27,6.92,2.65,1.72,3.83-1.13,6.09-3.53,8.36a11.15,11.15,0,0,1-1.67,1.09Z"/><path class="cls-50" d="M486,295.9a16.56,16.56,0,0,0-1.65,1.06c-1.37,1.14-2.07,3.63-4.41,2.71-.62-.25-1.06-2.29-.78-3.28,1.58-5.59,4.27-10.94,3.52-17C489.18,283.79,486.3,290.1,486,295.9Z"/><path class="cls-24" d="M547.1,211.49c-1-2.1-3.08-4.4-.69-6.43,1.09-.92,3.64-.91,5.17-.35,2.26.82,4.21,2.52,6.29,3.84C555.13,212.66,551,211.62,547.1,211.49Z"/><path class="cls-51" d="M486.17,264.23c-5.7,4.69-12.76,5.89-19.61,7.61l.08,0c-2.28-4.39.66-6,3.95-7.38Z"/><path class="cls-52" d="M515.13,256.87c-.21.8-.31,1.73-.49,1.74-1.83.16-3.92.73-5.44.06s-2.63-2.61-3.81-4.08c-.06-.07.79-1.27,1.28-1.32C510.22,252.86,512.73,254.85,515.13,256.87Z"/><path class="cls-53" d="M470.59,264.48q-2,3.69-3.95,7.38c-6.67-2-7.12-2.65-3.53-6.29,2.2-2.24,5-3.88,7.51-5.79Z"/><path class="cls-48" d="M498.51,247.55A8.21,8.21,0,0,1,507,244.4C504.79,247.08,501.87,247.91,498.51,247.55Z"/><path class="cls-54" d="M275.41,159.22q-2.55,2.57-5.08,5.14c-10.25,3.63-20-1.51-30-1.76-6.85-5.63-14-8.41-23-4.44-6.82,3-13.84,1.92-20.43-1.51-2.71-.79-5.57-1-8.23-2a7.73,7.73,0,0,1-3.46-4.24,7.73,7.73,0,0,1,2.07-5.11,22.26,22.26,0,0,1,10.11-5.2c5-1,9.57-.13,13.2,3.79,3.4,4.52,7.65,3.66,11.92,1.72,5.23-2.37,10.34-5,16.31-2.56l7.48,1c4.23,2.25,8.13,5.08,12.47,7.12A37.41,37.41,0,0,1,275.41,159.22Z"/><path class="cls-55" d="M374.69,191.84c-6.62.7-13,.46-19-3.06-3.3-1.92-7.52-4.37-10.83-3.78-8.74,1.54-13-4.14-18-9,7.12-5.28,16.17.85,23.37-3.94l8.6-.08c3.82,5.5,12.07,2.15,15.76,7.9l12.92,5.83C383.83,189.6,377,186.52,374.69,191.84Z"/><path class="cls-56" d="M374.6,179.86c-2.48-.05-5-.11-7.44-.14-5.12-.08-8.21-2.32-8.32-7.76,6.79.49,14.13-2.16,20,3.58Z"/><path class="cls-56" d="M350.24,172c-2.06,2.75-5,3.68-8.24,3.73l-15.13.21a27.74,27.74,0,0,1-.74-3.37Z"/><path class="cls-57" d="M258.78,151.25c-6.18,1.18-9.69-2.33-12.47-7.12C252.17,143.53,256,146.48,258.78,151.25Z"/><path class="cls-58" d="M79.07,175.6l-4.35,4c-3.21,10.74,1.83,21.49,0,32.23l-4.31,4.52c-4,2.71-3.76,6.49-2.68,10.49a5.13,5.13,0,0,1-.4,4.56l-4.38.42c-7.62-17.91-8.19-24-3.66-39.35,1.19-1.92,2.52-3.77,3-6a12.57,12.57,0,0,0-1.25-6.3,7.5,7.5,0,0,1,.13-4,4.77,4.77,0,0,1,2.59-2.75c2.34-1.06.78-3.35,1.46-5,1.28-2.95,3-5.37,6.36-6.19a7.92,7.92,0,0,1,4.72,1.53C79.12,167.21,81.26,170.9,79.07,175.6Z"/><path class="cls-59" d="M70.74,163.71l-3.81,8.76a2.21,2.21,0,0,1-.4,3.39l-4.34.22c-1.34,1.34-2.61,1.22-3.83-.16v-4.14l5.1-7.93A41.38,41.38,0,0,0,66.15,159a8.62,8.62,0,0,1-.32-2.58c-.32-2.86,1-5.79,3.72-4.26C74.55,155,73.55,159.51,70.74,163.71Z"/><path class="cls-60" d="M58.36,175.92c1.28.07,2.56.12,3.83.16a25.9,25.9,0,0,1,.46,3.72q1.88,1.95,3.81,3.85c.31,5.17-2.16,8-7.23,8.8C60.08,186.88,55.17,181.61,58.36,175.92Z"/><path class="cls-61" d="M379.13,396c-.55-3.18-.82-6.52-4.42-8a2.72,2.72,0,0,1-1.23-2.86c.27-1,.57-1.55.91-1.55l-.09.15c2.84-1.9,2.06-5.78,4.37-8,3.63-2,6.54-4.52,7.36-8.84.49-2.58.26-6.77,1.65-7.41,3.63-1.67,2.8,3.31,4.75,4.66,1.6-4.63,5.9-5.93,9.5-8.39,2.82-1.92,5.32-3.66,8.71-4,1.12,8.16-2.5,14.38-9.23,18C390.44,375.76,384.23,385.29,379.13,396Z"/><path class="cls-62" d="M70.47,123.57a17.89,17.89,0,0,0,1-3.67c-.38-4.58,2.18-8.18,4-12.07,2.71-5.66,6.2-10.84,9.35-16.14.65-2,1.16-4-.4-5.94-7.37-3.31-17-3.2-19.83-13.14C63.87,66.89,69,63.47,71,57.43c-8-2.6-12.48,2.44-17.33,6.16-4.22,3.9-8.32,8.06-14.85,7.17a16.94,16.94,0,0,1-5.1-2.8c-2.89-16.74,9.29-22.23,21-28.09,4.21-1.67,8.5-3.17,12.62-5,5.11-2.33,9.86-1.67,15,.24A175.42,175.42,0,0,0,118,44.26a169.17,169.17,0,0,1,27.55,25.18c2.62,3,5.07,6.09,5.09,10.36l-2.19,1.8c-8,2.73-13.88-5.08-21.48-4.32a20.31,20.31,0,0,1-11.48-11c-1.28-3.15-1.93-6.68-5.06-8.49,2.75,9.28,7.94,16.21,17,19.88,6.53,0,10.26,2.6,7.19,9.52-3.43,7.72-8.68,7.75-15.81,3.94-5-2.69.66,2.89-1.6,3.21a15.76,15.76,0,0,1-3.27,7.24c-2,2.32-5.4,3.88-4.44,7.93a16.7,16.7,0,0,1,.06,7.21,9.46,9.46,0,0,1-2.69,4,8.61,8.61,0,0,1-4.64.21c-2.17-.71-4.15-1.88-6.19-2.77a4.19,4.19,0,0,0-3.32,2.1A54.5,54.5,0,0,0,89.44,132c1,4.1,4.5,4,7.7,4.41a15.08,15.08,0,0,1,7.78,2.62,14.07,14.07,0,0,1,4.85,13.37c-2,6.77-6.51,10.17-13.53,10.35a46.28,46.28,0,0,1-14.48-3.93c-9.2-4.12-12-12.49-14.06-21.33a20.09,20.09,0,0,1-.43-5.84A20.3,20.3,0,0,1,70.47,123.57Z"/><path class="cls-63" d="M150.67,79.8c11,6.88,18.41,16.76,24.11,28.15-3.33,4.73-10,1.21-13.9,5.62,9,7.55,10.51-.91,13.59-5.87,12.46,3.33,20.8,13.52,31.85,19.27,3.86,2,.81,5.83.31,8.84-4.28,6.21-18.59-11-17.57,7.57a8.76,8.76,0,0,1-9.9,6.88c-9.25-4.28-16.87-13-28.63-10.46l.24.16c-9.92-8.42-20.07-16.66-23.74-30-1.45-8.7.3-16.65,10.13-17.83,8.36-1,9.76-7.46,13.52-12.32Z"/><path class="cls-64" d="M186.82,143.55c-.39-.52-.78-1.05-1.19-1.56-1.88-2.38-6.29-3.19-5.11-7.45s6.15-7,10.74-6.83c6.51.23,10.08,5.73,15.37,8.1,3.21,1.79,4,4.75,4,8.11l-15.91-.22C192.07,143.36,189.39,146.58,186.82,143.55Z"/><path class="cls-65" d="M30.72,28a14.33,14.33,0,0,0,8.21-11.18L46.32,16c2.59,2.18,5.6,2.53,8.81,2.09a4.11,4.11,0,0,1,4,1.75c0,6.83-2.3,12.52-8,16.57C45.59,46.34,37.71,54.39,30.49,63c-1.79.76-3.64,2.25-5.34,2.09-2.17-.19-2.18-2.64-2-4.51a34.27,34.27,0,0,1,.63-3.87c.28-1.52-.34-2.78-1.71-2.56-1,.16-2,1.31-2.81,2.22a26.09,26.09,0,0,0-2.08,3.26c-4.07-.51-2.15-3.88-2.66-6a30.72,30.72,0,0,1-.38-5.86c.7-1.13,1.16-2.58,2.15-3.34C26.67,36.49,26.69,36.52,30.72,28Z"/><path class="cls-26" d="M30.49,63c3.95-11.11,9.68-20.85,20.62-26.52l3.6,3.42q-7,8-14,16c-3,3.41-6.16,6.73-5.79,11.79a2.55,2.55,0,0,1,.82,2.81c-.36.89-.71,1.33-1,1.33C31.3,69.8,30.61,66.52,30.49,63Z"/><path class="cls-23" d="M54.88,20c-6.34,4-6.34,4-8.56-3.94,2.83-.61,5.75-4.43,8.44.23,1.4.78,1.88,1.59,1.45,2.43S55.34,20,54.88,20Z"/><path class="cls-66" d="M54.88,20c-.06-1.24-.1-2.48-.12-3.71,1.12-.62,2.21-1.28,3.36-1.84,2.28-1.12,5.41-2.82,6.54.36,1.6,4.49-2.37,4.76-5.52,5.09Z"/><path class="cls-67" d="M42,108a4.28,4.28,0,0,0-2.71-4.25q0-1.56-.18-3.12c1-1.87,2.72-3.22,4.6-2.73C50.32,99.58,58,99,59.28,96.35c8.19-.44,19.23-6.12,18.5,10-2.9,5.2-5.61,10.57-11.37,13.35a20.64,20.64,0,0,0-3.72.92q-2.34,1.4-4.59,2.92C50.44,120.69,43.82,116.8,42,108Z"/><path class="cls-68" d="M71.19,135.57c1,1.56,2.85,3.13,2.82,4.67-.13,7,4.62,11.13,8.52,15.81C81,160.09,78.41,163,74,164l-3.3-.26c-.08-1.86,0-3.74-.27-5.58-.45-3.31-2-4.24-4.63-1.69-5.17-11.9-7.63-23.43,4.63-32.88.08,2.71.17,5.41.25,8.11C70.48,133,66.73,134.79,71.19,135.57Z"/><path class="cls-69" d="M66.41,119.66l8.19-11.91a5,5,0,0,1,3.22,3.67c-1,3.7-2.72,6.81-6.39,8.48Z"/><path class="cls-68" d="M34.5,115.9c0-3.4.84-6.35,4.12-8.07C38.36,111.09,38.47,114.54,34.5,115.9Z"/><path class="cls-68" d="M66.15,159l-2.69,4.82C64.36,162.24,65.26,160.64,66.15,159Z"/><path class="cls-69" d="M58.1,123.5l4.59-2.92Z"/><path class="cls-22" d="M58.58,99.27c-1.13,1.13-1.32,2.48-.11,3.41,1.47,1.13,4.69,2.09,4.6,2.77-.54,3.94-4,2.75-6.16,2.19a30.91,30.91,0,0,1-8.72-4.2c-2.85-1.87-5.68-3.21-9.13-2.84-.16-2.84-.33-5.7-.5-8.55,4.44-2.15,9-.49,13.52-.43C55.63,93,59.35,94.23,58.58,99.27Z"/><path class="cls-70" d="M14.82,80.28c1.27-.33,2.56-.61,3.81-1,3-.94,5.93-4.39,9-2,4.39,3.45-.4,7-.87,10.59C16.39,92.09,16,91.81,14.82,80.28Z"/><path class="cls-36" d="M51.63,95.87,38.56,92.05l-7.89.09a2.64,2.64,0,0,1-4-.48,21.5,21.5,0,0,1-.12-3.93l20,.27,2.53.88C51.27,90.73,52.54,92.91,51.63,95.87Z"/><path class="cls-22" d="M26.72,91.66c1.32.13,2.64.29,4,.48C29.09,94.15,27.79,93.87,26.72,91.66Z"/><path class="cls-45" d="M39.2,68.22c5.8.07,7.4-5.91,11.65-8.08,12.18,1,8,8.23,5.6,14.81a48.31,48.31,0,0,1-2,7.75c-1.69,3.23-3.07,7-8,5.27l.06,0a21.72,21.72,0,0,1,.13-3.12C43.51,79.64,35.93,76.37,39.2,68.22Z"/><path class="cls-71" d="M39.2,68.22c1.79,5.87,8.9,9.34,7.5,16.66-10.78-2.54-10.78-2.54-12-13.11.07-1.38.15-2.76.22-4.14Z"/><path class="cls-72" d="M177.29,485.53c-.54-.94-1.75-2.19-1.49-2.76a13.31,13.31,0,0,1,3.23-4c.21-.19,2.31.89,2.33,1.43C181.45,482.94,179.92,484.72,177.29,485.53Z"/><path class="cls-73" d="M195,472c3.05,1.61,3.54,4.41,3.48,7.47C195,478,194.9,475,195,472Z"/><path class="cls-74" d="M226.71,451.49q-2,4.2-4,8.39c-1.39,1.55-2.69,1.56-3.87-.24v.05a2.38,2.38,0,0,1-1.16-2.52c.26-.92.54-1.38.85-1.38C220.31,452.57,223.39,451.8,226.71,451.49Z"/><path class="cls-18" d="M218.52,455.79c.14,1.3.25,2.6.31,3.9-1.55-.43-2.22-1.35-1.69-2.65C217.35,456.52,218,456.2,218.52,455.79Z"/><path class="cls-18" d="M218.84,459.64q1.93.09,3.87.24l.16.16c1.23,1,1.59,1.86,1.09,2.69s-1,1.19-1.41,1.19l.17-.16-4.23-.36C218.62,462.14,218.73,460.89,218.84,459.64Z"/><path class="cls-50" d="M222.55,463.92a12.42,12.42,0,0,0,.31-3.89,36.55,36.55,0,0,1,5.65.2c1.05.19,2,1.18,2.93,1.82a13.09,13.09,0,0,1-3.25,1.56A44,44,0,0,1,222.55,463.92Z"/><path class="cls-75" d="M243.15,463.74c-1.25,0-2.49-.08-3.73-.19.25-1.56.46-4.47.72-4.47C243.33,459,242.5,461.9,243.15,463.74Z"/><path class="cls-74" d="M499.09,208.35c-1,6.7.59,11.82,9.12,12.12-4.16,5.88-8.89,7.18-14.32,6.89-1.57-1.07-3-2.69-4.74-3.12-6.37-1.57-13.45,1.58-18.71-6.63-2.84-4.43-12.22-3.65-15.88-10,9.08-3.44,17.86-7.94,27.89-8.1l.48.57a21.15,21.15,0,0,1-.18,3.73l-.09-.12c7.41,3.2,7.41,3.21,2.63,8-.88.88-1.83,1.7-2.74,2.54a19.19,19.19,0,0,0,3.28,1.41C492.4,217.18,494.32,210.15,499.09,208.35Z"/><path class="cls-4" d="M490.73,124c6.47-3.26,11.35-10.23,19.95-8.49,3.75.39,7.53.62,11.24,1.26,1.57.27,1.75,1.71.73,3.06l-28.12,12c-4.34,2.91-7.43,3.06-7.53-3.41Z"/><path class="cls-61" d="M458.47,195.29c-2.53-4.73-10-1.78-11.84-7.52,7.43-.9,13.46-4.8,19.44-8.9,5.32-3.65,10.82-7,17-11.06,2,6-2.24,8-4.88,9.52a23.39,23.39,0,0,0-11.52,14.5c-1.39,1.37-2.77,2.74-4,4.24l-4.08,3.34c-1.44-.87-1.93-1.77-1.5-2.7S458,195.29,458.47,195.29Z"/><path class="cls-76" d="M434.44,179.72l-27.32,7.89c1.52-2,2.66-5.28,4.63-5.92,12.35-4,23.52-10.39,35.48-17.41C447.49,174.32,437.65,174.19,434.44,179.72Z"/><path class="cls-77" d="M487,128.35c1.72,2.88,4.55,3.33,7.53,3.41-5.64,8.88-14.24,13.4-24,16.27C471.83,138,479.05,132.84,487,128.35Z"/><path class="cls-45" d="M470.79,156c6.62-2.84,12.18-8.23,20-8.2-3,6.79-9.38,8.9-15.54,11.13C473.35,159.61,471.57,158.07,470.79,156Z"/><path class="cls-74" d="M482.45,199.55c3.35-3.79,7.19-7.06,12.59-6.2,4.31.68-3.15,5.27-12.11,6.76Z"/><path class="cls-78" d="M458.4,171.58a11.64,11.64,0,0,1,6.77-6.68,2.15,2.15,0,0,1,3.11,1.56c.13.46-.38,1.23-.77,1.7-2.24,2.72-5.27,3.75-8.67,3.91Z"/><path class="cls-42" d="M458.84,172.07a11.32,11.32,0,0,1-6.8,6.6,2.17,2.17,0,0,1-3.11-1.53c-.14-.44.41-1.2.81-1.67,2.25-2.68,5.29-3.68,8.67-3.89Z"/><path class="cls-39" d="M509.08,187.52c-.95-.42-3.08-1-3.06-1.43.09-2.33,2.23-2.88,4.06-3.58,1.57-.6,3-.12,3.05,1.48C513.23,186.36,511.43,187.32,509.08,187.52Z"/><path class="cls-57" d="M458.47,195.29c0,1.38.1,2.75.14,4.12-4.19.61-8.46,1.51-11.08-3.23Z"/><path class="cls-79" d="M438.68,155.89c1.73-3.11,2.21-8.61,7.89-4.09A8.17,8.17,0,0,1,438.68,155.89Z"/><path class="cls-80" d="M517.54,194.21c.18-.48.33-1.36.53-1.37a5,5,0,0,1,1.68.5c-.17.48-.33,1.37-.52,1.38A5.2,5.2,0,0,1,517.54,194.21Z"/><path class="cls-81" d="M503.18,202.9c-.51-.17-1.3-.2-1.47-.54-.55-1.12.12-1.78,1.65-1.56.44.06.79.73,1.17,1.12Z"/><path class="cls-57" d="M462.69,196.07l4-4.24Z"/><path class="cls-60" d="M170.1,199.51c-5.38.57-10.31-.92-15.13-3.18-6.62-3.1-7.19-4.5-4.29-12.16.92-2.42,2-4.77,2.94-7.21.17-.46-.36-1.17-.56-1.76-14.71,9.44-14.72,9.44-22.89-3.26-3.49-4.46-4.44-9.27-2-14.54A6.79,6.79,0,0,1,133,154a24.35,24.35,0,0,1,13.69,5.64c9.63,7.08,19.65,13.18,32.21,13,.87,4.9-2.79,8.16-4.35,12.18C171.58,189.24,172.64,194.93,170.1,199.51Z"/><path class="cls-4" d="M219,292.34l11.6-4.46c3.39-2.95,7.33-1.91,11.17-1.56a7.06,7.06,0,0,1,3,7.06c-.13,1-1.07,1.89-1.39,2.84-.47,1.45.34,1.75,1.57.54a17.6,17.6,0,0,1,5.95-1.7c5.71-.63,11.52,0,17-2.12,1.62-.65,3.26-1.16,4.93-1.65a15.55,15.55,0,0,1,7.94-.71c4,2.21,4.36,5.51,2.78,9.38-2,3.26-4.9,5.56-8,7.69a18.38,18.38,0,0,1-18.22,2.24c-2.31-.35-5.16.74-6.52-2.33,1.07,3.29,4.06,2,6.28,2.65a3.65,3.65,0,0,1,2.43,4.13c-3.07,5.24-8.21,2.86-12.56,3.44-12.31.1-25.21,1.87-32.69-11.59a11.71,11.71,0,0,1-.95-5.22A41,41,0,0,1,219,292.34Z"/><path class="cls-82" d="M214.58,299.84c7.18,12.22,18.22,16.8,31.9,16.19,1.4.58,1.91,1.24,1.54,2s-.79,1.19-1.22,1.19c-6.89.24-13.66.91-19.63,4.85-1.69,2-3.38,2-5,0-9.05-.53-13.27-8.22-19.37-13.11-4.37-3.5-8.34-3.82-11.93,1-6.94,2.19-10.22-2.44-13.44-7.17,4.69-8.76-8.74-7.82-7.83-14.58,1.51-4.41,5.09-5.21,9.11-5.31,6.49,1.35,13.24,1.16,19.6,3.31a9.13,9.13,0,0,1,5.41,5.4c-2.52,5.93,1.52,3.6,4.18,3.09A8.29,8.29,0,0,1,214.58,299.84Z"/><path class="cls-76" d="M222.89,371.7l-5.21,4.12.63-11.67c-1.07-1.67-2.31-1.74-3.72-.42-5.49-1.93-7.78-6.22-8.54-11.62a3.68,3.68,0,0,1,.48-4.37l8.2-7.89c6.05-4.52,12.05-9.31,20.08-4.08,1.58,3.34,4.12,11.25,4,12.35-4.29,2.77-9,1.52-13.25,1.34,4.16,1.29,9.07-.81,13.34,1.75l7.56.76c7.9,13.59-6.16,14.1-11.71,19.67l.07.13C230.83,369,226.87,368.8,222.89,371.7Z"/><path class="cls-43" d="M322.52,227.7c.87,3.17,1.78,6.33,2.61,9.51.75,2.91-.18,5.08-3,6.32-8.26,2-17.48-4.62-25.14,2.84a16.69,16.69,0,0,1-13.66-.52c-2.68-1.47-4.65-3.46-5-6.66,15.33-5.09,15.37-5.08,16.39-20.82.34-5.16-.91-10.68,3.82-14.67C307.86,210.33,313,221.24,322.52,227.7Z"/><path class="cls-83" d="M282.56,207.72c.64,3,3.94,5.76.79,9a8.44,8.44,0,0,1-9,2.47,66.72,66.72,0,0,1-9.1-3.75,79.08,79.08,0,0,0-34.22-8c-2.19-2.34,3-5.54-.9-7.68.24-2.33-3.18-6.63,0-6.58,6.94.11,13.58-4.31,20.56-1.22l2.68.32c9.2,4.28,15.26,14.84,27.22,13.59C281.28,206.45,281.92,207.08,282.56,207.72Z"/><path class="cls-83" d="M322.52,227.7c-12.39-3.62-21.39-10.62-24-24,3.43-7.88,5.6-9.22,10.52-6.08a43,43,0,0,1,7.66,6c4.78,4.87,9.41,2.76,14.17.23l-.22-.21,6.4,9.59c-4.34,4.78-9.16,5.07-14.43,2.69l.16-.16C320,219.69,320.73,223.68,322.52,227.7Z"/><path class="cls-83" d="M198.81,263.34c-2.49.18-5,.45-7.46.54-6.59.22-5.1,2.79-2.1,6.35,1.11,1.32,1.25,3.45,1.84,5.21-5.23,5.3-10.61,2.34-16,.37-8.29-3.56-14.14-11-22.64-14.25-4.33-2.63-5.56-6.49-4.43-11.27,2.39-5.82,6.77-3.31,10.74-2.57,5.83.88,10.78-2.06,16-3.7C181.06,252.63,195.9,250.57,198.81,263.34Z"/><path class="cls-44" d="M234.71,371.64a5.07,5.07,0,0,0,2.17-6.62c-3-7.9-.26-7.9,5.76-4.54,2.13,1.19,3.43-.71,3.69-2.73a46.37,46.37,0,0,0,.09-5.78l8.07-.22c5.94,1.68,11.08,5,16.32,8.08l-.11-.15c1.24,7.43-1.42,13-7.89,16.86,1.33,2.3,2.65,4.6,4,6.89-1.92,3-3.4,6.78-8.19,4.36l.11.1c-1.53-1.88-2.64-4.05-3.94-5.9.09.14-.47-1.33-.47-1.33a15.32,15.32,0,0,0-1.4.71,3.22,3.22,0,0,1-2.09,2.33l-.16.12L249,385.47l-2.31.07a15.06,15.06,0,0,1-4.12-1.93c-1.87-1.24-3.65-2.63-5.4-4-.55-.5-1.07-1-1.61-1.54-.38-.64-.74-1.29-1.11-1.95Z"/><path class="cls-84" d="M326.7,275.5l15.62.52c1,.77,1.37,1.58,1.11,2.44s-.54,1.32-.85,1.32l0,0c-2.1,2.42-5.87,1.62-7.91,4.13h0c-2.09,2.25-5.93,1.33-7.68,4.22l-.39-.31c-1.82,3.31-5.54,1.87-8.14,3.25-6.69,4-10.74,12.18-19.83,12.28a16,16,0,0,1-2.89-4.2c-10.41-12.29-3.54-19.1,8.26-22.29C311.14,274.91,319,272.93,326.7,275.5Z"/><path class="cls-85" d="M326.7,275.5c-9.88,3-19.81,5.87-29.61,9.14-1.49.5-2.37,2.84-3.53,4.32a49.7,49.7,0,0,0,4.8,2.61c2.09.88,6.15-.53,5.48,3.37-.34,1.95-3.38,3.44-5.19,5.14-4.33,2.61-8.8,4.17-13.8,1.85l-2.1-2.05c-.73-2.92-.59-6.27-3.94-7.88-.73.5-1.46,1-2.18,1.5l-2.49-.88a6.58,6.58,0,0,1-.46-5,17.68,17.68,0,0,1,6.08-4.55,36.46,36.46,0,0,0,6-4.47c7.12-6.47,14.5-12.33,25.08-10.59,1.94,2.69,4.69,3.71,7.88,3.8A10.06,10.06,0,0,1,326.7,275.5Z"/><path class="cls-86" d="M330.84,203.85c.43-2.66,1.36-5.9,4.38-5.38,16.06,2.8,32,6.06,49.12,9.37-11,8.91-24.82,10.28-36.41,4.83-5.9-2.78-10.37-8.28-17.31-9Z"/><path class="cls-35" d="M170.1,199.51c-7.75-5.76-.92-10.74.85-16,8.17-6.78,18.35-6.33,28-7.78.83,1,2.49,2.12,2.35,3-1.81,10.78-1.86,10.76,3.49,17.81A27.54,27.54,0,0,1,206.7,200l.1-.09-8.66,7.64c-6.44-2.74-9.64-13.76-19.54-7.65Z"/><path class="cls-12" d="M158.77,247.72c-2.63,4.27-5.5.55-8.27.26-4.33,1.86-6.44-.52-7.92-4.13q-2.19-13.77-4.39-27.54c-1.61-3.49.56-4.76,3.33-5.67,3.31-2.25,6.42,11,9.85.12,14.21,2.89,10.18,12.25,7.5,21.13a13.59,13.59,0,0,1-.66,3.79q-1.67,2.25-3.29,4.5Q156.84,244,158.77,247.72Z"/><path class="cls-87" d="M154.83,259.53c1.82-2.32,4.82-3.4,6.27-1,3.41,5.73,9.52,8.33,13.65,13.1,2.61,5.93,13.49,3.49,12.85,12.72-2.17,3.08-4.7,5.2-8.76,3.48-3.26,0-6.22.69-8.24,3.55-5.37,3.52-8.56-.44-12-3.48-3.82-3.27-.88-8.4-3.32-12.05-.48-3.09-.6-6.22-.79-9.34a18.87,18.87,0,0,1,.09-4.69C154.64,261.09,154.73,260.31,154.83,259.53Z"/><path class="cls-47" d="M282.6,287.66l-7.89.51c-4.32-3.05-6.55-6.77-3.82-12.07l-.29-.33c1.8-3.56,10.42-.12,8.11-7.9,9.79-7.91,21-4.48,31.83-3.94,1.42.8,1.94,1.66,1.56,2.6s-.8,1.46-1.24,1.46h0c-7.65,5.84-18.13,7.46-23.88,16.1A28.53,28.53,0,0,0,282.6,287.66Z"/><path class="cls-88" d="M351.17,408.11c-7,9.79-17.67,12.72-28.47,15.29-3.43.82-6.34-.88-8.49-3.69,2.63-3.65,5.4-7.22,7.85-11,1.67-2.55,3.85-2.64,6.54-2.67,9.79-.13,13.63-1.53,18.06-6A11.42,11.42,0,0,1,351.17,408.11Z"/><path class="cls-89" d="M318.8,263.91a19,19,0,0,1,15.35-7.74c2.65,0,5.47-.58,7.91.13,5.86,1.72,13-3.77,17.86,3.26-4.22,5.87-10.92,6.85-17.16,8.73a7.3,7.3,0,0,1-8.22.08l-15.29-1.05C316.41,266.55,316.25,265.41,318.8,263.91Z"/><path class="cls-42" d="M158.87,231.89c-3-2-3.82-4.63-2.32-8,2.72-6-.59-9.32-5.46-11.87-5.71-2.41-8.86-5.67-3.87-11.64,6.4,3.08,13.7,4.87,16.67,12.65.92,2.43,3.17,3.52,5.92,4.36,8.82,2.71,8.94,4.15,3.37,9.71C169,231.33,164.25,232.15,158.87,231.89Z"/><path class="cls-44" d="M158.57,264c2.63,5,2.43,9.25-3.32,11.93l-5-.34c-3.51-9.09-15.46-7.66-19.71-15.82l.18.22c-6-6.75-4.8-13.47.07-20.18l4.09.19c2,2.42,3.11,6.93,7.83,3.71l-.12.18L150.5,248c.48,4.21-.4,8.93,4.33,11.56l.14.17A44.18,44.18,0,0,0,158.57,264Z"/><path class="cls-69" d="M142.6,211.85l-4.41,4.45c-9.9-5.54-19.87-11-22-23.79,8.24-4,15.92-3.29,22.8,3.21C139.19,201.32,145.26,205.62,142.6,211.85Z"/><path class="cls-90" d="M186.77,283.27c-3.79-2.37-7.55-4.81-11.4-7.09-2.23-1.33-2.45-2.73-.62-4.51,5.69.18,10.36,4.81,16.34,3.78,6.5-.59,11.5,1.7,14.73,7.55,1.58,2.87,3.31,5.65,5,8.47,1.86,2.5,6.37,3.77,3.85,8.29l-.06.08-7.81,0c-1.77-1.19-4.27-1.79-3.84-4.76l-4.11-3.22C195.28,288.32,187.52,290.72,186.77,283.27Z"/><path class="cls-91" d="M355.36,228.11a74.38,74.38,0,0,1,31.5-9.28c3.29-.2,7.76-5.27,9.58.45,1.3,4.09-3.92,6.25-7.05,8.24s-7,3.25-10.54,4.82C370,236.4,361.57,238.52,355.36,228.11Z"/><path class="cls-60" d="M74.67,211.81c-.26-2.59-.74-5.08-3.7-5.95-1.88-.56-4.44-1.31-3.75-3.42,2.47-7.63.91-16.61,7.5-22.86,3.59,6.55,3.73,13.79,4.13,21,.27,4.93,3.61,6.52,7.76,7.26L89,208a13.23,13.23,0,0,1,4.48,1.8A7.79,7.79,0,0,1,97,215.88a8.54,8.54,0,0,1-1.62,4.43c-3.07,2.07-6.07-.24-9.11-.17Z"/><path class="cls-92" d="M74,164c.45-5.2,3-8.1,8.49-7.93,4.23.71,8.94-.25,12.31,3.49,3.11,4.24,3.13,8.57.33,13-4.49,5.57-10.45,3.53-16.1,3.09Q76.55,169.78,74,164Z"/><path class="cls-93" d="M150.53,139.8c4.86-3.58,8.14-11.27,16.37-5.8,2.71,1.8,5.71,2.59,5.55,7-.14,3.61,3,5.55,6.1,6.92l1.69,1.82-1.35,2.08c-4.65,0-9.43.64-13.92-.22C158.33,150.3,152.09,147.69,150.53,139.8Z"/><path class="cls-57" d="M102.56,263.73c1.62,4.52,5.58,7.12,8.56,10.55,3.66,4.22,5.07,9,2.36,14-14-5.07-21.32-15.53-24.4-30,6.09-1,8.44,6,13.71,5.66Z"/><path class="cls-23" d="M194.54,152.4c8.91,1.18,17.37,4.84,26.93,1.09,6.28-2.47,12.93.11,17.06,6.43l-1.74,1.61-2.28-.62c-7.49-2.75-13.95,1-20.74,3.1-7.1,2.17-14.24,3.29-19-4.6C192.29,157.14,192.29,154.8,194.54,152.4Z"/><path class="cls-67" d="M130.82,155.75q-.33,8.1-.65,16.19l-11.75-.23a6.89,6.89,0,0,1-1.81-4.57c-2.44-9-6.59-17.6-7.9-27a11.32,11.32,0,0,1,2.38-7.68,13.63,13.63,0,0,1,4.4-3.28A12.53,12.53,0,0,1,126,130a7.43,7.43,0,0,1,2.51,4.38c-.36,4-2.63,7.95-.45,12.07C129.52,149.38,130.8,152.38,130.82,155.75Z"/><path class="cls-76" d="M119.1,168.42c-.25,1.09-.48,2.19-.68,3.29-5.63,3.67-11.26,5.85-17.68,1.44-1.36-.94-3.69-.47-5.57-.65l-.33-13c5.71,0,9.58-2.93,12.2-7.78C115.42,154.16,117.63,161,119.1,168.42Z"/><path class="cls-94" d="M95.44,216.25l-4.64-4.4a47.13,47.13,0,0,0-4.13-4l-.06-.05c1.19-3.07,3.39-3.59,6.27-2.55,1.83.67,3.69,1.26,5.54,1.89l2.31.77c2.76,2,3.57,5.36,5.66,7.81a29.3,29.3,0,0,0-.82,3.78c-1.24,14.43-1.22,14.43-15.11,12.17l.35.26q-2.25-5.91-4.52-11.81c2.83-3.92,6-.8,9.09-.48A2.06,2.06,0,0,0,95.44,216.25Z"/><path class="cls-9" d="M238.53,159.92c5.12.08,10.25.35,15.37.19,5.94-.2,11.45.89,16.43,4.24.08,5.49,5.57,6.27,9.16,10.55A31.9,31.9,0,0,1,261,173.13c-4.8-1.8-9.63-3.51-14.45-5.26-1.51-3.79-10.89,0-7.84-8.19Z"/><path class="cls-93" d="M140.11,322.41c-7.5,3.21-13.37.49-18.56-3.88-2.61-2.19-2.87-5.76-2.44-9.19s4.07-5.85,7.16-4.8C134.7,307.42,138.41,313.82,140.11,322.41Z"/><path class="cls-95" d="M102.79,263.92C97.14,254.51,91.12,245.3,86,235.6c-1.54-2.95,2.09-3.77,4.79-3.67l-.36-.25c1.62,2,2.85,4.76,5,5.88,6.12,3.28,10,7.53,10.47,14.86.27,4,3.81,6.58,6.75,9.19.44.38-.28,2.22-.7,3.3-.1.26-1.14.31-1.71.22-2.56-.42-5.1-.93-7.66-1.4Z"/><path class="cls-60" d="M138.59,275.68c-1.72,8.48,6.18,16,2.77,24.79-6.32,0-10.36-4.55-11.89-8.78-1.85-5.08-3.89-11.19-1.47-16.91,1.1-2.58,4.21-2.66,6.82-2.89l1.85.56s1.37,1.37,1.37,1.37S138.59,275.68,138.59,275.68Z"/><path class="cls-96" d="M298.39,243.57c-.56-6.55.61-8.72,4.12-7.11,6.38,2.91,14.26,1.52,19.61,7.07-12.39,10.68-26.12,10-40.4,4.79l1.59-2C288.15,244.39,294.08,248.45,298.39,243.57Z"/><path class="cls-45" d="M155.08,339.69c-4.52-6.77-2.76-8,7.36-8.24,3.69-.34,6,2,8.24,4.35a51.77,51.77,0,0,1,11.95,16c-2.3,2.24-5.41,2-8.2,2.65-8.71,1.59-12-4.8-15.76-10.61h0A13.38,13.38,0,0,1,155.08,339.69Z"/><path class="cls-97" d="M370.5,367.64c-.54,1.84-.5,4.4-1.73,5.37-5,4-10.34,7.56-15.69,11.07-1.57,1-3.94,1.54-5.05-.56a7.79,7.79,0,0,1-.84-5.49,15.29,15.29,0,0,1,4.16-6.2c4.86-4.27,10-8.18,15.08-12.24C369.64,361.34,367.76,365.66,370.5,367.64Z"/><path class="cls-98" d="M242.1,288.73l-11.46-.85c3-4.63,7.89-4,12.43-4.24,3.28-3.3,1.24-8.22,3.57-11.81l7.86-.06c2.59,2.26,5.2,2.83,7.89.16l4.27,4C263.29,293.31,260.86,294.58,242.1,288.73Z"/><path class="cls-22" d="M126.59,135.84c-.17-1.23-.3-2.46-.38-3.69a4.55,4.55,0,0,1-1.61-3.57c.32-2,1-4,1.46-6,.18-1.37.45-2.72.7-4.08a18.44,18.44,0,0,1,1.15-4c.37-.61.76-1.2,1.14-1.79l1.81-1.12c5.49,6.5,10.87,13.08,16.5,19.44a13.91,13.91,0,0,1,3.41,9l-15.93-.38s-1.27-1.12-1.3-1.16l-1.43-1.35s-1.78.73-1.86.73A4.72,4.72,0,0,1,126.59,135.84Z"/><path class="cls-26" d="M378.76,240.16c3.9-.65,7.78-1.44,11.7-1.85.91-.1,2.06,1,2.88,1.81a2,2,0,0,1-.14,1.88c-6.32,7-14.33,11.09-23.5,12.89-.95.19-2.39-1-3.29-1.87-3-2.94-1.05-6,0-9.06C369.36,239,374.89,242.29,378.76,240.16Z"/><path class="cls-50" d="M158.58,287.94l12,3.49a38.75,38.75,0,0,0,5.17,3c5.24,2,4.93,5.38,2.59,9.39a4.38,4.38,0,0,1-3.93,4.19l-8.06,3.67c-12.21-2.88-7.6-12.3-7.73-19.88C158.65,290.49,158.63,289.22,158.58,287.94Z"/><path class="cls-19" d="M198.81,263.34c-3.6-4.44-9.51-3.68-14-6.23-5.38-3.05-10-6.16-10-13.09a23.09,23.09,0,0,1,3.81-.25,2.45,2.45,0,0,1,3.94.17h0c2.34,2.23,5.76,1.78,8.36,3.37l.09.05c1.34,3.31,6,1.43,7.35,4.65,1.4,2,2.9,3.84,4.19,5.86C205.27,262.09,205.22,262.12,198.81,263.34Z"/><path class="cls-99" d="M242.1,288.73c2.54-.28,5.17-1.09,7.62-.74,9.66,1.39,14-4.33,16.94-12.09l4.23.2q1.91,6,3.82,12.07c0,1.29,0,2.57-.15,3.85-6.12,4.35-13.33,3.44-20.19,4.19l-5,1.4a26,26,0,0,1-5.22-.14l-1.83-1.87Z"/><path class="cls-100" d="M130.78,239.77q0,10.09-.07,20.18c-1.94,1.69-3.81,3.48-5.86,5-1.84,1.41-4.36.92-4.8-.94-2.18-9.22,1.08-17.54,5.4-25.45C125.69,238.14,128.93,239.34,130.78,239.77Z"/><path class="cls-55" d="M130.53,259.73c3.66,2,7.31,1.8,11.39,1,4.36-.88,7.12,2.64,9.52,5.83s.16,6.13-1.2,9l-11.65.13.23.21q-2.08-2.16-4.24-4.23l.24.23C133.11,267.93,130.39,264.33,130.53,259.73Z"/><path class="cls-101" d="M453.69,284.45c-7.85-3.58-11.46-8.59-12.29-15.67-.32-2.79,2.56-6.47,5.56-6.9s5.05,1.38,6.13,3.83C455.59,271.36,455.07,277.25,453.69,284.45Z"/><path class="cls-102" d="M170.68,335.8c-3.47-.07-6.67-.66-8.24-4.35-1.61-2.09-3.39-4.08-4.78-6.31-1-1.58-2.54-4.07-2-5.17,2.19-4.16,4.1.32,6.24.68,1.18.19,2.91.56,3.56,0,4.29-4,7.15-1.15,9.76,1.95,3.61,4.28-1.72,5.18-3,7.66C171.36,331.89,171.18,333.93,170.68,335.8Z"/><path class="cls-103" d="M199,175.73c-7.9,7.75-17.79,8.35-28,7.78-1.35-6.55,5.05-7.46,8-10.91C186.1,170.39,192.56,172.84,199,175.73Z"/><path class="cls-104" d="M178.6,199.85a36.5,36.5,0,0,1,2.51-5.14c3.39-4.84,5.39-5.23,8.81-1.71,4,4.1,8.64,7.89,8.23,14.5-3.58,2.16-7.07,3.45-10.4-.5C185.21,204,182.53,201.09,178.6,199.85Z"/><path class="cls-105" d="M378.76,240.16c-3.23,4.2-7.92,3.63-12.39,3.8l.23.11c-1.3-1.77-4.1-2.18-4.42-4.84-1.91-3-5.65-2.59-8.09-4.3-3.72-2.59-2.22-5.09,1.26-6.82,1.88,3.13,4.93,3.66,8.21,3.74,5.09.13,10.19.32,15.28.49C377.71,234.94,374.41,237.51,378.76,240.16Z"/><path class="cls-106" d="M320.07,369.25a20.48,20.48,0,0,1-11.84,13.13c-2.51,1.14-5.23-.4-6.92-2.66-1.44-1.93-.3-3.79,1-5.28C307.05,369.07,312.55,366.27,320.07,369.25Z"/><path class="cls-107" d="M374.63,288c-7,.15-10.84-3.74-13-10-1-2.83-.82-4.89,2.08-6.53,3.11-1.77,5.9-2.88,8.65.49s2.27,7.44,3,11.27A3.39,3.39,0,0,1,374.63,288Z"/><path class="cls-21" d="M262.81,376.54c-2.8-2.7-1.7-4.07,1.55-5,1.2-.36,5-1.34,1.55-2.81-7.42-3.19-3.94-3.95.53-5.59,1.62-.59,2.85-2.25,4.25-3.42,2.37.35,5.22-.29,6.14,3,.81,2.86,1.59,5.72,2.35,8.45C274.24,375,268.58,376,262.81,376.54Z"/><path class="cls-108" d="M158.64,291.77c1.39,3.58,8.44,5.55,6.05,8.87-3.82,5.3-.56,7.65,1.69,11-3.17-.31-6.48-.14-9.46-1-3.2-1-5.78-3.52-4.15-7.23C154.5,299.42,153.77,294.13,158.64,291.77Z"/><path class="cls-66" d="M230.15,199.72l5.52,1.63L231,207.41l-8.52.31c-2.5-2.31-5-2.47-7.61-.11-4.17-1.06-6.54-4-8.11-7.75l-.1.09C214.52,200.07,222.3,196.35,230.15,199.72Z"/><path class="cls-106" d="M246.64,271.83c2.64,7.28,2.64,7.28-3.58,11.81-.79-3.21-1.69-6.21-5.43-7.41-6.14-2-12.74-3.23-17.58-10.84C230.29,265.37,237.54,273.27,246.64,271.83Z"/><path class="cls-53" d="M130.82,155.75c-3.51-1.62-6.32-3.93-7.65-7.71,2.91-2.52-.37-11.07,8-8.24,2,8.34,11.45,9.43,15.38,15.87-3.93,3.07-7.91,2.86-11.92.15Z"/><path class="cls-109" d="M400.66,316.54c3.56,1.63,7.84,3.1,11.57,5.46,2.28,1.44,2.51,4.46.65,6.83a3.38,3.38,0,0,1-5.06.64c-3.46-2.85-6.78-5.88-9.95-9-.46-.46.1-2.11.46-3.11C398.45,317,399.4,316.94,400.66,316.54Z"/><path class="cls-25" d="M142.6,211.85c-2-5.2-8.79-9.32-3.6-16.13l8.22,4.69c-.71,4.55,1.72,8.05,3.87,11.64-.64,1.72-1,4.7-2,4.94C145.31,217.9,144.5,214,142.6,211.85Z"/><path class="cls-110" d="M270.7,344.46c-4.49-1.16-9-2.19-13.45-3.55-2.57-.79-5-2.33-3.31-5.58,1.52-2.84,4.49-2.91,7-1.78,3.58,1.63,6.9,3.83,10.33,5.79Q273.51,342.18,270.7,344.46Z"/><path class="cls-111" d="M246.8,319.22c-.09-1.06-.19-2.13-.32-3.19,4.3-.34,8.94.42,12-3.73,5.79-3.88,12.12-3.43,18.54-2.33q3.35,2.05,1.21,5.35l-7,1.12c-2.93,1.33-4.39,6.19-8.91,3.7Z"/><path class="cls-50" d="M270.62,195.82l4.15-4.08c4-2.93,7.79,3.58,11.76.17,4.88,3,4.08,7.64,3.7,12.19-4.39.84-9-.4-13.28,1.16-5.16-1.58-11.86-1.4-11.1-9.72A3.14,3.14,0,0,1,270.62,195.82Z"/><path class="cls-112" d="M198.75,247.94a36.54,36.54,0,0,1-2.67-5.3,6.21,6.21,0,0,1,.42-3.48,1.84,1.84,0,0,1,1.68-.57c6.92,3.66,13.8,7.4,21.14,11.38-7.89,4.74-13.92-2.58-20.77-2.24Z"/><path class="cls-21" d="M278.28,239.19l4.35,4.23c1.3.74,1.82,1.6,1.58,2.58s-.57,1.55-.94,1.55l-1.55.76c-7-1.25-14,0-25,1.85C265.09,242.22,272.34,242,278.28,239.19Z"/><path class="cls-112" d="M270.81,359.83c-2.55,0-5.1,0-7.66,0-5.46,0-8-3-8.66-8.1,8.43-4.49,8.51-4.49,12.58,1.25A63.36,63.36,0,0,1,270.81,359.83Z"/><path class="cls-113" d="M174.43,308l3.94-4.19L190.82,312c-.35,3.73-1.53,6.38-6.07,4.75A19.55,19.55,0,0,1,174.43,308Z"/><path class="cls-114" d="M98.42,207.15c-2.14-5.38-4.35-10.73-6.33-16.16-.37-1-.28-2.82.38-3.44,1.92-1.78,3.67-.16,4.45,1.37,3.21,6.32,6.15,12.78,9.18,19.18-2.24,2.06-4.66,1.81-7.15.54Z"/><path class="cls-115" d="M194.54,152.4c.07,2.33.13,4.67.2,7-3.82.32-7.65.94-11.47.91-5.92,0-6.39-1.16-4.38-8.52l-.2.18c2.52-2.69,5.22-2.43,8-.48Z"/><path class="cls-116" d="M374.63,288l.72-4.76c3.26,6.18,6.6,12.32,9.67,18.59a3.72,3.72,0,0,1-.92,3.37c-1.64,1.44-3.45,1-4.82-.78C375.63,299.5,374.38,293.94,374.63,288Z"/><path class="cls-117" d="M298.89,339.63a8.08,8.08,0,0,1-3.9-6.56c-.21-6,2.5-8.92,7.93-9.11,4.26-.16,7.63,2.05,11.25,3.67.48.73,1,1.46,1.45,2.19l-1.22,2.33-7.43,0-1.89.26a4.79,4.79,0,0,0-2.66,2.66A17.74,17.74,0,0,1,298.89,339.63Z"/><path class="cls-93" d="M234.81,335.77c-7.17-1-13.23,3.51-20.08,4.08q3.71-7.91,7.4-15.81l5,0C225.85,330.5,233.26,331.22,234.81,335.77Z"/><path class="cls-117" d="M326.51,339.54c-2.13,3.47-4.76,3.87-7.26.65-1.91-2.45-3.25-5.35-4.84-8l.39-.55c3.54-3.12.41-8.3,3.56-11.54,3.4,1.41,4.22,4.27,4.27,7.57C326.28,330.83,322.87,336.33,326.51,339.54Z"/><path class="cls-88" d="M351.17,408.11c-3.25-1.71-4.38-4.61-4.51-8.06a11.19,11.19,0,0,0,8.26-4.82c2.62-3.55,5.48-2.74,7.91.55C357.63,398.65,357,405.82,351.17,408.11Z"/><path class="cls-118" d="M258.6,387.79l8.19-4.35,3.84,4.47s1.51.22,1.52.21a5.12,5.12,0,0,1,2.17,2.13s.27,1.51.27,1.51c-4.13,6.14-10.53,2.76-15.88,3.79Q258.65,391.67,258.6,387.79Z"/><path class="cls-119" d="M428.62,314.55c-.62,0-1.62.14-1.78-.15-.58-1-1.43-2.38-1.15-3.3,1.06-3.5.4-8.14,5.15-9.49a3.43,3.43,0,0,1,2.91,1.69C434.94,308.27,432.81,312.62,428.62,314.55Z"/><path class="cls-120" d="M306.54,343.73c1.26,6.28.3,8.48-3.34,7.4s-7.73-1.31-9.3-5.75c4-3.15,8.6-1.13,12.9-1.46Z"/><path class="cls-92" d="M66.24,228c-3-1.68-3.88-4.47-4-7.71-.19-5.14,1.24-5.85,8.11-3.94l-.18,11.5C68.92,229.3,67.61,229.42,66.24,228Z"/><path class="cls-49" d="M218.7,175.85c3.5-8.17,6-8.59,11.72-1.85.73.85,1.35,2.59,1,3.39s-2.25,1.34-3.28,1.12c-3.22-.68-6.34-1.79-9.5-2.73Z"/><path class="cls-121" d="M461.85,234.59c-4.66-1.92-5.58-6.23-6.22-10.6-.05-.33,2.06-1.58,2.63-1.3,3.52,1.68,6.26,4.31,7,8.31.17.94-.85,2.19-1.53,3.14C463.45,234.5,462.59,234.43,461.85,234.59Z"/><path class="cls-122" d="M362.18,239.23c1.47,1.61,2.94,3.23,4.42,4.84-3.19.86-6.44,1.54-9.55,2.61-4.23,1.46-7.76,1.14-10.29-3l-.14.23C351.57,241.57,356.54,239.29,362.18,239.23Z"/><path class="cls-123" d="M446.7,252c-1.81-.59-4-.73-5.35-1.86-4.37-3.59-5.5-8-2.63-9.46,3.38-1.69,6.11.16,8.26,2.88C449.06,246.48,448.88,249.29,446.7,252Z"/><path class="cls-124" d="M406.52,294.86c3.05,1.91,4.27,4.64,3.23,8.09a4.85,4.85,0,0,1-2.19,2.91,2.93,2.93,0,0,1-4.14-2.41,28.5,28.5,0,0,1,.14-7.49C403.77,294.24,405,293.91,406.52,294.86Z"/><path class="cls-125" d="M270.62,195.82l-4,.34c-6.89,4.12-11-1.95-16-4.42l.19.18c.19-3.52,1.12-6.62,5.56-5C261.66,188.8,267.2,190.68,270.62,195.82Z"/><path class="cls-39" d="M363.33,341.76c.12-2.12,1.16-3.87,3.38-4s3.28,1.65,3.57,3.7c.35,2.6.52,5.23-1.82,7.1-.32.26-1.32-.07-1.85-.39A6.67,6.67,0,0,1,363.33,341.76Z"/><path class="cls-49" d="M351.64,297.28c4.28.59,7.42,5.5,6.43,10.32a1.86,1.86,0,0,1-2.95,1.43c-3.66-2.1-5.3-5.58-5.79-9.55C349.25,298.85,350.83,298,351.64,297.28Z"/><path class="cls-83" d="M298.89,339.63l.27-8a3.16,3.16,0,0,1,3.67-.81c1.72,1.2,2.31,3.42,4.09,4.57a14.27,14.27,0,0,1,3.08,2.13c3.42,4,3.15,4.48-3.46,6.25l.26.19C305.13,340.71,302.05,340.1,298.89,339.63Z"/><path class="cls-49" d="M434.21,213.44c-.52,1.15-1,3.21-1.54,3.25-3.76.21-5.79-2.31-6.8-5.52-.23-.73.93-2.69,1.65-2.8C431.32,207.77,433.52,209.72,434.21,213.44Z"/><path class="cls-83" d="M123.57,224.24c1.16-2.27,2.22-2.5,3.72-1.67,2.75,1.53,6.41,2.39,5.48,6.69-.13.62-2.34,1.4-3.32,1.13A7.67,7.67,0,0,1,123.57,224.24Z"/><path class="cls-126" d="M278.28,315.32c.15-1.14.28-2.27.37-3.42-2.41-2.16-4.11-4.67-4-8.08a8.81,8.81,0,0,1,8.1-3.94l-.14-.13a28,28,0,0,1,3,3.4c1.47,2.84,1.52,5.87,1.24,9A8.66,8.66,0,0,1,278.28,315.32Z"/><path class="cls-31" d="M423.31,220.88c1.6.27,3.22,1.68,4.45,3a3.8,3.8,0,0,1,.45,5.16c-.6.73-2.89,1.21-3.2.82a29.91,29.91,0,0,1-3.93-6.39C420.88,223,422.52,220.75,423.31,220.88Z"/><path class="cls-127" d="M432.54,195.11c-2.76-.48-4.26-1.52-4-3.71s1.92-2.94,3.86-3c2.74-.12,5.48,2.89,4.09,4.52C435.47,194.12,433.54,194.59,432.54,195.11Z"/><path class="cls-128" d="M441.41,300.87c-2.4-.46-2.83-2.38-2.84-4.26,0-2.44-.64-5.6,3.21-5.72,1,0,2.28,1.25,2.89,2.26,1.6,2.67.73,5.07-1.5,7A5.75,5.75,0,0,1,441.41,300.87Z"/><path class="cls-129" d="M77.87,241.11c-.07,2.48-.37,5.1-3.78,4.79A3.23,3.23,0,0,1,71.33,242,6,6,0,0,1,74.25,238C76.33,237.21,77.4,239.07,77.87,241.11Z"/><path class="cls-96" d="M286.88,312.1c-3.14-1.93-4.22-4.87-4.11-8.39,4.49-2.29,8.88-3.37,12.86,1C294.4,309.16,291.45,311.58,286.88,312.1Z"/><path class="cls-78" d="M294.55,399.7c1.78,3.21,5.25,3.48,8.14,4.84.95.45,1.42,1.91,2.11,2.9-.95.57-2,1.71-2.82,1.61-2.57-.31-5.39-.57-7.55-1.82-4-2.32-2.88-5,.41-7.3Z"/><path class="cls-130" d="M238.92,258.19c5.56-2.7,10.88-3.62,17.05-.26C249.56,261.34,244.12,259.77,238.92,258.19Z"/><path class="cls-48" d="M262.41,320.14l8.91-3.7a7.54,7.54,0,0,1-.16,1.86c-1.07,3,4.4,7.79-2,9C264.22,328.23,263.19,323.94,262.41,320.14Z"/><path class="cls-60" d="M239,231c-.6,1.82-1.31,4.18-2.21,6.47-.16.39-1.13.64-1.73.63s-1.53-.55-1.5-.72c.46-3,1-6,1.68-9,.1-.44,1-.69,1.55-1Z"/><path class="cls-48" d="M343.64,231.32c-1.26,2.43-3.26,3.72-5.91,3-.68-.19-1.51-2.12-1.26-2.94.84-2.79,3.22-3.47,5.77-2.79C342.9,228.73,343.18,230.36,343.64,231.32Z"/><path class="cls-131" d="M409.1,231.92c-.69.84-1.29,2.29-2.1,2.42a4.29,4.29,0,0,1-5.3-3.82c-.11-.65,1.25-2.08,2.11-2.24C406.59,227.75,408.64,228.81,409.1,231.92Z"/><path class="cls-132" d="M323.82,396.5c-.21.49-.29,1.19-.67,1.43-2.13,1.37-9.24-1.35-9.84-3.77-.08-.35.37-1,.74-1.28C316.48,391,323.07,393.46,323.82,396.5Z"/><path class="cls-11" d="M294.84,399.93c-.84-1-1.62-2-2.52-2.93-1.24-1.27-3.16-2.46-1.54-4.4.59-.71,2.38-.75,3.54-.57a8.18,8.18,0,0,1,3.52,1.54c1.45,1.08,3.38,2.7,1.88,4.45-1,1.18-3.4,1.16-5.17,1.68Z"/><path class="cls-133" d="M270.63,387.91c2.05-2.92,4.63-4,7.77-1.82,2,1.4,4.33,3.47,2.69,6s-4.31.25-6.5-.28l.13.15a28.89,28.89,0,0,0-4.23-4.19Z"/><path class="cls-88" d="M422.43,246.75c1.16,1.37,2.85,2.6,3.37,4.21s.41,4.3-.56,5c-1.81,1.39-3.07-.8-3.85-2.27a17.33,17.33,0,0,1-1.76-5.16C419.57,248.18,421.26,247.49,422.43,246.75Z"/><path class="cls-134" d="M446.7,252c.09-2.81.19-5.62.28-8.43,3.11.42,6.19.91,7.62,4.31-1.05.82-1.4,1.65-1.07,2.49s.67,1.27,1,1.27C452.13,256.09,449.5,256,446.7,252Z"/><path class="cls-48" d="M288.07,363.43c.89-3.11,3.22-3.71,5.89-3,.82.22,2,1.89,1.8,2.54-.84,2.74-2.91,4.23-5.81,3.27C289.11,366,288.69,364.42,288.07,363.43Z"/><path class="cls-32" d="M253.41,222.83c-.76.72-1.65,2.13-2.27,2-2.71-.48-4.37-2.47-5.47-4.89-.24-.54-.37-1.69-.19-1.78,1.07-.49,2.48-1.34,3.34-1A6.9,6.9,0,0,1,253.41,222.83Z"/><path class="cls-74" d="M325.66,353.16c.71.77,2.11,1.67,2,2.31-.48,2.71-2.39,4.47-4.9,5.53-.55.23-1.7.35-1.8.14-.52-1.07-1.39-2.5-1-3.36A7.17,7.17,0,0,1,325.66,353.16Z"/><path class="cls-135" d="M345.3,352.47c-.61-.11-1.46,0-1.8-.36-1.79-1.92-3.1-4.2-2.37-6.88a3.64,3.64,0,0,1,2.58-2.19,3.39,3.39,0,0,1,2.51,2.06C346.93,347.59,347.16,350.21,345.3,352.47Z"/><path class="cls-79" d="M386.79,333.66c.61-1.23,1.19-3.29,1.7-3.27,3,.1,4.41,2.24,4.47,5,0,1-1.06,2.8-1.83,2.91C387.67,338.79,387.17,336.15,386.79,333.66Z"/><path class="cls-56" d="M131.2,139.8q-4,4.11-8,8.24c-.51-4.53-1-9,3.42-12.2h8.14l-.1-.1a28.82,28.82,0,0,0,.2,3.83l-1.8.26Z"/><path class="cls-39" d="M278.71,267.87c3.53,7.95-.6,8.59-8.11,7.9C271,270.78,273.36,267.79,278.71,267.87Z"/><path class="cls-136" d="M346.09,316.87c.08,1.87-.38,4-2.42,3.76-1.36-.17-3-2-3.62-3.42a2.67,2.67,0,0,1,2.47-3.73C344.61,313.36,345.76,314.84,346.09,316.87Z"/><path class="cls-32" d="M315,309.48c.61-1.08,1.2-3,1.75-3,2.86.07,4.42,2,4.42,4.74,0,1-1.1,2.7-1.85,2.78C316.13,314.36,315.2,312.13,315,309.48Z"/><path class="cls-137" d="M400.59,277.16c-.08,2.2-1.12,4.18-3.22,4-3.05-.21-3.74-3.11-4.11-5.59A3.25,3.25,0,0,1,395,273C398.12,272.52,399.66,274.58,400.59,277.16Z"/><path class="cls-138" d="M318.47,291.05c2.08-2.68,4.95-3.38,8.14-3.25a39.77,39.77,0,0,1,2.74,5,5.2,5.2,0,0,1,0,3.5c-.57,1.4-1.95,1.47-3.26.49Z"/><path class="cls-54" d="M238.72,159.68l7.84,8.19c-5.36,0-10.9.32-12.05-7Z"/><path class="cls-139" d="M218.59,175.78c.92,1.64,2,3.23,2.72,4.94s.85,3.78-1.43,4.34c-.83.21-2.37-.92-3-1.84-2.2-3.05-2-5.73,1.85-7.37Z"/><path class="cls-140" d="M241.54,177.51c1.11.49,2.77.73,3.14,1.55s-.75,2.12-1.21,3.21c-1.1-.48-2.78-.71-3.14-1.53S241.08,178.61,241.54,177.51Z"/><path class="cls-41" d="M412.59,198.72c2.19-.37,3.64.84,4.53,2.52s.95,4.17-1.34,4.25c-1.4,0-3.12-2-4.2-3.53C411.19,201.4,412.22,199.82,412.59,198.72Z"/><path class="cls-93" d="M278.48,203.88c4-6.57,7.86-1.19,11.75.22-1.5,3.44-4.58,3.53-7.67,3.62l.22.17C281.44,206.46,279.08,206.11,278.48,203.88Z"/><path class="cls-141" d="M205.53,227.36c-.88.54-2,1.72-2.57,1.49-2.51-1-3.83-2.94-3-5.76.14-.46,1-1.13,1.34-1.05C204.11,222.64,205.43,224.54,205.53,227.36Z"/><path class="cls-60" d="M265.85,228.77c-.66,2.56-1.86,4.66-4.89,4.32-.42-.05-1.21-2.46-.79-3.13.94-1.53,2.53-2.66,3.86-4Z"/><path class="cls-88" d="M142.7,243.67c-.48,2.22,0,5.4-3.25,5.42-1.27,0-3-2.15-3.71-3.69s-.62-3.61-.88-5.44Z"/><path class="cls-128" d="M346.76,243.69a56.37,56.37,0,0,1-6.95,2.85c-.72.2-2.67-1.14-2.62-1.65a4.62,4.62,0,0,1,1.79-3.12c3.23-2.14,5.87-1.33,7.64,2.15Z"/><path class="cls-142" d="M400.91,258.14a5.09,5.09,0,0,1,4.85,4.94c.07.75-1.25,1.64-1.94,2.46-1.36-1.34-3-2.51-3.95-4.09C399.47,260.81,400.52,259.28,400.91,258.14Z"/><path class="cls-82" d="M214.65,299.76l-3.85-8.28,8.24.86C220.72,298.59,220.72,298.59,214.65,299.76Z"/><path class="cls-3" d="M295.63,304.69l-12.86-1c-.07-1.32-.13-2.64-.16-4l16,.32c0,1.09,0,2.18,0,3.26A9.21,9.21,0,0,1,295.63,304.69Z"/><path class="cls-49" d="M370.31,318.43c-.65-.88-1.89-1.82-1.83-2.65.16-2.17,1.86-2.85,3.6-1.78a3.39,3.39,0,0,1,1.1,3.06C373,317.75,371.32,318,370.31,318.43Z"/><path class="cls-44" d="M238.86,351.21c-3.94-.28-8.4,2.56-11.62-2,3.66-2.21,7.67-.94,11.53-1.12A22.79,22.79,0,0,0,238.86,351.21Z"/><path class="cls-119" d="M286.53,191.91c-4,6.33-7.85.92-11.76-.17C278.79,185.28,282.62,191,286.53,191.91Z"/><path class="cls-83" d="M418.63,282c-.62,1.05-1.24,2.1-1.87,3.15-.66-1-1.83-2-1.86-3.07s1.09-2.08,1.71-3.12C417.28,279.94,418,281,418.63,282Z"/><path class="cls-72" d="M221.7,224.22c-.62,1.52-1.73,1.94-2.87.78a11.35,11.35,0,0,1-1.55-3.07c1.06-.29,2.44-1.13,3.1-.74S221.29,223.16,221.7,224.22Z"/><path class="cls-143" d="M99,208.64l7.16-.54c.09,2.55.19,5.09.28,7.63A14.19,14.19,0,0,1,99,208.64Z"/><path class="cls-93" d="M340.79,374.77c.57,1.09,1.61,2.2,1.56,3.27s-1.2,2-1.86,3.07c-.56-1.09-1.6-2.21-1.55-3.28S340.12,375.79,340.79,374.77Z"/><path class="cls-118" d="M318.36,320.06c.13,4.25,1.48,8.89-3.56,11.54l-.63-4C314.85,324.71,315.16,321.58,318.36,320.06Z"/><path class="cls-87" d="M370.5,367.64c-3.37-1.66-3.77-4.83-4.07-8.05,3.37-2.24,4.07.16,4.33,2.68A32.36,32.36,0,0,1,370.5,367.64Z"/><path class="cls-26" d="M326.51,339.54c-5.08-2.74-3.41-7.67-3.88-11.91C327.38,330.47,326.84,335,326.51,339.54Z"/><path class="cls-144" d="M270.7,344.46c.19-1.7.37-3.41.57-5.12a17.52,17.52,0,0,1,3.13,2.27c1.22,1.35,3.16,3.18,1,4.78C273.63,347.74,271.85,346.22,270.7,344.46Z"/><path class="cls-67" d="M134.66,155.82l11.92-.14c.06,1.31.1,2.63.12,3.95C142.28,159.66,137.59,160.52,134.66,155.82Z"/><path class="cls-43" d="M174.86,352.16l7.77-.39c-1.58,3.38-4.62,4-7.88,4.14L173.26,354Z"/><path class="cls-26" d="M214.91,207.61c2.59-4.05,5.13-3.69,7.61.11Z"/><path class="cls-64" d="M291.62,377.17c0,.47.1,1.19-.15,1.37a2.09,2.09,0,0,1-1.68.4c-1.84-.79-1.77-1.71.17-2.27C290.43,376.54,291.07,377,291.62,377.17Z"/><path class="cls-11" d="M378.67,375.75c-.18,3.36-1,6.37-4.37,8C374.24,380.22,374.53,376.93,378.67,375.75Z"/><path class="cls-85" d="M327,288.11c1.6-3.16,4.31-4.3,7.68-4.22C332.94,286.77,330.27,288,327,288.11Z"/><path class="cls-85" d="M334.71,283.88a8.31,8.31,0,0,1,7.91-4.13C340.93,283,338.09,283.93,334.71,283.88Z"/><path class="cls-11" d="M374.39,383.56c.11,1.47.21,2.94.32,4.41a5.41,5.41,0,0,1-4.17,3.86C370.3,388.37,371,385.35,374.39,383.56Z"/><path class="cls-83" d="M191,247.31c-3.4.4-6.37-.25-8.36-3.37C186,243.53,189,244.09,191,247.31Z"/><path class="cls-145" d="M262.39,271.93c-2.72,4.32-5.34,3.85-7.89-.16Z"/><path class="cls-85" d="M334.54,268.37l8.22-.08C340.05,271.63,337.31,271.63,334.54,268.37Z"/><path class="cls-83" d="M198.39,252c-3.24-.3-6.08-1.23-7.35-4.64l7.71.57-.2-.21C198.5,249.16,198.44,250.58,198.39,252Z"/><path class="cls-85" d="M318.8,263.91q.19,1.71.45,3.42l-8.4.66c-.1-1.36-.2-2.71-.31-4.06Z"/><path class="cls-22" d="M454.55,251.67c-1.63-.48-2.24-1.44-1.54-2.7.27-.5,1-.72,1.59-1.06A18.9,18.9,0,0,1,454.55,251.67Z"/><polygon class="cls-10" points="404.73 241.16 405.08 242.23 404.07 242.08 404.73 241.16"/><path class="cls-83" d="M182.55,243.94l-2,.11-2-.28C180,241.68,181.33,241.65,182.55,243.94Z"/><path class="cls-42" d="M154.92,240.18l3.29-4.5Z"/><path class="cls-85" d="M342.58,279.78a16.31,16.31,0,0,0-.26-3.76C345.71,277.05,345.81,278.3,342.58,279.78Z"/><path class="cls-7" d="M66.24,228c1.31-.09,2.63-.14,3.94-.15l-2.9,3.55C66.94,230.25,66.59,229.11,66.24,228Z"/><path class="cls-117" d="M306.92,335.35a4.87,4.87,0,0,1-4.2-3.48q1.51-2.34,3.48-.37l.77.61A12.12,12.12,0,0,0,306.92,335.35Z"/><path class="cls-137" d="M155.08,339.69l3.59,4.12a28.36,28.36,0,0,1-3.8.17Z"/><polygon class="cls-87" points="197.49 341.82 196.43 342.19 196.55 341.21 197.49 341.82"/><path class="cls-137" d="M154.75,344c-1.61,2.14-2.91,1.88-3.93-.51Q152.79,343.74,154.75,344Z"/><path class="cls-43" d="M190.87,352.06c1.16-2.34,2.35-2.33,3.54,0C193.24,353.44,192.06,353.52,190.87,352.06Z"/><path class="cls-43" d="M206.53,347.74l-.48,4.37a17.23,17.23,0,0,1-.91-3.22C205.11,348.56,206,348.12,206.53,347.74Z"/><path class="cls-26" d="M190.87,352.06a32.33,32.33,0,0,1,3.55,0l0,0c1.07.83,1.45,1.68,1.13,2.56s-.65,1.34-1,1.34l.17-.16c-1.36,1.38-2.68,1.35-4-.08A10.61,10.61,0,0,1,190.87,352.06Z"/><path class="cls-43" d="M194.57,355.9c0-1.3-.07-2.6-.13-3.9l3.92,4.21C197.1,356.06,195.84,356,194.57,355.9Z"/><path class="cls-43" d="M174.77,359.63l-2,.13-2-.07c-1.28-3.64-.1-5,3.68-4l.25.2A27.17,27.17,0,0,0,174.77,359.63Z"/><path class="cls-43" d="M190.76,355.66a27.84,27.84,0,0,0,4,.08l-.45,4.23C193.12,358.53,191.94,357.1,190.76,355.66Z"/><path class="cls-43" d="M214.59,363.73c1.5-2.15,2.75-2.12,3.73.41C217.07,364,215.83,363.84,214.59,363.73Z"/><path class="cls-43" d="M206.6,367.89l-3.48-4.28Z"/><path class="cls-43" d="M210.41,376.08l-3.13-4.49Q208.86,373.83,210.41,376.08Z"/><path class="cls-43" d="M195,363.48l3.34,4.49Z"/><path class="cls-137" d="M174.5,355.71q-1.84,2-3.68,4l-8-3.82-4.14-.05-2,.06-2-.1,4-12c5.71,2.17,9.14,8.75,16.19,8.35C174.72,353.34,174.6,354.52,174.5,355.71Z"/><path class="cls-33" d="M130.51,335.92l1.53.6-1.31-.83Z"/><path class="cls-146" d="M94.52,295.73c.55.31,1.62.7,1.59.9-.23,1.28-.85.95-1.55-.94Z"/><path class="cls-89" d="M239.21,376.15l3.78,3.69q1.72,2.12,3.6,4.09l0,0a8.74,8.74,0,0,1,3.81,4.41c2.49,6.37,2.49,6.37-3.83,8.11a6,6,0,0,0-3.37-1c-2.6-1.76-6-1.24-8.59-3l-11.53-4.75c1.67-6,6.44-8.87,11.44-11.55l0-.1A3.62,3.62,0,0,0,239.21,376.15Z"/><path class="cls-43" d="M234.58,392.38a9.11,9.11,0,0,1,8.59,3C239.77,395.92,236.8,395.22,234.58,392.38Z"/><path class="cls-44" d="M222.89,371.7c5.75-5,5.8-5,11.89.07Z"/><path class="cls-147" d="M250.81,383.7c-.06-2.62-.11-5.25-.17-7.87l0,0c5.4,2.22,7.75,6.47,8,12.08Z"/><path class="cls-43" d="M250.37,388.3l-3.81-4.41,4.09-.07C250.56,385.32,250.46,386.81,250.37,388.3Z"/><path class="cls-148" d="M526.38,212.43l-4.14,6.82c-1,0-2.09.07-3.13.07-1.81-.74-3-2.28-4.51-3.43h0c-1.38-1.06-1.74-1.93-1.09-2.62a2.42,2.42,0,0,1,1.74-.88Z"/><path class="cls-49" d="M515.21,212.4a34.24,34.24,0,0,0-.65,3.5,35.1,35.1,0,0,1-5.64-.34c-1-.22-1.81-1.35-2.7-2.06,1.11-.5,2.2-1.32,3.34-1.41A38.45,38.45,0,0,1,515.21,212.4Z"/><path class="cls-49" d="M514.6,215.89l4.51,3.43A5.37,5.37,0,0,1,514.6,215.89Z"/><path class="cls-149" d="M186.82,143.55c2.62.06,5.33-4.06,7.87.15-1.72,3.25-4.72,4-8,4.12Z"/><path class="cls-149" d="M186.71,151.5l-8,.48c0-1.36-.09-2.72-.14-4.08l8.1-.08C186.64,149.05,186.66,150.28,186.71,151.5Z"/><path class="cls-7" d="M66.46,183.65l-3.81-3.85A4.63,4.63,0,0,1,66.46,183.65Z"/><path class="cls-7" d="M66.53,175.86a11.81,11.81,0,0,0,.4-3.4c1.63.41,2.12,1.3,1.23,2.51C67.82,175.42,67.08,175.57,66.53,175.86Z"/><path class="cls-150" d="M150.68,79.79c.45,4.43.9,8.86,1.35,13.33-2.34,4.37-6.64,2.58-10.13,3-9.87,1.34-9.9,1.23-11.06,11.57a32.82,32.82,0,0,0,0,3.84l-.71.81c-11.47,0-13.43-9-16.17-17.22.11-4.83-3-6.73-7-8-.92-.29-2.19-2-2-2.8.59-2.41,2.66-1.76,4.47-1.47,5.32.85,9.54,4,14.07,6.55,3.71,2.11,6-.11,7.5-3.53,2.05-4.56-.92-5.55-4.3-6.33a3.1,3.1,0,0,1-.88-3.17c.35-1,.69-1.54,1-1.54C135.22,74.43,142.65,78.55,150.68,79.79Z"/><path class="cls-151" d="M50.71,72.06c5.24-6.2,5.24-6.2.14-11.92,2.86-4.65,7.73-6.88,12.11-9.5,7-4.15,11.38-2.92,16.53,4.08,2.08,2.82,3.08,6.38-1.11,7.87-5.13,1.81-9.54,4-11.78,9.23a14,14,0,0,1-4.88,3.3C57.46,76.23,53.91,74.76,50.71,72.06Z"/><path class="cls-152" d="M46.51,88c3.63-2,4.22-5.48,4.45-9.14,11.3.62,20.17,10.39,32.15,8.48a13.15,13.15,0,0,1,7.17,4.79L77.82,111.42c-1.08-1.22-2.15-2.45-3.22-3.67,1.05-3.87,2.89-8-4.14-7.74-3.95.13-7.92-.47-11.88-.74-1.62-2.58-4.08-3.43-7-3.4Q49.07,91.92,46.51,88Z"/><path class="cls-88" d="M130.39,123.47l-3.45,4.39c-4,1.47-9.27-.69-12.31,3.93l.06.12c-2.61,1.36-5,.77-7.36-.74a11.22,11.22,0,0,1-3-4.3,7.27,7.27,0,0,1,2.17-7.18v0c2.7-2.55,2.41-5.27.47-8.09-2.23-3.25-4.59-6.42-6.6-9.81-.5-.85.17-2.39.31-3.61,1.25.31,2.69.32,3.7,1,2.23,1.49,4.23,3.5,6.74.52,10,.89,10.31,13.76,19.43,15.74-.07,1.59-.15,3.18-.23,4.78-.91.73-1.21,1.46-.89,2.17S130.08,123.47,130.39,123.47Z"/><path class="cls-88" d="M126.84,74.87c0,1.57-.09,3.14-.14,4.71-8.36-.82-15-3.31-17.16-13-1.31-6-10.13-5.91-12.09-12.9,5.37-3.58,11.15-1.54,16.69-1.44,2.13,3.62,1,8.45,4.28,11.64Z"/><path class="cls-153" d="M119.1,168.42c-6.31-3.89-6.54-12.19-12.06-16.66l-4.57-11.82c-2.82-3.37-3.46-7-1.1-10.86a4.64,4.64,0,0,1,5.25-1.09l-.14-.19c4,3,1.61,8.34,4.39,11.78,5.8,6.17,3.52,16.75,12.43,21.6C127,163.22,126.17,164.78,119.1,168.42Z"/><path class="cls-140" d="M102.59,127.76l-.12,12.18L95,140c-2.68-4.66-7.89-5.45-12-7.88q3.73-8.06,7.49-16.11c2.11-1.94,4.11-1.27,6.07.26,1.17,1,2.3,2,3.41,3a13.41,13.41,0,0,1,2.57,6.19C102.53,126.26,102.56,127,102.59,127.76Z"/><path class="cls-154" d="M83,132.15c2.22-1.12,4.91-1.78,6.59-3.45,4.19-4.17,5-.21,6.57,2.29,2,3.29-1.08,6-1.14,9-2.69,4.1-6,4.34-8.76.54C84.5,138.21,84,135,83,132.15Z"/><path class="cls-155" d="M61.51,72.58l5.09-.76c5.24,5.5,11.74,8,19.26,8.08,3.28,0,6.56.18,8.42,3.59-4.45,4.13-10,4.26-15.56,4.2C69.55,86.56,59.91,86,61.51,72.58Z"/><path class="cls-4" d="M130.57,115.45c-5.72.57-9.49-2.69-12.75-6.72-2.35-2.91-4.46-6-6.68-9q1.42-2.26,2.84-4.54c4,1.93,6.69,5.11,9,8.92,1.87,3.08,4.74,5.55,7.16,8.3A29.2,29.2,0,0,1,130.57,115.45Z"/><path class="cls-156" d="M78.31,84.59l16-1.1q-2,4.31-4,8.6l-8.17-.92C79.5,89.76,77.51,88,78.31,84.59Z"/><path class="cls-88" d="M98.66,119.83,90.44,116c-1.78-1.79-3.89-4-1.61-6.24s4.71-.3,6.56,1.46A45,45,0,0,1,99,115.62c1.09,1,1.41,2,.94,2.9S99.07,119.83,98.66,119.83Z"/><path class="cls-36" d="M118.42,63.92c-5.59-2.35-6.91-6.27-4.27-11.64C119.59,54.68,118.43,59.52,118.42,63.92Z"/><path class="cls-157" d="M71.19,135.57c-.81,1.6-1.61,3.21-2.42,4.82-.55-.89-1.49-1.74-1.56-2.67a5.8,5.8,0,0,1,3.51-6C70.83,133,71,134.28,71.19,135.57Z"/><path class="cls-140" d="M106.62,128l-4-.23.14.18c-1.88-2-2.06-4.4-1.65-6.94l1.92-1.59c1.17.13,2.34.23,3.52.29C106.55,122.46,106.59,125.23,106.62,128Z"/><path class="cls-140" d="M107,111.62c3.57,2.92,4,5.64-.46,8.09C106.68,117,106.84,114.32,107,111.62Z"/><path class="cls-140" d="M98.66,119.83c.11-1.4.22-2.8.34-4.21l4,3.79-.64.7q-2.14,2.4-3.79-.37Z"/><path class="cls-11" d="M174.47,107.7c1.16,2.33,3.19,4.62,3.32,7,.44,8.16-5.38,12.34-12.12,8.78-6.18-3.26-13.47-5.42-16.13-13.08,7.9-7.41,16.55-5.16,25.24-2.45Z"/><path class="cls-58" d="M78.31,84.59c1.27,2.2,2.54,4.39,3.8,6.59C68.74,94.63,59,88.86,51,78.84c-.08-2.27-.17-4.52-.25-6.78l10.81.51C64.37,80.41,71.28,82.58,78.31,84.59Z"/><path class="cls-158" d="M482.66,203.73a13.27,13.27,0,0,1-2.31,2.66c-1.32.91-2.4.36-2.61-1.19,0-.24.9-.79,1.45-.91a35,35,0,0,1,3.56-.44Z"/><path class="cls-159" d="M274.65,303.82c3.23,1.76,3.83,4.81,4,8.08l-20.12.4a28.92,28.92,0,0,0-3.57-1.1l0-2.65C261.79,308,268.52,307.16,274.65,303.82Z"/><path class="cls-52" d="M242.65,300.17c-.29,2.68-.82,5.54-3.56,6.49a6.83,6.83,0,0,1-5.4-.76c-1.75-1.23-1.45-3.64.26-4.95,2.61-2,5.54-3.58,8.33-5.35l.78.55c1.17,1,1.49,2,1,2.81S243.1,300.17,242.65,300.17Z"/><path class="cls-65" d="M250.78,295.69c2.72-3.27,6.41-3.89,10.36-3.83,4.47.07,8.95.11,13.42.16l-.11-.15q1.65,1.29,1,2.49c-.4.78-.79,1.17-1.18,1.17-1.15.33-2.3.64-3.45,1C264.08,298.1,257.33,299.3,250.78,295.69Z"/><path class="cls-99" d="M250.78,295.69l20.06.79c-6.29,5.7-13.68,2.63-20.69,2.59-.94-.9-1.17-1.69-.7-2.36s.84-.92,1.24-.92Z"/><path class="cls-48" d="M255,308.55a12.37,12.37,0,0,0,0,2.65c-2,.29-5.06.52-5-1.41S253,308.18,255,308.55Z"/><path class="cls-160" d="M250.69,295.79c-.14,1.1-.32,2.2-.53,3.29l-7.51,1.09c.13-1.34.27-2.68.41-4Z"/><path class="cls-99" d="M274.29,295.53a15.45,15.45,0,0,0,.17-3.66l4.35.13Z"/><path class="cls-161" d="M186.77,283.27c4.3,2.46,9,4.33,12.06,8.57-6.86-.32-14.3,2.24-20-4Z"/><path class="cls-149" d="M202.94,295.06l3.84,4.76a15.85,15.85,0,0,1-3.66,1.38c-8.41,1-12.66-.2-10.94-2.8C194.8,294.44,199.28,296,202.94,295.06Z"/><path class="cls-43" d="M227.64,357.43c-.17.42-.32,1.2-.49,1.21a4.68,4.68,0,0,1-1.53-.45c.16-.43.31-1.21.49-1.22A4.78,4.78,0,0,1,227.64,357.43Z"/><path class="cls-3" d="M283.27,247.55c-.21-1.37-.43-2.75-.64-4.13l15.76.15c1.21.43,2.77.54,3.54,1.38.94,1,.24,2.36-1.18,2.4C294.93,247.5,289.1,247.5,283.27,247.55Z"/><path class="cls-162" d="M278.48,203.88l4.3,4c-5.83.36-11.78,1.59-17.46.83-6.42-.85-4.26-10.9-11.31-12.4-1.42-.3-2.33-3-3.47-4.58l16,4.42Z"/><path class="cls-33" d="M322.75,215.76c-.52-.23-1.48-.49-1.47-.67.1-1.11.64-.83,1.31.83Z"/><path class="cls-121" d="M250.64,375.83a13.91,13.91,0,0,1-2.73-2.49c-.89-1.4-.27-2.56,1.35-2.78.28,0,.9.92,1,1.49a36.27,36.27,0,0,1,.38,3.76Z"/><path class="cls-43" d="M239.21,376.15c-1.68,2.51-3.27,3-4.74-.17Z"/><path class="cls-43" d="M246.59,383.93l-3.6-4.1Z"/><path class="cls-99" d="M282.6,287.66,287,284.1Z"/><path class="cls-83" d="M158.57,264l-3.6-4.25Z"/><path class="cls-143" d="M95.44,216.25a12.13,12.13,0,0,1,.91,2.38c.05.27-.64.68-1,1A8,8,0,0,1,95.44,216.25Z"/><path class="cls-33" d="M86.67,207.86l4.13,4Z"/><path class="cls-56" d="M114.63,131.79q1.34-2.56,2.65-5.13c1.71-3.31,3.56-5.31,6.62-1.12a13.66,13.66,0,0,0,3,2.32c-.23,1.43-.48,2.86-.72,4.29Z"/><path class="cls-140" d="M110.87,139.58c-5.11-2.57-4.4-7.31-4.39-11.78l8.21,4.11C113.42,134.47,112.14,137,110.87,139.58Z"/><path class="cls-163" d="M134.58,271.66l4.24,4.23Z"/><path class="cls-164" d="M134.73,135.85c.18-1.32.27-2.66.57-3.95.4-1.75,1.52-2.23,3-1.34a4.14,4.14,0,0,1,1.39,1.4c.91,1.49.5,2.71-1.17,3.2a28.42,28.42,0,0,1-3.93.59Z"/><path class="cls-56" d="M130.39,123.47a20.14,20.14,0,0,1-1.36-2.39,9.67,9.67,0,0,1,1.31-.86C130.41,121.31,130.42,122.39,130.39,123.47Z"/><path class="cls-87" d="M306.2,331.5a27,27,0,0,1-3.48.37l-3.57-.27C301.44,327.23,303.8,327.4,306.2,331.5Z"/><path class="cls-33" d="M270.49,387.72l4.23,4.19Z"/><path class="cls-55" d="M98.57,119.74c1.27.07,2.54.19,3.79.37q.18,3.92.37,7.82C99.39,126.2,98.78,123.07,98.57,119.74Z"/></svg>